<?xml version="1.0" encoding="utf-8"?>
<!-- Generator: Adobe Illustrator 26.0.1, SVG Export Plug-In . SVG Version: 6.00 Build 0)  -->
<svg version="1.1" id="Capa_1" xmlns="http://www.w3.org/2000/svg" xmlns:xlink="http://www.w3.org/1999/xlink" x="0px" y="0px"
	 viewBox="0 0 1080 1080" style="enable-background:new 0 0 1080 1080;" xml:space="preserve">
<style type="text/css">
	.st0{fill:#FFF;}
</style>
<g>
	<g>
		<path class="st0" d="M420.2,60.3C555.2,102.6,702.8,212.5,783,329.1c19,28.2,37.6,57.1,62.6,80.5c24.9,23.4,57,41,91.8,39.3
			c48.3-1.5,89.6-42.6,101.1-89.5s-4.9-97.5-34.2-136.5c-28.6-38.7-69.1-67.6-111.6-90.7C786.5,72.8,665.4,41.4,543.3,40.5
			C508.5,40.6,447.4,38.6,420.2,60.3"/>
		<g>
			<path class="st0" d="M415.9,69.7c100.5,31.9,192.4,91,268.8,162.7c38.3,35.5,71,75.3,100.7,118.2
				c31.7,46.9,69.6,96.6,128.9,107.6c48.7,9.2,95.2-18.1,119.5-60c25.5-42.9,21.9-96.7,2.4-140.3c-22.9-51.2-65.4-89.4-112.4-119
				c-50.5-32-106-56.4-162.8-74.5c-57.1-17.6-116.1-29.2-175.7-32.8c-25-1.5-50.6-1.8-75.9-1.1c-22.8,0.3-46.2,1.8-68.1,8.4
				C431.5,42,422.1,46,414,52.2c-10.5,8.1,1.6,24.9,12,16.8c16.2-12.3,37.9-15.3,57.6-17c20.6-2,41.5-1.6,62.5-1.1
				c56.7,0,113.7,7.7,168.5,21.9c55.1,13.6,108.6,34.1,158.6,60.5c48.1,25.6,96.2,56.4,126.9,102.1c25.8,38.2,40.7,88.8,24.2,133.5
				c-14.2,39.7-53,73.5-97.5,70c-57.5-4.9-95.5-56.2-125.3-100.6c-27.7-40.6-58.8-78.8-94-112.9C636.2,155.9,549.8,97.9,456.6,61.6
				c-10.9-4.2-21.6-7.5-32.8-11.1C412,46.7,403.4,65.5,415.9,69.7L415.9,69.7z"/>
		</g>
	</g>
</g>
<g>
</g>
<g>
</g>
<g>
</g>
<g>
</g>
<g>
</g>
<g>
</g>
<g>
</g>
<g>
</g>
<g>
</g>
<g>
</g>
<g>
</g>
</svg>
