<?xml version="1.0" encoding="utf-8"?>
<!-- Generator: Adobe Illustrator 26.0.1, SVG Export Plug-In . SVG Version: 6.00 Build 0)  -->
<svg version="1.1" xmlns="http://www.w3.org/2000/svg" xmlns:xlink="http://www.w3.org/1999/xlink" x="0px" y="0px"
	 viewBox="0 0 1080 250" style="enable-background:new 0 0 1080 250;" xml:space="preserve">
<style type="text/css">
	.st0{fill:#FF00FF;}
	.st1{fill:#FF00F2;}
	.st2{fill:#FFFFFF;}
</style>
<g id="Capa_2">
	<g>
		<g>
			<path class="st0" d="M460.5,60.5c20.4-2.5,46.5,3.2,64.1,13.8c4.2,2.6,8.4,5.3,13.1,6.9c4.7,1.6,10,2,14.5-0.3
				c6.3-3.1,9.3-11,8-17.9s-6.5-12.6-12.7-16c-6.1-3.4-13.2-4.8-20.2-5.3c-17.6-1.5-35.5,1.6-51.7,8.8C471,52.6,462.8,56,460.5,60.5
				"/>
			<g>
				<path class="st0" d="M460.5,62c15.2-1.8,30.9,0.5,45.3,5.4c7.2,2.4,13.9,5.7,20.4,9.6c7,4.3,15,8.6,23.5,6.5
					c7-1.7,11.5-8.1,12.2-15.1c0.8-7.2-2.9-14.1-8.1-18.7c-6.1-5.4-14-7.9-22-9c-8.6-1.2-17.4-1.1-26-0.1
					c-8.6,1.1-17.1,3.1-25.2,6.2c-3.4,1.3-6.8,2.8-10.1,4.4c-3,1.4-6,3-8.5,5.2c-1.1,1-2.1,2.1-2.8,3.4c-0.9,1.7,1.7,3.2,2.6,1.5
					c1.4-2.6,4.1-4.3,6.6-5.7c2.6-1.5,5.4-2.7,8.2-3.9c7.5-3.4,15.5-5.8,23.6-7.2c8.1-1.5,16.4-2,24.6-1.5
					c7.9,0.5,16.1,1.7,22.9,5.9c5.7,3.5,10.7,9.3,11.2,16.2c0.5,6.1-2.6,12.9-8.7,15.1c-7.9,2.8-16-1.7-22.6-5.8
					c-6.1-3.7-12.5-6.9-19.2-9.3c-13.6-4.9-28.5-7.4-43-6.6c-1.7,0.1-3.3,0.3-5,0.5C458.6,59.2,458.6,62.2,460.5,62L460.5,62z"/>
			</g>
		</g>
	</g>
	<g>
		<g>
			<path class="st0" d="M515.3,34.9c10.2-2.2,20.8-1.4,30.5,2.2c1.8,0.7,2.6-2.2,0.8-2.9c-10.3-3.7-21.4-4.5-32.1-2.2
				C512.6,32.4,513.4,35.3,515.3,34.9L515.3,34.9z"/>
		</g>
	</g>
	<g>
		<path class="st0" d="M844.5,87.5c4.6-6.2,10-12.3,16.4-16.6c12.8-8.8,29.5-9.2,45-7.5c6.9,0.7,15.2,1.3,19.5-4.2
			c3.6-4.6,2.2-11.9-1.9-16.1s-10.1-6-16-6.7c-17.5-2-35.9,4.9-47.3,18.3c-8.2,9.6-12.5,21.9-16,34"/>
		<g>
			<path class="st0" d="M845.8,88.3c4.7-6.4,10.2-12.5,16.9-16.8c6.2-4,13.5-6.1,20.8-6.9c7.5-0.9,15.1-0.5,22.6,0.3
				c6.1,0.7,13.4,1.3,18.6-2.8c5.3-4.3,5.3-12,1.9-17.4c-3.9-6.2-11.4-8.7-18.3-9.6c-13.9-1.8-28.6,2-40,10.2
				c-6,4.3-10.9,9.8-14.7,16.1c-4,6.7-6.9,14-9.2,21.4c-0.6,1.8-1.1,3.7-1.7,5.5c-0.5,1.9,2.4,2.7,2.9,0.8
				c4-13.9,9.2-28.2,20.3-38.1c10-9,23.6-13.7,36.9-13.4c6.6,0.2,14.2,1.4,19.1,6.1c4.3,4.1,5.9,12,0.7,16.1c-4.8,3.7-12,2.5-17.6,2
				c-7.2-0.7-14.5-1-21.7-0.2c-7,0.8-13.8,2.6-20,6c-6.6,3.6-12.1,9-16.8,14.8c-1.2,1.4-2.3,2.9-3.4,4.4
				C842.1,88.3,844.7,89.8,845.8,88.3L845.8,88.3z"/>
		</g>
	</g>
	<g>
		<g>
			<path class="st0" d="M845.6,70.3c2.2-5.1,5-10.1,8.1-14.7c0.5-0.7,0.1-1.7-0.5-2.1c-0.7-0.4-1.6-0.1-2.1,0.5
				c-3.2,4.6-5.9,9.5-8.1,14.7c-0.3,0.7-0.2,1.6,0.5,2.1C844.2,71.2,845.3,71,845.6,70.3L845.6,70.3z"/>
		</g>
	</g>
	<g>
		<path class="st0" d="M232.5,196.5c4.1,4.1,8,6.8,12.5,10.5c10.9,8.8,24.5,14.1,38.3,16.6s28,2.7,42,2c7.1-0.3,14.3-0.9,21-3.4
			c6.7-2.5,12.8-7.2,15.5-13.8c2.7-6.6,1-15.1-4.8-19.2c-6.8-4.7-16.2-2.2-23.8,1.2c-6.2,2.7-12.3,5.9-18.6,8.5
			c-26.5,10.6-57.4,9.5-83-3"/>
		<g>
			<path class="st0" d="M231.4,197.6c3.7,3.6,7.8,6.7,11.8,9.9c3.8,3,7.7,5.8,12,8.1c8.6,4.7,18.1,7.7,27.7,9.5
				c11,2.1,22.3,2.6,33.5,2.4c5.5-0.1,11-0.3,16.4-0.8c5.2-0.5,10.4-1.4,15.2-3.4c7.7-3.2,15-9.6,16.3-18.2
				c1.3-8.2-2.8-16.9-11.2-19.2c-9.4-2.6-19.2,2.6-27.5,6.5c-4.8,2.3-9.6,4.5-14.5,6.3c-4.7,1.7-9.5,3-14.3,4
				c-19.2,3.9-39.5,2.1-57.7-5.1c-2.3-0.9-4.5-1.9-6.6-2.9c-1.7-0.8-3.3,1.7-1.5,2.6c17,8.2,36.1,11.7,54.9,10
				c9.5-0.8,18.8-2.9,27.7-6.3c4.8-1.8,9.4-4.1,14.1-6.2c4.3-2.1,8.7-4.2,13.4-5.5c4.1-1.1,8.7-1.7,12.8-0.1
				c3.7,1.5,6.2,4.7,7.3,8.4c2.3,8.2-2.5,15.8-9.2,20.2c-8.4,5.4-18.7,5.9-28.4,6.4c-10.7,0.4-21.5,0.4-32.2-0.9
				c-9.7-1.2-19.4-3.5-28.3-7.4c-4.3-1.9-8.4-4.1-12.3-6.7c-4-2.7-7.8-5.8-11.6-8.9c-1.9-1.5-3.7-3.2-5.4-4.9
				C232.2,194.1,230.1,196.2,231.4,197.6L231.4,197.6z"/>
		</g>
	</g>
	<g>
		<g>
			<path class="st0" d="M300.1,195.5c-13.2,3.1-27,3.6-40.4,1.4c-1.9-0.3-2.7,2.6-0.8,2.9c13.9,2.3,28.2,1.9,42-1.4
				C302.8,198,302,195.1,300.1,195.5L300.1,195.5z"/>
		</g>
	</g>
	<g>
		<g>
			<path class="st0" d="M254.4,198.6c1.9,0,1.9-3,0-3C252.4,195.6,252.4,198.6,254.4,198.6L254.4,198.6z"/>
		</g>
	</g>
</g>
<g id="Capa_1">
	<g>
		<g>
			<path class="st1" d="M93.3,167.2c-1.1-3.4-2.3-6.9-3.5-10.5c-1.3-3.6-2.5-7.2-3.7-10.7H47.8c-1.2,3.6-2.5,7.1-3.7,10.7
				c-1.2,3.6-2.4,7.1-3.5,10.4H17.7c3.7-10.5,7.2-20.3,10.5-29.2c3.3-8.9,6.5-17.4,9.7-25.3c3.2-7.9,6.3-15.4,9.3-22.5
				c3.1-7.1,6.3-14,9.6-20.8h20.9c3.2,6.8,6.4,13.7,9.5,20.8c3.1,7.1,6.3,14.6,9.4,22.5c3.2,7.9,6.4,16.3,9.7,25.3
				c3.3,8.9,6.8,18.7,10.5,29.2H93.3z M66.8,91.5c-0.5,1.4-1.2,3.4-2.2,5.8c-0.9,2.4-2,5.3-3.2,8.5c-1.2,3.2-2.6,6.7-4.1,10.6
				c-1.5,3.9-3,7.9-4.6,12.1h28c-1.5-4.2-2.9-8.3-4.4-12.2s-2.7-7.4-4-10.6c-1.3-3.2-2.4-6-3.3-8.5C68.2,94.8,67.4,92.9,66.8,91.5z"
				/>
			<path class="st1" d="M190.6,157.8c0,12.1-3.1,21.2-9.2,27c-6.2,5.9-15.7,8.8-28.6,8.8c-4.5,0-9-0.4-13.6-1.2
				c-4.5-0.8-8.7-1.9-12.6-3.2l3.7-17.6c3.3,1.3,6.8,2.4,10.4,3.1c3.6,0.8,7.7,1.1,12.4,1.1c6,0,10.3-1.3,12.8-4
				c2.5-2.6,3.7-6,3.7-10.2v-2.7c-2.3,1-4.6,1.8-7,2.3c-2.4,0.5-5,0.8-7.8,0.8c-10.3,0-18.1-3-23.6-9.1c-5.5-6.1-8.2-14.6-8.2-25.5
				c0-5.5,0.8-10.4,2.5-14.9c1.7-4.5,4.2-8.3,7.4-11.5c3.2-3.2,7.2-5.7,11.9-7.4c4.7-1.7,10-2.6,16-2.6c2.5,0,5.2,0.1,7.8,0.4
				c2.7,0.2,5.3,0.5,8,0.9c2.6,0.4,5.2,0.8,7.6,1.3c2.4,0.5,4.5,1.1,6.4,1.6V157.8z M144.4,127.6c0,11.8,4.8,17.6,14.3,17.6
				c2.2,0,4.2-0.3,6.1-0.8c1.9-0.6,3.5-1.2,4.8-2v-33.6c-1-0.2-2.3-0.4-3.7-0.5c-1.4-0.1-3.1-0.2-4.9-0.2c-5.6,0-9.7,1.8-12.4,5.5
				C145.8,117.3,144.4,122,144.4,127.6z"/>
			<path class="st1" d="M273.7,164.6c-3.6,1-8.2,2-13.8,2.9c-5.6,0.9-11.6,1.3-17.8,1.3c-6.3,0-11.6-0.8-15.7-2.5
				c-4.2-1.7-7.5-4.1-10-7.1c-2.4-3.1-4.2-6.7-5.2-10.9c-1-4.2-1.6-8.9-1.6-14V92.9h21v38.8c0,6.8,0.9,11.7,2.7,14.7
				c1.8,3,5.1,4.5,10,4.5c1.5,0,3.1-0.1,4.8-0.2c1.7-0.1,3.2-0.3,4.5-0.5V92.9h21V164.6z"/>
			<path class="st1" d="M314.8,152c3.9,0,6.6-0.4,8.2-1.1c1.6-0.8,2.4-2.2,2.4-4.4c0-1.7-1-3.2-3.1-4.4c-2.1-1.3-5.2-2.7-9.5-4.3
				c-3.3-1.2-6.3-2.5-9-3.8c-2.7-1.3-5-2.9-6.8-4.7c-1.9-1.8-3.3-4-4.4-6.6c-1-2.5-1.6-5.6-1.6-9.2c0-7,2.6-12.5,7.8-16.5
				c5.2-4,12.3-6.1,21.3-6.1c4.5,0,8.8,0.4,13,1.2c4.1,0.8,7.4,1.7,9.9,2.6l-3.7,16.4c-2.4-0.8-5.1-1.6-8-2.3c-2.9-0.7-6.1-1-9.7-1
				c-6.6,0-9.9,1.8-9.9,5.5c0,0.8,0.1,1.6,0.4,2.3c0.3,0.7,0.8,1.3,1.7,1.9c0.8,0.6,2,1.3,3.5,2c1.5,0.7,3.3,1.5,5.6,2.3
				c4.6,1.7,8.4,3.4,11.4,5.1c3,1.7,5.4,3.5,7.1,5.4c1.7,1.9,3,4.1,3.7,6.4c0.7,2.3,1.1,5.1,1.1,8.2c0,7.3-2.8,12.9-8.3,16.6
				c-5.5,3.8-13.3,5.6-23.4,5.6c-6.6,0-12.1-0.6-16.4-1.7c-4.4-1.1-7.4-2.1-9.1-2.8l3.5-17.1c3.6,1.4,7.2,2.5,11,3.3
				C307.4,151.6,311.1,152,314.8,152z"/>
			<path class="st1" d="M361.3,74.4l21-3.4v21.9h25.3v17.5h-25.3v26.1c0,4.4,0.8,8,2.3,10.6c1.6,2.6,4.7,4,9.4,4
				c2.3,0,4.6-0.2,7-0.6c2.4-0.4,4.6-1,6.6-1.8l3,16.4c-2.5,1-5.4,1.9-8.5,2.7c-3.1,0.8-6.9,1.1-11.4,1.1c-5.7,0-10.5-0.8-14.3-2.3
				c-3.8-1.6-6.8-3.7-9-6.5c-2.3-2.8-3.8-6.1-4.7-10.1c-0.9-4-1.3-8.3-1.3-13.1V74.4z"/>
			<path class="st1" d="M447.7,71.4c0,3.9-1.2,6.9-3.7,9.1c-2.5,2.2-5.4,3.3-8.8,3.3s-6.3-1.1-8.8-3.3c-2.5-2.2-3.7-5.2-3.7-9.1
				c0-3.9,1.2-6.9,3.7-9.1c2.5-2.2,5.4-3.3,8.8-3.3s6.3,1.1,8.8,3.3C446.4,64.5,447.7,67.6,447.7,71.4z M445.7,167.2h-21V92.9h21
				V167.2z"/>
			<path class="st1" d="M465.5,95.4c3.6-1,8.2-2,13.8-2.9c5.6-0.9,11.6-1.3,17.8-1.3c6.3,0,11.6,0.8,15.7,2.5c4.2,1.6,7.5,4,10,7
				c2.4,3,4.2,6.6,5.2,10.7c1,4.1,1.6,8.8,1.6,13.8v41.9h-21v-39.4c0-6.8-0.9-11.6-2.7-14.4c-1.8-2.8-5.1-4.2-10-4.2
				c-1.5,0-3.1,0.1-4.8,0.2s-3.2,0.3-4.5,0.5v57.3h-21V95.4z"/>
			<path class="st1" d="M609.9,69.3c1.7,3.1,3.7,6.9,5.9,11.5c2.2,4.6,4.5,9.5,6.9,14.8c2.4,5.3,4.8,10.8,7.2,16.3
				c2.4,5.6,4.6,10.8,6.7,15.7c2.1-4.9,4.3-10.1,6.7-15.7c2.4-5.6,4.7-11,7.1-16.3c2.4-5.3,4.7-10.3,6.9-14.8
				c2.2-4.6,4.2-8.4,5.9-11.5h20c0.9,6.5,1.8,13.8,2.6,21.8c0.8,8,1.5,16.4,2.1,25.1c0.6,8.7,1.2,17.4,1.7,26.2
				c0.5,8.8,1,17,1.3,24.7h-21.5c-0.3-9.5-0.7-19.9-1.1-31.1c-0.5-11.2-1.2-22.5-2.1-33.9c-1.7,4-3.6,8.3-5.7,13.1
				c-2.1,4.8-4.1,9.6-6.2,14.4c-2,4.8-4,9.4-5.9,13.8s-3.5,8.1-4.8,11.2h-15.4c-1.3-3.1-2.9-6.8-4.8-11.2s-3.8-9-5.9-13.8
				c-2-4.8-4.1-9.6-6.2-14.4c-2.1-4.8-4-9.2-5.7-13.1c-0.9,11.4-1.6,22.7-2.1,33.9c-0.5,11.2-0.8,21.6-1.1,31.1h-21.5
				c0.4-7.7,0.8-16,1.3-24.7c0.5-8.8,1.1-17.5,1.7-26.2c0.6-8.7,1.3-17.1,2.1-25.1c0.8-8,1.7-15.3,2.6-21.8H609.9z"/>
			<path class="st1" d="M735.8,90.9c6.2,0,11.4,0.7,15.5,2.1c4.1,1.4,7.5,3.4,10,6.1c2.5,2.6,4.3,5.8,5.3,9.6c1,3.8,1.6,8,1.6,12.6
				V165c-3,0.7-7.2,1.4-12.6,2.3c-5.4,0.9-11.9,1.3-19.5,1.3c-4.8,0-9.2-0.4-13.1-1.3c-3.9-0.8-7.3-2.2-10.1-4.2
				c-2.8-1.9-5-4.4-6.5-7.6c-1.5-3.1-2.3-6.9-2.3-11.4c0-4.3,0.9-8,2.6-11c1.7-3,4.1-5.4,7-7.2c2.9-1.8,6.3-3.1,10-3.9
				c3.8-0.8,7.7-1.2,11.7-1.2c2.7,0,5.2,0.1,7.3,0.4c2.1,0.2,3.8,0.5,5.2,0.9v-2c0-3.6-1.1-6.4-3.2-8.6c-2.2-2.2-5.9-3.2-11.3-3.2
				c-3.6,0-7.1,0.3-10.6,0.8c-3.5,0.5-6.5,1.2-9,2.2l-2.7-16.9c1.2-0.4,2.8-0.8,4.6-1.2c1.8-0.4,3.8-0.8,6-1.1
				c2.2-0.3,4.4-0.6,6.8-0.8C731,91,733.4,90.9,735.8,90.9z M737.5,152.5c2.1,0,4,0,5.9-0.1c1.9-0.1,3.4-0.2,4.5-0.4v-16
				c-0.8-0.2-2.1-0.4-3.8-0.6c-1.7-0.2-3.2-0.3-4.7-0.3c-2,0-3.8,0.1-5.6,0.4c-1.7,0.2-3.3,0.7-4.6,1.3c-1.3,0.7-2.4,1.6-3.1,2.7
				c-0.8,1.1-1.1,2.5-1.1,4.2c0,3.3,1.1,5.6,3.3,6.8C730.6,151.8,733.7,152.5,737.5,152.5z"/>
			<path class="st1" d="M787.2,95.4c3.6-1,8.2-2,13.8-2.9c5.6-0.9,11.6-1.3,17.8-1.3c6.3,0,11.6,0.8,15.7,2.5c4.2,1.6,7.5,4,10,7
				c2.4,3,4.2,6.6,5.2,10.7c1,4.1,1.6,8.8,1.6,13.8v41.9h-21v-39.4c0-6.8-0.9-11.6-2.7-14.4c-1.8-2.8-5.1-4.2-10-4.2
				c-1.5,0-3.1,0.1-4.8,0.2s-3.2,0.3-4.5,0.5v57.3h-21V95.4z"/>
			<path class="st1" d="M866.9,130.6c0-6.6,1-12.4,3-17.3c2-4.9,4.7-9.1,8-12.4c3.3-3.3,7.1-5.8,11.4-7.5c4.3-1.7,8.7-2.5,13.2-2.5
				c10.5,0,18.9,3.2,25,9.7c6.1,6.4,9.2,15.9,9.2,28.5c0,1.2,0,2.6-0.1,4c-0.1,1.5-0.2,2.8-0.3,3.9h-47.7c0.5,4.3,2.5,7.8,6.1,10.3
				c3.6,2.5,8.4,3.8,14.4,3.8c3.9,0,7.6-0.4,11.4-1.1c3.7-0.7,6.8-1.6,9.1-2.6l2.8,17.1c-1.1,0.6-2.6,1.1-4.5,1.7
				c-1.9,0.6-4,1.1-6.3,1.5c-2.3,0.4-4.8,0.8-7.4,1.1c-2.6,0.3-5.3,0.4-7.9,0.4c-6.7,0-12.5-1-17.4-3c-4.9-2-9-4.7-12.3-8.1
				c-3.2-3.4-5.6-7.5-7.2-12.2C867.6,141.1,866.9,136,866.9,130.6z M916.3,122.5c-0.1-1.8-0.4-3.5-0.9-5.2c-0.5-1.7-1.3-3.2-2.4-4.5
				c-1.1-1.3-2.4-2.4-4.1-3.2c-1.6-0.8-3.7-1.3-6.1-1.3c-2.4,0-4.4,0.4-6.1,1.2c-1.7,0.8-3.1,1.9-4.2,3.2c-1.1,1.3-2,2.8-2.6,4.6
				c-0.6,1.7-1.1,3.5-1.3,5.3H916.3z"/>
			<path class="st1" d="M982.5,168.6c-6.1-0.1-11.1-0.8-14.9-2c-3.8-1.2-6.8-2.9-9-5.2c-2.2-2.2-3.7-4.9-4.5-8
				c-0.8-3.2-1.2-6.7-1.2-10.7V61l21-3.4v80.9c0,1.9,0.1,3.6,0.4,5.1c0.3,1.5,0.8,2.8,1.6,3.8c0.8,1,2,1.9,3.5,2.5
				c1.5,0.7,3.5,1.1,6.1,1.3L982.5,168.6z"/>
			<path class="st1" d="M1027.1,168.6c-6.1-0.1-11.1-0.8-14.9-2c-3.8-1.2-6.8-2.9-9-5.2c-2.2-2.2-3.7-4.9-4.5-8
				c-0.8-3.2-1.2-6.7-1.2-10.7V61l21-3.4v80.9c0,1.9,0.1,3.6,0.4,5.1c0.3,1.5,0.8,2.8,1.6,3.8c0.8,1,2,1.9,3.5,2.5
				c1.5,0.7,3.5,1.1,6.1,1.3L1027.1,168.6z"/>
			<path class="st1" d="M1065.1,71.4c0,3.9-1.2,6.9-3.7,9.1c-2.5,2.2-5.4,3.3-8.8,3.3s-6.3-1.1-8.8-3.3c-2.5-2.2-3.7-5.2-3.7-9.1
				c0-3.9,1.2-6.9,3.7-9.1c2.5-2.2,5.4-3.3,8.8-3.3s6.3,1.1,8.8,3.3C1063.8,64.5,1065.1,67.6,1065.1,71.4z M1063.1,167.2h-21V92.9
				h21V167.2z"/>
		</g>
		<g>
			<g>
				<path class="st2" d="M68,76c3.2,6.8,6.4,13.7,9.5,20.8c3.1,7.1,6.3,14.6,9.4,22.5s6.4,16.3,9.7,25.3c3.3,8.9,6.8,18.7,10.5,29.2
					H83.5c-1.1-3.4-2.3-6.9-3.5-10.5c-1.3-3.6-2.5-7.2-3.7-10.7H38.1c-1.2,3.6-2.5,7.1-3.7,10.7c-1.2,3.6-2.4,7.1-3.5,10.4H8
					c3.7-10.5,7.2-20.3,10.5-29.2c3.3-8.9,6.5-17.4,9.7-25.3c3.2-7.9,6.3-15.4,9.3-22.5c3.1-7.1,6.3-14,9.6-20.8H68 M43.1,135.2h28
					c-1.5-4.2-2.9-8.3-4.4-12.2c-1.4-3.9-2.7-7.4-4-10.6c-1.3-3.2-2.4-6-3.3-8.5c-1-2.4-1.7-4.4-2.3-5.7c-0.5,1.4-1.2,3.4-2.2,5.8
					c-0.9,2.4-2,5.3-3.2,8.5c-1.2,3.2-2.6,6.7-4.1,10.6C46.1,126.9,44.6,130.9,43.1,135.2 M68,71H47.1c-1.9,0-3.7,1.1-4.5,2.8
					c-3.3,6.8-6.6,13.9-9.7,21c-3.1,7.1-6.2,14.7-9.4,22.6c-3.1,7.9-6.4,16.4-9.7,25.4c-3.3,8.9-6.8,18.7-10.5,29.3
					c-0.5,1.5-0.3,3.2,0.6,4.5c0.9,1.3,2.5,2.1,4.1,2.1h22.9c2.2,0,4.1-1.4,4.8-3.5c1.1-3.3,2.2-6.8,3.4-10.3l2.3-6.7l0.2-0.7h31.1
					l1.1,3.1l1.5,4.2c1.2,3.5,2.4,7,3.5,10.4c0.7,2.1,2.6,3.5,4.8,3.5h23.6c1.6,0,3.1-0.8,4.1-2.1c0.9-1.3,1.2-3,0.6-4.5
					c-3.7-10.5-7.2-20.4-10.5-29.3c-3.3-8.9-6.6-17.5-9.8-25.4c-3.1-7.9-6.3-15.5-9.5-22.7c-3.1-7.1-6.3-14.2-9.6-21
					C71.7,72.1,69.9,71,68,71L68,71z M50.3,130.2c0.7-1.8,1.4-3.6,2-5.3c1.5-3.9,2.9-7.5,4.1-10.6c0.3-0.7,0.6-1.5,0.8-2.2
					c0.3,0.7,0.6,1.4,0.9,2.2c1.3,3.2,2.6,6.7,4,10.5c0.6,1.8,1.3,3.6,2,5.5H50.3L50.3,130.2z"/>
			</g>
			<g>
				<path class="st2" d="M151,97.9c2.5,0,5.2,0.1,7.8,0.4c2.7,0.2,5.3,0.5,8,0.9c2.6,0.4,5.2,0.8,7.6,1.3c2.4,0.5,4.5,1.1,6.4,1.6
					v62.4c0,12.1-3.1,21.2-9.2,27c-6.2,5.9-15.7,8.8-28.6,8.8c-4.5,0-9-0.4-13.6-1.2c-4.5-0.8-8.7-1.9-12.6-3.2l3.7-17.7
					c3.3,1.3,6.8,2.4,10.4,3.1c3.6,0.8,7.7,1.1,12.4,1.1c6,0,10.3-1.3,12.8-4c2.5-2.6,3.7-6,3.7-10.2v-2.7c-2.3,1-4.6,1.8-7,2.3
					c-2.4,0.5-5,0.8-7.8,0.8c-10.3,0-18.1-3-23.6-9.1c-5.5-6.1-8.2-14.6-8.2-25.5c0-5.5,0.8-10.4,2.5-14.9c1.7-4.5,4.2-8.3,7.4-11.5
					c3.2-3.2,7.2-5.7,11.9-7.4C139.8,98.8,145.1,97.9,151,97.9 M148.9,152c2.2,0,4.2-0.3,6.1-0.8c1.9-0.6,3.5-1.2,4.8-2v-33.6
					c-1-0.2-2.3-0.4-3.7-0.5c-1.4-0.1-3.1-0.2-4.9-0.2c-5.6,0-9.7,1.8-12.4,5.5c-2.7,3.7-4.1,8.3-4.1,14
					C134.7,146.1,139.4,152,148.9,152 M151,92.9c-6.5,0-12.4,1-17.7,2.9c-5.4,2-10,4.9-13.7,8.5c-3.8,3.7-6.6,8.2-8.6,13.3
					c-1.9,5-2.9,10.6-2.9,16.7c0,12.1,3.2,21.8,9.5,28.8c6.4,7.1,15.6,10.8,27.3,10.8c3.2,0,6.2-0.3,8.9-0.9c0,0,0,0,0.1,0
					c-0.4,0.8-0.9,1.6-1.5,2.2c-1.5,1.6-4.6,2.4-9.1,2.4c-4.2,0-8.1-0.3-11.3-1c-3.3-0.7-6.5-1.7-9.5-2.9c-0.6-0.2-1.2-0.4-1.9-0.4
					c-0.8,0-1.6,0.2-2.4,0.6c-1.3,0.7-2.2,1.9-2.5,3.4L112,195c-0.5,2.5,0.9,4.9,3.3,5.8c4.1,1.4,8.6,2.5,13.3,3.4
					c4.8,0.8,9.6,1.3,14.4,1.3c14.2,0,24.9-3.4,32-10.2c7.2-6.8,10.8-17.2,10.8-30.7v-62.4c0-2.2-1.4-4.2-3.6-4.8
					c-2-0.6-4.3-1.2-6.8-1.7c-2.5-0.5-5.2-1-7.9-1.4c-2.7-0.4-5.5-0.7-8.2-0.9C156.5,93,153.7,92.9,151,92.9L151,92.9z M148.9,147
					c-4.8,0-9.3-1.5-9.3-12.6c0-4.6,1-8.2,3.1-11c1.1-1.5,3.2-3.5,8.4-3.5c1.3,0,2.6,0,3.6,0.1v26c-0.4,0.1-0.8,0.3-1.2,0.4
					C152.1,146.8,150.6,147,148.9,147L148.9,147z"/>
			</g>
			<g>
				<path class="st2" d="M264,99.6v71.7c-3.6,1-8.2,2-13.8,2.9c-5.6,0.9-11.6,1.3-17.8,1.3c-6.3,0-11.6-0.8-15.7-2.5
					c-4.2-1.7-7.5-4.1-10-7.1c-2.4-3.1-4.2-6.7-5.2-10.9c-1-4.2-1.6-8.9-1.6-14V99.6h21v38.8c0,6.8,0.9,11.7,2.7,14.7
					c1.8,3,5.1,4.5,10,4.5c1.5,0,3.1-0.1,4.8-0.2c1.7-0.1,3.2-0.3,4.5-0.5V99.6H264 M264,94.6h-21c-2.8,0-5,2.2-5,5v52.8
					c-1.5,0.1-3,0.2-4.3,0.2c-4.5,0-5.4-1.6-5.7-2.1c-0.7-1.2-2-4.5-2-12.1V99.6c0-2.8-2.2-5-5-5h-21c-2.8,0-5,2.2-5,5V141
					c0,5.5,0.6,10.6,1.7,15.2c1.2,4.9,3.3,9.3,6.2,12.9c3,3.7,7,6.6,12,8.6c4.8,1.9,10.7,2.9,17.6,2.9c6.4,0,12.7-0.5,18.6-1.4
					c5.8-0.9,10.7-1.9,14.4-3c2.1-0.6,3.6-2.6,3.6-4.8V99.6C269,96.8,266.7,94.6,264,94.6L264,94.6z"/>
			</g>
			<g>
				<path class="st2" d="M310.4,97.6c4.5,0,8.8,0.4,13,1.2c4.1,0.8,7.4,1.7,9.9,2.6l-3.7,16.4c-2.4-0.8-5.1-1.6-8-2.3
					c-2.9-0.7-6.1-1-9.7-1c-6.6,0-9.9,1.8-9.9,5.5c0,0.8,0.1,1.6,0.4,2.3c0.3,0.7,0.8,1.3,1.7,1.9c0.8,0.6,2,1.3,3.5,2
					c1.5,0.7,3.3,1.5,5.6,2.3c4.6,1.7,8.4,3.4,11.4,5.1c3,1.7,5.4,3.5,7.1,5.4c1.7,1.9,3,4.1,3.7,6.4c0.7,2.3,1.1,5.1,1.1,8.2
					c0,7.3-2.8,12.9-8.3,16.6c-5.5,3.8-13.3,5.6-23.4,5.6c-6.6,0-12.1-0.6-16.4-1.7c-4.4-1.1-7.4-2.1-9.1-2.8l3.5-17.1
					c3.6,1.4,7.2,2.5,11,3.3c3.8,0.8,7.5,1.2,11.2,1.2c3.9,0,6.6-0.4,8.2-1.1c1.6-0.8,2.4-2.2,2.4-4.4c0-1.7-1-3.2-3.1-4.4
					c-2.1-1.3-5.2-2.7-9.5-4.3c-3.3-1.2-6.3-2.5-9-3.8c-2.7-1.3-5-2.9-6.8-4.7c-1.9-1.8-3.3-4-4.4-6.6c-1-2.5-1.6-5.6-1.6-9.2
					c0-7,2.6-12.5,7.8-16.5C294.3,99.6,301.4,97.6,310.4,97.6 M310.4,92.6c-10.1,0-18.3,2.4-24.4,7.1c-6.4,5-9.7,11.9-9.7,20.5
					c0,4.2,0.6,7.9,1.9,11.1c1.3,3.2,3.1,5.9,5.5,8.3c2.3,2.2,5,4.1,8.1,5.6c2.8,1.4,6,2.7,9.4,4c3.9,1.5,6.8,2.8,8.6,3.9
					c0.2,0.1,0.3,0.2,0.4,0.3c-0.8,0.2-2.4,0.4-5.3,0.4c-3.3,0-6.7-0.4-10.1-1.1c-3.5-0.7-6.9-1.8-10.2-3.1
					c-0.6-0.2-1.2-0.3-1.8-0.3c-0.8,0-1.6,0.2-2.4,0.6c-1.3,0.7-2.2,1.9-2.5,3.4l-3.5,17.1c-0.5,2.3,0.7,4.6,2.9,5.6
					c2,0.9,5.1,1.9,9.9,3.1c4.8,1.2,10.7,1.9,17.7,1.9c11,0,19.9-2.2,26.2-6.5c6.8-4.7,10.4-11.8,10.4-20.8c0-3.6-0.4-6.8-1.3-9.6
					c-0.9-3.1-2.5-5.9-4.8-8.3c-2.1-2.3-4.9-4.5-8.4-6.4c-3.2-1.8-7.3-3.6-12.1-5.4c-2.1-0.8-3.8-1.5-5.1-2.2
					c-1.4-0.7-2.3-1.2-2.7-1.5c0.5-0.2,1.9-0.7,4.8-0.7c3.2,0,6.1,0.3,8.6,0.9c2.7,0.6,5.2,1.3,7.5,2.1c0.5,0.2,1.1,0.3,1.6,0.3
					c0.8,0,1.7-0.2,2.4-0.6c1.2-0.7,2.1-1.9,2.4-3.3l3.7-16.4c0.5-2.4-0.8-4.9-3.1-5.8c-2.8-1.1-6.3-2-10.7-2.9
					C319.9,93,315.2,92.6,310.4,92.6L310.4,92.6z"/>
			</g>
			<g>
				<path class="st2" d="M372.6,77.7v21.9h25.3v17.5h-25.3v26.1c0,4.4,0.8,8,2.3,10.6c1.6,2.6,4.7,4,9.4,4c2.3,0,4.6-0.2,7-0.6
					c2.4-0.4,4.6-1,6.6-1.8l3,16.4c-2.5,1-5.4,1.9-8.5,2.7c-3.1,0.8-6.9,1.1-11.4,1.1c-5.7,0-10.5-0.8-14.3-2.3
					c-3.8-1.6-6.8-3.7-9-6.5c-2.3-2.8-3.8-6.1-4.7-10.1c-0.9-4-1.3-8.3-1.3-13.1V81.1L372.6,77.7 M372.6,72.7c-0.3,0-0.5,0-0.8,0.1
					l-21,3.4c-2.4,0.4-4.2,2.5-4.2,4.9v62.4c0,5.2,0.5,9.9,1.5,14.2c1.1,4.7,3,8.8,5.7,12.1c2.8,3.4,6.5,6.1,11,8
					c4.4,1.8,9.8,2.7,16.2,2.7c4.9,0,9.1-0.4,12.6-1.3c3.3-0.8,6.4-1.8,9.2-2.9c2.2-0.9,3.5-3.2,3-5.5l-3-16.4
					c-0.3-1.5-1.2-2.7-2.5-3.5c-0.8-0.4-1.6-0.6-2.5-0.6c-0.6,0-1.2,0.1-1.8,0.3c-1.7,0.6-3.6,1.1-5.7,1.5c-2.1,0.4-4.2,0.6-6.1,0.6
					c-1.6,0-4.3-0.2-5.1-1.5c-1.1-1.8-1.6-4.6-1.6-8.1v-21.1h20.3c2.8,0,5-2.2,5-5V99.6c0-2.8-2.2-5-5-5h-20.3V77.7
					c0-1.5-0.6-2.9-1.8-3.8C374.9,73.1,373.7,72.7,372.6,72.7L372.6,72.7z"/>
			</g>
			<g>
				<path class="st2" d="M425.4,65.7c3.4,0,6.3,1.1,8.8,3.3c2.5,2.2,3.7,5.2,3.7,9.1c0,3.9-1.2,6.9-3.7,9.1
					c-2.5,2.2-5.4,3.3-8.8,3.3c-3.4,0-6.3-1.1-8.8-3.3c-2.5-2.2-3.7-5.2-3.7-9.1c0-3.9,1.2-6.9,3.7-9.1
					C419,66.8,422,65.7,425.4,65.7 M436,99.6v74.3h-21V99.6H436 M425.4,60.7c-4.6,0-8.7,1.5-12.1,4.6c-3.5,3.1-5.4,7.6-5.4,12.8
					c0,5.3,1.9,9.7,5.4,12.8c1.9,1.6,3.9,2.9,6.1,3.6h-4.4c-2.8,0-5,2.2-5,5v74.3c0,2.8,2.2,5,5,5h21c2.8,0,5-2.2,5-5V99.6
					c0-2.8-2.2-5-5-5h-4.6c2.2-0.8,4.3-2,6.1-3.6c3.5-3.1,5.4-7.6,5.4-12.8c0-5.3-1.9-9.7-5.4-12.8C434.1,62.2,430,60.7,425.4,60.7
					L425.4,60.7z"/>
			</g>
			<g>
				<path class="st2" d="M487.3,97.9c6.3,0,11.6,0.8,15.7,2.5c4.2,1.6,7.5,4,10,7c2.4,3,4.2,6.6,5.2,10.7c1,4.1,1.6,8.8,1.6,13.8
					v41.9h-21v-39.4c0-6.8-0.9-11.6-2.7-14.4c-1.8-2.8-5.1-4.2-10-4.2c-1.5,0-3.1,0.1-4.8,0.2c-1.7,0.1-3.2,0.3-4.5,0.5v57.3h-21
					v-71.7c3.6-1,8.2-2,13.8-2.9C475.2,98.3,481.1,97.9,487.3,97.9 M487.3,92.9c-6.4,0-12.7,0.5-18.6,1.4c-5.8,0.9-10.7,1.9-14.4,3
					c-2.1,0.6-3.6,2.6-3.6,4.8v71.7c0,2.8,2.2,5,5,5h21c2.8,0,5-2.2,5-5V121c1.5-0.1,3-0.2,4.3-0.2c3,0,5,0.6,5.8,1.9
					c0.7,1.1,1.9,4.1,1.9,11.7v39.4c0,2.8,2.2,5,5,5h21c2.8,0,5-2.2,5-5v-41.9c0-5.5-0.6-10.5-1.7-15c-1.2-4.8-3.3-9.1-6.2-12.7
					c-3-3.7-7-6.5-12-8.5C500.2,93.8,494.2,92.9,487.3,92.9L487.3,92.9z"/>
			</g>
			<g>
				<path class="st2" d="M673.4,76c0.9,6.5,1.8,13.8,2.6,21.8c0.8,8,1.5,16.4,2.1,25.1c0.6,8.7,1.2,17.4,1.7,26.2
					c0.5,8.8,1,17,1.3,24.7h-21.5c-0.3-9.5-0.7-19.9-1.1-31.1c-0.5-11.2-1.2-22.5-2.1-33.9c-1.7,4-3.6,8.3-5.7,13.1
					c-2.1,4.8-4.1,9.6-6.2,14.4c-2,4.8-4,9.4-5.9,13.8c-1.9,4.4-3.5,8.1-4.8,11.2h-15.4c-1.3-3.1-2.9-6.8-4.8-11.2
					c-1.9-4.4-3.9-9-5.9-13.8c-2-4.8-4.1-9.6-6.2-14.4c-2.1-4.8-4-9.2-5.7-13.1c-0.9,11.4-1.6,22.7-2.1,33.9
					c-0.5,11.2-0.8,21.6-1.1,31.1h-21.5c0.4-7.7,0.8-16,1.3-24.7c0.5-8.8,1.1-17.5,1.7-26.2c0.6-8.7,1.3-17.1,2.1-25.1
					c0.8-8,1.7-15.3,2.6-21.8h21c1.7,3.1,3.7,6.9,5.9,11.5c2.2,4.6,4.5,9.5,6.9,14.8c2.4,5.3,4.8,10.8,7.2,16.3
					c2.4,5.6,4.6,10.8,6.7,15.7c2.1-4.9,4.3-10.1,6.7-15.7c2.4-5.6,4.7-11,7.1-16.3c2.4-5.3,4.7-10.3,6.9-14.8
					c2.2-4.6,4.2-8.4,5.9-11.5H673.4 M673.4,71h-20.1c-1.8,0-3.5,1-4.4,2.6c-1.7,3.2-3.7,7.1-6,11.7c-2.2,4.6-4.6,9.6-7,14.9
					c-2.4,5.3-4.8,10.8-7.2,16.4c-0.7,1.6-1.4,3.2-2.1,4.8l-2.1-4.8c-2.4-5.6-4.8-11.1-7.2-16.4c-2.4-5.3-4.8-10.4-7-14.9
					c-2.3-4.7-4.3-8.6-6-11.7c-0.9-1.6-2.6-2.6-4.4-2.6h-21c-2.5,0-4.6,1.8-4.9,4.3c-0.9,6.5-1.8,14-2.6,22
					c-0.8,8.1-1.5,16.6-2.1,25.3c-0.6,8.8-1.2,17.6-1.7,26.2c-0.5,8.8-1,17.1-1.3,24.8c-0.1,1.4,0.4,2.7,1.4,3.7
					c0.9,1,2.3,1.6,3.6,1.6h21.5c2.7,0,4.9-2.1,5-4.9c0.3-9.5,0.7-20,1.1-31c0.2-4.4,0.4-8.8,0.7-13.3c1.2,2.9,2.5,5.8,3.7,8.6
					c2,4.6,3.9,9.3,5.9,13.8c1.9,4.4,3.5,8.1,4.8,11.2c0.8,1.8,2.6,3,4.6,3H634c2,0,3.8-1.2,4.6-3c1.3-3.1,2.9-6.8,4.8-11.2
					c1.9-4.3,3.9-9,5.9-13.8c1.2-2.8,2.4-5.7,3.7-8.6c0.3,4.4,0.5,8.9,0.7,13.3c0.5,11.2,0.9,21.7,1.1,31c0.1,2.7,2.3,4.9,5,4.9
					h21.5c1.4,0,2.7-0.6,3.6-1.6c0.9-1,1.4-2.3,1.4-3.7c-0.4-7.6-0.8-16-1.3-24.8c-0.5-8.6-1.1-17.5-1.7-26.2
					c-0.6-8.7-1.3-17.2-2.1-25.3c-0.8-8.1-1.7-15.5-2.6-22C678,72.8,675.9,71,673.4,71L673.4,71z"/>
			</g>
			<g>
				<path class="st2" d="M726.1,97.6c6.2,0,11.4,0.7,15.5,2.1c4.1,1.4,7.5,3.4,10,6.1c2.5,2.6,4.3,5.8,5.3,9.6c1,3.8,1.6,8,1.6,12.6
					v43.8c-3,0.7-7.2,1.4-12.6,2.3c-5.4,0.9-11.9,1.3-19.5,1.3c-4.8,0-9.2-0.4-13.1-1.3c-3.9-0.8-7.3-2.2-10.1-4.2
					c-2.8-1.9-5-4.4-6.5-7.6c-1.5-3.1-2.3-6.9-2.3-11.4c0-4.3,0.9-8,2.6-11c1.7-3,4.1-5.4,7-7.2c2.9-1.8,6.3-3.1,10-3.9
					c3.8-0.8,7.7-1.2,11.7-1.2c2.7,0,5.2,0.1,7.3,0.4c2.1,0.2,3.8,0.5,5.2,0.9v-2c0-3.6-1.1-6.4-3.2-8.6c-2.2-2.2-5.9-3.2-11.3-3.2
					c-3.6,0-7.1,0.3-10.6,0.8c-3.5,0.5-6.5,1.2-9,2.2l-2.7-16.9c1.2-0.4,2.8-0.8,4.6-1.2c1.8-0.4,3.8-0.8,6-1.1
					c2.2-0.3,4.4-0.6,6.8-0.8C721.2,97.7,723.7,97.6,726.1,97.6 M727.8,159.2c2.1,0,4,0,5.9-0.1c1.9-0.1,3.4-0.2,4.5-0.4v-16
					c-0.8-0.2-2.1-0.4-3.8-0.6c-1.7-0.2-3.2-0.3-4.7-0.3c-2,0-3.8,0.1-5.6,0.4c-1.7,0.2-3.3,0.7-4.6,1.3c-1.3,0.7-2.4,1.6-3.1,2.7
					c-0.8,1.1-1.1,2.5-1.1,4.2c0,3.3,1.1,5.6,3.3,6.8C720.9,158.5,723.9,159.2,727.8,159.2 M726.1,92.6c-2.6,0-5.2,0.1-7.8,0.4
					c-2.5,0.2-4.9,0.5-7.1,0.9c-2.3,0.3-4.4,0.8-6.4,1.2c-1.9,0.4-3.6,0.9-4.9,1.3c-2.4,0.7-3.9,3.1-3.5,5.6l2.7,16.9
					c0.2,1.5,1.1,2.8,2.4,3.5c0.8,0.5,1.6,0.7,2.5,0.7c0.6,0,1.2-0.1,1.7-0.3c2.2-0.8,4.9-1.5,8-1.9c3.2-0.5,6.5-0.7,9.9-0.7
					c5.4,0,7.2,1.2,7.8,1.8c0.3,0.3,0.6,0.6,0.8,1c-2-0.2-4.1-0.3-6.5-0.3c-4.4,0-8.7,0.4-12.8,1.3c-4.3,0.9-8.2,2.4-11.6,4.5
					c-3.6,2.2-6.6,5.2-8.7,9c-2.2,3.8-3.3,8.3-3.3,13.5c0,5.3,0.9,9.8,2.8,13.6c1.9,3.9,4.6,7.1,8.2,9.5c3.3,2.3,7.3,3.9,11.9,4.9
					c4.2,0.9,9,1.4,14.1,1.4c7.9,0,14.7-0.5,20.3-1.4c5.4-0.9,9.7-1.7,12.8-2.4c2.3-0.5,3.9-2.5,3.9-4.9V128c0-5-0.6-9.7-1.7-13.9
					c-1.3-4.5-3.4-8.5-6.5-11.7c-3-3.2-7.1-5.7-12-7.4C738.6,93.4,732.8,92.6,726.1,92.6L726.1,92.6z M727.8,154.2
					c-3.7,0-5.6-0.7-6.6-1.2c-0.2-0.1-0.8-0.5-0.8-2.5c0-0.7,0.1-1.2,0.3-1.5c0.2-0.3,0.5-0.6,1.2-1c0.8-0.4,1.8-0.7,3-0.9
					c1.5-0.2,3.2-0.3,4.9-0.3c1,0,2.2,0.1,3.5,0.2v7.1C731.5,154.1,729.7,154.2,727.8,154.2L727.8,154.2z"/>
			</g>
			<g>
				<path class="st2" d="M809.1,97.9c6.3,0,11.6,0.8,15.7,2.5c4.2,1.6,7.5,4,10,7c2.4,3,4.2,6.6,5.2,10.7c1,4.1,1.6,8.8,1.6,13.8
					v41.9h-21v-39.4c0-6.8-0.9-11.6-2.7-14.4c-1.8-2.8-5.1-4.2-10-4.2c-1.5,0-3.1,0.1-4.8,0.2c-1.7,0.1-3.2,0.3-4.5,0.5v57.3h-21
					v-71.7c3.6-1,8.2-2,13.8-2.9C797,98.3,802.9,97.9,809.1,97.9 M809.1,92.9c-6.4,0-12.7,0.5-18.6,1.4c-5.8,0.9-10.7,1.9-14.4,3
					c-2.1,0.6-3.6,2.6-3.6,4.8v71.7c0,2.8,2.2,5,5,5h21c2.8,0,5-2.2,5-5V121c1.5-0.1,3-0.2,4.3-0.2c3,0,5,0.6,5.8,1.9
					c0.7,1.1,1.9,4.1,1.9,11.7v39.4c0,2.8,2.2,5,5,5h21c2.8,0,5-2.2,5-5v-41.9c0-5.5-0.6-10.5-1.7-15c-1.2-4.8-3.3-9.1-6.2-12.7
					c-3-3.7-7-6.5-12-8.5C821.9,93.8,816,92.9,809.1,92.9L809.1,92.9z"/>
			</g>
			<g>
				<path class="st2" d="M892.7,97.6c10.5,0,18.9,3.2,25,9.7c6.1,6.4,9.2,15.9,9.2,28.5c0,1.2,0,2.6-0.1,4c-0.1,1.5-0.2,2.8-0.3,3.9
					h-47.7c0.5,4.3,2.5,7.8,6.1,10.3c3.6,2.5,8.4,3.8,14.4,3.8c3.9,0,7.6-0.4,11.4-1.1c3.7-0.7,6.8-1.6,9.1-2.6l2.8,17.1
					c-1.1,0.6-2.6,1.1-4.5,1.7c-1.9,0.6-4,1.1-6.3,1.5c-2.3,0.4-4.8,0.8-7.4,1.1c-2.6,0.3-5.3,0.4-7.9,0.4c-6.7,0-12.5-1-17.4-3
					c-4.9-2-9-4.7-12.3-8.1c-3.2-3.4-5.6-7.5-7.2-12.2c-1.6-4.7-2.3-9.8-2.3-15.2c0-6.6,1-12.4,3-17.3c2-4.9,4.7-9.1,8-12.4
					c3.3-3.3,7.1-5.8,11.4-7.5C883.8,98.5,888.2,97.6,892.7,97.6 M878.7,129.2h27.8c-0.1-1.8-0.4-3.5-0.9-5.2
					c-0.5-1.7-1.3-3.2-2.4-4.5c-1.1-1.3-2.4-2.4-4.1-3.2c-1.6-0.8-3.7-1.3-6.1-1.3c-2.4,0-4.4,0.4-6.1,1.2c-1.7,0.8-3.1,1.9-4.2,3.2
					c-1.1,1.3-2,2.8-2.6,4.6C879.5,125.7,879,127.5,878.7,129.2 M892.7,92.6c-5.1,0-10.2,1-15,2.9c-4.9,1.9-9.3,4.8-13.1,8.6
					c-3.8,3.8-6.8,8.5-9.1,14c-2.3,5.5-3.4,12-3.4,19.2c0,6,0.9,11.6,2.6,16.8c1.8,5.4,4.6,10.1,8.3,14.1c3.7,3.9,8.5,7.1,14.1,9.3
					c5.5,2.2,12,3.3,19.3,3.3c2.8,0,5.6-0.2,8.4-0.5c2.7-0.3,5.4-0.7,7.8-1.1c2.5-0.5,4.8-1,6.8-1.6c2.2-0.7,3.9-1.3,5.3-2
					c2-1,3.1-3.1,2.7-5.3l-2.8-17.1c-0.3-1.5-1.2-2.8-2.6-3.6c-0.7-0.4-1.6-0.6-2.4-0.6c-0.7,0-1.4,0.1-2,0.4c-2,0.9-4.7,1.6-8,2.3
					c-3.4,0.6-6.9,1-10.4,1c-4.9,0-8.8-1-11.5-2.9c-0.5-0.4-1-0.8-1.5-1.2h40.2c2.6,0,4.8-2,5-4.6c0.1-1.2,0.2-2.5,0.3-4
					c0.1-1.6,0.2-3,0.2-4.4c0-13.8-3.5-24.5-10.5-31.9C914.2,96.4,904.6,92.6,892.7,92.6L892.7,92.6z M885.4,124.2
					c0.3-0.6,0.7-1.1,1.1-1.6c0.7-0.8,1.5-1.4,2.6-1.9c1-0.5,2.3-0.7,3.9-0.7c1.6,0,2.9,0.2,3.9,0.7c1,0.5,1.9,1.2,2.5,2
					c0.4,0.5,0.7,1,1,1.6H885.4L885.4,124.2z"/>
			</g>
			<g>
				<path class="st2" d="M964.1,64.3v80.9c0,1.9,0.1,3.6,0.4,5.1c0.3,1.5,0.8,2.8,1.6,3.8c0.8,1,2,1.9,3.5,2.5
					c1.5,0.7,3.5,1.1,6.1,1.3l-3,17.4c-6.1-0.1-11.1-0.8-14.9-2c-3.8-1.2-6.8-2.9-9-5.2c-2.2-2.2-3.7-4.9-4.5-8
					c-0.8-3.2-1.2-6.7-1.2-10.7V67.7L964.1,64.3 M964.1,59.3c-0.3,0-0.5,0-0.8,0.1l-21,3.4c-2.4,0.4-4.2,2.5-4.2,4.9v81.8
					c0,4.4,0.5,8.4,1.4,11.9c1,4,3,7.5,5.8,10.4c2.8,2.8,6.5,4.9,11,6.4c4.3,1.4,9.7,2.1,16.3,2.2c0,0,0.1,0,0.1,0
					c2.4,0,4.5-1.8,4.9-4.2l3-17.4c0.2-1.4-0.1-2.8-1-3.9c-0.9-1.1-2.2-1.8-3.6-1.9c-2.4-0.2-3.8-0.6-4.4-0.9
					c-0.7-0.3-1.2-0.7-1.5-1c-0.3-0.4-0.5-1-0.7-1.7c-0.2-1.2-0.3-2.6-0.3-4.2V64.3c0-1.5-0.6-2.9-1.8-3.8
					C966.5,59.7,965.3,59.3,964.1,59.3L964.1,59.3z"/>
			</g>
			<g>
				<path class="st2" d="M1008.8,64.3v80.9c0,1.9,0.1,3.6,0.4,5.1c0.3,1.5,0.8,2.8,1.6,3.8c0.8,1,2,1.9,3.5,2.5
					c1.5,0.7,3.5,1.1,6.1,1.3l-3,17.4c-6.1-0.1-11.1-0.8-14.9-2c-3.8-1.2-6.8-2.9-9-5.2c-2.2-2.2-3.7-4.9-4.5-8
					c-0.8-3.2-1.2-6.7-1.2-10.7V67.7L1008.8,64.3 M1008.8,59.3c-0.3,0-0.5,0-0.8,0.1l-21,3.4c-2.4,0.4-4.2,2.5-4.2,4.9v81.8
					c0,4.4,0.5,8.4,1.4,11.9c1,4,3,7.5,5.8,10.4c2.8,2.8,6.5,4.9,11,6.4c4.3,1.4,9.7,2.1,16.3,2.2c0,0,0.1,0,0.1,0
					c2.4,0,4.5-1.8,4.9-4.2l3-17.4c0.2-1.4-0.1-2.8-1-3.9c-0.9-1.1-2.2-1.8-3.6-1.9c-2.4-0.2-3.8-0.6-4.4-0.9
					c-0.7-0.3-1.2-0.7-1.5-1c-0.3-0.4-0.5-1-0.7-1.7c-0.2-1.2-0.3-2.6-0.3-4.2V64.3c0-1.5-0.6-2.9-1.8-3.8
					C1011.1,59.7,1009.9,59.3,1008.8,59.3L1008.8,59.3z"/>
			</g>
			<g>
				<path class="st2" d="M1042.8,65.7c3.4,0,6.3,1.1,8.8,3.3c2.5,2.2,3.7,5.2,3.7,9.1c0,3.9-1.2,6.9-3.7,9.1
					c-2.5,2.2-5.4,3.3-8.8,3.3c-3.4,0-6.3-1.1-8.8-3.3c-2.5-2.2-3.7-5.2-3.7-9.1c0-3.9,1.2-6.9,3.7-9.1
					C1036.5,66.8,1039.4,65.7,1042.8,65.7 M1053.4,99.6v74.3h-21V99.6H1053.4 M1042.8,60.7c-4.6,0-8.7,1.5-12.1,4.6
					c-3.5,3.1-5.4,7.6-5.4,12.8c0,5.3,1.9,9.7,5.4,12.8c1.9,1.6,3.9,2.9,6.1,3.6h-4.4c-2.8,0-5,2.2-5,5v74.3c0,2.8,2.2,5,5,5h21
					c2.8,0,5-2.2,5-5V99.6c0-2.8-2.2-5-5-5h-4.6c2.2-0.8,4.3-2,6.1-3.6c3.5-3.1,5.4-7.6,5.4-12.8c0-5.3-1.9-9.7-5.4-12.8
					C1051.5,62.2,1047.4,60.7,1042.8,60.7L1042.8,60.7z"/>
			</g>
		</g>
	</g>
</g>
</svg>
