<?xml version="1.0" encoding="utf-8"?>
<!-- Generator: Adobe Illustrator 26.1.0, SVG Export Plug-In . SVG Version: 6.00 Build 0)  -->
<svg version="1.1" id="Capa_1" xmlns="http://www.w3.org/2000/svg" xmlns:xlink="http://www.w3.org/1999/xlink" x="0px" y="0px"
	 viewBox="0 0 1080 1080" style="enable-background:new 0 0 1080 1080;" xml:space="preserve">
<style type="text/css">
	.st0{fill:#DD0031;}
	.st1{fill:#C3002F;}
	.st2{fill:#FFFFFF;}
</style>
<g>
	<polygon class="st0" points="538,227 538,227 538,227 278.1,319.7 317.7,663.4 538,785.4 538,785.4 538,785.4 758.3,663.4 
		797.9,319.7 	"/>
	<polygon class="st1" points="538,227 538,289 538,288.7 538,571.5 538,571.5 538,785.4 538,785.4 758.3,663.4 797.9,319.7 	"/>
	<path class="st2" d="M538,288.7L375.5,653.1l0,0h60.6l0,0l32.7-81.5h137.9l32.7,81.5l0,0h60.6l0,0L538,288.7L538,288.7L538,288.7
		L538,288.7L538,288.7z M585.5,521.3h-94.9L538,407.1L585.5,521.3z"/>
</g>
</svg>
