<?xml version="1.0" encoding="utf-8"?>
<!-- Generator: Adobe Illustrator 26.0.1, SVG Export Plug-In . SVG Version: 6.00 Build 0)  -->
<svg version="1.1" id="Capa_1" xmlns="http://www.w3.org/2000/svg" xmlns:xlink="http://www.w3.org/1999/xlink" x="0px" y="0px"
	 viewBox="0 0 1080 250" style="enable-background:new 0 0 1080 250;" xml:space="preserve">
<style type="text/css">
	.st0{fill:#FF00FF;}
	.st1{fill:#FF00F2;}
	.st2{fill:none;stroke:#000000;stroke-width:5;stroke-miterlimit:10;}
</style>
<g id="Capa_2_00000144326890367389290630000009596265017026350470_">
	<g>
		<g>
			<path class="st0" d="M553.2,192.9c1,5,8,10.4,11.8,13.7c13.7,11.3,30.1,19.1,47.4,22.4c6.9,1.4,14.1,2,20.9,0.3
				c6.9-1.6,13.4-5.7,16.5-12c3.1-6.3,2.4-14.7-2.9-19.4c-3.7-3.4-8.9-4.5-13.9-4.2s-9.7,1.7-14.5,3.1
				C598.8,202.3,572.2,200.8,553.2,192.9"/>
			<g>
				<path class="st0" d="M553.6,191.5c-1.8-0.7-2.6,2.2-0.9,2.9c1.6,0.7,3.1,1.3,4.7,1.8c13.7,4.7,28.8,6.3,43.2,5.2
					c7.1-0.5,14.1-1.9,21-3.8c7.5-2.2,16.5-4.3,23.3,0.5c5.3,3.8,6.4,11.1,4.3,16.9c-2.3,6.5-8.7,10.7-15.2,12.6
					c-7.7,2.2-15.9,1.2-23.6-0.5c-8-1.7-15.9-4.4-23.3-8.1c-7.4-3.5-14.5-8-20.8-13.3c-2.4-1.9-4.7-3.8-6.8-6c-2-2-4.2-4.4-4.8-7.3
					c-0.4-1.9-3.3-1.1-2.9,0.7c0.3,1.4,1,2.8,1.8,4c1.8,2.8,4.3,5.1,6.8,7.3c2.7,2.4,5.6,4.8,8.5,7c7,5.2,14.6,9.4,22.6,12.8
					c8,3.3,16.5,5.7,25.1,6.9c8,1.1,16.3,0.8,23.6-2.7c6.2-3,11.7-8.7,12.8-15.8c1.2-6.9-1.4-14.3-7.7-17.8
					c-7.6-4.3-16.5-2.3-24.4-0.1c-7.3,2-14.7,3.4-22.2,3.7C583.5,199.3,567.7,197.3,553.6,191.5L553.6,191.5z"/>
			</g>
		</g>
	</g>
	<g>
		<g>
			<path class="st0" d="M599.1,232.3c-1.7-0.9-3.3,1.7-1.6,2.6c9.7,5.1,20.6,7.3,31.5,6.5c1.9-0.2,1.9-3.2,0-3
				C618.7,239.3,608.3,237.2,599.1,232.3L599.1,232.3z"/>
		</g>
	</g>
	<g>
		<path class="st0" d="M784,91.5c5.5-5.4,11.8-10.5,18.9-13.8c14-6.6,30.6-4.3,45.6-0.2c6.7,1.8,14.8,3.7,19.9-1
			c4.3-4,4.1-11.4,0.7-16.2c-3.4-4.8-9-7.5-14.7-9.2c-17-4.8-36.2-0.9-49.6,10.5c-9.6,8.2-15.9,19.6-21.2,31"/>
		<g>
			<path class="st0" d="M785.2,92.5c5.7-5.6,12.1-10.7,19.4-13.9c6.8-3,14.3-3.9,21.6-3.5c7.5,0.3,15,1.9,22.3,3.9
				c5.9,1.7,13,3.4,18.8,0.2c5.9-3.4,7.2-11,4.7-16.9c-2.9-6.7-9.9-10.4-16.5-12.4c-13.4-4-28.6-2.6-41.1,3.7
				c-6.6,3.3-12.3,7.9-17.1,13.5c-5,6-9.1,12.7-12.5,19.6c-0.9,1.7-1.7,3.5-2.6,5.2c-0.8,1.8,1.9,3.1,2.7,1.3
				C791,80.2,798.4,66.9,811,59c11.3-7.3,25.5-9.7,38.6-7.3c6.5,1.3,13.8,3.7,17.9,9.1c3.6,4.7,3.9,12.8-1.9,16
				c-5.3,2.9-12.2,0.5-17.7-0.8c-7-1.8-14.2-3.3-21.4-3.7c-7-0.3-14,0.4-20.7,2.7c-7.1,2.5-13.4,6.9-19,11.9
				c-1.4,1.2-2.7,2.5-4.1,3.8C781.5,92,783.8,93.9,785.2,92.5L785.2,92.5z"/>
		</g>
	</g>
	<g>
		<g>
			<path class="st0" d="M787.9,74.7c3-4.7,6.6-9.2,10.4-13.2c0.6-0.6,0.4-1.7-0.2-2.2c-0.6-0.5-1.6-0.4-2.2,0.2
				c-3.9,4-7.3,8.4-10.4,13.2c-0.4,0.6-0.5,1.5,0.2,2.2C786.3,75.4,787.4,75.4,787.9,74.7L787.9,74.7z"/>
		</g>
	</g>
	<g>
		<path class="st0" d="M332.3,71.3c24.9-13.8,55.7-16.4,82.7-7.1c6.4,2.3,12.7,5.2,19,7.6c7.8,3,17.3,5,23.8,0
			c5.6-4.4,6.9-13,3.8-19.4c-3-6.5-9.4-10.8-16.2-13s-14-2.4-21.1-2.3c-14,0-28.2,0.9-41.8,4.1c-13.7,3.2-27,9.2-37.4,18.5
			c-4.3,3.9-8.1,6.8-12,11.1"/>
		<g>
			<path class="st0" d="M332,69.6c-1.2,1.5,1,3.5,2.5,2.1c1.6-1.8,3.3-3.6,5.1-5.2c3.6-3.3,7.3-6.6,11.1-9.5
				c3.8-2.8,7.7-5.2,11.9-7.3c8.7-4.3,18.3-7.1,27.9-8.8c10.6-1.8,21.4-2.4,32.1-2.5c9.7,0,20,0,28.7,5c6.9,4.1,12.1,11.4,10.2,19.7
				c-0.9,3.8-3.3,7.1-6.9,8.8c-4,1.8-8.6,1.4-12.8,0.5c-4.8-1.1-9.3-2.9-13.7-4.8c-4.8-1.9-9.5-3.9-14.4-5.5c-9.1-3-18.5-4.6-28-4.9
				c-18.9-0.8-37.8,3.7-54.3,12.7c-1.8,1,0,3.4,1.6,2.5c2-1.1,4.2-2.2,6.4-3.2c17.8-8.1,38-10.9,57.4-8c4.8,0.8,9.7,1.8,14.5,3.3
				c5,1.6,9.9,3.5,14.8,5.6c8.5,3.5,18.5,8.2,27.8,5.1c8.3-2.7,11.9-11.6,10.2-19.7C462.7,47,455,41,447.2,38.1
				c-4.9-1.8-10.1-2.4-15.4-2.6c-5.4-0.2-10.9-0.2-16.4,0c-11.2,0.4-22.5,1.4-33.3,4.1c-9.5,2.3-18.8,5.7-27.2,10.9
				c-4.2,2.5-7.9,5.5-11.6,8.7C339.5,62.6,335.5,65.9,332,69.6L332,69.6z"/>
		</g>
	</g>
	<g>
		<g>
			<path class="st0" d="M400.7,68.3c1.9,0.3,2.6-2.6,0.7-2.9c-13.9-2.6-28.2-2.3-42,0.7c-1.9,0.4-0.9,3.3,0.9,2.9
				C373.6,66.1,387.4,65.9,400.7,68.3L400.7,68.3z"/>
		</g>
	</g>
	<g>
		<g>
			<path class="st0" d="M354.9,67.5c-2,0.1-1.8,3.1,0.2,3C357,70.4,356.8,67.4,354.9,67.5L354.9,67.5z"/>
		</g>
	</g>
</g>
<g>
	<path class="st1" d="M215,182.6c-6.4,0-12.7-0.2-19-0.6c-6.3-0.4-12.8-1.3-19.6-2.8V66.9c5.3-1,11.2-1.8,17.6-2.3
		s12.3-0.8,17.7-0.8c7.4,0,14.1,0.5,20.3,1.6c6.2,1.1,11.5,2.9,16,5.4c4.5,2.6,7.9,5.9,10.4,10.1c2.5,4.2,3.8,9.3,3.8,15.5
		c0,9.3-4.5,16.5-13.4,21.9c7.4,2.8,12.4,6.6,15,11.4c2.7,4.8,4,10.2,4,16.2c0,12.1-4.4,21.3-13.3,27.4
		C245.7,179.5,232.5,182.6,215,182.6z M201.8,110.7h12.7c8,0,13.8-1,17.2-3.1c3.5-2.1,5.2-5.4,5.2-9.9c0-4.7-1.8-8-5.3-9.9
		c-3.6-1.9-8.8-2.8-15.7-2.8c-2.2,0-4.6,0-7.2,0.1c-2.6,0.1-4.8,0.2-6.9,0.4V110.7z M201.8,130.6v29.9c1.9,0.2,4,0.4,6.2,0.5
		c2.2,0.1,4.7,0.2,7.4,0.2c7.8,0,14.1-1.1,18.9-3.3c4.8-2.2,7.2-6.4,7.2-12.4c0-5.3-2-9.2-6-11.5c-4-2.3-9.8-3.4-17.2-3.4H201.8z"/>
	<path class="st1" d="M340,115.2c-2.2-0.6-4.8-1.1-7.9-1.8c-3-0.6-6.2-0.9-9.7-0.9c-1.6,0-3.4,0.1-5.6,0.4c-2.2,0.3-3.8,0.6-4.9,0.9
		v67.2H287V97.8c4.5-1.6,9.7-3,15.8-4.4c6.1-1.4,12.8-2.1,20.3-2.1c1.3,0,3,0.1,4.8,0.3c1.9,0.2,3.8,0.4,5.7,0.7
		c1.9,0.3,3.8,0.6,5.7,1c1.9,0.4,3.5,0.9,4.8,1.4L340,115.2z"/>
	<path class="st1" d="M387.5,90.8c7.4,0,13.5,0.8,18.4,2.5c4.9,1.7,8.8,4.1,11.8,7.2c3,3.1,5,6.9,6.3,11.4c1.2,4.5,1.8,9.4,1.8,14.9
		v51.8c-3.6,0.8-8.5,1.7-14.9,2.8c-6.4,1.1-14,1.6-23.1,1.6c-5.7,0-10.8-0.5-15.5-1.5c-4.6-1-8.6-2.6-12-4.9
		c-3.3-2.3-5.9-5.3-7.7-8.9c-1.8-3.7-2.7-8.2-2.7-13.5c0-5.1,1-9.5,3.1-13c2.1-3.6,4.8-6.4,8.3-8.5c3.5-2.1,7.4-3.6,11.9-4.6
		c4.5-0.9,9.1-1.4,13.9-1.4c3.2,0,6.1,0.1,8.6,0.4c2.5,0.3,4.5,0.6,6.1,1.1v-2.3c0-4.2-1.3-7.6-3.8-10.2c-2.6-2.6-7-3.8-13.4-3.8
		c-4.2,0-8.4,0.3-12.5,0.9c-4.1,0.6-7.7,1.5-10.7,2.6L358.2,95c1.4-0.4,3.3-0.9,5.4-1.4s4.5-0.9,7.1-1.3c2.6-0.4,5.3-0.7,8.1-1
		C381.7,90.9,384.6,90.8,387.5,90.8z M389.5,163.7c2.4,0,4.8-0.1,7-0.2c2.2-0.1,4-0.3,5.3-0.5v-18.9c-1-0.2-2.5-0.4-4.5-0.7
		c-2-0.2-3.8-0.3-5.5-0.3c-2.3,0-4.5,0.1-6.6,0.4c-2.1,0.3-3.9,0.8-5.4,1.6c-1.6,0.8-2.8,1.8-3.7,3.2c-0.9,1.3-1.3,3-1.3,5
		c0,3.9,1.3,6.6,3.9,8.1C381.3,162.9,384.9,163.7,389.5,163.7z"/>
	<path class="st1" d="M448.3,96.2c4.2-1.2,9.7-2.4,16.4-3.4c6.7-1.1,13.7-1.6,21.1-1.6c7.5,0,13.7,1,18.6,2.9c5,2,8.9,4.7,11.8,8.3
		c2.9,3.6,5,7.8,6.2,12.7c1.2,4.9,1.8,10.4,1.8,16.4v49.6h-24.9v-46.6c0-8-1.1-13.7-3.2-17c-2.1-3.3-6.1-5-11.9-5
		c-1.8,0-3.7,0.1-5.7,0.3c-2,0.2-3.8,0.4-5.3,0.6v67.9h-24.9V96.2z"/>
	<path class="st1" d="M624.3,178.2c-2.2,0.7-4.8,1.3-7.7,1.9c-2.9,0.6-5.9,1.1-9.1,1.6c-3.2,0.4-6.4,0.8-9.7,1.1
		c-3.3,0.3-6.4,0.4-9.4,0.4c-7.2,0-13.7-1.1-19.4-3.2s-10.5-5.2-14.4-9.1c-3.9-4-6.9-8.7-8.9-14.4c-2.1-5.6-3.1-12-3.1-19
		c0-7.1,0.9-13.6,2.7-19.3c1.8-5.7,4.3-10.6,7.7-14.6c3.3-4,7.4-7.1,12.3-9.2c4.8-2.1,10.4-3.2,16.6-3.2c3.5,0,6.5,0.3,9.3,1
		c2.7,0.7,5.5,1.6,8.3,2.8V55.4l24.9-4V178.2z M568,136.4c0,7.7,1.7,13.9,5.2,18.6c3.5,4.7,8.6,7,15.4,7c2.2,0,4.3-0.1,6.2-0.3
		c1.9-0.2,3.5-0.4,4.7-0.6v-45.3c-1.6-1-3.6-1.8-6.1-2.5c-2.5-0.7-5-1-7.6-1C573.9,112.4,568,120.4,568,136.4z"/>
	<path class="st1" d="M675,67.7c0,4.6-1.5,8.2-4.4,10.8c-3,2.6-6.4,3.9-10.4,3.9c-4,0-7.5-1.3-10.4-3.9c-3-2.6-4.4-6.2-4.4-10.8
		c0-4.6,1.5-8.2,4.4-10.8c3-2.6,6.4-3.9,10.4-3.9c4,0,7.5,1.3,10.4,3.9C673.5,59.6,675,63.2,675,67.7z M672.6,181.1h-24.9V93.1h24.9
		V181.1z"/>
	<path class="st1" d="M696,96.2c4.2-1.2,9.7-2.4,16.4-3.4c6.7-1.1,13.7-1.6,21.1-1.6c7.5,0,13.7,1,18.6,2.9c5,2,8.9,4.7,11.8,8.3
		c2.9,3.6,5,7.8,6.2,12.7c1.2,4.9,1.8,10.4,1.8,16.4v49.6H747v-46.6c0-8-1.1-13.7-3.2-17c-2.1-3.3-6.1-5-11.9-5
		c-1.8,0-3.7,0.1-5.7,0.3c-2,0.2-3.8,0.4-5.3,0.6v67.9H696V96.2z"/>
	<path class="st1" d="M870.4,170c0,14.4-3.7,25-10.9,32c-7.3,7-18.6,10.4-33.8,10.4c-5.3,0-10.7-0.5-16-1.4
		c-5.3-0.9-10.3-2.2-14.9-3.8l4.3-20.9c3.9,1.6,8,2.8,12.3,3.7c4.3,0.9,9.2,1.3,14.6,1.3c7.1,0,12.2-1.6,15.1-4.7
		c3-3.1,4.4-7.1,4.4-12v-3.2c-2.7,1.2-5.4,2.1-8.3,2.8c-2.8,0.6-5.9,0.9-9.3,0.9c-12.1,0-21.5-3.6-27.9-10.8
		c-6.5-7.2-9.7-17.2-9.7-30.2c0-6.5,1-12.3,3-17.6c2-5.3,4.9-9.8,8.8-13.6c3.8-3.8,8.5-6.7,14.1-8.8c5.6-2.1,11.9-3.1,18.9-3.1
		c3,0,6.1,0.1,9.3,0.4c3.2,0.3,6.3,0.6,9.4,1.1c3.1,0.4,6.1,1,8.9,1.6c2.8,0.6,5.4,1.3,7.6,1.9V170z M815.7,134.3
		c0,13.9,5.6,20.9,16.9,20.9c2.6,0,5-0.3,7.2-1c2.2-0.7,4.1-1.4,5.7-2.3V112c-1.2-0.2-2.7-0.4-4.3-0.6c-1.7-0.2-3.6-0.3-5.9-0.3
		c-6.6,0-11.5,2.2-14.7,6.5C817.3,122.1,815.7,127.6,815.7,134.3z"/>
</g>
<g>
	<path class="st2" d="M223.8,183.3c-6.4,0-12.7-0.2-19-0.6c-6.3-0.4-12.8-1.3-19.6-2.8V67.6c5.3-1,11.2-1.8,17.6-2.3
		s12.3-0.8,17.7-0.8c7.4,0,14.1,0.5,20.3,1.6c6.2,1.1,11.5,2.9,16,5.4c4.5,2.6,7.9,5.9,10.4,10.1c2.5,4.2,3.8,9.3,3.8,15.5
		c0,9.3-4.5,16.5-13.4,21.9c7.4,2.8,12.4,6.6,15,11.4c2.7,4.8,4,10.2,4,16.2c0,12.1-4.4,21.3-13.3,27.4
		C254.5,180.2,241.3,183.3,223.8,183.3z M210.6,111.4h12.7c8,0,13.8-1,17.2-3.1c3.5-2.1,5.2-5.4,5.2-9.9c0-4.7-1.8-8-5.3-9.9
		c-3.6-1.9-8.8-2.8-15.7-2.8c-2.2,0-4.6,0-7.2,0.1c-2.6,0.1-4.8,0.2-6.9,0.4V111.4z M210.6,131.3v29.9c1.9,0.2,4,0.4,6.2,0.5
		c2.2,0.1,4.7,0.2,7.4,0.2c7.8,0,14.1-1.1,18.9-3.3c4.8-2.2,7.2-6.4,7.2-12.4c0-5.3-2-9.2-6-11.5c-4-2.3-9.8-3.4-17.2-3.4H210.6z"/>
	<path class="st2" d="M348.8,115.9c-2.2-0.6-4.8-1.1-7.9-1.8c-3-0.6-6.2-0.9-9.7-0.9c-1.6,0-3.4,0.1-5.6,0.4
		c-2.2,0.3-3.8,0.6-4.9,0.9v67.2h-24.9V98.5c4.5-1.6,9.7-3,15.8-4.4c6.1-1.4,12.8-2.1,20.3-2.1c1.3,0,3,0.1,4.8,0.3
		c1.9,0.2,3.8,0.4,5.7,0.7c1.9,0.3,3.8,0.6,5.7,1c1.9,0.4,3.5,0.9,4.8,1.4L348.8,115.9z"/>
	<path class="st2" d="M396.3,91.5c7.4,0,13.5,0.8,18.4,2.5c4.9,1.7,8.8,4.1,11.8,7.2c3,3.1,5,6.9,6.3,11.4c1.2,4.5,1.8,9.4,1.8,14.9
		v51.8c-3.6,0.8-8.5,1.7-14.9,2.8c-6.4,1.1-14,1.6-23.1,1.6c-5.7,0-10.8-0.5-15.5-1.5c-4.6-1-8.6-2.6-12-4.9
		c-3.3-2.3-5.9-5.3-7.7-8.9c-1.8-3.7-2.7-8.2-2.7-13.5c0-5.1,1-9.5,3.1-13c2.1-3.6,4.8-6.4,8.3-8.5c3.5-2.1,7.4-3.6,11.9-4.6
		c4.5-0.9,9.1-1.4,13.9-1.4c3.2,0,6.1,0.1,8.6,0.4c2.5,0.3,4.5,0.6,6.1,1.1v-2.3c0-4.2-1.3-7.6-3.8-10.2c-2.6-2.6-7-3.8-13.4-3.8
		c-4.2,0-8.4,0.3-12.5,0.9c-4.1,0.6-7.7,1.5-10.7,2.6L367,95.7c1.4-0.4,3.3-0.9,5.4-1.4s4.5-0.9,7.1-1.3c2.6-0.4,5.3-0.7,8.1-1
		C390.5,91.7,393.4,91.5,396.3,91.5z M398.3,164.4c2.4,0,4.8-0.1,7-0.2c2.2-0.1,4-0.3,5.3-0.5v-18.9c-1-0.2-2.5-0.4-4.5-0.7
		c-2-0.2-3.8-0.3-5.5-0.3c-2.3,0-4.5,0.1-6.6,0.4c-2.1,0.3-3.9,0.8-5.4,1.6c-1.6,0.8-2.8,1.8-3.7,3.2c-0.9,1.3-1.3,3-1.3,5
		c0,3.9,1.3,6.6,3.9,8.1C390.1,163.6,393.7,164.4,398.3,164.4z"/>
	<path class="st2" d="M457.1,96.9c4.2-1.2,9.7-2.4,16.4-3.4c6.7-1.1,13.7-1.6,21.1-1.6c7.5,0,13.7,1,18.6,2.9c5,2,8.9,4.7,11.8,8.3
		c2.9,3.6,5,7.8,6.2,12.7c1.2,4.9,1.8,10.4,1.8,16.4v49.6h-24.9v-46.6c0-8-1.1-13.7-3.2-17c-2.1-3.3-6.1-5-11.9-5
		c-1.8,0-3.7,0.1-5.7,0.3c-2,0.2-3.8,0.4-5.3,0.6v67.9h-24.9V96.9z"/>
	<path class="st2" d="M633.1,178.9c-2.2,0.7-4.8,1.3-7.7,1.9c-2.9,0.6-5.9,1.1-9.1,1.6c-3.2,0.4-6.4,0.8-9.7,1.1
		c-3.3,0.3-6.4,0.4-9.4,0.4c-7.2,0-13.7-1.1-19.4-3.2c-5.7-2.1-10.5-5.2-14.4-9.1c-3.9-4-6.9-8.7-8.9-14.4c-2.1-5.6-3.1-11.9-3.1-19
		c0-7.1,0.9-13.6,2.7-19.3c1.8-5.7,4.3-10.6,7.7-14.6c3.3-4,7.4-7.1,12.3-9.2c4.8-2.1,10.4-3.2,16.6-3.2c3.5,0,6.5,0.3,9.3,1
		c2.7,0.7,5.5,1.6,8.3,2.8V56.1l24.9-4V178.9z M576.8,137.1c0,7.7,1.7,13.9,5.2,18.6c3.5,4.7,8.6,7,15.4,7c2.2,0,4.3-0.1,6.2-0.3
		c1.9-0.2,3.5-0.4,4.7-0.6v-45.3c-1.6-1-3.6-1.8-6.1-2.5c-2.5-0.7-5-1-7.6-1C582.7,113.1,576.8,121.1,576.8,137.1z"/>
	<path class="st2" d="M683.8,68.5c0,4.6-1.5,8.2-4.4,10.8c-3,2.6-6.4,3.9-10.4,3.9s-7.5-1.3-10.4-3.9c-3-2.6-4.4-6.2-4.4-10.8
		c0-4.6,1.5-8.2,4.4-10.8c3-2.6,6.4-3.9,10.4-3.9s7.5,1.3,10.4,3.9C682.3,60.3,683.8,63.9,683.8,68.5z M681.4,181.8h-24.9V93.9h24.9
		V181.8z"/>
	<path class="st2" d="M704.8,96.9c4.2-1.2,9.7-2.4,16.4-3.4c6.7-1.1,13.7-1.6,21.1-1.6c7.5,0,13.7,1,18.6,2.9c5,2,8.9,4.7,11.8,8.3
		c2.9,3.6,5,7.8,6.2,12.7c1.2,4.9,1.8,10.4,1.8,16.4v49.6h-24.9v-46.6c0-8-1.1-13.7-3.2-17c-2.1-3.3-6.1-5-11.9-5
		c-1.8,0-3.7,0.1-5.7,0.3c-2,0.2-3.8,0.4-5.3,0.6v67.9h-24.9V96.9z"/>
	<path class="st2" d="M879.2,170.7c0,14.4-3.7,25-10.9,32c-7.3,7-18.6,10.4-33.8,10.4c-5.3,0-10.7-0.5-16-1.4
		c-5.3-0.9-10.3-2.2-14.9-3.8l4.3-20.9c3.9,1.6,8,2.8,12.3,3.7c4.3,0.9,9.2,1.3,14.6,1.3c7.1,0,12.2-1.6,15.1-4.7
		c3-3.1,4.4-7.1,4.4-12v-3.2c-2.7,1.2-5.4,2.1-8.3,2.8c-2.8,0.6-5.9,0.9-9.3,0.9c-12.1,0-21.5-3.6-27.9-10.8
		c-6.5-7.2-9.7-17.2-9.7-30.2c0-6.5,1-12.3,3-17.6c2-5.3,4.9-9.8,8.8-13.6c3.8-3.8,8.6-6.7,14.1-8.8c5.6-2.1,11.9-3.1,18.9-3.1
		c3,0,6.1,0.1,9.3,0.4c3.2,0.3,6.3,0.6,9.4,1.1c3.1,0.4,6.1,1,8.9,1.6c2.8,0.6,5.4,1.3,7.6,1.9V170.7z M824.5,135
		c0,13.9,5.6,20.9,16.9,20.9c2.6,0,5-0.3,7.2-1c2.2-0.7,4.1-1.4,5.7-2.3v-39.8c-1.2-0.2-2.7-0.4-4.3-0.6c-1.7-0.2-3.6-0.3-5.9-0.3
		c-6.6,0-11.5,2.2-14.7,6.5C826.1,122.8,824.5,128.3,824.5,135z"/>
</g>
</svg>
