<?xml version="1.0" encoding="utf-8"?>
<!-- Generator: Adobe Illustrator 26.0.1, SVG Export Plug-In . SVG Version: 6.00 Build 0)  -->
<svg version="1.1" id="Capa_1" xmlns="http://www.w3.org/2000/svg" xmlns:xlink="http://www.w3.org/1999/xlink" x="0px" y="0px"
	 viewBox="0 0 1080 1080" style="enable-background:new 0 0 1080 1080;" xml:space="preserve">
<style type="text/css">
	.st0{fill:#00599C;}
	.st1{fill:#004482;}
	.st2{fill:#659AD2;}
	.st3{fill:#FFFFFF;}
</style>
<g id="Capa_3">
	<path class="st0" d="M783.8,646.9c3.9-6.8,6.3-14.4,6.3-21.2V388.4c0-6.8-2.4-14.4-6.3-21.2L541.5,507L783.8,646.9z"/>
	<path class="st1" d="M563.1,781.7L768.6,663c5.9-3.4,11.3-9.3,15.2-16.1L541.5,507L299.3,646.9c3.9,6.8,9.3,12.7,15.2,16.1
		L520,781.7C531.8,788.5,551.2,788.5,563.1,781.7z"/>
	<path class="st2" d="M783.8,367.2c-3.9-6.8-9.3-12.7-15.2-16.1L563.1,232.4c-11.8-6.8-31.2-6.8-43.1,0L314.5,351.1
		c-11.8,6.8-21.5,23.6-21.5,37.3v237.3c0,6.8,2.4,14.5,6.3,21.2L541.5,507L783.8,367.2z"/>
	<g>
		<path class="st3" d="M541.5,672.8c-91.4,0-165.7-74.3-165.7-165.7s74.3-165.7,165.7-165.7c59,0,114,31.7,143.5,82.8l-71.7,41.5
			c-14.8-25.6-42.3-41.5-71.8-41.5c-45.7,0-82.9,37.2-82.9,82.9s37.2,82.9,82.9,82.9c29.5,0,57-15.9,71.8-41.5L685,590
			C655.5,641,600.5,672.8,541.5,672.8z"/>
	</g>
	<g>
		<polygon class="st3" points="707.3,497.8 688.8,497.8 688.8,479.4 670.4,479.4 670.4,497.8 652,497.8 652,516.2 670.4,516.2 
			670.4,534.7 688.8,534.7 688.8,516.2 707.3,516.2 		"/>
	</g>
	<g>
		<polygon class="st3" points="776.3,497.8 757.9,497.8 757.9,479.4 739.5,479.4 739.5,497.8 721.1,497.8 721.1,516.2 739.5,516.2 
			739.5,534.7 757.9,534.7 757.9,516.2 776.3,516.2 		"/>
	</g>
</g>
</svg>
