<?xml version="1.0" encoding="utf-8"?>
<!-- Generator: Adobe Illustrator 26.0.1, SVG Export Plug-In . SVG Version: 6.00 Build 0)  -->
<svg version="1.1" id="Capa_1" xmlns="http://www.w3.org/2000/svg" xmlns:xlink="http://www.w3.org/1999/xlink" x="0px" y="0px"
	 viewBox="0 0 1080 1080" style="enable-background:new 0 0 1080 1080;" xml:space="preserve">
<style type="text/css">
	.st0{fill-rule:evenodd;clip-rule:evenodd;fill:#00C4CC;}
	.st1{fill-rule:evenodd;clip-rule:evenodd;fill:#FFFFFF;}
</style>
<g id="Capa_2_00000000916445567910390650000015525836109861833613_">
</g>
<g id="g8" transform="matrix(7.2321275,0,0,7.2321275,96.875537,96.875538)">
	<path id="path2" class="st0" d="M61.3,18C40,18,22.7,35.3,22.7,56.6S40,95.2,61.3,95.2S99.9,78,99.9,56.6S82.6,18,61.3,18z"/>
	<path id="path4" class="st1" d="M87.1,57.7c-0.4,0-1.2-0.1-1.2-0.6c0-0.4,1-0.2,0.9-1.2c-0.1-0.7-0.8-0.9-1.4-0.9
		c-2.2,0-3.6,2.9-3.3,5.2c0.1,0.9,0.6,1.9,1.4,1.9c0.7,0,1.7-1,2.1-2.4c0.2-0.9,1.1-1.7,1.9-1.7c0.3,0,0.6,0.1,0.7,0.6
		c0,0.2,0,0.7-0.4,2.1c-0.6,1-0.6,1.5-0.4,2c0.1,0.9,0.6,1.5,1,1.9c0.1,0.1,0.2,0.3,0.2,0.3c0,0.2-0.1,0.4-0.4,0.4
		c-0.1,0-0.2,0-0.3-0.1c-1.7-0.7-2.3-1.8-2.5-2.9c-0.7,0.8-1.4,1.2-2.3,1.2c-1.4,0-2.9-1.3-3.1-3c-0.1-0.7,0-1.4,0.2-2.1
		c-0.7,0.4-1.4,0.7-2,0.7h-0.6c-1.4,2.1-3,3.5-4.1,4.2c-0.4,0.2-0.9,0.3-1.2,0.3c-0.2,0-0.6-0.1-0.7-0.3c-0.3-0.5-0.5-1.3-0.6-2.1
		c-1.5,1.7-3.7,2.6-4.7,2.6c-1.1,0-1.8-0.7-1.9-1.8v-1.2c0.3-2.4,1.2-3.9,1.2-4.3c0-0.1-0.1-0.2-0.2-0.2c-0.8,0-3.3,2.6-3.7,4.4
		l-0.3,1.4c-0.2,1-1.2,1.7-1.9,1.7c-0.3,0-0.6-0.1-0.7-0.6v-0.4l0.1-0.7c-1.4,1-2.8,1.6-3.5,1.6c-1,0-1.5-0.6-1.7-1.3
		c-0.7,0.9-1.4,1.3-2.4,1.3c-1.1,0-2.2-0.8-2.8-1.9c-0.8,0.9-1.7,1.8-2.7,2.5c-1.5,1-3.3,1.8-5.4,1.8c-1.9,0-3.5-1-4.4-1.9
		c-1.3-1.2-2.1-3.1-2.2-4.9c-0.7-5.4,2.6-12.4,7.7-15.4c1.2-0.7,2.4-1.1,3.6-1.1c2.4,0,4.3,1.8,4.5,3.9c0.2,1.9-0.6,3.5-2.6,4.5
		c-1.1,0.6-1.5,0.6-1.8,0.2c-0.1-0.2,0-0.4,0.2-0.7c2-1.7,2-3,1.8-4.9c-0.1-1.2-1-2-1.9-2c-3.9,0-9.4,8.6-8.6,14.9
		c0.3,2.4,1.8,5.3,4.9,5.3c1,0,2.1-0.3,3.1-0.8c1.6-0.8,2.6-1.5,3.5-2.6c-0.2-2.8,2.3-6.6,6-6.6c1.7,0,3,0.7,3.1,1.9
		c0.2,1.7-1.2,1.9-1.7,1.9s-1.2-0.1-1.2-0.6c-0.1-0.4,1-0.2,0.9-1.2c-0.1-0.7-0.8-0.9-1.4-0.9c-2.3,0-3.6,3.2-3.3,5.2
		c0.1,0.9,0.6,1.8,1.4,1.8c0.7,0,1.7-1,2-2.4c0.2-1,1.1-1.7,1.9-1.7c0.3,0,0.6,0.1,0.7,0.6v0.4c-0.1,0.4-0.4,1.8-0.3,2.1
		c0,0.2,0.1,0.6,0.6,0.6c0.3,0,1.4-0.6,2.5-1.5c0.4-1.9,0.8-4.2,0.8-4.4c0.1-0.8,0.4-1.5,2-1.5c0.3,0,0.6,0.1,0.7,0.6v0.4l-0.4,2
		c1.4-1.9,3.5-3.2,4.9-3.2c0.6,0,1,0.3,1,0.9c0,0.3,0,0.9-0.2,1.4c-0.4,1.2-1,3.1-1.3,4.7c0,0.4,0.1,0.9,0.7,0.9s2.2-0.7,3.5-2.4
		l0,0c0-0.2,0-0.4,0-0.6c0-1.3,0.1-2.4,0.3-3.2c0.2-0.9,1.3-1.7,2-1.7c0.3,0,0.7,0.2,0.7,0.6c0,0.1,0,0.3-0.1,0.4
		c-0.4,1.4-0.8,2.8-0.8,4.1c0,0.8,0.1,1.9,0.3,2.5c0,0.1,0.1,0.2,0.2,0.2c0.2,0,1.8-1.4,2.9-3.3c-1-0.7-1.5-1.8-1.5-3.1
		c0-2.3,1.4-3.5,2.8-3.5c1.1,0,2,0.8,2,2.3c0,1-0.3,2.1-0.9,3.1h0.3c0.9,0,1.4-0.3,1.9-0.8c0.1-0.2,0.3-0.3,0.4-0.4
		c1.1-1.4,2.7-2.4,4.5-2.4c1.5,0,3,0.7,3.1,1.9C89,57.4,87.5,57.7,87.1,57.7L87.1,57.7z"/>
	<path id="path6" class="st0" d="M76.5,53.3c-0.3,0-0.6,0.6-0.6,1.1c0,0.9,0.4,1.9,1,2.4c0.2-0.7,0.3-1.2,0.3-1.9
		C77.3,53.9,76.8,53.3,76.5,53.3"/>
</g>
</svg>
