<?xml version="1.0" encoding="utf-8"?>
<!-- Generator: Adobe Illustrator 26.0.1, SVG Export Plug-In . SVG Version: 6.00 Build 0)  -->
<svg version="1.1" id="Capa_1" xmlns="http://www.w3.org/2000/svg" xmlns:xlink="http://www.w3.org/1999/xlink" x="0px" y="0px"
	 viewBox="0 0 1080 1080" style="enable-background:new 0 0 1080 1080;" xml:space="preserve">
<style type="text/css">
	.st0{fill:#264DE4;}
	.st1{fill:#2965F1;}
	.st2{fill:#EBEBEB;}
	.st3{fill:#FFFFFF;}
</style>
<g id="Capa_4">
	<g id="layer1" transform="translate(-193.633,-276.3622)">
		<g id="g3013" transform="translate(119,276.3622)">
			<polygon id="polygon2989" class="st0" points="816.2,337.2 780.1,741.8 617.8,786.8 455.9,741.8 419.8,337.2 			"/>
			<polygon id="polygon2991" class="st1" points="749.2,716 780,370.3 618,370.3 618,752.4 			"/>
			<polygon id="polygon2993" class="st2" points="502.5,520.4 506.9,570 618,570 618,520.4 			"/>
			<polygon id="polygon2995" class="st2" points="618,419.9 617.8,419.9 493.6,419.9 498.1,469.6 618,469.6 			"/>
			<polygon id="polygon2997" class="st2" points="618,700.9 618,649.3 617.8,649.3 562.5,634.4 559,594.8 532.1,594.8 509.2,594.8 
				516.1,672.7 617.8,701 			"/>
			<path id="path2999" d="M513.1,227.3h60.1v25.1h-35v25.1h35v25.1h-60.1V227.3z"/>
			<path id="path3001" d="M585.2,227.3h60.1v21.9h-35v4.4h35v50.3h-60.1V281h35v-4.4h-35V227.3z"/>
			<path id="path3003" d="M657.3,227.3h60.1v21.9h-35v4.4h35v50.3h-60.1V281h35v-4.4h-35V227.3z"/>
			<polygon id="polygon3005" class="st3" points="678.9,570 673.2,634.4 617.8,649.3 617.8,700.9 719.6,672.7 720.3,664.4 
				732,533.7 733.2,520.4 742.1,419.9 617.8,419.9 617.8,469.6 687.7,469.6 683.2,520.4 617.8,520.4 617.8,570 			"/>
		</g>
	</g>
</g>
</svg>
