<?xml version="1.0" encoding="utf-8"?>
<!-- Generator: Adobe Illustrator 26.0.1, SVG Export Plug-In . SVG Version: 6.00 Build 0)  -->
<svg version="1.1" id="Capa_1" xmlns="http://www.w3.org/2000/svg" xmlns:xlink="http://www.w3.org/1999/xlink" x="0px" y="0px"
	 viewBox="0 0 1080 1080" style="enable-background:new 0 0 1080 1080;" xml:space="preserve">
<style type="text/css">
	.st0{fill:#0ACF83;}
	.st1{fill:#A259FF;}
	.st2{fill:#F24E1E;}
	.st3{fill:#FF7262;}
	.st4{fill:#1ABCFE;}
</style>
<path id="path0_fill" class="st0" d="M447,784.9c51.3,0,93-41.7,93-93v-93h-93c-51.3,0-93,41.7-93,93S395.7,784.9,447,784.9z"/>
<path id="path1_fill" class="st1" d="M354,506c0-51.3,41.7-93,93-93h93v186h-93C395.7,599,354,557.3,354,506z"/>
<path id="path1_fill_1_" class="st2" d="M354,320c0-51.3,41.7-93,93-93h93v186h-93C395.7,413,354,371.4,354,320z"/>
<path id="path2_fill" class="st3" d="M540,227.1h93c51.3,0,93,41.7,93,93s-41.7,93-93,93h-93V227.1z"/>
<path id="path3_fill" class="st4" d="M726,506c0,51.3-41.7,93-93,93s-93-41.7-93-93s41.7-93,93-93S726,454.7,726,506z"/>
</svg>
