<?xml version="1.0" encoding="utf-8"?>
<!-- Generator: Adobe Illustrator 26.0.1, SVG Export Plug-In . SVG Version: 6.00 Build 0)  -->
<svg version="1.1" id="Capa_1" xmlns="http://www.w3.org/2000/svg" xmlns:xlink="http://www.w3.org/1999/xlink" x="0px" y="0px"
	 viewBox="0 0 1080 1080" style="enable-background:new 0 0 1080 1080;" xml:space="preserve">
<style type="text/css">
	.st0{fill:url(#path-2_00000003088930828373477880000009740972606264021689_);}
	.st1{filter:url(#Adobe_OpacityMaskFilter);}
	.st2{fill-rule:evenodd;clip-rule:evenodd;fill:#FFFFFF;}
	.st3{mask:url(#mask-3_00000042003755105593836580000005978910536708692610_);}
	.st4{fill:#FFA000;}
	.st5{fill:#F57C00;}
	.st6{fill:#FFCA28;}
	.st7{fill:#FFFFFF;fill-opacity:0.2;}
	.st8{opacity:0.2;fill:#A52714;enable-background:new    ;}
	.st9{filter:url(#Adobe_OpacityMaskFilter_00000165913995798841726790000011443756693650275209_);}
	.st10{mask:url(#mask-3_00000011742814475132309910000010932980020200807863_);fill:none;}
	.st11{filter:url(#Adobe_OpacityMaskFilter_00000054978300506170294130000007751446301093713070_);}
	
		.st12{mask:url(#mask-3_00000176726423271079867800000014190061558354355359_);fill:url(#_Path_5_00000127032294917286198200000012422630988117332149_);}
</style>
<g id="Page-1">
	<g id="styleguide" transform="translate(-256.000000, -1246.000000)">
		<g id="Group-16" transform="translate(40.000000, 1187.000000)">
			<g id="Group-9" transform="translate(114.000000, 0.000000)">
				<g id="Group-25">
					<g id="logo_lockup_firebase_vertical" transform="translate(102.541436, 59.226519)">
						<path id="Shape" d="M391.5,725.6h-8.6v-66.6h39v8.2h-30.4v21.9H419v8h-27.4V725.6z M438.1,668.6c-2,2-5.3,2.4-7.7,0.8
							s-3.4-4.7-2.3-7.4s4-4.2,6.8-3.6s4.9,3,4.9,5.9C439.9,666,439.2,667.5,438.1,668.6L438.1,668.6z M438.1,725.6h-8.6v-45.6h8.6
							V725.6z M456.9,725.6h-8.6v-45.6h8.2v7.4h0.4c1-2.6,2.9-4.8,5.4-6.1c2.4-1.5,5.1-2.3,7.9-2.4c2.2-0.1,4.4,0.3,6.4,1.1l-3.3,8
							c-1.5-0.5-3-0.7-4.6-0.7c-3.2,0-6.2,1.4-8.3,3.7c-2.4,2.5-3.6,5.7-3.6,9.6L456.9,725.6z M500.1,727.1
							c-6.9,0-12.5-2.3-16.8-6.9c-4.3-4.6-6.5-10.4-6.5-17.4c-0.1-6.3,2.1-12.4,6.3-17.1c4-4.7,9.9-7.3,16.1-7.2
							c6.8,0,12.2,2.2,16.3,6.6s6.1,10.3,6.1,17.7l-0.1,1.6h-36.1c0.2,4.6,1.8,8.2,4.6,10.9c2.6,2.6,6.2,4,9.9,4
							c6.2,0,10.3-2.6,12.5-7.8l7.7,3.2c-1.6,3.6-4.1,6.7-7.4,8.9C509.3,725.9,505.1,727.1,500.1,727.1L500.1,727.1z M512.4,697.3
							c-0.2-2.6-1.4-5.1-3.6-7.4c-2.2-2.4-5.5-3.5-9.8-3.5c-3-0.1-6,1-8.3,3c-2.4,2.1-4.1,4.9-4.8,8L512.4,697.3z M552.6,727.1
							c-3.3,0.1-6.5-0.7-9.4-2.2c-2.5-1.3-4.7-3.2-6.2-5.6h-0.4v6.3h-8.2v-66.6h8.6v21l-0.4,6.3h0.4c1.5-2.4,3.7-4.3,6.2-5.6
							c2.9-1.5,6.1-2.3,9.4-2.2c5.9,0,11,2.3,15.3,7c4.3,4.7,6.4,10.4,6.4,17.3c0,6.9-2.1,12.7-6.4,17.3
							C563.6,724.8,558.5,727.1,552.6,727.1z M551.2,719.3c3.9,0,7.6-1.6,10.3-4.5c2.9-3,4.3-7,4.3-12c0-5-1.4-8.9-4.3-12
							c-2.6-2.9-6.4-4.5-10.3-4.5s-7.6,1.6-10.3,4.5c-2.8,3-4.2,7-4.2,12c0,5,1.4,9,4.2,12C543.6,717.7,547.3,719.4,551.2,719.3
							L551.2,719.3z M596.2,727.1c-4.9,0-8.9-1.4-12.2-4.2c-3.3-2.8-4.9-6.5-4.9-11.1c0-5,1.9-8.9,5.8-11.7s8.6-4.2,14.3-4.2
							c5,0,9.2,0.9,12.4,2.8v-1.3c0.1-3.1-1.1-6-3.5-8c-2.3-2-5.4-3.1-8.5-3c-2.4,0-4.7,0.6-6.8,1.8c-1.9,1.1-3.4,2.8-4.2,4.8
							l-7.8-3.3c1.1-2.7,3.1-5.3,6.3-7.6s7.2-3.5,12.3-3.5c5.8,0,10.7,1.7,14.6,5.1c3.9,3.4,5.8,8.2,5.8,14.4v27.5h-8.2v-6.3h-0.4
							C607.8,724.5,602.8,727.1,596.2,727.1z M597.6,719.3c3.6,0,7.1-1.4,9.7-4c2.8-2.3,4.4-5.7,4.4-9.3c-2.4-2-6.1-3-10.9-3
							c-4.2,0-7.3,0.9-9.4,2.7c-2,1.5-3.1,3.8-3.2,6.3c0,2.2,1.1,4.2,2.9,5.3C593,718.7,595.3,719.3,597.6,719.3L597.6,719.3z
							 M645.1,727.1c-5.1,0-9.3-1.2-12.6-3.7c-3.2-2.4-5.8-5.6-7.3-9.3l7.7-3.2c2.4,5.7,6.6,8.6,12.4,8.6c2.3,0.1,4.6-0.5,6.6-1.8
							c1.6-1,2.6-2.8,2.6-4.7c0-3-2.1-5-6.3-6l-9.2-2.2c-3-0.8-5.9-2.2-8.3-4.2c-2.6-2-4-5.1-3.9-8.4c0-4,1.8-7.3,5.4-9.8
							c3.7-2.6,8.2-3.9,12.7-3.8c3.8-0.1,7.5,0.9,10.8,2.8c3.1,1.8,5.5,4.5,6.8,7.9l-7.5,3c-1.7-4-5.2-6-10.5-6
							c-2.3-0.1-4.5,0.5-6.4,1.6c-1.6,0.8-2.6,2.5-2.6,4.3c0,2.6,2,4.4,6.1,5.3l9.1,2.1c4.3,1,7.5,2.7,9.5,5.1
							c2,2.3,3.1,5.2,3.1,8.2c0,4-1.9,7.8-5.1,10.2C654.7,725.8,650.4,727.1,645.1,727.1L645.1,727.1z M691.3,727.1
							c-6.9,0-12.5-2.3-16.8-6.9c-4.3-4.6-6.5-10.4-6.5-17.4c-0.1-6.3,2.1-12.4,6.3-17.1c4-4.7,9.9-7.3,16.1-7.2
							c6.8,0,12.2,2.2,16.3,6.6c4.1,4.4,6.1,10.3,6.1,17.7l-0.1,1.6h-36.1c0.2,4.6,1.8,8.2,4.6,10.9c2.6,2.6,6.2,4,9.9,4
							c6.2,0,10.3-2.6,12.5-7.8l7.6,3.2c-1.6,3.6-4.1,6.7-7.4,8.9C700.5,725.9,696.3,727.1,691.3,727.1L691.3,727.1z M703.6,697.3
							c-0.2-2.6-1.4-5.1-3.6-7.4c-2.2-2.4-5.5-3.5-9.8-3.5c-3-0.1-6,1-8.3,3c-2.4,2.1-4.1,4.9-4.8,8L703.6,697.3z"/>
						<g id="_Group_" transform="translate(8.839779, 0.000000)">
							<g id="_Path_5">
								
									<linearGradient id="path-2_00000032632578255989475060000001635731370440262814_" gradientUnits="userSpaceOnUse" x1="-420.6316" y1="1077.597" x2="-417.8316" y2="1075.5609" gradientTransform="matrix(104.2457 0 0 -142.0957 44238.3672 153431.2812)">
									<stop  offset="0" style="stop-color:#FFFFFF;stop-opacity:0.1"/>
									<stop  offset="1" style="stop-color:#FFFFFF;stop-opacity:0"/>
								</linearGradient>
								
									<path id="path-2_00000038388782599443695730000007287716045269332638_" style="fill:url(#path-2_00000032632578255989475060000001635731370440262814_);" d="
									M642.6,329.6c-0.5-3.2-2.8-5.9-6-6.9s-6.6-0.2-8.9,2.1l-45.3,45.3l-35.9-67.4c-1.4-2.9-4.4-4.7-7.7-4.7s-6.2,1.8-7.7,4.7
									l-19.5,36.8L462.7,249c-3.9-7.4-15.1-5.4-16.4,2.8l-47.2,300.3l126.6,70.4c8,4.3,17.6,4.3,25.6,0l127.7-70.4L642.6,329.6z"
									/>
							</g>
							<defs>
								<filter id="Adobe_OpacityMaskFilter" filterUnits="userSpaceOnUse" x="383.3" y="244.4" width="310.8" height="392.2">
									<feColorMatrix  type="matrix" values="1 0 0 0 0  0 1 0 0 0  0 0 1 0 0  0 0 0 1 0"/>
								</filter>
							</defs>
							
								<mask maskUnits="userSpaceOnUse" x="383.3" y="244.4" width="310.8" height="392.2" id="mask-3_00000042003755105593836580000005978910536708692610_">
								<g class="st1">
									<path id="path-2_00000157294322544436889450000017741992473158945679_" class="st2" d="M642.6,329.6
										c-0.5-3.2-2.8-5.9-6-6.9s-6.6-0.2-8.9,2.1l-45.3,45.3l-35.9-67.4c-1.4-2.9-4.4-4.7-7.7-4.7s-6.2,1.8-7.7,4.7l-19.5,36.8
										L462.7,249c-3.9-7.4-15.1-5.4-16.4,2.8l-47.2,300.3l126.6,70.4c8,4.3,17.6,4.3,25.6,0l127.7-70.4L642.6,329.6z"/>
								</g>
							</mask>
							<g id="_Group_2" class="st3">
								<g transform="translate(-6.041511, -0.151675)">
									<g id="_Group_3">
										<path id="_Path_" class="st4" d="M405.1,552.3L452.6,252c1.3-8.2,12.5-10.2,16.4-2.8l49,90.6l19.5-36.8
											c1.5-2.9,4.5-4.7,7.8-4.7s6.3,1.8,7.8,4.7l132,249.4H405.1z"/>
										<g id="_Group_4" transform="translate(0.000000, 28.524759)">
											<g style="opacity:0.12;enable-background:new    ;">
												
													<image style="overflow:visible;" width="87" height="112" id="Bitmap" xlink:href="84D54836.png"  transform="matrix(2.1476 0 0 2.1476 389.314 291.9118)">
												</image>
											</g>
											<polygon id="Shape_00000075127725527012544750000014759451107621721474_" class="st5" points="568.6,406.8 517.7,311.2 
												405.1,523.8 											"/>
										</g>
									</g>
									<g id="_Group_5" transform="translate(3.257678, 22.066323)">
										<g transform="matrix(1 0 0 1 0 -3.051758e-05)" style="opacity:0.2;enable-background:new    ;">
											
												<image style="overflow:visible;" width="140" height="155" id="_Image_" xlink:href="84D5483A.png"  transform="matrix(2.1529 0 0 2.1529 395.4435 281.0349)">
											</image>
										</g>
										<g id="_Group_6" transform="translate(3.257678, 6.996639)">
											<path id="_Path_2" class="st6" d="M678.4,523.2l-36.3-222.5c-0.5-3.2-2.8-5.9-6-6.9s-6.6-0.2-8.9,2.1L398.6,523.2
												l126.6,70.4c8,4.3,17.6,4.3,25.6,0L678.4,523.2z"/>
										</g>
									</g>
									<path id="_Compound_Path_" class="st7" d="M648.7,329.8c-0.5-3.2-2.8-5.9-6-6.9c-3.1-1-6.6-0.2-8.9,2.1l-45.3,45.3
										l-35.9-67.4c-1.4-2.9-4.4-4.7-7.7-4.7s-6.2,1.8-7.7,4.7l-19.5,36.8l-49.2-90.6c-3.9-7.4-15.1-5.4-16.4,2.8l-47.2,300.3
										h-0.2l0.2,0.2l1.3,0.7l181.9-180.7l45.5-45.1c2.3-2.3,5.8-3.1,8.9-2.1c3.1,1,5.4,3.6,6,6.9l35.9,220.4l0.4-0.2L648.7,329.8
										z M405.6,551.9l47-297.7c1.3-8.2,12.5-10.2,16.4-2.8l49,90.6l19.5-36.8c1.5-2.9,4.5-4.7,7.8-4.7s6.3,1.8,7.8,4.7l35,65.9
										L405.6,551.9z"/>
									<path id="_Path_3" class="st8" d="M557.3,620.6c-8,4.3-17.6,4.3-25.6,0l-126.4-70.2l-0.2,2l126.6,70.4
										c8,4.3,17.6,4.3,25.6,0l127.7-70.4l-0.2-2L557.3,620.6z"/>
								</g>
							</g>
							<defs>
								
									<filter id="Adobe_OpacityMaskFilter_00000163795288764795384750000009216415740165076127_" filterUnits="userSpaceOnUse" x="329.1" y="227.1" width="419.7" height="416">
									<feColorMatrix  type="matrix" values="1 0 0 0 0  0 1 0 0 0  0 0 1 0 0  0 0 0 1 0"/>
								</filter>
							</defs>
							
								<mask maskUnits="userSpaceOnUse" x="329.1" y="227.1" width="419.7" height="416" id="mask-3_00000011742814475132309910000010932980020200807863_">
								<g style="filter:url(#Adobe_OpacityMaskFilter_00000163795288764795384750000009216415740165076127_);">
									<path id="path-2_00000181065591832471820890000015411072715462461869_" class="st2" d="M642.6,329.6
										c-0.5-3.2-2.8-5.9-6-6.9s-6.6-0.2-8.9,2.1l-45.3,45.3l-35.9-67.4c-1.4-2.9-4.4-4.7-7.7-4.7s-6.2,1.8-7.7,4.7l-19.5,36.8
										L462.7,249c-3.9-7.4-15.1-5.4-16.4,2.8l-47.2,300.3l126.6,70.4c8,4.3,17.6,4.3,25.6,0l127.7-70.4L642.6,329.6z"/>
								</g>
							</mask>
							<polygon id="_Path_4" class="st10" points="329.1,227.1 748.9,227.1 748.9,643.2 329.1,643.2 							"/>
							<defs>
								
									<filter id="Adobe_OpacityMaskFilter_00000056385221880868086960000016074848775474833571_" filterUnits="userSpaceOnUse" x="399.1" y="244.4" width="279.8" height="381.4">
									<feColorMatrix  type="matrix" values="1 0 0 0 0  0 1 0 0 0  0 0 1 0 0  0 0 0 1 0"/>
								</filter>
							</defs>
							
								<mask maskUnits="userSpaceOnUse" x="399.1" y="244.4" width="279.8" height="381.4" id="mask-3_00000176726423271079867800000014190061558354355359_">
								<g style="filter:url(#Adobe_OpacityMaskFilter_00000056385221880868086960000016074848775474833571_);">
									<path id="path-2_00000064345253865414301210000011012778300994196630_" class="st2" d="M642.6,329.6
										c-0.5-3.2-2.8-5.9-6-6.9s-6.6-0.2-8.9,2.1l-45.3,45.3l-35.9-67.4c-1.4-2.9-4.4-4.7-7.7-4.7s-6.2,1.8-7.7,4.7l-19.5,36.8
										L462.7,249c-3.9-7.4-15.1-5.4-16.4,2.8l-47.2,300.3l126.6,70.4c8,4.3,17.6,4.3,25.6,0l127.7-70.4L642.6,329.6z"/>
								</g>
							</mask>
							
								<linearGradient id="_Path_5_00000137106012852694837800000016385467893976676750_" gradientUnits="userSpaceOnUse" x1="-420.6316" y1="1077.597" x2="-417.8316" y2="1075.5609" gradientTransform="matrix(104.2457 0 0 -142.0957 44238.3672 153431.2812)">
								<stop  offset="0" style="stop-color:#FFFFFF;stop-opacity:0.1"/>
								<stop  offset="1" style="stop-color:#FFFFFF;stop-opacity:0"/>
							</linearGradient>
							
								<path id="_Path_5_00000111874493768429091870000015877749130683608715_" style="mask:url(#mask-3_00000176726423271079867800000014190061558354355359_);fill:url(#_Path_5_00000137106012852694837800000016385467893976676750_);" d="
								M642.6,329.6c-0.5-3.2-2.8-5.9-6-6.9s-6.6-0.2-8.9,2.1l-45.3,45.3l-35.9-67.4c-1.4-2.9-4.4-4.7-7.7-4.7s-6.2,1.8-7.7,4.7
								l-19.5,36.8L462.7,249c-3.9-7.4-15.1-5.4-16.4,2.8l-47.2,300.3l126.6,70.4c8,4.3,17.6,4.3,25.6,0l127.7-70.4L642.6,329.6z"/>
						</g>
					</g>
				</g>
			</g>
		</g>
	</g>
</g>
</svg>
