<?xml version="1.0" encoding="utf-8"?>
<!-- Generator: Adobe Illustrator 26.0.1, SVG Export Plug-In . SVG Version: 6.00 Build 0)  -->
<svg version="1.1" id="Capa_1" xmlns="http://www.w3.org/2000/svg" xmlns:xlink="http://www.w3.org/1999/xlink" x="0px" y="0px"
	 viewBox="0 0 1080 1080" style="enable-background:new 0 0 1080 1080;" xml:space="preserve">
<style type="text/css">
	.st0{fill:url(#path-2_00000152266028554353329470000016464098378259737486_);}
	.st1{fill:#FFA000;}
	.st2{opacity:0.12;enable-background:new    ;}
	.st3{fill:#F57C00;}
	.st4{opacity:0.2;enable-background:new    ;}
	.st5{fill:#FFCA28;}
	.st6{fill:#FFFFFF;fill-opacity:0.2;}
	.st7{opacity:0.2;fill:#A52714;enable-background:new    ;}
	.st8{fill:none;}
	.st9{filter:url(#Adobe_OpacityMaskFilter);}
	.st10{fill-rule:evenodd;clip-rule:evenodd;fill:#FFFFFF;}
	
		.st11{mask:url(#mask-3_00000053536521712580318390000003861633189010816699_);fill:url(#_Path_5_00000141446714192819732000000012072186651983677078_);}
</style>
<g id="Page-1">
	<g id="styleguide" transform="translate(-256.000000, -1246.000000)">
		<g id="Group-16" transform="translate(40.000000, 1187.000000)">
			<g id="Group-9" transform="translate(114.000000, 0.000000)">
				<g id="Group-25">
					<g id="logo_lockup_firebase_vertical" transform="translate(102.541436, 59.226519)">
						<g id="_Group_" transform="translate(8.839779, 0.000000)">
							<g id="_Path_5">
								
									<linearGradient id="path-2_00000028318080510889313320000009516824795583987589_" gradientUnits="userSpaceOnUse" x1="-430.4783" y1="2.331" x2="-426.7773" y2="5.0223" gradientTransform="matrix(104.2457 0 0 142.0957 45216.3203 0.1095)">
									<stop  offset="0" style="stop-color:#FFFFFF;stop-opacity:0.1"/>
									<stop  offset="1" style="stop-color:#FFFFFF;stop-opacity:0"/>
								</linearGradient>
								
									<path id="path-2_00000038388782599443695730000007287716045269332638_" style="fill:url(#path-2_00000028318080510889313320000009516824795583987589_);" d="
									M675.6,358.1c-0.7-4.2-3.7-7.8-7.9-9.1c-4.2-1.3-8.7-0.3-11.8,2.8L596,411.6l-47.5-89.1c-1.9-3.8-5.8-6.2-10.2-6.2
									c-4.4,0-8.2,2.4-10.2,6.2l-25.8,48.6l-64.6-119.6c-5.2-9.8-20-7.1-21.7,3.7l-62.4,396.9L521,745.3c10.6,5.7,23.3,5.7,33.8,0
									l168.8-93.1L675.6,358.1z"/>
							</g>
							<g id="_Group_2">
								<g transform="translate(-6.041511, -0.151675)">
									<g id="_Group_3">
										<path id="_Path_" class="st1" d="M359.7,652.4l62.8-396.9c1.7-10.8,16.5-13.5,21.7-3.7l64.8,119.8l25.8-48.6
											c2-3.8,5.9-6.2,10.3-6.2c4.4,0,8.3,2.4,10.3,6.2l174.5,329.7H359.7V652.4z"/>
										<g id="_Group_4" transform="translate(0.000000, 28.524759)">
											<g class="st2">
											</g>
											<polygon id="Shape_00000075127725527012544750000014759451107621721474_" class="st3" points="575.8,469.3 508.5,342.9 
												359.7,623.9 											"/>
										</g>
									</g>
									<g id="_Group_5" transform="translate(3.257678, 22.066323)">
										<g transform="matrix(1 0 0 1 0 -3.051758e-05)" class="st4">
										</g>
										<g id="_Group_6" transform="translate(3.257678, 6.996639)">
											<path id="_Path_2" class="st5" d="M723,623.3l-48-294.1c-0.7-4.2-3.7-7.8-7.9-9.1c-4.2-1.3-8.7-0.3-11.8,2.8L353.2,623.3
												l167.3,93.1c10.6,5.7,23.3,5.7,33.8,0L723,623.3z"/>
										</g>
									</g>
									<path id="_Compound_Path_" class="st6" d="M681.7,358.3c-0.7-4.2-3.7-7.8-7.9-9.1c-4.1-1.3-8.7-0.3-11.8,2.8l-59.9,59.9
										l-47.5-89.1c-1.9-3.8-5.8-6.2-10.2-6.2c-4.4,0-8.2,2.4-10.2,6.2l-25.8,48.6l-65-119.8c-5.2-9.8-20-7.1-21.7,3.7
										l-62.4,396.9h-0.3l0.3,0.3l1.7,0.9l240.4-238.8l60.1-59.6c3-3,7.7-4.1,11.8-2.8c4.1,1.3,7.1,4.8,7.9,9.1l47.5,291.3
										l0.5-0.3L681.7,358.3z M360.3,651.9l62.1-393.5c1.7-10.8,16.5-13.5,21.7-3.7l64.8,119.8l25.8-48.6c2-3.8,5.9-6.2,10.3-6.2
										c4.4,0,8.3,2.4,10.3,6.2l46.3,87.1L360.3,651.9z"/>
									<path id="_Path_3" class="st7" d="M560.9,742.7c-10.6,5.7-23.3,5.7-33.8,0l-167.1-92.8l-0.3,2.6L527,745.6
										c10.6,5.7,23.3,5.7,33.8,0l168.8-93.1l-0.3-2.6L560.9,742.7z"/>
								</g>
							</g>
							<polygon id="_Path_4" class="st8" points="261.2,222.6 816.1,222.6 816.1,772.6 261.2,772.6 							"/>
							<defs>
								<filter id="Adobe_OpacityMaskFilter" filterUnits="userSpaceOnUse" x="353.7" y="245.5" width="370" height="504">
									<feColorMatrix  type="matrix" values="1 0 0 0 0  0 1 0 0 0  0 0 1 0 0  0 0 0 1 0"/>
								</filter>
							</defs>
							
								<mask maskUnits="userSpaceOnUse" x="353.7" y="245.5" width="370" height="504" id="mask-3_00000053536521712580318390000003861633189010816699_">
								<g class="st9">
									<path id="path-2_00000114055540457405928570000000023614419685183879_" class="st10" d="M675.6,358.1
										c-0.7-4.2-3.7-7.8-7.9-9.1c-4.2-1.3-8.7-0.3-11.8,2.8L596,411.6l-47.5-89.1c-1.9-3.8-5.8-6.2-10.2-6.2
										c-4.4,0-8.2,2.4-10.2,6.2l-25.8,48.6l-64.6-119.6c-5.2-9.8-20-7.1-21.7,3.7l-62.4,396.9L521,745.3
										c10.6,5.7,23.3,5.7,33.8,0l168.8-93.1L675.6,358.1z"/>
								</g>
							</mask>
							
								<linearGradient id="_Path_5_00000170968503119819116110000013965692629654977936_" gradientUnits="userSpaceOnUse" x1="-430.4783" y1="2.331" x2="-426.7773" y2="5.0223" gradientTransform="matrix(104.2457 0 0 142.0957 45216.3203 0.1095)">
								<stop  offset="0" style="stop-color:#FFFFFF;stop-opacity:0.1"/>
								<stop  offset="1" style="stop-color:#FFFFFF;stop-opacity:0"/>
							</linearGradient>
							
								<path id="_Path_5_00000111874493768429091870000015877749130683608715_" style="mask:url(#mask-3_00000053536521712580318390000003861633189010816699_);fill:url(#_Path_5_00000170968503119819116110000013965692629654977936_);" d="
								M675.6,358.1c-0.7-4.2-3.7-7.8-7.9-9.1c-4.2-1.3-8.7-0.3-11.8,2.8L596,411.6l-47.5-89.1c-1.9-3.8-5.8-6.2-10.2-6.2
								c-4.4,0-8.2,2.4-10.2,6.2l-25.8,48.6l-64.6-119.6c-5.2-9.8-20-7.1-21.7,3.7l-62.4,396.9L521,745.3c10.6,5.7,23.3,5.7,33.8,0
								l168.8-93.1L675.6,358.1z"/>
						</g>
					</g>
				</g>
			</g>
		</g>
	</g>
</g>
</svg>
