<?xml version="1.0" encoding="utf-8"?>
<!-- Generator: Adobe Illustrator 26.0.1, SVG Export Plug-In . SVG Version: 6.00 Build 0)  -->
<svg version="1.1" id="Capa_1" xmlns="http://www.w3.org/2000/svg" xmlns:xlink="http://www.w3.org/1999/xlink" x="0px" y="0px"
	 viewBox="0 0 1080 1080" style="enable-background:new 0 0 1080 1080;" xml:space="preserve">
<style type="text/css">
	.st0{fill:#F05133;}
</style>
<g>
	<path class="st0" d="M810.7,482.1L566.4,237.9c-14.1-14.1-36.9-14.1-51,0l-50.7,50.7l64.3,64.3c15-5.1,32.1-1.7,44,10.3
		c12,12,15.4,29.3,10.2,44.3l62,62c15-5.2,32.3-1.8,44.3,10.2c16.7,16.7,16.7,43.9,0,60.6c-16.8,16.8-43.9,16.8-60.7,0
		c-12.6-12.6-15.7-31.1-9.3-46.6l-57.8-57.8v152.2c4.1,2,7.9,4.7,11.3,8.1c16.7,16.7,16.7,43.9,0,60.6c-16.7,16.7-43.9,16.7-60.6,0
		c-16.7-16.8-16.7-43.9,0-60.6c4.1-4.1,8.9-7.3,14-9.4V433.2c-5.1-2.1-9.9-5.2-14-9.4c-12.7-12.7-15.7-31.3-9.2-46.9l-63.4-63.4
		L272.3,481c-14.1,14.1-14.1,36.9,0,51l244.3,244.3c14.1,14.1,36.9,14.1,51,0l243.1-243.1C824.8,519,824.8,496.2,810.7,482.1z"/>
</g>
</svg>
