<?xml version="1.0" encoding="utf-8"?>
<!-- Generator: Adobe Illustrator 26.0.1, SVG Export Plug-In . SVG Version: 6.00 Build 0)  -->
<svg version="1.1" id="Capa_1" xmlns="http://www.w3.org/2000/svg" xmlns:xlink="http://www.w3.org/1999/xlink" x="0px" y="0px"
	 viewBox="0 0 1080 1080" style="enable-background:new 0 0 1080 1080;" xml:space="preserve">
<path d="M540,227.7c-158.7-0.1-287.2,128.4-287.2,286.9c0,125.4,80.4,232,192.4,271.1c15.1,3.8,12.8-6.9,12.8-14.2v-49.7
	c-87.1,10.2-90.6-47.4-96.4-57c-11.8-20.1-39.7-25.3-31.4-34.9c19.8-10.2,40,2.6,63.5,37.2c16.9,25.1,50,20.9,66.7,16.7
	c3.7-15.1,11.5-28.6,22.3-39c-90.2-16.2-127.8-71.2-127.8-136.7c0-31.8,10.5-61,31-84.5c-13.1-38.8,1.2-72.1,3.1-77
	c37.3-3.3,76,26.7,79.1,29.1c21.2-5.7,45.4-8.7,72.4-8.7c27.2,0,51.5,3.1,72.8,8.9c7.3-5.5,43.2-31.3,77.8-28.2
	c1.9,4.9,15.8,37.4,3.5,75.7c20.8,23.6,31.4,53.1,31.4,84.9c0,65.6-37.9,120.7-128.3,136.6c15.7,15.4,24.5,36.4,24.4,58.4v72.2
	c0.5,5.8,0,11.5,9.6,11.5c113.6-38.3,195.4-145.7,195.4-272.1C827.2,356.1,698.6,227.7,540,227.7L540,227.7z"/>
</svg>
