<?xml version="1.0" encoding="utf-8"?>
<!-- Generator: Adobe Illustrator 26.0.1, SVG Export Plug-In . SVG Version: 6.00 Build 0)  -->
<svg version="1.1" id="Capa_1" xmlns="http://www.w3.org/2000/svg" xmlns:xlink="http://www.w3.org/1999/xlink" x="0px" y="0px"
	 viewBox="0 0 1080 1080" style="enable-background:new 0 0 1080 1080;" xml:space="preserve">
<style type="text/css">
	.st0{fill:#88CE02;}
	.st1{fill:#EFEFEF;}
	.st2{fill:#001423;}
	.st3{opacity:0.3;enable-background:new    ;}
	.st4{fill-opacity:0;}
	.st5{opacity:0.4;enable-background:new    ;}
	.st6{fill:#88CE02;stroke:#000000;stroke-width:1.586;stroke-linejoin:round;stroke-miterlimit:10;}
</style>
<g>
	<g>
		<path d="M365.8,471.1c-16.3,7.7-59.4,42.2-67.7,52.4c-8.6,10.2-11.2-5.8-2.2-32.3c7-21.4,24.9-50.5,55-75.4
			c17.6-14.4,56.2-35.2,79.9-47.3c4.8-2.6,66.8-28.8,122.1-41.9c4.8-1.3-5.8,8-7.4,13.1c-8.3,24.3-174.2,128.5-174.2,128.5
			L365.8,471.1z"/>
		<path d="M599.4,764.2c2.9,17.3,0.3,18.5-17.6,20.8c-17.9,2.2-31-4.5-35.8-8.9c-4.8-4.5-5.8-14.4-1-23.3c2.9-5.8,5.8-7.7,7.4-14.7
			c1.6-6.7,2.9-8.3,4.2-10.9c1.3-2.2,1.6-4.5,1.9-20.1c0.3-15.7,0-45.1,1.6-57.5c1.6-12.8,56.9,5.8,56.9,5.8s-13.1,32.6-16.6,40.6
			c-3.5,8-3.2,23.3-3.2,26.5s-1.3,9.6-2.2,9.9c-1,0.3,3.2,8.6,1.3,13.4C594.9,750.1,599.1,761.6,599.4,764.2z"/>
		<path d="M620.5,275.5c-1.9-12.1,0-36.1,2.6-39.9c8-10.9,50.2-12.1,59.1,0.6c3.8,5.8,3.5,19.2,2.9,27.8c-0.6,8.6-2.9,27.2-3.2,33.2
			c-0.3,4.5-46.7,11.5-56.9-0.6C622.1,293.4,620.5,275.5,620.5,275.5z"/>
		<path d="M714.4,733.2c19.5,14.1,34.5,16.6,44.4,21.7c9.9,5.1,7.4,15-9.3,17.9c-13.4,2.6-34.5-2.6-48.6-2.6s-45.4,1.6-53.7-4.2
			c-9.6-6.7-5.4-19.2-5.4-19.2c2.6-7,8.9-22.7,7-35.5s-4.5-19.8-9.3-31.6c-4.8-11.8-8.3-40.9-3.8-42.5c4.5-1.6,3.2,0,8.9,1.3
			c5.8,1.3,12.1,3.2,24.6,3.2s26.2-1.9,31-2.9c4.8-1,8.6-1.9,7,8c-1.6,9.9-6.4,28.4-6.7,42.8c-0.3,14.4-0.3,31,0.6,33.9
			C702.3,726.4,709.3,729.6,714.4,733.2z"/>
		<g>
			<g>
				<path class="st0" d="M646.1,307.5c-35.2,30.4-103.2,38.7-204.2,77.7c-25.9,9.9-94.9,39.6-111.5,70.6
					c55.9-32.3,76.7,12.1,81.2,57.8c4.2,42.8,25.6,65.2,80.5,63.9c56.6-1.3,73.8,31.6,89.5,70.3c30.4-148,78.9-176.7,110.2-202
					C758.2,391.9,676.4,296.6,646.1,307.5z"/>
				<path class="st0" d="M646.1,307.5c-84.4,29.4-167.8,36.7-265.9,97.1c-23.3,14.4-72.5,47-82.1,109.3
					c35.8-39.6,118.6-89.5,219.9-121.1c51.1-16,88.5-26.5,133.9-44.1C648.6,328.3,648.6,320.3,646.1,307.5z"/>
			</g>
			<path d="M753.7,482.6c0,0-6.1,20.8-18.2,27.5c0,0-8.9,3.2-26.8-6.7c-5.1-2.9-8.9-12.8-8.6-16c0.3-7.7,5.1-11.2,5.1-11.2
				s5.1-8.6,11.2-8.3c6.1,0.3,16.3,1.3,19.5-1.6C738.7,463.1,754.4,472.1,753.7,482.6z"/>
			<path d="M623.4,281.6c0,0-1.3,16.3-3.5,26.5c-0.3,1.9-9.9,2.9-16.9,5.8c13.4,38.3,94.3,38,104.8,19.2
				c-5.1-3.5-15.3-8.9-20.1-10.9c-4.8-1.9-4.5-1.6-4.8-10.5c-0.3-8.9-1-25.6-1.6-30C680.6,277.1,631,277.1,623.4,281.6z"/>
			<path class="st1" d="M626.6,281.6c0,0,0,9.3-1,18.2c-0.3,4.2-0.6,6.7-1.3,9.9c-0.3,1.9,10.9,9.6,14.1,26.5
				c15.3,34.2,50.8,17.3,65.5,1c-5.1-3.5-13.4-8.3-23-12.1c-4.8-1.9-2.6-6.1-2.9-15c-0.3-8.9-1.6-22.1-2.2-26.8
				C675.1,278.4,634.2,277.1,626.6,281.6z"/>
			<path d="M623.4,281.6c0,0-0.3,5.8-1.3,12.5c4.2,4.2,9.6,9.9,13.7,13.4c2.9,2.6,9.9,2.2,16.3,2.2c5.8,0,10.9,0.6,13.1-0.6
				c5.1-2.6,12.5-8.9,16.6-13.7c-0.3-5.8-0.6-11.2-1-13.7C680.6,277.1,631,277.1,623.4,281.6z"/>
			<path d="M652.4,305.9c-3.8,0-8.3-0.3-11.8-1c-1.6-0.3-3.2-1.3-4.5-1.9c-2.2-1.6-4.5-3.5-7-5.4c-5.1-3.8-5.4-6.1-5.4-7
				c2.2-20.1-0.6-37.1-0.6-37.1s-2.2-8.6,9.9-10.9c12.1-2.2,19.5-2.6,19.5-2.6s7.7,0,19.5,2.6c12.1,2.2,9.9,10.9,9.9,10.9
				s-2.9,16.9-0.6,37.1c0,1-0.3,3.2-5.4,7c-4.5,3.2-8,6.7-11.5,7.4C660.7,305.6,656.3,305.9,652.4,305.9z"/>
			<path d="M652.4,231.8c-21.1,0-25.2,5.8-31.3,12.1c-1.3,1.6-0.3,11.2,1.9,31.6h2.9c0,0-1.9-5.8-1.6-12.5c0.3-6.7,1.6-6.4,0.6-8
				c-1.3-1.9-3.8-5.1,1.9-8.3c5.8-3.2,14.7,2.6,25.6,2.9c10.9-0.3,20.1-6.1,25.9-2.9c5.8,3.2,3.2,6.4,1.9,8.3
				c-1.3,1.9,0.3,1.3,0.6,8c0.3,6.7-1.6,12.5-1.6,12.5h2.9c1.9-20.5,3.2-29.4,2.2-31C679,237.5,673.5,232.1,652.4,231.8z"/>
			<path d="M753.7,483.6c0,0-6.1,19.5-17.9,26.2c-2.6-1.3-2.2-3.2-4.5-6.1c-0.6-1-2.9-1.6-3.8-2.6c-1-1-0.6-2.6-2.2-3.8
				c-1.3-1.3-2.2-0.3-3.5-1.3c-1.3-1.3-1.6-2.9-2.6-3.8c-0.6-0.6-3.2-1-3.8-1.6c-1.6-1.6-15.7-4.5-15-7.7c1.3-4.8,3.8-8.3,3.8-8.3
				s6.1-8.9,12.1-8.6c6.1,0.3,11.8,1.6,15-1.3C734.9,461.5,754.7,473.4,753.7,483.6z"/>
			<path d="M712.2,342.3c0,0,20.1-4.8,33.9,8.3c13.7,13.4,12.8,30,8.6,40.3c3.5,4.2,9.9,15.7,5.1,29.4c21.1,17.9,11.8,45.4-7,63.6
				c0,0-4.5-16.6-22.4-17.6c0.6-6.4-16.6-11.5-8.6-28.1c-12.1-2.9-11.8-11.2-13.7-21.4C706.4,406.6,712.2,342.3,712.2,342.3z"/>
			<path class="st1" d="M704.8,351.3c0,0,23.3-11.8,37.1,1.6c13.7,13.4,9.9,28.1,5.8,38.3c3.5,4.2,11.8,16,6.7,30
				c-1,3.2-8,3.2-13.1,11.5c12.8-7.4,20.8-5.4,23.6,3.8c4.5,14.4-5.4,31.6-14.1,41.2c0-0.3-0.3-0.6-0.3-1
				c-1.3,4.8-2.9,14.1-12.5,24.3c-4.8,5.1-8.6,4.5-14.1,3.2c-6.4-1.6-8.6-4.5-17.6-9.3c-5.1-2.9-2.2-6.4-2.2-9.3
				c0-0.6,0.6-1.6,1.6-2.9c0.6-1.6,2.6-4.2,5.4-7c0,0,4.2-5.8,10.2-5.4c6.1,0.3,12.5-1,14.1-2.6l0,0c0-11.2-12.8-11.5-8.3-30.7
				c0.3-1,1.9-2.6,7-3.2c-7.7-1.6-11.2-1.9-16.6-7c-3.8-3.5-6.7-8-7.7-13.7C708,403.4,704.8,351.3,704.8,351.3z"/>
			<path d="M637.4,331.2c-1.9-2.6-11.8-15.3-30.7-20.5c-5.4-1.6-8.9,2.9-14.4,6.1c-1.6-1-8.6-4.2-12.5-1.9s-6.4,4.5-10.2,6.1
				c-1.9-1-7-1-11.2,0.6c-4.2,1.3-10.5,4.2-16.6,12.5c-3.8,13.7,67.7,3.5,67.7,3.5L637.4,331.2z"/>
			<path class="st0" d="M638.1,331.2c-10.2-3.5-8.6-15.3-31.3-17.3c-4.5-0.3-7.4,3.2-10.5,5.4c1.6,1.6,3.2,4.2,4.2,6.7
				c-2.9-3.2-8-7.4-13.1-8.3c-4.8-1-8,2.6-13.1,5.1c1,1,1.9,2.6,3.2,4.5c-4.5-2.9-7.7-3.8-13.7-1.6c-4.2,1.3-12.1,4.8-18.2,13.4
				c-3.8,13.7,64.6-1.6,64.6-1.6L638.1,331.2z"/>
			<path d="M698.1,336.3c0,0,0-3.5-0.3-6.7c0-0.6-2.6-2.2-2.6-2.9l-0.6-0.6c0,0,5.1-2.9,8.9-1.3c4.2,1.3,6.4,6.7,6.4,6.7
				c7.4-2.6,8,0.3,11.5,4.2c7.7-1.6,8.6,1.3,13.4,8.3c0,0-5.8-1-16.9,1C707.1,346.5,698.1,335.9,698.1,336.3z"/>
			<path class="st0" d="M696.9,334.7c0,0,1.9-1.6,1.3-1.9c3.5-1.9,8.3-4.2,10.5,1.9c7.4-2.6,8.3,1,11.8,4.8c8.9-4.2,9.6,1,10.2,3.2
				c-2.9,0-7,0.3-12.8,1C707.1,345.2,696.5,334.3,696.9,334.7z"/>
			<path d="M588.2,326.7c0,0,18.2,6.4,33.6,5.4c15.3-1.3,41.5-2.6,55.6,5.8c0,0,14.4-5.1,27.8-1.6c13.4,3.5,38,26.5,30.7,50.8
				c-0.6,1.6-4.8,4.2-9.6,5.8c0,0,2.6,10.9-1.9,19.8c-4.5,8.6-14.4,25.2-14.7,48.3l0,0c-0.3,3.8-1,11.8-1.6,15.7
				c-24.9-1-63.3-10.2-101-9.6c0.3-4.2,0.6-6.7,1-10.9h1c-1.9-10.5-2.6-16-4.5-24c-12.1-7.7-24.9-16.6-35.8-33.6
				C558.2,381.6,588.2,326.7,588.2,326.7z"/>
			<path d="M711.6,499.2c0,0,19.8,70.9-3.5,100.7c0,0,3.5,13.7-4.5,28.4c-1.3,6.4-2.9,12.1-3.8,18.5c-4.2,26.5-11.2,37.7-13.1,80.2
				l-19.2-0.3c0,0-2.2-30.7-8.9-47c-3.8-9.3-18.9-21.7-18.2-34.2c0.6-9.6,2.6-17.6,18.9-30.4c1.3-18.5-17.3-36.1-14.4-105.1
				L711.6,499.2z"/>
			<path class="st1" d="M705.8,496.4c5.1,32.6,16.9,80.8-4.5,104.5c1,4.5,1.6,10.9,0.3,18.2c-0.6,3.8-1.9,8-3.5,12.5
				c-3.2,7.7-4.5,18.9-5.4,25.6c-4.2,26.5-4.2,27.8-6.1,70.3l-19.2-0.3c0,0-2.2-30.7-8.9-47c-3.8-9.3-11.8-17.3-12.5-29.7
				c-0.6-9.6,6.1-28.8,22.1-28.1c-1-38.7-18.9-31-23.6-111.5L705.8,496.4z"/>
			<path class="st1" d="M588.2,326.7c0,0,7,2.2,14.7,2.9c7.7,0.6,16,0,23.3-0.3c15.3-1.3,37.1-2.9,51.4,5.4c0,0,8-2.6,16.6-1.9
				c3.8,0.3,7.7,3.5,12.1,4.8c14.1,3.5,27.5,26.8,21.4,47.9c-0.6,1.6-5.1,0-10.2,1.6c1,4.5,1.6,14.7-3.5,25.6
				c-5.4,10.9-12.5,24.9-11.2,51.8c-33.6-1.6-48.6-3.8-81.8-5.4c-2.9-11.8-4.8-23.6-5.1-29.7c4.5-2.2,7-4.2,10.5-8
				c-9.6,1.6-13.4,1-19.2-2.2c-5.8-3.2-16-13.4-21.1-20.1c-0.6-0.6-4.2,9.9-12.1,10.2c-2.9-4.2,9.3-16,7-20.5
				C573.2,372.4,588.2,326.7,588.2,326.7z"/>
			<path d="M708.4,469.8c0,0,0.6,11.5,0.6,14.4c0,3.2,2.6,12.8,2.9,17.3c-3.5,6.1-18.9,19.8-46.7,24.9
				c-27.5,5.8-63.9-37.4-63.9-37.4c1-4.2,4.2-16.3,6.4-22.7c0.3-0.6,1-2.2,1-2.9C611.5,459.3,708.4,469.8,708.4,469.8z"/>
			<path class="st1" d="M701.3,470.8c0,8,1.3,13.7,2.2,18.9c1.6,9.3,4.2,15.3,4.2,21.4c0,18.5-24.3,15.3-44.7,16
				c-27.5,5.8-50.8-37.4-50.8-37.4c1.9-7.4,3.2-15.7,6.1-22.7l0,0c0.3-3.8,1-8.6,1.3-10.9c39,0,66.5,2.2,82.4,3.8
				C702.6,463.5,702,469.5,701.3,470.8L701.3,470.8z"/>
			<path d="M670.7,512c0,0-16.9-37.7-67.7-26.5c-12.1,34.2-28.4,73.5-17.9,116c-10.5,14.4-22.7,22.4-22.7,48.9c0,26.5,1.3,31,1.3,31
				l37.4,1.9c0,0,12.1-15.7,16.9-32.6c1.3-4.8,2.6-13.4,1.6-23.3c1.3-1.9,6.7-6.4,7.4-15c0,0,18.2-9.6,28.8-32.9
				C665.5,558.4,663,540.1,670.7,512z"/>
			<path class="st1" d="M670.7,512c-1-3.5-13.7-38-61-27.8C581.8,558.4,592,589,596.2,602.5c-18.9,24-27.5,29.1-23.6,77.7h24.9
				c11.5-18.2,14.1-24.9,14.7-48.9c0-1-3.5,1.9-6.1,5.1c1.9-9.9,7.4-11.8,11.5-17.9c1.9-2.6,3.5-6.4,3.5-11.5
				c22.4-15,30.7-33.9,35.5-53.4C660.4,540.1,664.9,518.1,670.7,512z"/>
			<path d="M591.7,460.6c0,0,8.6,0.3,16.3,2.9c7.4,2.6,7.4,4.2,10.2,7.4c2.9,3.2,9.9,8,8.6,12.8c-0.6,2.6-2.2,3.2-4.5,5.4
				c-1,1-8,8.6-9.6,9.6c-1,0.6-2.2,1.6-3.2,2.2c-1,0.6-3.8,2.6-4.8,3.2c-3.2,1.6-5.4,2.6-8.9,2.2c0,0-8-0.3-13.1-5.8
				c0,0-0.6-2.6,0.6-3.8c0,0-6.7-5.8-8.6-9.6c-1.9-3.8-1.9-9.3-0.6-12.1C574.8,472.1,587.3,464.1,591.7,460.6z"/>
			<path d="M599.7,771.5l-1,8c0,0-2.9,3.5-24.3,3.2c-21.7-0.3-27.5-7-29.4-10.5l-1.3-8.3c0,0,4.2-6.1,5.1-6.1
				c7,0.6,31,10.2,47.6,12.8C598.1,770.5,598.4,771.2,599.7,771.5z"/>
			<path d="M646.1,755.2c0,3.5-0.3,3.5-0.3,7c3.8,2.9,13.4,4.5,31.6,4.2c26.5-0.6,51.1,8,81.2,2.9l0.3-5.8l-2.9-0.3l-106.4-8.6
				L646.1,755.2z"/>
			<path d="M669.4,766.4c2.6,0,5.1,0,8,0c17.3-0.6,33.6,3.2,51.1,4.2c9.3-0.3,20.8-2.6,19.8-9.3l-90.8-7.7
				C652.1,759.7,656.3,764.8,669.4,766.4z"/>
			<path d="M565.2,631.9c2.9,1.9,22.4,13.4,54,11.8c-0.6,6.1-0.3,17.9-14.4,38.7c-7,10.2-13.1,28.1-14.4,50.8
				c0.3,5.1,3.2,9.6-0.6,16.3c1.3,4.2,6.4,12.5,8.9,17.6c2.6,5.1,3.8,10.9-13.1,11.2c-17.3,0.3-45.1-1.6-41.2-15
				c1.9-7,7.4-14.4,8-17.3c0.6-2.9,0.6-11.5,6.1-17.3c4.8-16,3.2-31.3,2.2-45.7C559.1,668,558.8,644,565.2,631.9z"/>
			<path d="M594.9,371.4c22.7-30.4,3.5-54.6-32.9-47.3c-14.7,2.9-29.4,13.1-30.4,31.6c-4.8,0.6-15.7,1.3-21.1,21.1
				c-4.2,15.3-6.4,18.2-13.7,25.9c-4.8,5.4,0.3,16.6,3.8,24.6c11.8,27.5,48.3,30,72.9,50.8c8.3-2.2,16.9-11.5,19.5-17.6
				c-20.8-24.6-16.3-34.2-24.6-47C577.3,410.4,597.8,397.9,594.9,371.4z"/>
			<path class="st1" d="M590.4,369.5c1.3-1.9,3.5-6.1,4.5-7.7c0.3-0.3,3.8,5.8,4.2,5.4c8.6-14.1,10.9-34.5,1-36.4
				c-2.2-0.3-6.4-1.3-9.9-2.6c-6.4-2.2-12.1-2.2-22.4-0.3c-14.1,2.6-28.1,12.8-28.1,27.5c0,1,9.9,3.8,12.8,15.7
				c-4.8-6.7-13.1-14.1-23-7.7c-10.5,6.7-5.1,22-19.2,38c-4.8,5.4-4.2,11.8,1,24.6c8.3,20.1,47.6,31,69,50.2
				c5.1-2.2,8.6-7.4,11.2-11.2c-14.4-15-20.1-29.1-24.3-39.3c-5.1-11.8-10.9-18.5-22.1-27.5c5.8,2.2,10.2,4.5,12.8,6.4
				c2.9,1.9,7,2.2,10.9,1C582.5,400.8,589.8,381.6,590.4,369.5z"/>
			<path d="M729.5,374.6c-1,12.1-9.9,6.1-14.7,3.8c-9.6-4.2-19.2-7-30.4-7s-25.6,1-38,4.2c-17.3,4.8-22.4,4.5-30,0.6
				c-7.7-4.2-21.1-14.4-21.1-14.4s-0.3,3.2,2.9,7.4c4.2,5.1,13.4,11.5,25.9,15.7c6.1,1.9,10.9,0.6,16.3-0.6c28.4-7,58.5-8.3,83.7,7
				c1.3,0.6,5.8-1.3,7.7-4.2C734.2,382.9,729.5,374.6,729.5,374.6z"/>
			<path class="st2" d="M584.1,496.4c2.6,1.6,5.8,2.6,9.3,5.4c0,0-2.9,0-4.2-1.3C587.6,499.6,584.4,496.7,584.1,496.4L584.1,496.4z"
				/>
			<path class="st1" d="M676.4,243c-1-2.9-8-8-24.3-8c-17.6,0-22.7,5.4-23,8.3c0,1-1.3,11.2-1.6,15.3c0,0,0,5.1,0.3,12.8
				c0.3,5.1,1.6,8,2.2,14.7c0.6,7,2.6,11.5,6.1,17.3c1.6,1,2.9,1.9,4.5,2.2c6.4,1.3,17.6,1.6,23.6,0c3.5-1,8-7,8.9-12.5
				c1.3-6.7,2.6-11.5,2.9-15.7c0.6-4.2,1-13.4,1.3-16C678.3,254.5,676.7,243.6,676.4,243z"/>
			<path d="M642.9,637.9c0,0,16.9,7.4,58.8,1c0,0-11.8,59.4-6.4,89.2c0,0,5.4,7.7,45.7,22.4c0,0,17.9,4.5,17.3,13.4
				c0,0,0.6,1.9-21.1,1.3c-21.7-0.6-42.2-4.5-56.6-4.5c-14.4,0-29.7,0.6-32.3-3.5c-2.9-3.8,0.6-13.7,4.8-19.5
				c4.5-6.1,3.2-10.5,2.9-21.4C655,687.8,633.3,658.4,642.9,637.9z"/>
			<path class="st0" d="M639.3,643.4c-2.2,3.2,0.3,15.3,3.5,27.2c3.2,11.8,10.2,18.9,11.8,38.3c1.6,19.2,1.9,21.7-3.5,32.9
				s-7,21.4,11.8,21.7s29.1-0.3,48.3,2.6c19.2,2.9,25.9,3.8,36.4,2.2s12.8-5.1,8.3-8.3c-4.5-3.2-23-6.7-31-13.1
				c-7.7-5.8-29.4-15.3-29.7-17.9c-1-8.6-1.3-39.9,0.3-50.2c1.6-10.2,3.8-24.9,4.5-28.8s3.8-7.7-1.6-6.4c-5.4,1.3-25.9,4.2-41.2,3.2
				C641.9,645.9,640.3,642.4,639.3,643.4z"/>
			<path class="st3" d="M650.2,742.1c5.4,2.6,13.4,4.5,19.5,4.5c0,0-2.2,10.5,1.3,16.9c3.5,6.4-25.6,2.6-25.6,2.6l-1.3-22.7
				L650.2,742.1z"/>
			<path class="st3" d="M734.9,769.6c5.1-1.6,8.6-7.4,4.5-12.8c-4.5-5.4-8.3-6.4-2.6-6.7c5.8-0.3,26.8,12.5,26.8,12.5l-10.9,9.9
				L734.9,769.6z"/>
			<path class="st3" d="M638.4,655.8c7.4,2.6,18.5,3.2,28.1,2.9c9.6-0.3,24-1.6,33.2-4.8c9.3-3.2,5.4,3.5,5.4,3.5l-5.1,4.8
				c0,0-12.1,4.8-32,4.5c-23.3-0.3-30.4-2.9-30.4-2.9L638.4,655.8z"/>
			<path class="st3" d="M639,671.8c7.4,2.6,18.5,3.2,28.1,2.9c9.6-0.3,22.4-0.3,31.6-3.8c3.8-1.3,1.6,4.2,1.6,4.2l-1.6,2.9
				c0,0-12.5,4.5-32,4.2c-23.3-0.3-27.5-2.2-27.5-2.2L639,671.8z"/>
			<path class="st4" d="M642.9,637.9c0,0,27.8,9.9,59.1,3.2c0,0-12.1,57.2-6.7,86.6c0,0,5.4,7.7,45.7,22.4c0,0,17.9,4.5,17.3,13.4
				c0,0,0.6,1.9-21.1,1.3c-21.7-0.6-42.2-4.5-56.6-4.5c-14.4,0-29.7,0.6-32.3-3.5c-2.9-3.8,0.6-13.7,4.8-19.5
				c4.5-6.1,3.2-10.5,2.9-21.4C655,687.8,633.3,658.4,642.9,637.9z"/>
			<path class="st4" d="M642.9,637.9c0,0,27.8,9.6,59.1,2.9c0,0-12.1,57.5-6.7,86.9c0,0,5.4,7.7,45.7,22.4c0,0,17.9,4.5,17.3,13.4
				c0,0,0.6,1.9-21.1,1.3c-21.7-0.6-42.5-6.7-56.6-4.5c-15,2.6-29.7,1.6-32.3-3.5c-2.2-4.2,0.6-13.7,4.8-19.5
				c4.5-6.1,3.2-10.5,2.9-21.4C655,687.8,633.3,658.4,642.9,637.9z"/>
			<path d="M617.9,447.8c0,2.2,24.9,14.7,38.7,17.3c13.7,2.6,42.5,0,47-1l-0.6,4.5c0,0-34.2,5.1-60.4-1.9c-26.2-7-23.3-8.6-23.3-8.6
				L617.9,447.8z"/>
			<g>
				<path class="st1" d="M564.6,720.4c3.8,1.9,17.6,5.4,26.5,3.5c1.3-0.3,0-22.1,3.5-32c5.1-13.7,13.4-24.9,17.3-49.2
					c-13.4-1.3-28.8-4.8-36.7-7.4C564.9,666.7,568.4,693.5,564.6,720.4z"/>
				<path class="st1" d="M586,740.5c2.2,0.6,3.8,3.2,4.5,1.6c1.3-2.9-2.2-8.3-2.6-12.1c0-0.3,0,0,0-0.3c-2.9-2.6-22.4-2.9-21.1-1.6
					c-2.2,4.2-5.8,3.5-7,11.8c-0.6,4.2,4.5,0.6,9.3,0.3c-8.6,5.8-18.5,13.1-20.1,19.5c-1.9,8.9,1.3,11.5,10.9,16.3
					c8.3,1.9,18.2,2.2,25.9,1.9c8.6-1.6,10.2-5.8,7.7-11.5C589.5,757.8,586.9,746.6,586,740.5z"/>
			</g>
			<path d="M589.5,325.4c10.5,6.1,25.2,4.5,30.7,4.2c1.3,0,14.1-2.2,14.7-1.9c1.3,0.3,1.3,1.3,1.3,1.3s-4.8,2.6-15.7,3.2
				c-10.2,0.6-22.4,0-29.1-3.2C583.4,325.4,589.5,325.4,589.5,325.4z"/>
			<path d="M698.1,331.5c1.9,1.3,14.4,6.1,19.8,11.8c4.8,5.1,2.2,4.8,1.3,3.5c-1.3-1.6-11.2-8.3-15-9.9s-8.6-4.5-8.6-5.1
				S698.1,331.5,698.1,331.5z"/>
			<path class="st1" d="M587.9,464.1c9.3-0.6,18.9,1.6,24.9,8c3.2,3.2,8.3,6.7,7.7,9.9c0,1-1.9,3.5-3.5,5.4c-1,1.3-3.8,4.2-4.8,5.1
				c-1.3,1-5.8,4.5-6.7,5.1c-1,0.6-2.2,2.2-3.2,2.6c-3.2,1.6-6.7,0.3-9.9-1.3c-3.2-1.6,0.6-1.9-2.9-4.5c-8.6-6.1-13.4-10.2-9.9-22.1
				C579.9,470.2,583.4,467.6,587.9,464.1z"/>
		</g>
		<path class="st5" d="M506.4,390.9c-28.8,11.5-101.9,47.9-122.7,59.1l0,0c17.3,10.9,25.2,37.1,27.8,63.6c0.3,2.6,0.6,4.8,1,7.4
			c0.3,2.2,0.6,3.8,1,4.8c0,0.3,0,1,0.3,1.3c18.9-51.4,86.3-105.8,88.8-109.9c1.3-1.9-1.6-10.2,2.9-18.2
			C511.2,388.7,522.4,384.2,506.4,390.9z"/>
		<path class="st5" d="M574.8,632.2c14.7-29.4,15-57.5,14.7-90.4c0-13.7,9.9-33.2,4.8-27.8c-19.2,21.4-67.4,61.7-102.3,63.9
			C540.9,576.3,560.1,600.9,574.8,632.2z"/>
		<path d="M355.6,477.2c18.2-13.1,112.5-63.3,135.2-70.3c22.7-7.4,15.7-16,15.7-16s-92,39.6-147,73.8"/>
		<path class="st5" d="M624,384.8c-7.4-2.9-13.1,5.8-11.2,14.1c1.9,8.3,19.2,17.6,18.2,47.9c-0.6,24.9-6.1,35.2-6.1,35.2l-12.1-15.3
			c0,0-1.9-34.5-6.1-39.6c-4.2-5.1-17.3-14.4-22.4-19.2c-5.1-4.8,5.8-11.2,5.1-20.1c-0.6-8.6,5.4-25.9,5.4-25.9L624,384.8z"/>
		<path class="st5" d="M668.4,521c-0.6,24,4.8,59.4,7,76.4c2.2,16.9,5.1,18.2,0,25.9c-5.1,7.4-11.8,19.5-11.8,19.5l-22.1-1.9
			c0,0,17.6-22.4,18.5-26.5c1-4.2-8.9-35.8-8.9-35.8L668.4,521z"/>
		<path class="st5" d="M625.9,297.3c4.5,9.9,9.9,14.4,18.5,17.3c5.1,1.9,25.2,4.5,33.2-4.5c3.5-4.2,1.3-15.3,1.3-15.3l-18.2,14.7
			l-24.6-4.5l-2.9-7.4L625.9,297.3z"/>
		<path class="st6" d="M627.8,319.3c8.3,5.4,29.1,10.5,34.8,11.5c5.8,1.3,15-6.1,19.5-8c4.8-2.2,13.1-3.5,22.7,5.1
			c1,1-2.2,5.1-2.2,5.1c-0.3-0.3-2.2-0.3-4.8-1.6c-2.6-1.3-4.8-2.2-8.6-1.9c-16,1.9-18.5,7.4-32.6,4.2c-14.1-3.2-17.6-5.8-31.3-5.1"
			/>
		<path class="st0" d="M625,320.3c10.5,4.5,31,9.3,36.7,10.5s15-4.5,19.5-7.4c8-5.1,18.2-1,23,4.5c3.2,3.5,4.5,5.8,4.5,6.7
			c0,1.3-3.8,0-3.8,0c-2.2-1-4.8-1.3-6.7-2.6c-2.6-1.3-5.1-3.2-8.9-2.9c-16,1.9-19.2,7.4-32.9,4.2c-13.7-3.2-17.3-6.1-32-5.1"/>
		<path d="M575.4,618.8c-0.6-0.6,0.6-1.3,0-1.3c-4.2,0-9.9-3.2-13.1-7.7c-13.7-19.8-33.9-32.9-70.3-32
			c-54.6,1.3-76.4-21.1-80.5-63.9c-2.2-23.3-8.6-46-21.7-58.8l-7.7,4.8c14.7,12.8,19.5,33.6,22.7,62c5.1,42.8,39.6,62.6,79.9,63.3
			c41.9,0.6,56.9,9.3,72.5,30.4c5.1,6.7,10.9,8.9,15.3,9.9L575.4,618.8z"/>
		<path class="st5" d="M723.7,413.3c1,4.8,3.5,14.1,8.6,18.5c2.2,2.2,2.6,2.9,0.6,2.9c-1.9,0-16-0.6-16-0.6l-3.8-6.7L723.7,413.3z"
			/>
	</g>
</g>
</svg>
