<?xml version="1.0" encoding="utf-8"?>
<!-- Generator: Adobe Illustrator 26.0.1, SVG Export Plug-In . SVG Version: 6.00 Build 0)  -->
<svg version="1.1" id="Capa_1" xmlns="http://www.w3.org/2000/svg" xmlns:xlink="http://www.w3.org/1999/xlink" x="0px" y="0px"
	 viewBox="0 0 1080 1080" style="enable-background:new 0 0 1080 1080;" xml:space="preserve">
<style type="text/css">
	.st0{fill:#E44D26;}
	.st1{fill:#F16529;}
	.st2{fill:#EBEBEB;}
	.st3{fill:#FFFFFF;}
</style>
<g id="Capa_5">
	<path d="M383,227.3h25.1v24.8h23.1v-24.8h25.1v75.2h-25.1v-25.1h-22.9v25.1H383 M489.4,252.4h-22.1v-25.1h69.4v25.1h-22.2v50.1
		h-25.1 M547.7,227.3H574l16.1,26.5l16.1-26.5h26.3v75.2h-25.1v-37.3l-17.5,27l-17.5-27v37.3h-24.6 M644.9,227.3H670v50.3h35.5v24.8
		h-60.6"/>
	<path class="st0" d="M382.1,740.6l-36-403.7h395.4l-36,403.4l-162.1,44.9"/>
	<path class="st1" d="M543.9,750.9V370h161.6l-30.8,344.4"/>
	<path class="st2" d="M419.6,419.4h124.2v49.5h-70l4.6,50.7h65.4V569H433.1 M435.3,593.8H485l3.5,39.6l55.4,14.8v51.7l-101.6-28.3"
		/>
	<path class="st3" d="M667.7,419.4h-124v49.5h119.4 M658.6,519.6h-115V569h61l-5.8,64.3l-55.3,14.8v51.4l101.5-28"/>
</g>
</svg>
