<?xml version="1.0" encoding="utf-8"?>
<!-- Generator: Adobe Illustrator 26.0.1, SVG Export Plug-In . SVG Version: 6.00 Build 0)  -->
<svg version="1.1" id="Capa_1" xmlns="http://www.w3.org/2000/svg" xmlns:xlink="http://www.w3.org/1999/xlink" x="0px" y="0px"
	 viewBox="0 0 1080 1080" style="enable-background:new 0 0 1080 1080;" xml:space="preserve">
<style type="text/css">
	.st0{fill:#330000;}
	.st1{fill:#FF9A00;}
</style>
<g id="vlpa">
	<g id="vlpb">
		<g id="vlpc">
			<g id="vlpd">
				<path class="st0" d="M355.1,227.3H725c56.1,0,101.4,45.3,101.4,101.4v355.5c0,56.1-45.3,101.4-101.4,101.4H355.1
					c-56.1,0-101.4-45.3-101.4-101.4V328.7C253.7,272.6,299,227.3,355.1,227.3z"/>
			</g>
		</g>
	</g>
	<g id="vlpe">
		<g id="vlpf">
			<path class="st1" d="M530.5,561.4h-88.8l-18.1,56.1c-0.5,2.1-2.4,3.6-4.5,3.3h-44.9c-2.6,0-3.3-1.4-2.6-4.3l76.8-221.2
				c0.7-2.4,1.4-5,2.4-7.9c1-5,1.4-10.3,1.4-15.5c-0.2-1.2,0.7-2.4,1.9-2.6h0.7h61.1c1.9,0,2.9,0.7,3.1,1.9L606.1,617
				c0.7,2.6,0,3.8-2.4,3.8h-49.9c-1.7,0.2-3.3-1-3.8-2.6L530.5,561.4L530.5,561.4z M455.5,512.9h60.6c-1.4-5-3.3-11-5.5-17.2
				c-2.1-6.4-4.3-13.4-6.4-20.5c-2.4-7.4-4.5-14.6-6.9-22s-4.5-14.3-6.4-21.2c-1.9-6.7-3.6-12.9-5.2-18.6h-0.5
				c-2.1,10.3-4.8,20.5-8.1,30.8c-3.6,11.5-7.2,23.4-11,35.3C462.7,491.7,459.1,502.9,455.5,512.9z"/>
			<path class="st1" d="M659.3,411c-7.9,0.2-15.5-2.9-21.2-8.4c-5.5-6-8.4-13.8-8.1-22c-0.2-8.1,2.9-15.7,8.6-21.2
				c5.7-5.5,13.4-8.4,21.2-8.4c9.3,0,16.5,2.9,21.7,8.4c5.2,5.7,8.1,13.4,7.9,21.2c0.2,8.1-2.6,16-8.4,22
				C675.5,408.4,667.4,411.5,659.3,411L659.3,411z M632.6,618.1V434.4c0-2.4,1-3.3,3.1-3.3h47.2c2.1,0,3.1,1.2,3.1,3.3v183.7
				c0,2.6-1,3.8-3.1,3.8h-46.8C633.8,622,632.6,620.5,632.6,618.1z"/>
		</g>
	</g>
</g>
</svg>
