<?xml version="1.0" encoding="utf-8"?>
<!-- Generator: Adobe Illustrator 26.0.1, SVG Export Plug-In . SVG Version: 6.00 Build 0)  -->
<svg version="1.1" id="Capa_1" xmlns="http://www.w3.org/2000/svg" xmlns:xlink="http://www.w3.org/1999/xlink" x="0px" y="0px"
	 viewBox="0 0 1080 1080" style="enable-background:new 0 0 1080 1080;" xml:space="preserve">
<style type="text/css">
	.st0{display:none;}
	.st1{display:inline;fill:#FFFFFF;}
	.st2{display:inline;fill:#EAEBEC;}
	.st3{display:inline;fill:#F0BE25;}
	.st4{display:inline;fill:#E4A126;}
	.st5{display:inline;fill:#0E0E0F;}
	.st6{display:inline;fill:#00599C;}
	.st7{display:inline;fill:#004482;}
	.st8{display:inline;fill:#659AD2;}
	.st9{display:inline;}
	.st10{fill:#FFFFFF;}
	.st11{fill:#264DE4;}
	.st12{fill:#2965F1;}
	.st13{fill:#EBEBEB;}
	.st14{display:inline;fill:#E44D26;}
	.st15{display:inline;fill:#F16529;}
	.st16{display:inline;fill:#EBEBEB;}
	.st17{display:inline;fill:url(#SVGID_1_);}
	.st18{display:inline;fill:url(#SVGID_00000182501332482756668400000002329063434018034585_);}
	.st19{fill:#F7DF1E;}
</style>
<g id="Capa_1_00000051381431346391126000000000886681035157395892_" class="st0">
	<path id="path118" class="st1" d="M342.9,336.6l0.1,5c0,2.8,8,93.8,17.7,202.3l17.6,197.3l79.3,22.2c43.6,12.2,80.2,22.3,81.3,22.3
		c1.1,0.1,38.2-9.9,82.4-22.1c70.9-19.6,80.4-22.6,80.9-25c0.7-3.4,35.4-394.9,35.4-399.1v-3H540.2L342.9,336.6L342.9,336.6z"/>
	<path id="path88" class="st2" d="M458.2,764.8l-80-22.4l-1-5.9c-0.9-5.3-35.6-392.7-35.6-397.9c0-1.9,20.3-2.1,198.7-2.1
		c188.3,0,198.7,0.1,198.7,2.3c-0.1,9.6-36,402.2-36.9,402.9c-1.1,1-156,44.1-161.1,44.9C539.4,787,502.2,777.1,458.2,764.8
		L458.2,764.8z M590.6,685.8c26.9-7.4,49.3-13.9,49.8-14.3c0.5-0.5,3.6-32.3,7-70.8s6.5-72.5,6.9-75.7l0.8-5.7H597h-58.1V544v24.7
		h31.4h31.4l-0.6,3c-0.3,1.6-1.7,15.8-3,31.5c-1.4,16.6-3,29.2-3.9,30c-0.8,0.8-13.6,4.8-28.4,8.7l-26.9,7.2v25.1
		c0,17.2,0.5,25.1,1.4,25.1C541.1,699.3,563.7,693.2,590.6,685.8L590.6,685.8z M654.3,488.3c-0.9-6.5-8.7-94.2-8.7-97.5
		c0-2-4.6-2.2-52.7-2.2h-52.7v25.8v25.8l23.7,0.9c13,0.5,26.7,1.3,30.4,1.7l6.8,0.8l1.6,20.2c0.9,11.1,2,22.4,2.4,25.2l0.8,5h24.6
		H655L654.3,488.3z"/>
	<path id="path80" class="st3" d="M457.6,763.5l-79.3-22.2L360.6,544c-9.7-108.5-17.7-199.6-17.7-202.3l-0.1-5h197.3h197.3v3
		c0,4.2-34.7,395.7-35.4,399.1c-0.5,2.4-10.1,5.4-80.9,25c-44.1,12.2-81.1,22.1-82.2,22C537.8,785.8,501.2,775.7,457.6,763.5
		L457.6,763.5z M590.7,686.7c27.4-7.6,50.2-14.5,50.7-15.3s3.8-34.3,7.3-74.5s6.7-74.1,7.1-75.4c0.6-2.2-4.1-2.3-84.5-2.3h-85.2
		l3.6-38.3c2-21.1,3.7-38.4,3.7-38.5c0.1-0.1,12.6-0.5,27.8-0.9c25-0.7,76.4,1.3,78.1,3c0.6,0.6,4.9,42.2,4.9,47.8
		c0,2.8,0.4,2.8,25.8,2.8h25.8l-0.6-5.7c-0.3-3.1-2.5-27.3-4.9-53.7l-4.3-48l-99.6-0.3c-79.3-0.3-99.6,0-99.7,1.3
		c0,0.9-0.6,6.8-1.3,13c-1.7,15.1-14.7,160.8-14.7,164.8v3.2h84.8h84.8l-0.8,5c-0.4,2.8-1.7,16.7-2.9,31s-2.6,26.4-3,26.8
		c-1.2,1.2-51.1,14.5-54.2,14.5c-1.4,0-14.3-3.2-28.6-7.1l-26-7.1l-1-11.2c-0.5-6.2-1.3-14.9-1.8-19.5l-0.8-8.3H456h-25.2l0.1,5
		c0.1,9.4,6.2,72.3,7,73.2c1,1,97.9,28.3,100.9,28.4C540,700.6,563.3,694.4,590.7,686.7L590.7,686.7z"/>
	<path id="path78" class="st4" d="M457.6,763.5l-79.3-22.2L360.6,544c-9.7-108.5-17.7-199.6-17.7-202.3l-0.1-5h197.3h197.3v3
		c0,4.2-34.7,395.7-35.4,399.1c-0.5,2.4-10.1,5.4-80.9,25c-44.1,12.2-81.1,22.1-82.2,22C537.8,785.8,501.2,775.7,457.6,763.5
		L457.6,763.5z M605.4,733.8c34.9-9.6,64.1-18.2,64.9-19c1.2-1.3,31.4-331.5,31.3-342.5v-3.7h-80.7h-80.7v9.3v9.3h-46.7
		c-36.4,0-46.7,0.4-46.7,1.7c0,0.9-0.6,6.8-1.3,13c-1.7,15.1-14.7,160.8-14.7,164.8v3.2h54.7h54.7v38.7c0,30.1-0.4,38.7-1.7,38.6
		c-0.9,0-13.4-3.2-27.7-7.1l-26-7.1l-1-11.2c-0.5-6.2-1.3-14.9-1.8-19.5l-0.8-8.3H456h-25.2l0.1,5c0.2,14.3,6.3,72.7,7.8,73.6
		c0.9,0.5,24.1,7.2,51.5,14.8l49.9,13.8v25.1c0,13.8,0.4,25.1,0.9,25.1C541.6,751.3,570.6,743.4,605.4,733.8L605.4,733.8z
		 M489.5,481.3c1.9-20.9,3.7-38.2,4.1-38.5c0.3-0.3,10.9-0.8,23.6-1.2l23-0.6v39.1v39.1h-27.1H486L489.5,481.3z"/>
	<path id="path76" class="st5" d="M468.2,289.3v-12.7h18h18V252v-24.7h12.7h12.7v37.3V302h-30.7h-30.7V289.3z M541.5,292v-10h16.7
		c9.2,0,16.7-0.3,16.7-0.8c0-0.4-7.5-8.9-16.7-18.8l-16.7-18.1v-8.5v-8.5h34.7h34.7v10v10l-16.3,0.4l-16.3,0.4l16.9,18.2l16.9,18.2
		v8.8v8.8h-35.3h-35.3L541.5,292L541.5,292z"/>
</g>
<g id="Capa_3" class="st0">
	<path class="st6" d="M783.8,646.9c3.9-6.8,6.3-14.4,6.3-21.2V388.4c0-6.8-2.4-14.4-6.3-21.2L541.5,507L783.8,646.9z"/>
	<path class="st7" d="M563.1,781.7L768.6,663c5.9-3.4,11.3-9.3,15.2-16.1L541.5,507L299.3,646.9c3.9,6.8,9.3,12.7,15.2,16.1
		L520,781.7C531.8,788.5,551.2,788.5,563.1,781.7z"/>
	<path class="st8" d="M783.8,367.2c-3.9-6.8-9.3-12.7-15.2-16.1L563.1,232.4c-11.8-6.8-31.2-6.8-43.1,0L314.5,351.1
		c-11.8,6.8-21.5,23.6-21.5,37.3v237.3c0,6.8,2.4,14.5,6.3,21.2L541.5,507L783.8,367.2z"/>
	<g class="st9">
		<path class="st10" d="M541.5,672.8c-91.4,0-165.7-74.3-165.7-165.7s74.3-165.7,165.7-165.7c59,0,114,31.7,143.5,82.8l-71.7,41.5
			c-14.8-25.6-42.3-41.5-71.8-41.5c-45.7,0-82.9,37.2-82.9,82.9s37.2,82.9,82.9,82.9c29.5,0,57-15.9,71.8-41.5L685,590
			C655.5,641,600.5,672.8,541.5,672.8z"/>
	</g>
	<g class="st9">
		<polygon class="st10" points="707.3,497.8 688.8,497.8 688.8,479.4 670.4,479.4 670.4,497.8 652,497.8 652,516.2 670.4,516.2 
			670.4,534.7 688.8,534.7 688.8,516.2 707.3,516.2 		"/>
	</g>
	<g class="st9">
		<polygon class="st10" points="776.3,497.8 757.9,497.8 757.9,479.4 739.5,479.4 739.5,497.8 721.1,497.8 721.1,516.2 739.5,516.2 
			739.5,534.7 757.9,534.7 757.9,516.2 776.3,516.2 		"/>
	</g>
</g>
<g id="Capa_4" class="st0">
	<g id="layer1" transform="translate(-193.633,-276.3622)" class="st9">
		<g id="g3013" transform="translate(119,276.3622)">
			<polygon id="polygon2989" class="st11" points="816.2,337.2 780.1,741.8 617.8,786.8 455.9,741.8 419.8,337.2 			"/>
			<polygon id="polygon2991" class="st12" points="749.2,716 780,370.3 618,370.3 618,752.4 			"/>
			<polygon id="polygon2993" class="st13" points="502.5,520.4 506.9,570 618,570 618,520.4 			"/>
			<polygon id="polygon2995" class="st13" points="618,419.9 617.8,419.9 493.6,419.9 498.1,469.6 618,469.6 			"/>
			<polygon id="polygon2997" class="st13" points="618,700.9 618,649.3 617.8,649.3 562.5,634.4 559,594.8 532.1,594.8 509.2,594.8 
				516.1,672.7 617.8,701 			"/>
			<path id="path2999" d="M513.1,227.3h60.1v25.1h-35v25.1h35v25.1h-60.1V227.3z"/>
			<path id="path3001" d="M585.2,227.3h60.1v21.9h-35v4.4h35v50.3h-60.1V281h35v-4.4h-35V227.3z"/>
			<path id="path3003" d="M657.3,227.3h60.1v21.9h-35v4.4h35v50.3h-60.1V281h35v-4.4h-35V227.3z"/>
			<polygon id="polygon3005" class="st10" points="678.9,570 673.2,634.4 617.8,649.3 617.8,700.9 719.6,672.7 720.3,664.4 
				732,533.7 733.2,520.4 742.1,419.9 617.8,419.9 617.8,469.6 687.7,469.6 683.2,520.4 617.8,520.4 617.8,570 			"/>
		</g>
	</g>
</g>
<g id="Capa_5" class="st0">
	<path class="st9" d="M383,227.3h25.1v24.8h23.1v-24.8h25.1v75.2h-25.1v-25.1h-22.9v25.1H383 M489.4,252.4h-22.1v-25.1h69.4v25.1
		h-22.2v50.1h-25.1 M547.7,227.3H574l16.1,26.5l16.1-26.5h26.3v75.2h-25.1v-37.3l-17.5,27l-17.5-27v37.3h-24.6 M644.9,227.3H670
		v50.3h35.5v24.8h-60.6"/>
	<path class="st14" d="M382.1,740.6l-36-403.7h395.4l-36,403.4l-162.1,44.9"/>
	<path class="st15" d="M543.9,750.9V370h161.6l-30.8,344.4"/>
	<path class="st16" d="M419.6,419.4h124.2v49.5h-70l4.6,50.7h65.4V569H433.1 M435.3,593.8H485l3.5,39.6l55.4,14.8v51.7l-101.6-28.3"
		/>
	<path class="st1" d="M667.7,419.4h-124v49.5h119.4 M658.6,519.6h-115V569h61l-5.8,64.3l-55.3,14.8v51.4l101.5-28"/>
</g>
<g id="Capa_6" class="st0">
	
		<linearGradient id="SVGID_1_" gradientUnits="userSpaceOnUse" x1="124.458" y1="-779.9038" x2="666.4427" y2="-313.7125" gradientTransform="matrix(0.5625 0 0 0.568 183.5375 686.183)">
		<stop  offset="0" style="stop-color:#5A9FD4"/>
		<stop  offset="1" style="stop-color:#306998"/>
	</linearGradient>
	<path class="st17" d="M540,227.3c-22.8,0.1-44.5,2-63.7,5.4c-56.4,10-66.6,30.8-66.6,69.3v50.8H543v16.9H409.7h-50
		c-38.7,0-72.7,23.3-83.2,67.5c-12.2,50.7-12.8,82.5,0,135.4c9.5,39.5,32.1,67.5,70.8,67.5h45.8v-60.9c0-44,38.1-82.8,83.2-82.8
		h133.1c37.1,0,66.6-30.5,66.6-67.7V302c0-36.1-30.5-63.2-66.6-69.3C586.6,228.9,562.8,227.2,540,227.3L540,227.3z M468,268.2
		c13.8,0,25,11.4,25,25.5c0,14-11.2,25.3-25,25.3s-25-11.3-25-25.3C443,279.6,454.2,268.2,468,268.2z"/>
	
		<linearGradient id="SVGID_00000129912321254600823480000007294954058064201355_" gradientUnits="userSpaceOnUse" x1="875.9688" y1="-31.4775" x2="682.1366" y2="-305.3276" gradientTransform="matrix(0.5625 0 0 0.568 183.5375 686.183)">
		<stop  offset="0" style="stop-color:#FFD43B"/>
		<stop  offset="1" style="stop-color:#FFE873"/>
	</linearGradient>
	<path style="display:inline;fill:url(#SVGID_00000129912321254600823480000007294954058064201355_);" d="M692.7,369.7v59.2
		c0,45.9-38.9,84.5-83.2,84.5H476.4c-36.5,0-66.6,31.2-66.6,67.7V708c0,36.1,31.4,57.4,66.6,67.7c42.2,12.4,82.7,14.6,133.1,0
		c33.5-9.7,66.6-29.3,66.6-67.7v-50.8H543v-16.9h133.1h66.6c38.7,0,53.2-27,66.6-67.5c13.9-41.7,13.3-81.9,0-135.4
		c-9.6-38.6-27.9-67.5-66.6-67.5L692.7,369.7L692.7,369.7z M617.9,691.1c13.8,0,25,11.3,25,25.3s-11.2,25.5-25,25.5
		s-25-11.4-25-25.5C592.9,702.4,604.1,691.1,617.9,691.1z"/>
</g>
<g id="Capa_2_00000170968936671313080280000010298769626738820778_">
</g>
<rect x="267.1" y="227.3" class="st19" width="558.5" height="558.5"/>
<path d="M642.3,663.7c11.3,18.4,25.9,31.9,51.8,31.9c21.7,0,35.6-10.9,35.6-25.9c0-18-14.3-24.4-38.2-34.8l-13.1-5.6
	c-37.9-16.1-63-36.3-63-79.1c0-39.4,30-69.3,76.9-69.3c33.4,0,57.4,11.6,74.6,42L726,549c-9-16.1-18.7-22.5-33.8-22.5
	c-15.4,0-25.1,9.8-25.1,22.5c0,15.7,9.8,22.1,32.3,31.9l13.1,5.6c44.6,19.1,69.8,38.6,69.8,82.5c0,47.3-37.1,73.1-87,73.1
	c-48.7,0-80.2-23.2-95.6-53.7L642.3,663.7z M456.9,668.2c8.2,14.6,15.7,27,33.8,27c17.2,0,28.1-6.7,28.1-33V483.8h52.5v179.2
	c0,54.3-31.9,79.1-78.4,79.1c-42,0-66.4-21.7-78.7-47.9L456.9,668.2z"/>
</svg>
