<?xml version="1.0" encoding="utf-8"?>
<!-- Generator: Adobe Illustrator 26.0.1, SVG Export Plug-In . SVG Version: 6.00 Build 0)  -->
<svg version="1.1" id="Capa_1" xmlns="http://www.w3.org/2000/svg" xmlns:xlink="http://www.w3.org/1999/xlink" x="0px" y="0px"
	 viewBox="0 0 1080 1080" style="enable-background:new 0 0 1080 1080;" xml:space="preserve">
<style type="text/css">
	.st0{fill:#F7DF1E;}
</style>
<rect x="267.1" y="227.3" class="st0" width="558.5" height="558.5"/>
<path d="M642.3,663.7c11.3,18.4,25.9,31.9,51.8,31.9c21.7,0,35.6-10.9,35.6-25.9c0-18-14.3-24.4-38.2-34.8l-13.1-5.6
	c-37.9-16.1-63-36.3-63-79.1c0-39.4,30-69.3,76.9-69.3c33.4,0,57.4,11.6,74.6,42L726,549c-9-16.1-18.7-22.5-33.8-22.5
	c-15.4,0-25.1,9.8-25.1,22.5c0,15.7,9.8,22.1,32.3,31.9l13.1,5.6c44.6,19.1,69.8,38.6,69.8,82.5c0,47.3-37.1,73.1-87,73.1
	c-48.7,0-80.2-23.2-95.6-53.7L642.3,663.7z M456.9,668.2c8.2,14.6,15.7,27,33.8,27c17.2,0,28.1-6.7,28.1-33V483.8h52.5V663
	c0,54.3-31.9,79.1-78.4,79.1c-42,0-66.4-21.7-78.7-47.9L456.9,668.2z"/>
</svg>
