<?xml version="1.0" encoding="utf-8"?>
<!-- Generator: Adobe Illustrator 26.0.1, SVG Export Plug-In . SVG Version: 6.00 Build 0)  -->
<svg version="1.1" id="Capa_1" xmlns="http://www.w3.org/2000/svg" xmlns:xlink="http://www.w3.org/1999/xlink" x="0px" y="0px"
	 viewBox="0 0 1080 1080" style="enable-background:new 0 0 1080 1080;" xml:space="preserve">
<style type="text/css">
	.st0{fill:#001E36;}
	.st1{fill:#31A8FF;}
</style>
<g id="Layer_2_1_">
	<path class="st0" d="M355.1,227.3H725c56.1,0,101.4,45.3,101.4,101.4v355.6c0,56.1-45.3,101.4-101.4,101.4H355.1
		c-56.1,0-101.4-45.3-101.4-101.4V328.7C253.7,272.6,299,227.3,355.1,227.3z"/>
	<g id="Lr">
		<path class="st1" d="M554.3,621.9H403.1c-2.7,0-3.8-1.3-3.8-4.2V373.8c-0.2-1.6,0.9-3.1,2.7-3.4c0.2,0,0.4,0,0.9,0h46.7
			c1.1-0.2,2.7,0.7,2.7,2c0,0.2,0,0.4,0,0.7v200.3h110.3c2.5,0,3.1,1.1,2.7,3.4l-6.9,41.5c0,1.1-0.7,2.2-1.3,2.9
			C556.1,621.7,555.2,621.9,554.3,621.9z"/>
		<path class="st1" d="M592.5,431h41.8c2.5,0,4.2,1.6,4.9,3.8c0.9,1.6,1.6,3.6,2,5.6c0.4,2.5,0.9,4.9,1.1,7.4
			c0.2,2.7,0.4,5.6,0.4,8.5c7.1-8.3,15.9-15.2,25.5-20.5c10.9-6,23.2-8.9,35.5-8.5c1.6-0.2,3.1,0.9,3.4,2.7c0,0.2,0,0.4,0,0.9v46.7
			c0,2-1.1,2.7-3.8,2.7c-15.4-0.9-31,2-45.1,8c-4.7,2.2-9.4,4.9-13,8.9v121.7c0,2.5-0.9,3.4-3.1,3.4h-46.5c-2,0.2-3.6-0.9-3.8-2.9
			c0-0.2,0-0.7,0-0.9V486.1c0-5.8,0-11.6-0.2-17.9s-0.2-12.5-0.4-18.5c-0.2-5.4-0.7-10.5-1.3-15.9c-0.2-1.1,0.4-2.5,1.6-2.7
			C591.8,430.8,592,430.8,592.5,431L592.5,431z"/>
	</g>
</g>
</svg>
