<?xml version="1.0" encoding="utf-8"?>
<!-- Generator: Adobe Illustrator 26.0.1, SVG Export Plug-In . SVG Version: 6.00 Build 0)  -->
<svg version="1.1" id="Capa_1" xmlns="http://www.w3.org/2000/svg" xmlns:xlink="http://www.w3.org/1999/xlink" x="0px" y="0px"
	 viewBox="0 0 1080 1080" style="enable-background:new 0 0 1080 1080;" xml:space="preserve">
<style type="text/css">
	.st0{display:none;enable-background:new    ;}
	.st1{font-family:'Ubuntu-Medium';}
	.st2{font-size:286.0857px;}
	.st3{fill:#FF00F2;}
</style>
<text transform="matrix(1 0 0 1 -85.5339 1016.0411)" class="st0 st1 st2">mαηelli</text>
<g>
	<path d="M1030.7,587.1c-0.8,45-5.9,82.3-15,111.9c-9.2,29.6-22.4,53.1-39.5,70.6c-17.1,17.5-38.4,29.8-63.9,36.9
		c-25.5,7.1-54.5,10.6-87.1,10.6l-754.5,0l-25-151l750.9,0c18.4,0,33.9-1.5,46.4-4.4c12.5-2.9,23.2-8.1,32-15.6
		c8.8-7.5,15.5-17.7,20-30.6c4.6-12.9,8.2-29.4,10.7-49.4L1030.7,587.1z"/>
	<path d="M1029.7,399c-0.8,45-2.9,60.4-12.1,90c-9.2,29.6-24.3,54-41.5,71.5c-17.1,17.5-38.4,29.8-63.9,36.9
		c-25.5,7.1-54.5,10.6-87.1,10.6l-754.5,0l-25-151l750.9,0c18.4,0,33.9-1.5,46.4-4.4c12.5-2.9,23.2-8.1,32-15.6
		c8.8-7.5,15.5-17.7,20-30.6c4.6-12.9,8.2-29.4,10.7-49.4L1029.7,399z"/>
</g>
<g>
	<rect x="403.6" y="259.6" width="626" height="139.4"/>
	<path class="st3" d="M309.1,329.9c0,23.8-8,44.2-23.9,61c-16,16.9-37.5,25.3-64.6,25.3c-27.9,0-49.9-8.4-65.8-25.3
		c-16-16.9-23.9-37.2-23.9-61c0-23,8-43,23.9-59.9c16-16.9,37.9-25.3,65.8-25.3c27.1,0,48.7,8.5,64.6,25.3
		C301.1,286.9,309.1,306.9,309.1,329.9z"/>
</g>
</svg>
