<?xml version="1.0" encoding="utf-8"?>
<!-- Generator: Adobe Illustrator 26.0.1, SVG Export Plug-In . SVG Version: 6.00 Build 0)  -->
<svg version="1.1" xmlns="http://www.w3.org/2000/svg" xmlns:xlink="http://www.w3.org/1999/xlink" x="0px" y="0px"
	 viewBox="0 0 1080 1080" style="enable-background:new 0 0 1080 1080;" xml:space="preserve">
<style type="text/css">
	.st0{fill:#FF00F2;}
	.st1{fill:#1D1D1B;}
</style>
<g id="Capa_2">
	<path class="st0" d="M615.9,463.1c21.2,21.2,32.5,46.1,33.8,74.8c1.4,28.7-9.6,54.7-32.8,77.9C593,639.8,566.7,651,538,649.7
		c-28.7-1.4-53.6-12.6-74.8-33.8c-20.5-20.5-31.4-45.1-32.8-73.8c-1.4-28.7,9.9-55,33.8-78.9c23.2-23.2,49.2-34.2,77.9-32.8
		C570.8,431.7,595.4,442.6,615.9,463.1z"/>
</g>
<g id="Capa_4">
	<g>
		<path class="st1" d="M511.7,912.7c2.5-3.4,5.2-6.7,8.3-9.8l37.5-37.5c0.4-0.4,0.9-0.8,1.3-1.3L806.9,616
			c41.9-41.9,41.9-110.1,0-152L692,349.1l0.7-0.7L884.4,540L511.7,912.7z"/>
		<path class="st1" d="M692.7,245.7c-6.9,0-13.8,2.6-19.1,7.9L597.3,330c-10.5,10.5-10.5,27.6,0,38.2L750,520.9
			c10.5,10.5,10.5,27.6,0,38.2L501.8,807.3l0,0L463.1,846c-63,63-63,165.1,0,228l0.5,0.5L960,578.2c21.1-21.1,21.1-55.3,0-76.4
			L711.8,253.6C706.6,248.3,699.6,245.7,692.7,245.7L692.7,245.7z"/>
	</g>
	<g>
		<path class="st1" d="M195.7,540l324.9-324.9c0.4-0.4,0.9-0.9,1.3-1.3l46-46c-2.5,3.4-5.3,6.7-8.4,9.8L273.1,464
			c-41.1,41.1-41.8,108-2,150c0.6,0.7,1.3,1.3,2,2c0.3,0.3,0.6,0.6,0.9,0.9L388,730.9l-0.7,0.7L195.7,540z"/>
		<path class="st1" d="M616.4,5.4L463.6,158.2l0,0L120,501.8c-21.1,21.1-21.1,55.3,0,76.4l248.2,248.2c5.3,5.3,12.2,7.9,19.1,7.9
			c6.9,0,13.8-2.6,19.1-7.9l76.4-76.4c10.5-10.5,10.5-27.6,0-38.2L330.3,559.3c-0.1-0.1-0.2-0.2-0.3-0.2c-0.1-0.1-0.2-0.2-0.2-0.3
			c-10.3-10.6-10.2-27.5,0.2-37.9l286.4-286.4C679.7,171.3,679.7,68.7,616.4,5.4L616.4,5.4L616.4,5.4z"/>
	</g>
</g>
</svg>
