<?xml version="1.0" encoding="utf-8"?>
<!-- Generator: Adobe Illustrator 26.0.1, SVG Export Plug-In . SVG Version: 6.00 Build 0)  -->
<svg version="1.1" id="Capa_1" xmlns="http://www.w3.org/2000/svg" xmlns:xlink="http://www.w3.org/1999/xlink" x="0px" y="0px"
	 viewBox="0 0 1080 1080" style="enable-background:new 0 0 1080 1080;" xml:space="preserve">
<style type="text/css">
	.st0{fill:#FF00F2;}
	.st1{fill:#1D1D1B;}
</style>
<g id="Capa_3">
	<path class="st0" d="M579,349.2c10.9,10.9,16.7,23.7,17.4,38.5c0.7,14.8-4.9,28.1-16.9,40.1c-12.3,12.3-25.8,18.1-40.6,17.4
		c-14.8-0.7-27.6-6.5-38.5-17.4c-10.5-10.5-16.2-23.2-16.9-38c-0.7-14.8,5.1-28.3,17.4-40.6c12-12,25.3-17.6,40.1-16.9
		C555.8,333.1,568.5,338.7,579,349.2z"/>
	<g>
		<path class="st1" d="M628.4,241.5L756,369.1c10.8,10.8,10.8,28.4,0,39.3L500.7,663.7l-0.3-0.3c-32.4-32.4-32.4-84.9,0-117.3
			l19.9-19.9l0,0L648,398.6c5.4-5.4,5.4-14.2,0-19.6l-78.6-78.6c-5.4-5.4-5.4-14.2,0-19.6l39.3-39.3
			C614.2,236,622.9,236,628.4,241.5z"/>
		<path class="st1" d="M618.5,237.4c-3.6,0-7.1,1.4-9.8,4.1l-39.3,39.3c-5.4,5.4-5.4,14.2,0,19.6l78.6,78.6c5.4,5.4,5.4,14.2,0,19.6
			L520.4,526.2l0,0l-19.9,19.9c-32.4,32.4-32.4,84.9,0,117.3l0.3,0.3L756,408.4c10.8-10.8,10.8-28.4,0-39.3L628.4,241.5
			C625.7,238.8,622.1,237.4,618.5,237.4L618.5,237.4z"/>
	</g>
	<g>
		<path class="st1" d="M579.3,113.8L579.3,113.8c32.5,32.5,32.5,85.3,0,117.8L432,379c-5.4,5.4-5.4,14.1-0.1,19.5
			c0,0,0.1,0.1,0.1,0.1s0.1,0.1,0.1,0.1l78.4,78.4c5.4,5.4,5.4,14.2,0,19.6L471.3,536c-5.4,5.4-14.2,5.4-19.6,0L324,408.4
			c-10.8-10.8-10.8-28.4,0-39.3l176.7-176.7l0,0L579.3,113.8z"/>
		<path class="st1" d="M579.3,113.8l-78.6,78.6l0,0L324,369.1c-10.8,10.8-10.8,28.4,0,39.3L451.6,536c2.7,2.7,6.3,4.1,9.8,4.1
			c3.6,0,7.1-1.4,9.8-4.1l39.3-39.3c5.4-5.4,5.4-14.2,0-19.6l-78.4-78.4c0,0-0.1-0.1-0.1-0.1c0,0-0.1-0.1-0.1-0.1
			c-5.3-5.4-5.3-14.1,0.1-19.5l147.3-147.3C611.8,199.1,611.8,146.4,579.3,113.8L579.3,113.8L579.3,113.8z"/>
	</g>
</g>
<g>
	<path class="st1" d="M381.9,768.6c-0.9-2.9-1.9-5.9-3-9c-1.1-3.1-2.1-6.1-3.2-9.2h-32.8c-1.1,3.1-2.1,6.1-3.2,9.2
		c-1.1,3.1-2.1,6.1-3,9h-19.6c3.2-9,6.2-17.4,9-25.1c2.8-7.7,5.6-14.9,8.3-21.7c2.7-6.8,5.4-13.2,8-19.3c2.6-6.1,5.4-12.1,8.2-17.9
		h17.9c2.8,5.8,5.5,11.8,8.2,17.9c2.7,6.1,5.4,12.5,8.1,19.3c2.7,6.8,5.5,14,8.3,21.7c2.8,7.7,5.8,16,9,25.1H381.9z M359.2,703.6
		c-0.4,1.2-1,2.9-1.9,5c-0.8,2.1-1.7,4.5-2.8,7.3c-1,2.8-2.2,5.8-3.5,9.1s-2.6,6.8-3.9,10.4h24c-1.3-3.6-2.5-7.1-3.7-10.4
		c-1.2-3.3-2.3-6.4-3.4-9.1c-1.1-2.8-2-5.2-2.9-7.3C360.3,706.5,359.7,704.8,359.2,703.6z"/>
	<path class="st1" d="M465.4,760.6c0,10.4-2.6,18.2-7.9,23.2c-5.3,5-13.5,7.6-24.5,7.6c-3.9,0-7.8-0.3-11.6-1
		c-3.9-0.7-7.5-1.6-10.8-2.7l3.2-15.1c2.8,1.1,5.8,2,8.9,2.7c3.1,0.6,6.6,1,10.6,1c5.2,0,8.8-1.1,11-3.4c2.1-2.3,3.2-5.2,3.2-8.7
		v-2.3c-1.9,0.9-3.9,1.6-6,2c-2.1,0.4-4.3,0.7-6.7,0.7c-8.8,0-15.6-2.6-20.2-7.8c-4.7-5.2-7-12.5-7-21.9c0-4.7,0.7-8.9,2.2-12.8
		c1.5-3.8,3.6-7.1,6.4-9.9c2.8-2.7,6.2-4.9,10.2-6.4c4-1.5,8.6-2.2,13.7-2.2c2.2,0,4.4,0.1,6.7,0.3c2.3,0.2,4.6,0.5,6.8,0.8
		c2.3,0.3,4.4,0.7,6.5,1.2c2.1,0.4,3.9,0.9,5.5,1.4V760.6z M425.7,734.7c0,10.1,4.1,15.1,12.2,15.1c1.9,0,3.6-0.2,5.2-0.7
		c1.6-0.5,3-1,4.1-1.7v-28.8c-0.9-0.2-1.9-0.3-3.2-0.4c-1.2-0.1-2.6-0.2-4.2-0.2c-4.8,0-8.3,1.6-10.7,4.7
		C426.9,725.8,425.7,729.8,425.7,734.7z"/>
	<path class="st1" d="M536.7,766.4c-3.1,0.9-7,1.7-11.9,2.5s-9.9,1.2-15.3,1.2c-5.4,0-9.9-0.7-13.5-2.2c-3.6-1.5-6.4-3.5-8.5-6.1
		c-2.1-2.6-3.6-5.8-4.5-9.4c-0.9-3.6-1.3-7.6-1.3-12v-35.5h18.1v33.3c0,5.8,0.8,10,2.3,12.6c1.5,2.6,4.4,3.9,8.6,3.9
		c1.3,0,2.7-0.1,4.1-0.2s2.7-0.3,3.9-0.4v-49.2h18.1V766.4z"/>
	<path class="st1" d="M572,755.6c3.3,0,5.7-0.3,7-1c1.4-0.6,2.1-1.9,2.1-3.8c0-1.5-0.9-2.7-2.7-3.8c-1.8-1.1-4.5-2.3-8.1-3.7
		c-2.8-1-5.4-2.1-7.7-3.3c-2.3-1.1-4.3-2.5-5.9-4.1c-1.6-1.6-2.9-3.5-3.8-5.6c-0.9-2.2-1.3-4.8-1.3-7.9c0-6,2.2-10.7,6.7-14.2
		c4.4-3.5,10.5-5.2,18.3-5.2c3.9,0,7.6,0.3,11.1,1c3.6,0.7,6.4,1.4,8.5,2.2l-3.2,14.1c-2.1-0.7-4.4-1.4-6.8-1.9
		c-2.5-0.6-5.2-0.8-8.3-0.8c-5.7,0-8.5,1.6-8.5,4.7c0,0.7,0.1,1.4,0.4,1.9c0.2,0.6,0.7,1.1,1.5,1.6c0.7,0.5,1.7,1.1,3,1.7
		c1.3,0.6,2.8,1.3,4.8,2c4,1.5,7.2,2.9,9.8,4.3c2.6,1.4,4.6,3,6.1,4.6c1.5,1.7,2.5,3.5,3.2,5.5c0.6,2,0.9,4.4,0.9,7
		c0,6.3-2.4,11-7.1,14.3c-4.7,3.2-11.4,4.8-20.1,4.8c-5.7,0-10.4-0.5-14.1-1.5c-3.8-1-6.4-1.8-7.8-2.4l3-14.7
		c3.1,1.2,6.2,2.2,9.5,2.8C565.6,755.3,568.8,755.6,572,755.6z"/>
	<path class="st1" d="M611.9,689l18.1-2.9v18.8h21.7v15h-21.7v22.4c0,3.8,0.7,6.8,2,9.1c1.3,2.3,4,3.4,8.1,3.4c1.9,0,3.9-0.2,6-0.5
		c2.1-0.4,3.9-0.9,5.6-1.5l2.5,14.1c-2.2,0.9-4.6,1.7-7.3,2.3s-5.9,1-9.8,1c-4.9,0-9-0.7-12.2-2c-3.2-1.3-5.8-3.2-7.8-5.6
		c-1.9-2.4-3.3-5.3-4.1-8.7c-0.8-3.4-1.2-7.1-1.2-11.3V689z"/>
	<path class="st1" d="M666.3,704.9v63.7h18.1v-63.7H666.3z"/>
	<path class="st1" d="M686,686.4c0,3.3-1.1,5.9-3.2,7.8c-2.1,1.9-4.7,2.8-7.6,2.8c-2.9,0-5.4-1-7.6-2.8c-2.1-1.9-3.2-4.5-3.2-7.8
		c0-3.3,1.1-5.9,3.2-7.8c2.1-1.9,4.7-2.9,7.6-2.9c2.9,0,5.4,1,7.6,2.9C684.9,680.5,686,683.1,686,686.4z"/>
	<path class="st1" d="M701.3,707c3.1-0.9,7-1.7,11.9-2.5c4.8-0.8,9.9-1.2,15.3-1.2c5.4,0,9.9,0.7,13.5,2.1c3.6,1.4,6.4,3.4,8.5,6
		c2.1,2.6,3.6,5.7,4.5,9.2c0.9,3.6,1.3,7.5,1.3,11.9v36h-18.1v-33.8c0-5.8-0.8-9.9-2.3-12.4c-1.5-2.4-4.4-3.6-8.6-3.6
		c-1.3,0-2.7,0.1-4.1,0.2s-2.7,0.3-3.9,0.4v49.2h-18.1V707z"/>
</g>
<g id="Capa_2">
	<path class="st1" d="M343.2,803.9c1.5,2.8,3.3,6.3,5.3,10.4c2,4.1,4.1,8.6,6.3,13.5c2.2,4.8,4.3,9.8,6.5,14.8c2.1,5,4.2,9.8,6,14.2
		c1.9-4.4,3.9-9.2,6-14.2c2.1-5,4.3-10,6.5-14.8c2.2-4.8,4.3-9.3,6.3-13.5c2-4.1,3.8-7.6,5.3-10.4h18.2c0.9,5.9,1.6,12.5,2.4,19.8
		c0.7,7.3,1.4,14.9,1.9,22.8c0.6,7.9,1.1,15.8,1.5,23.8c0.5,7.9,0.9,15.4,1.2,22.4h-19.5c-0.3-8.6-0.6-18-1-28.2
		c-0.4-10.2-1.1-20.4-1.9-30.8c-1.5,3.6-3.3,7.6-5.1,11.9c-1.9,4.4-3.8,8.7-5.6,13.1c-1.8,4.4-3.6,8.5-5.3,12.5
		c-1.7,4-3.2,7.4-4.4,10.2h-14c-1.2-2.8-2.7-6.2-4.4-10.2c-1.7-4-3.5-8.1-5.3-12.5c-1.8-4.4-3.7-8.7-5.6-13.1
		c-1.9-4.4-3.6-8.3-5.1-11.9c-0.9,10.3-1.5,20.6-1.9,30.8c-0.4,10.2-0.8,19.6-1,28.2h-19.5c0.3-7,0.7-14.5,1.2-22.4
		c0.5-7.9,1-15.9,1.5-23.8c0.6-7.9,1.2-15.5,1.9-22.8c0.7-7.3,1.5-13.9,2.4-19.8H343.2z"/>
	<path class="st1" d="M457.5,823.5c5.6,0,10.3,0.6,14.1,1.9c3.8,1.3,6.8,3.1,9,5.5c2.3,2.4,3.9,5.3,4.8,8.7
		c0.9,3.4,1.4,7.2,1.4,11.4v39.7c-2.7,0.6-6.5,1.3-11.4,2.1c-4.9,0.8-10.8,1.2-17.7,1.2c-4.4,0-8.3-0.4-11.9-1.2
		c-3.5-0.8-6.6-2-9.2-3.8c-2.6-1.7-4.5-4-5.9-6.9c-1.4-2.8-2.1-6.3-2.1-10.4c0-3.9,0.8-7.3,2.4-10c1.6-2.7,3.7-4.9,6.3-6.5
		c2.6-1.6,5.7-2.8,9.1-3.5c3.4-0.7,7-1.1,10.6-1.1c2.5,0,4.7,0.1,6.6,0.3c1.9,0.2,3.5,0.5,4.7,0.8v-1.8c0-3.2-1-5.9-2.9-7.8
		c-2-2-5.4-2.9-10.3-2.9c-3.2,0-6.5,0.2-9.6,0.7c-3.2,0.5-5.9,1.1-8.2,2l-2.4-15.4c1.1-0.3,2.5-0.7,4.2-1.1s3.5-0.7,5.4-1
		c2-0.3,4-0.6,6.2-0.8C453.1,823.6,455.3,823.5,457.5,823.5z M459,879.3c1.9,0,3.7,0,5.4-0.1c1.7-0.1,3.1-0.2,4.1-0.4v-14.5
		c-0.8-0.2-1.9-0.3-3.5-0.5c-1.5-0.2-2.9-0.3-4.2-0.3c-1.8,0-3.5,0.1-5.1,0.3c-1.6,0.2-3,0.6-4.2,1.2c-1.2,0.6-2.1,1.4-2.8,2.4
		c-0.7,1-1,2.3-1,3.8c0,3,1,5.1,3,6.2C452.8,878.7,455.5,879.3,459,879.3z"/>
	<path class="st1" d="M504.1,827.6c3.2-0.9,7.4-1.8,12.6-2.6c5.1-0.8,10.5-1.2,16.1-1.2c5.7,0,10.5,0.7,14.3,2.2
		c3.8,1.5,6.8,3.6,9,6.3c2.2,2.7,3.8,6,4.7,9.7c0.9,3.8,1.4,7.9,1.4,12.6v38.1h-19.1v-35.7c0-6.2-0.8-10.5-2.4-13.1
		c-1.6-2.6-4.7-3.8-9.1-3.8c-1.4,0-2.8,0.1-4.4,0.2s-2.9,0.3-4.1,0.4v52h-19.1V827.6z"/>
	<path class="st1" d="M576.4,859.5c0-6,0.9-11.2,2.8-15.7c1.8-4.5,4.2-8.2,7.2-11.2c3-3,6.4-5.3,10.3-6.8c3.9-1.5,7.9-2.3,12-2.3
		c9.6,0,17.1,2.9,22.7,8.8c5.6,5.9,8.3,14.5,8.3,25.8c0,1.1,0,2.3-0.1,3.7c-0.1,1.3-0.2,2.5-0.3,3.5H596c0.4,3.9,2.3,7,5.5,9.4
		c3.2,2.3,7.6,3.5,13.1,3.5c3.5,0,6.9-0.3,10.3-1c3.4-0.6,6.1-1.4,8.3-2.4l2.6,15.5c-1,0.5-2.4,1-4.1,1.5c-1.7,0.5-3.6,1-5.7,1.3
		c-2.1,0.4-4.3,0.7-6.7,1c-2.4,0.3-4.8,0.4-7.2,0.4c-6.1,0-11.3-0.9-15.8-2.7c-4.5-1.8-8.2-4.2-11.1-7.4c-2.9-3.1-5.1-6.8-6.5-11.1
		C577.1,869,576.4,864.4,576.4,859.5z M621.2,852.2c-0.1-1.6-0.4-3.2-0.8-4.7c-0.5-1.5-1.2-2.9-2.2-4.1c-1-1.2-2.2-2.2-3.7-2.9
		c-1.5-0.8-3.4-1.2-5.6-1.2c-2.1,0-4,0.4-5.5,1.1c-1.5,0.7-2.8,1.7-3.8,2.9c-1,1.2-1.8,2.6-2.4,4.2c-0.6,1.6-1,3.2-1.2,4.8H621.2z"
		/>
	<path class="st1" d="M681.3,893.9c-5.6-0.1-10.1-0.7-13.5-1.8s-6.2-2.7-8.2-4.7c-2-2-3.4-4.4-4.1-7.3c-0.7-2.9-1.1-6.1-1.1-9.7
		v-74.2l19.1-3.1v73.4c0,1.7,0.1,3.2,0.4,4.6c0.3,1.4,0.7,2.5,1.5,3.5c0.7,0.9,1.8,1.7,3.1,2.3c1.4,0.6,3.2,1,5.5,1.2L681.3,893.9z"
		/>
	<path class="st1" d="M721.8,893.9c-5.6-0.1-10.1-0.7-13.5-1.8s-6.2-2.7-8.2-4.7c-2-2-3.4-4.4-4.1-7.3c-0.7-2.9-1.1-6.1-1.1-9.7
		v-74.2l19.1-3.1v73.4c0,1.7,0.1,3.2,0.4,4.6c0.3,1.4,0.7,2.5,1.5,3.5c0.7,0.9,1.8,1.7,3.1,2.3c1.4,0.6,3.2,1,5.5,1.2L721.8,893.9z"
		/>
	<path class="st1" d="M735.4,825.2v67.4h19.1v-67.4H735.4z"/>
	<path class="st0" d="M756.3,805.8c0,3.5-1.1,6.3-3.4,8.3c-2.3,2-4.9,3-8,3c-3.1,0-5.8-1-8-3c-2.3-2-3.4-4.8-3.4-8.3
		s1.1-6.3,3.4-8.3c2.3-2,4.9-3,8-3c3.1,0,5.7,1,8,3C755.2,799.5,756.3,802.3,756.3,805.8z"/>
</g>
</svg>
