<?xml version="1.0" encoding="utf-8"?>
<!-- Generator: Adobe Illustrator 26.0.1, SVG Export Plug-In . SVG Version: 6.00 Build 0)  -->
<svg version="1.1" xmlns="http://www.w3.org/2000/svg" xmlns:xlink="http://www.w3.org/1999/xlink" x="0px" y="0px"
	 viewBox="0 0 1080 1080" style="enable-background:new 0 0 1080 1080;" xml:space="preserve">
<style type="text/css">
	.st0{fill:#FF4779;}
</style>
<g id="Capa_2">
	<path class="st0" d="M615.9,463.1c21.2,21.2,32.5,46.1,33.8,74.8c1.4,28.7-9.6,54.7-32.8,77.9C593,639.8,566.7,651,538,649.7
		c-28.7-1.4-53.6-12.6-74.8-33.8c-20.5-20.5-31.4-45.1-32.8-73.8c-1.4-28.7,9.9-55,33.8-78.9c23.2-23.2,49.2-34.2,77.9-32.8
		C570.8,431.7,595.4,442.6,615.9,463.1z"/>
</g>
<g id="Capa_4">
	<g>
		<path class="st0" d="M711.8,253.6L960,501.8c21.1,21.1,21.1,55.3,0,76.4l-496.4,496.4l-0.5-0.5c-63-63-63-165.1,0-228l38.7-38.7
			l0,0L750,559.1c10.5-10.5,10.5-27.6,0-38.2L597.3,368.2c-10.5-10.5-10.5-27.6,0-38.2l76.4-76.4
			C684.2,243.1,701.3,243.1,711.8,253.6z"/>
	</g>
	<g>
		<path class="st0" d="M616.4,5.4L616.4,5.4c63.3,63.3,63.3,165.9,0,229.1L330,520.9c-10.5,10.5-10.5,27.4-0.2,37.9
			c0.1,0.1,0.2,0.2,0.2,0.3s0.2,0.2,0.3,0.2l152.5,152.5c10.5,10.5,10.5,27.6,0,38.2l-76.4,76.4c-10.5,10.5-27.6,10.6-38.2,0
			L120,578.2c-21.1-21.1-21.1-55.3,0-76.4l343.7-343.7l0,0L616.4,5.4z"/>
	</g>
</g>
</svg>
