<?xml version="1.0" encoding="utf-8"?>
<!-- Generator: Adobe Illustrator 26.0.1, SVG Export Plug-In . SVG Version: 6.00 Build 0)  -->
<svg version="1.1" id="Capa_1" opacity="0.1" xmlns="http://www.w3.org/2000/svg" xmlns:xlink="http://www.w3.org/1999/xlink" x="0px"
	 y="0px" viewBox="0 0 1920 1080" style="enable-background:new 0 0 1920 1080;" xml:space="preserve">
<style type="text/css">
	.st0{fill:#FF00F2;}
	.st1{fill:#1D1D1B;}
</style>
<path class="st0" d="M410.3,162.6c104.5,104.5,160.1,227.5,166.8,369C584,673.3,530,801.3,415.3,916
	C297.4,1033.9,167.7,1089.6,26,1082.8c-141.6-6.7-264.6-62.2-369.1-166.8c-101.1-101.1-155-222.4-161.8-364.1
	C-511.6,410.3-456,280.5-338,162.6C-223.4,48-95.3-6,46.2,0.8C187.9,7.6,309.2,61.5,410.3,162.6z"/>
<g>
	<path class="st1" d="M-336.3,3068.4c-45.1-55.2-81.3-116.4-108.2-182.6c-34.8-85.8-52.5-176.6-52.5-269.7
		c0-93.1,17.6-183.8,52.5-269.7c36-88.8,89-168.6,157.4-237l188.6-188.6c1-0.9,1.9-1.8,2.9-2.7L1131.2,691.4
		c83.4-83.4,83.4-219.2,0-302.6l-755-755c-10-10-15.5-23.3-15.5-37.4s5.5-27.4,15.5-37.4l377.5-377.5c10-10,23.3-15.5,37.5-15.5
		c14.1,0,27.4,5.5,37.4,15.5c1.8,1.8,3.7,3.5,5.6,5.1L1883.9,54.4c4.8,8.3,22.8,45.7,37.5,163.8c11.2,90,17.4,204.3,17.4,321.8
		s-6.2,231.8-17.4,321.8c-15.3,123.1-34.2,158.6-38.1,164.7L-336.3,3068.4z"/>
	<path class="st1" d="M792.4-743.6l1025.1,847.5c5.8,17.5,17,59.6,26.4,143.9c9.3,83.3,14.4,187,14.4,292.2
		c0,105.1-5.1,208.9-14.4,292.2c-9.9,88.4-21.7,130.4-27.2,146.3l-2140.4,1969c-17.8-29.2-33.3-59.8-46.3-91.8
		c-15.4-37.9-27.1-77.5-34.9-117.8c-7.7-39.9-11.7-80.9-11.7-121.6c0-40.8,3.9-81.7,11.7-121.6c7.8-40.3,19.5-79.9,34.9-117.8
		c32-78.8,79-149.6,139.7-210.3L-42.8,1979c1.4-1.3,2.7-2.6,4.1-3.9L1188.1,748.3c28.1-28.1,49.8-60.8,64.7-97.5
		c14.3-35.3,21.6-72.6,21.6-110.7c0-38.2-7.3-75.4-21.6-110.7c-14.9-36.6-36.6-69.4-64.7-97.5L452.5-403.7L792.4-743.6 M791.1-914.7
		c-34.2,0-68.3,13-94.4,39.1L319.2-498.1c-52.1,52.1-52.1,136.6,0,188.7l755,755c52.1,52.1,52.1,136.6,0,188.7L-152.6,1861.3
		l-0.1-0.1l-191.4,191.4c-311.3,311.3-311.3,815.9,0,1127.1l2.7,2.7l2282.5-2099.8c104.2-104.2,104.2-981.1,0-1085.4L885.4-875.6
		C859.4-901.6,825.2-914.7,791.1-914.7L791.1-914.7z"/>
</g>
</svg>
