<?xml version="1.0" encoding="utf-8"?>
<!-- Generator: Adobe Illustrator 26.0.1, SVG Export Plug-In . SVG Version: 6.00 Build 0)  -->
<svg version="1.1" id="Capa_1" xmlns="http://www.w3.org/2000/svg" xmlns:xlink="http://www.w3.org/1999/xlink" x="0px" y="0px"
	 viewBox="0 0 1080 1080" style="enable-background:new 0 0 1080 1080;" xml:space="preserve">
<style type="text/css">
	.st0{fill:none;}
	.st1{fill:#1D1D1B;}
	.st2{fill:#FF00F2;}
	.st3{opacity:0.3;}
	.st4{fill:url(#SVGID_1_);}
</style>
<pattern  y="1080" width="601.1" height="543.5" patternUnits="userSpaceOnUse" id="Nueva_muestra_de_motivo_1" viewBox="0 -574 601.1 543.5" style="overflow:visible;">
	<g>
		<rect y="-574" class="st0" width="601.1" height="543.5"/>
		<g>
			<rect y="-574" class="st0" width="601.1" height="543.5"/>
			<g>
				<g>
					<path class="st1" d="M519-428.3l20.6-20.6c1.8-1.8,1.8-4.6,0-6.3l-41.3-41.3l0,0c-5.2,5.2-5.2,13.7,0,19l3.2,3.2l0,0l20.6,20.6
						c0.9,0.9,0.9,2.3,0,3.2l-12.7,12.7c-0.9,0.9-0.9,2.3,0,3.2l6.3,6.3C516.7-427.4,518.2-427.4,519-428.3z"/>
					<path class="st1" d="M517.5-427.6c-0.6,0-1.1-0.2-1.6-0.7l-6.3-6.3c-0.9-0.9-0.9-2.3,0-3.2l12.7-12.7c0.9-0.9,0.9-2.3,0-3.2
						l-20.6-20.6l0,0l-3.2-3.2c-5.2-5.2-5.2-13.7,0-19l0,0l41.3,41.3c1.8,1.8,1.8,4.6,0,6.3L519-428.3
						C518.6-427.8,518-427.6,517.5-427.6L517.5-427.6z"/>
				</g>
				<g>
					<path class="st1" d="M470.5-407.7L470.5-407.7c5.3-5.3,5.3-13.8,0-19l-23.8-23.8c-0.9-0.9-0.9-2.3,0-3.2l0,0l0,0l12.7-12.7
						c0.9-0.9,0.9-2.3,0-3.2l-6.3-6.3c-0.9-0.9-2.3-0.9-3.2,0l-20.6,20.6c-1.8,1.8-1.8,4.6,0,6.3l28.6,28.6l0,0L470.5-407.7z"/>
					<path class="st1" d="M470.5-407.7l-12.7-12.7l0,0L429.2-449c-1.8-1.8-1.8-4.6,0-6.3l20.6-20.6c0.4-0.4,1-0.7,1.6-0.7
						s1.1,0.2,1.6,0.7l6.3,6.3c0.9,0.9,0.9,2.3,0,3.2l-12.7,12.7l0,0l0,0c-0.9,0.9-0.8,2.3,0,3.2l23.8,23.8
						C475.7-421.4,475.7-412.9,470.5-407.7L470.5-407.7L470.5-407.7z"/>
				</g>
				<path class="st2" d="M497.3-408.6l5-1.7c1.7-0.6,2.6-2.5,2-4.2l-26.9-77.7c-0.6-1.7-2.5-2.6-4.2-2l-5,1.7
					c-1.7,0.6-2.6,2.5-2,4.2l26.9,77.7C493.7-408.9,495.6-408,497.3-408.6z"/>
				<circle class="st2" cx="573.7" cy="-353.5" r="16.3"/>
			</g>
			<g>
				<g>
					<path class="st1" d="M218.5-564.2l20.6-20.6c1.8-1.8,1.8-4.6,0-6.3l-41.2-41.3l0,0c-5.2,5.2-5.2,13.7,0,19l3.2,3.2l0,0
						l20.6,20.6c0.9,0.9,0.9,2.3,0,3.2L209-573.7c-0.9,0.9-0.9,2.3,0,3.2l6.3,6.3C216.2-563.3,217.6-563.3,218.5-564.2z"/>
					<path class="st1" d="M216.9-563.5c-0.6,0-1.1-0.2-1.6-0.7l-6.3-6.3c-0.9-0.9-0.9-2.3,0-3.2l12.7-12.7c0.9-0.9,0.9-2.3,0-3.2
						l-20.6-20.6l0,0l-3.2-3.2c-5.2-5.2-5.2-13.7,0-19l0,0l41.3,41.3c1.8,1.8,1.8,4.6,0,6.3l-20.6,20.6
						C218.1-563.7,217.5-563.5,216.9-563.5L216.9-563.5z"/>
				</g>
				<g>
					<path class="st1" d="M169.9-543.5L169.9-543.5c5.3-5.3,5.3-13.8,0-19l-23.8-23.9c-0.9-0.9-0.9-2.3,0-3.2l0,0l0,0l12.7-12.7
						c0.9-0.9,0.9-2.3,0-3.2l-6.3-6.3c-0.9-0.9-2.3-0.9-3.2,0l-20.6,20.6c-1.8,1.8-1.8,4.6,0,6.3l28.6,28.6l0,0L169.9-543.5z"/>
					<path class="st1" d="M169.9-543.5l-12.7-12.7l0,0l-28.6-28.6c-1.8-1.8-1.8-4.6,0-6.3l20.6-20.6c0.4-0.4,1-0.7,1.6-0.7
						s1.1,0.2,1.6,0.7l6.3,6.3c0.9,0.9,0.9,2.3,0,3.2L146-589.5l0,0l0,0c-0.9,0.9-0.8,2.3,0,3.2l23.8,23.8
						C175.2-557.3,175.2-548.8,169.9-543.5L169.9-543.5L169.9-543.5z"/>
				</g>
				<path class="st2" d="M196.8-544.4l5-1.7c1.7-0.6,2.6-2.5,2-4.2L177-628.1c-0.6-1.7-2.5-2.6-4.2-2l-5,1.7c-1.7,0.6-2.6,2.5-2,4.2
					l26.9,77.7C193.2-544.7,195.1-543.8,196.8-544.4z"/>
				<circle class="st2" cx="273.1" cy="-489.4" r="16.3"/>
				<g>
					<g>
						<path class="st1" d="M323.4-582h7.2v13.9c0,0.9,0,1.8-0.1,2.6c-0.1,0.8-0.2,1.6-0.4,2.4c0.5,0.3,1,0.5,1.7,0.7
							s1.2,0.3,1.6,0.3c1.5,0,2.5-0.5,3.1-1.5s0.9-2.6,0.9-5v-13.6h7.2v14.4c0,1.7-0.1,3.3-0.4,4.8c-0.3,1.4-0.8,2.7-1.6,3.7
							s-1.8,1.8-3.1,2.4s-3,0.9-5,0.9c-1.1,0-2.4-0.2-3.7-0.6c-1.3-0.4-2.5-1-3.6-1.7c-0.7,0.6-1.7,1.2-2.8,1.7
							c-1.2,0.5-2.6,0.7-4.5,0.7c-0.9,0-1.9,0-2.9-0.1c-1-0.1-1.9-0.2-2.8-0.3c-0.9-0.1-1.8-0.3-2.6-0.5c-0.8-0.2-1.5-0.3-2.2-0.5
							V-582h7.2v19.7c0.5,0.1,0.9,0.1,1.4,0.2c0.5,0,1,0.1,1.4,0.1c1.5,0,2.5-0.5,3.1-1.5s0.9-2.6,0.9-5L323.4-582L323.4-582z"/>
						<path class="st1" d="M334.5-555.9c-1.1,0-2.4-0.2-3.7-0.6c-1.3-0.4-2.5-1-3.6-1.7c-0.7,0.6-1.7,1.2-2.8,1.7
							c-1.2,0.5-2.6,0.7-4.5,0.7c-0.9,0-1.9,0-2.9-0.1s-1.9-0.2-2.8-0.3c-0.9-0.1-1.8-0.3-2.6-0.5c-0.8-0.2-1.5-0.3-2.2-0.5v-24.7
							h7.2v19.7c0.5,0.1,0.9,0.1,1.4,0.2c0.5,0,1,0.1,1.4,0.1c1.5,0,2.5-0.5,3.1-1.5s0.9-2.6,0.9-5V-582h7.2v13.9
							c0,0.9,0,1.8-0.1,2.6c-0.1,0.8-0.2,1.6-0.4,2.4c0.5,0.3,1,0.5,1.7,0.7s1.2,0.3,1.6,0.3c1.5,0,2.5-0.5,3.1-1.5s0.9-2.6,0.9-5
							v-13.6h7.2v14.4c0,1.7-0.1,3.3-0.4,4.8c-0.3,1.4-0.8,2.7-1.6,3.7c-0.8,1-1.8,1.8-3.1,2.4C338.2-556.2,336.5-555.9,334.5-555.9
							L334.5-555.9z"/>
					</g>
					<g>
						<path class="st1" d="M357.9-555.9c-0.8-0.1-1.6-0.2-2.4-0.3c-0.8-0.1-1.4-0.2-2.1-0.4c-0.6-0.1-1.2-0.3-1.6-0.4l0.9-5.8
							c0.9,0.3,1.9,0.6,3.1,0.8c1.2,0.2,2.4,0.3,3.6,0.3c1.8,0,3.1-0.4,3.9-1.1c0.7-0.7,1.1-1.7,1.1-3v-0.7c-0.5,0.1-1,0.2-1.8,0.3
							c-0.7,0.1-1.6,0.1-2.5,0.1c-1.4,0-2.7-0.1-4-0.4c-1.3-0.3-2.4-0.7-3.4-1.3c-1-0.6-1.8-1.4-2.4-2.5c-0.6-1-0.9-2.3-0.9-3.8
							c0-1.6,0.3-2.9,0.8-3.9c0.5-1.1,1.3-1.9,2.2-2.6c1-0.7,2.1-1.1,3.5-1.4c1.3-0.3,2.8-0.4,4.5-0.4c2.6,0,4.9,0.2,6.7,0.5
							c1.8,0.3,3.3,0.6,4.3,0.8v15.1c0,1.6-0.2,3-0.5,4.3c-0.4,1.3-1,2.4-1.8,3.3c-0.9,0.9-2,1.6-3.4,2.1s-3.2,0.7-5.3,0.7
							C359.6-555.8,358.7-555.8,357.9-555.9z M357.9-576.3c-0.8,0.4-1.1,1.2-1.1,2.4c0,0.6,0.1,1.1,0.4,1.5s0.6,0.7,1.1,0.9
							c0.5,0.2,1,0.4,1.6,0.5c0.6,0.1,1.2,0.1,1.9,0.1c0.5,0,1,0,1.6-0.1c0.6-0.1,1-0.1,1.3-0.2v-5.5c-0.4-0.1-0.9-0.1-1.6-0.1
							c-0.6,0-1.3,0-2,0C359.7-577,358.6-576.7,357.9-576.3z"/>
						<path class="st1" d="M360.4-555.8c2.1,0,3.9-0.2,5.3-0.7s2.6-1.2,3.4-2.1c0.9-0.9,1.5-2,1.8-3.3c0.4-1.3,0.5-2.7,0.5-4.3
							v-15.1c-1-0.2-2.5-0.5-4.3-0.8s-4.1-0.5-6.7-0.5c-1.7,0-3.2,0.1-4.5,0.4s-2.5,0.8-3.5,1.4c-1,0.7-1.7,1.5-2.2,2.6
							c-0.5,1.1-0.8,2.4-0.8,3.9s0.3,2.8,0.9,3.8s1.4,1.9,2.4,2.5c1,0.6,2.2,1.1,3.4,1.3c1.3,0.3,2.6,0.4,4,0.4c0.9,0,1.8,0,2.5-0.1
							s1.3-0.2,1.8-0.3v0.7c0,1.2-0.4,2.2-1.1,3c-0.7,0.7-2,1.1-3.9,1.1c-1.2,0-2.4-0.1-3.6-0.3s-2.2-0.4-3.1-0.8l-0.9,5.8
							c0.4,0.1,0.9,0.3,1.6,0.4c0.6,0.1,1.3,0.3,2.1,0.4c0.7,0.1,1.5,0.2,2.4,0.3C358.7-555.8,359.6-555.8,360.4-555.8L360.4-555.8z
							 M361-577c0.7,0,1.4,0,2,0s1.2,0.1,1.6,0.1v5.5c-0.3,0.1-0.7,0.1-1.3,0.2c-0.6,0.1-1.1,0.1-1.6,0.1c-0.7,0-1.3,0-1.9-0.1
							c-0.6-0.1-1.1-0.2-1.6-0.5c-0.5-0.2-0.8-0.5-1.1-0.9c-0.3-0.4-0.4-0.9-0.4-1.5c0-1.1,0.4-1.9,1.1-2.4
							C358.6-576.7,359.7-577,361-577L361-577z"/>
					</g>
					<g>
						<path class="st1" d="M378.1-582h7.2v19.7c0.5,0.1,1,0.1,1.6,0.2c0.6,0.1,1.1,0.1,1.7,0.1c1.7,0,2.8-0.5,3.4-1.5s0.9-2.6,0.9-5
							v-13.6h7.2v14.4c0,1.7-0.2,3.3-0.5,4.8c-0.4,1.4-1,2.7-1.8,3.7s-2,1.8-3.4,2.4c-1.4,0.6-3.2,0.9-5.4,0.9
							c-2.1,0-4.2-0.2-6.1-0.5s-3.5-0.6-4.8-1L378.1-582L378.1-582z"/>
						<path class="st1" d="M389-555.9c-2.1,0-4.2-0.2-6.1-0.5s-3.5-0.6-4.8-1v-24.7h7.2v19.7c0.5,0.1,1,0.1,1.6,0.2
							c0.6,0,1.1,0.1,1.7,0.1c1.7,0,2.8-0.5,3.4-1.5s0.9-2.6,0.9-5v-13.6h7.2v14.4c0,1.7-0.2,3.3-0.5,4.8c-0.4,1.4-1,2.7-1.8,3.7
							s-2,1.8-3.4,2.4C393-556.2,391.2-555.9,389-555.9L389-555.9z"/>
					</g>
					<g>
						<path class="st1" d="M406.3-574.7c0.5-1.6,1.4-3,2.5-4.2s2.5-2.1,4.2-2.8s3.7-1,6-1c0.9,0,1.8,0,2.7,0.1
							c0.9,0.1,1.8,0.2,2.5,0.4s1.5,0.3,2.2,0.5c0.6,0.2,1.2,0.4,1.6,0.6l-1,5.9c-0.8-0.4-1.9-0.7-3.1-0.9c-1.3-0.2-2.6-0.4-3.9-0.4
							c-2.1,0-3.7,0.4-5,1.3c-1.2,0.9-1.9,2.1-2.1,3.5h16.4c0,0.4,0.1,0.8,0.1,1.3s0,1,0,1.4c0,4.3-1.1,7.6-3.2,9.8s-5,3.3-8.6,3.3
							c-1.6,0-3.1-0.3-4.5-0.9c-1.5-0.6-2.8-1.4-3.9-2.6c-1.1-1.1-2-2.6-2.7-4.3s-1-3.7-1-6C405.5-571.3,405.8-573.1,406.3-574.7z
							 M412.9-566.7c0.1,0.6,0.3,1.2,0.5,1.8s0.5,1.1,0.9,1.6s0.9,0.8,1.5,1.1s1.3,0.4,2.1,0.4c0.8,0,1.5-0.1,2.1-0.4s1-0.7,1.4-1.1
							c0.4-0.5,0.6-1,0.8-1.6s0.3-1.2,0.3-1.8H412.9z"/>
						<path class="st1" d="M417.7-555.8c3.6,0,6.5-1.1,8.6-3.3s3.2-5.5,3.2-9.8c0-0.4,0-0.9,0-1.4s-0.1-0.9-0.1-1.3H413
							c0.2-1.5,0.9-2.7,2.1-3.5c1.2-0.9,2.9-1.3,5-1.3c1.3,0,2.6,0.1,3.9,0.4c1.3,0.2,2.3,0.5,3.1,0.9l1-5.9
							c-0.4-0.2-0.9-0.4-1.6-0.6c-0.6-0.2-1.4-0.4-2.2-0.5c-0.8-0.1-1.6-0.3-2.5-0.4c-0.9-0.1-1.8-0.1-2.7-0.1c-2.3,0-4.3,0.3-6,1
							s-3.1,1.6-4.2,2.8c-1.1,1.2-1.9,2.6-2.5,4.2c-0.5,1.6-0.8,3.4-0.8,5.2c0,2.3,0.3,4.3,1,6s1.6,3.1,2.7,4.3
							c1.1,1.1,2.4,2,3.9,2.6C414.7-556.1,416.2-555.8,417.7-555.8L417.7-555.8z M412.9-566.7h9.6c0,0.6-0.1,1.2-0.3,1.8
							c-0.2,0.6-0.5,1.1-0.8,1.6c-0.4,0.5-0.8,0.8-1.4,1.1s-1.3,0.4-2.1,0.4c-0.8,0-1.5-0.1-2.1-0.4s-1.1-0.6-1.5-1.1
							s-0.7-1-0.9-1.6C413.2-565.4,413-566,412.9-566.7L412.9-566.7z"/>
					</g>
					<g>
						<path class="st1" d="M446.3-576.5c-0.9,0.1-1.6,0.2-2.1,0.4s-0.9,0.5-1.2,0.9c-0.3,0.4-0.5,0.8-0.6,1.3s-0.1,1.1-0.1,1.7v27.8
							l-7.2-1.2v-28.1c0-1.4,0.1-2.6,0.4-3.7s0.8-2,1.6-2.8c0.8-0.8,1.8-1.4,3.1-1.8c1.3-0.4,3-0.6,5.1-0.7L446.3-576.5z"/>
						<path class="st1" d="M442.3-544.3l-7.2-1.2v-28.1c0-1.4,0.1-2.6,0.4-3.7c0.3-1.1,0.8-2,1.6-2.8c0.8-0.8,1.8-1.4,3.1-1.8
							c1.3-0.4,3-0.6,5.1-0.7l1,6c-0.9,0.1-1.6,0.2-2.1,0.4s-0.9,0.5-1.2,0.9c-0.3,0.4-0.5,0.8-0.6,1.3s-0.1,1.1-0.1,1.7
							L442.3-544.3L442.3-544.3z"/>
					</g>
					<g>
						<path class="st1" d="M461.7-576.5c-0.9,0.1-1.6,0.2-2.1,0.4s-0.9,0.5-1.2,0.9c-0.3,0.4-0.5,0.8-0.6,1.3s-0.1,1.1-0.1,1.7v27.8
							l-7.2-1.2v-28.1c0-1.4,0.1-2.6,0.4-3.7s0.8-2,1.6-2.8c0.8-0.8,1.8-1.4,3.1-1.8c1.3-0.4,3-0.6,5.1-0.7L461.7-576.5z"/>
						<path class="st1" d="M457.7-544.3l-7.2-1.2v-28.1c0-1.4,0.1-2.6,0.4-3.7c0.3-1.1,0.8-2,1.6-2.8c0.8-0.8,1.8-1.4,3.1-1.8
							c1.3-0.4,3-0.6,5.1-0.7l1,6c-0.9,0.1-1.6,0.2-2.1,0.4s-0.9,0.5-1.2,0.9c-0.3,0.4-0.5,0.8-0.6,1.3s-0.1,1.1-0.1,1.7
							L457.7-544.3L457.7-544.3z"/>
					</g>
					<g>
						<path class="st1" d="M473-556.5v-25.6h-7.2v25.6H473z"/>
						<polygon class="st1" points="473,-556.5 465.8,-556.5 465.8,-582 473,-582 						"/>
					</g>
					<path class="st2" d="M473.7-549.1c0-1.3-0.4-2.4-1.3-3.1c-0.8-0.8-1.9-1.1-3-1.1c-1.2,0-2.2,0.4-3,1.1
						c-0.9,0.8-1.3,1.8-1.3,3.1s0.4,2.4,1.3,3.1c0.9,0.7,1.9,1.1,3,1.1c1.2,0,2.2-0.4,3-1.1C473.3-546.7,473.7-547.7,473.7-549.1z"
						/>
				</g>
			</g>
			<g>
				<g>
					<path class="st1" d="M102.6-517.6l-21.1-20.1c-1.8-1.7-4.6-1.6-6.3,0.2L35-495.2l0,0c5.4,5.1,13.8,4.9,18.9-0.5L57-499l0,0
						l20.1-21.1c0.9-0.9,2.3-0.9,3.2-0.1l13,12.4c0.9,0.9,2.3,0.8,3.2-0.1l6.2-6.5C103.6-515.3,103.5-516.7,102.6-517.6z"/>
					<path class="st1" d="M44.2-491.6c-3.3,0-6.6-1.2-9.2-3.7l0,0l40.2-42.3c0.9-0.9,2.1-1.4,3.3-1.4c1.1,0,2.2,0.4,3.1,1.2
						l21.1,20.1c0.9,0.9,0.9,2.3,0.1,3.2l-6.2,6.5c-0.4,0.5-1,0.7-1.6,0.7s-1.1-0.2-1.5-0.6l-13-12.4c-0.4-0.4-1-0.6-1.5-0.6
						c-0.6,0-1.2,0.2-1.6,0.7L57-499l0,0l-3.1,3.3C51.3-492.9,47.7-491.6,44.2-491.6L44.2-491.6z"/>
				</g>
				<g>
					<g>
						<path class="st1" d="M22.9-446.1h7.2v13.9c0,0.9,0,1.8-0.1,2.6c-0.1,0.8-0.2,1.6-0.4,2.4c0.5,0.3,1,0.5,1.7,0.7
							s1.2,0.3,1.6,0.3c1.5,0,2.5-0.5,3.1-1.5s0.9-2.6,0.9-5v-13.6h7.2v14.4c0,1.7-0.1,3.3-0.4,4.8c-0.3,1.4-0.8,2.7-1.6,3.7
							s-1.8,1.8-3.1,2.4c-1.3,0.6-3,0.9-5,0.9c-1.1,0-2.4-0.2-3.7-0.6c-1.3-0.4-2.5-1-3.6-1.7c-0.7,0.6-1.7,1.2-2.8,1.7
							c-1.2,0.5-2.6,0.7-4.5,0.7c-0.9,0-1.9,0-2.9-0.1s-1.9-0.2-2.8-0.3c-0.9-0.1-1.8-0.3-2.6-0.5c-0.8-0.2-1.5-0.3-2.2-0.5v-24.7
							h7.2v19.7c0.5,0.1,0.9,0.1,1.4,0.2c0.5,0,1,0.1,1.4,0.1c1.5,0,2.5-0.5,3.1-1.5s0.9-2.6,0.9-5V-446.1z"/>
						<path class="st1" d="M33.9-420c-1.1,0-2.4-0.2-3.7-0.6s-2.5-1-3.6-1.7c-0.7,0.6-1.7,1.2-2.8,1.7c-1.2,0.5-2.6,0.7-4.5,0.7
							c-0.9,0-1.9,0-2.9-0.1c-1-0.1-1.9-0.2-2.8-0.3c-0.9-0.1-1.8-0.3-2.6-0.5c-0.8-0.2-1.5-0.3-2.2-0.5V-446H16v19.6
							c0.5,0.1,0.9,0.1,1.4,0.2c0.5,0,1,0.1,1.4,0.1c1.5,0,2.5-0.5,3.1-1.5s0.9-2.6,0.9-5v-13.6H30v13.9c0,0.9,0,1.8-0.1,2.6
							c-0.1,0.8-0.2,1.6-0.4,2.4c0.5,0.3,1,0.5,1.7,0.7s1.2,0.3,1.6,0.3c1.5,0,2.5-0.5,3.1-1.5s0.9-2.6,0.9-5v-13.6H44v14.4
							c0,1.7-0.1,3.3-0.4,4.8c-0.3,1.4-0.8,2.7-1.6,3.7s-1.8,1.8-3.1,2.4C37.7-420.3,36-420,33.9-420L33.9-420z"/>
					</g>
					<g>
						<path class="st1" d="M57.4-420c-0.8-0.1-1.6-0.2-2.4-0.3c-0.8-0.1-1.4-0.2-2.1-0.4c-0.6-0.1-1.2-0.3-1.6-0.4l0.9-5.8
							c0.9,0.3,1.9,0.6,3.1,0.8c1.2,0.2,2.4,0.3,3.6,0.3c1.8,0,3.1-0.4,3.9-1.1c0.7-0.7,1.1-1.7,1.1-3v-0.7c-0.5,0.1-1,0.2-1.8,0.3
							c-0.7,0.1-1.6,0.1-2.5,0.1c-1.4,0-2.7-0.1-4-0.4c-1.3-0.3-2.4-0.7-3.4-1.3c-1-0.6-1.8-1.4-2.4-2.5c-0.6-1-0.9-2.3-0.9-3.8
							c0-1.6,0.3-2.9,0.8-3.9c0.5-1.1,1.3-1.9,2.2-2.6c1-0.7,2.1-1.1,3.5-1.4c1.3-0.3,2.8-0.4,4.5-0.4c2.6,0,4.9,0.2,6.7,0.5
							s3.3,0.6,4.3,0.8v15.1c0,1.6-0.2,3-0.5,4.3c-0.4,1.3-1,2.4-1.8,3.3c-0.9,0.9-2,1.6-3.4,2.1s-3.2,0.7-5.3,0.7
							C59-419.9,58.2-419.9,57.4-420z M57.3-440.4c-0.8,0.4-1.1,1.2-1.1,2.4c0,0.6,0.1,1.1,0.4,1.5c0.3,0.4,0.6,0.7,1.1,0.9
							s1,0.4,1.6,0.5s1.2,0.1,1.9,0.1c0.5,0,1,0,1.6-0.1s1-0.1,1.3-0.2v-5.5c-0.4-0.1-0.9-0.1-1.6-0.1c-0.6,0-1.3,0-2,0
							C59.1-441.1,58.1-440.9,57.3-440.4z"/>
						<path class="st1" d="M59.9-419.9c2.1,0,3.9-0.2,5.3-0.7s2.6-1.2,3.4-2.1c0.9-0.9,1.5-2,1.8-3.3c0.4-1.3,0.5-2.7,0.5-4.3v-15.1
							c-1-0.2-2.5-0.5-4.3-0.8s-4.1-0.5-6.7-0.5c-1.7,0-3.2,0.1-4.5,0.4s-2.5,0.8-3.5,1.4c-1,0.7-1.7,1.5-2.2,2.6s-0.8,2.4-0.8,3.9
							s0.3,2.8,0.9,3.8c0.6,1,1.4,1.9,2.4,2.5c1,0.6,2.2,1.1,3.4,1.3c1.3,0.3,2.6,0.4,4,0.4c0.9,0,1.8,0,2.5-0.1s1.3-0.2,1.8-0.3
							v0.7c0,1.2-0.4,2.2-1.1,3c-0.7,0.7-2,1.1-3.9,1.1c-1.2,0-2.4-0.1-3.6-0.3c-1.2-0.2-2.2-0.4-3.1-0.8l-0.9,5.8
							c0.4,0.1,0.9,0.3,1.6,0.4c0.6,0.1,1.3,0.3,2.1,0.4c0.7,0.1,1.5,0.2,2.4,0.3C58.2-419.9,59-419.9,59.9-419.9L59.9-419.9z
							 M60.5-441.1c0.7,0,1.4,0,2,0s1.2,0.1,1.6,0.1v5.5c-0.3,0.1-0.7,0.1-1.3,0.2s-1.1,0.1-1.6,0.1c-0.7,0-1.3,0-1.9-0.1
							c-0.6-0.1-1.1-0.2-1.6-0.5c-0.5-0.2-0.8-0.5-1.1-0.9s-0.4-0.9-0.4-1.5c0-1.1,0.4-1.9,1.1-2.4
							C58.1-440.9,59.1-441.1,60.5-441.1L60.5-441.1z"/>
					</g>
					<g>
						<path class="st1" d="M77.6-446.1h7.2v19.7c0.5,0.1,1,0.1,1.6,0.2c0.6,0.1,1.1,0.1,1.7,0.1c1.7,0,2.8-0.5,3.4-1.5
							s0.9-2.6,0.9-5v-13.6h7.2v14.4c0,1.7-0.2,3.3-0.5,4.8c-0.4,1.4-1,2.7-1.8,3.7s-2,1.8-3.4,2.4c-1.4,0.6-3.2,0.9-5.4,0.9
							c-2.1,0-4.2-0.2-6.1-0.5c-1.9-0.3-3.5-0.6-4.8-1L77.6-446.1L77.6-446.1z"/>
						<path class="st1" d="M88.5-420c-2.1,0-4.2-0.2-6.1-0.5s-3.5-0.6-4.8-1v-24.7h7.2v19.8c0.5,0.1,1,0.1,1.6,0.2
							c0.6,0,1.1,0.1,1.7,0.1c1.7,0,2.8-0.5,3.4-1.5s0.9-2.6,0.9-5v-13.6h7.2v14.4c0,1.7-0.2,3.3-0.5,4.8c-0.4,1.4-1,2.7-1.8,3.7
							s-2,1.8-3.4,2.4C92.4-420.3,90.6-420,88.5-420L88.5-420z"/>
					</g>
					<g>
						<path class="st1" d="M105.8-438.8c0.5-1.6,1.4-3,2.5-4.2c1.1-1.2,2.5-2.1,4.2-2.8s3.7-1,6-1c0.9,0,1.8,0,2.7,0.1
							c0.9,0.1,1.8,0.2,2.5,0.4s1.5,0.3,2.2,0.5c0.6,0.2,1.2,0.4,1.6,0.6l-1,5.9c-0.8-0.4-1.9-0.7-3.1-0.9c-1.3-0.2-2.6-0.4-3.9-0.4
							c-2.1,0-3.7,0.4-5,1.3c-1.2,0.9-1.9,2.1-2.1,3.5h16.4c0,0.4,0.1,0.8,0.1,1.3s0,1,0,1.4c0,4.3-1.1,7.6-3.2,9.8
							c-2.1,2.2-5,3.3-8.6,3.3c-1.6,0-3.1-0.3-4.5-0.9c-1.5-0.6-2.8-1.4-3.9-2.6c-1.1-1.1-2-2.6-2.7-4.3c-0.7-1.7-1-3.7-1-6
							C105-435.4,105.2-437.2,105.8-438.8z M112.4-430.8c0.1,0.6,0.3,1.2,0.5,1.8c0.2,0.6,0.5,1.1,0.9,1.6s0.9,0.8,1.5,1.1
							c0.6,0.3,1.3,0.4,2.1,0.4c0.8,0,1.5-0.1,2.1-0.4c0.6-0.3,1-0.7,1.4-1.1c0.4-0.5,0.6-1,0.8-1.6c0.2-0.6,0.3-1.2,0.3-1.8H112.4z
							"/>
						<path class="st1" d="M117.2-419.9c3.6,0,6.5-1.1,8.6-3.3c2.1-2.2,3.2-5.5,3.2-9.8c0-0.4,0-0.9,0-1.4s-0.1-0.9-0.1-1.3h-16.4
							c0.2-1.5,0.9-2.7,2.1-3.5c1.2-0.9,2.9-1.3,5-1.3c1.3,0,2.6,0.1,3.9,0.4c1.3,0.2,2.3,0.5,3.1,0.9l1-5.9
							c-0.4-0.2-0.9-0.4-1.6-0.6c-0.6-0.2-1.4-0.4-2.2-0.5c-0.8-0.1-1.6-0.3-2.5-0.4c-0.9-0.1-1.8-0.1-2.7-0.1c-2.3,0-4.3,0.3-6,1
							s-3.1,1.6-4.2,2.8c-1.1,1.2-1.9,2.6-2.5,4.2c-0.5,1.6-0.8,3.4-0.8,5.2c0,2.3,0.3,4.3,1,6c0.7,1.7,1.6,3.1,2.7,4.3
							c1.1,1.1,2.4,2,3.9,2.6C114.1-420.2,115.7-419.9,117.2-419.9L117.2-419.9z M112.4-430.8h9.6c0,0.6-0.1,1.2-0.3,1.8
							c-0.2,0.6-0.5,1.1-0.8,1.6c-0.4,0.5-0.8,0.8-1.4,1.1c-0.6,0.3-1.3,0.4-2.1,0.4c-0.8,0-1.5-0.1-2.1-0.4
							c-0.6-0.3-1.1-0.6-1.5-1.1s-0.7-1-0.9-1.6C112.7-429.6,112.5-430.2,112.4-430.8L112.4-430.8z"/>
					</g>
					<g>
						<path class="st1" d="M145.8-440.6c-0.9,0.1-1.6,0.2-2.1,0.4c-0.5,0.2-0.9,0.5-1.2,0.9c-0.3,0.4-0.5,0.8-0.6,1.3
							s-0.1,1.1-0.1,1.7v27.9l-7.2-1.2v-28.1c0-1.4,0.1-2.6,0.4-3.7s0.8-2,1.6-2.8c0.8-0.8,1.8-1.4,3.1-1.8s3-0.6,5.1-0.7
							L145.8-440.6z"/>
						<path class="st1" d="M141.8-408.4l-7.2-1.2v-28.1c0-1.4,0.1-2.6,0.4-3.7c0.3-1.1,0.8-2,1.6-2.8c0.8-0.8,1.8-1.4,3.1-1.8
							s3-0.6,5.1-0.7l1,6c-0.9,0.1-1.6,0.2-2.1,0.4c-0.5,0.2-0.9,0.5-1.2,0.9c-0.3,0.4-0.5,0.8-0.6,1.3s-0.1,1.1-0.1,1.7V-408.4
							L141.8-408.4z"/>
					</g>
					<g>
						<path class="st1" d="M161.1-440.6c-0.9,0.1-1.6,0.2-2.1,0.4c-0.5,0.2-0.9,0.5-1.2,0.9c-0.3,0.4-0.5,0.8-0.6,1.3
							s-0.1,1.1-0.1,1.7v27.9l-7.2-1.2v-28.1c0-1.4,0.1-2.6,0.4-3.7s0.8-2,1.6-2.8c0.8-0.8,1.8-1.4,3.1-1.8s3-0.6,5.1-0.7
							L161.1-440.6z"/>
						<path class="st1" d="M157.1-408.4l-7.2-1.2v-28.1c0-1.4,0.1-2.6,0.4-3.7c0.3-1.1,0.8-2,1.6-2.8c0.8-0.8,1.8-1.4,3.1-1.8
							s3-0.6,5.1-0.7l1,6c-0.9,0.1-1.6,0.2-2.1,0.4c-0.5,0.2-0.9,0.5-1.2,0.9c-0.3,0.4-0.5,0.8-0.6,1.3s-0.1,1.1-0.1,1.7V-408.4
							L157.1-408.4z"/>
					</g>
					<g>
						<path class="st1" d="M172.5-420.6v-25.6h-7.2v25.6H172.5z"/>
						<polygon class="st1" points="172.5,-420.6 165.3,-420.6 165.3,-446.1 172.5,-446.1 						"/>
					</g>
					<path class="st2" d="M173.2-413.2c0-1.3-0.4-2.4-1.3-3.1c-0.8-0.8-1.9-1.1-3-1.1c-1.2,0-2.2,0.4-3,1.1
						c-0.9,0.8-1.3,1.8-1.3,3.1c0,1.3,0.4,2.4,1.3,3.1s1.9,1.1,3,1.1c1.2,0,2.2-0.4,3-1.1C172.7-410.8,173.2-411.9,173.2-413.2z"/>
				</g>
			</g>
			<g>
				<g>
					<path class="st1" d="M519-156.5l20.6-20.6c1.8-1.8,1.8-4.6,0-6.3l-41.3-41.3l0,0c-5.2,5.2-5.2,13.7,0,19l3.2,3.2l0,0l20.6,20.6
						c0.9,0.9,0.9,2.3,0,3.2L509.4-166c-0.9,0.9-0.9,2.3,0,3.2l6.3,6.3C516.7-155.7,518.2-155.7,519-156.5z"/>
					<path class="st1" d="M517.5-155.9c-0.6,0-1.1-0.2-1.6-0.7l-6.3-6.3c-0.9-0.9-0.9-2.3,0-3.2l12.7-12.7c0.9-0.9,0.9-2.3,0-3.2
						l-20.6-20.6l0,0l-3.2-3.2c-5.2-5.2-5.2-13.7,0-19l0,0l41.3,41.3c1.8,1.8,1.8,4.6,0,6.3L519-156.5
						C518.6-156.1,518-155.9,517.5-155.9L517.5-155.9z"/>
				</g>
				<g>
					<path class="st1" d="M470.5-135.9L470.5-135.9c5.3-5.3,5.3-13.8,0-19l-23.8-23.8c-0.9-0.9-0.9-2.3,0-3.2l0,0l0,0l12.7-12.7
						c0.9-0.9,0.9-2.3,0-3.2l-6.3-6.3c-0.9-0.9-2.3-0.9-3.2,0l-20.6,20.6c-1.8,1.8-1.8,4.6,0,6.3l28.6,28.6l0,0L470.5-135.9z"/>
					<path class="st1" d="M470.5-135.9l-12.7-12.7l0,0l-28.6-28.6c-1.8-1.8-1.8-4.6,0-6.3l20.6-20.6c0.4-0.4,1-0.7,1.6-0.7
						s1.1,0.2,1.6,0.7l6.3,6.3c0.9,0.9,0.9,2.3,0,3.2l-12.7,12.7l0,0l0,0c-0.9,0.9-0.8,2.3,0,3.2l23.8,23.8
						C475.7-149.7,475.7-141.2,470.5-135.9L470.5-135.9L470.5-135.9z"/>
				</g>
				<path class="st2" d="M497.3-136.8l5-1.7c1.7-0.6,2.6-2.5,2-4.2l-26.9-77.7c-0.6-1.7-2.5-2.6-4.2-2l-5,1.7
					c-1.7,0.6-2.6,2.5-2,4.2l26.9,77.7C493.7-137.1,495.6-136.2,497.3-136.8z"/>
				<circle class="st2" cx="573.7" cy="-81.8" r="16.3"/>
			</g>
			<g>
				<g>
					<path class="st1" d="M218.5-292.4l20.6-20.6c1.8-1.8,1.8-4.6,0-6.3l-41.3-41.3l0,0c-5.2,5.2-5.2,13.7,0,19l3.2,3.2l0,0
						l20.6,20.6c0.9,0.9,0.9,2.3,0,3.2L209-301.9c-0.9,0.9-0.9,2.3,0,3.2l6.3,6.3C216.2-291.5,217.6-291.5,218.5-292.4z"/>
					<path class="st1" d="M216.9-291.8c-0.6,0-1.1-0.2-1.6-0.7l-6.3-6.3c-0.9-0.9-0.9-2.3,0-3.2l12.7-12.7c0.9-0.9,0.9-2.3,0-3.2
						l-20.6-20.5l0,0l-3.2-3.2c-5.2-5.2-5.2-13.7,0-19l0,0l41.3,41.3c1.8,1.8,1.8,4.6,0,6.3l-20.7,20.6
						C218.1-292,217.5-291.8,216.9-291.8L216.9-291.8z"/>
				</g>
				<g>
					<path class="st1" d="M403.2-381.7L382-401.8c-1.8-1.7-4.6-1.6-6.3,0.2l-40.3,42.2l0,0c5.4,5.1,13.8,4.9,18.9-0.5l3.1-3.3l0,0
						l20.1-21.1c0.9-0.9,2.3-0.9,3.2-0.1l13,12.4c0.9,0.9,2.3,0.8,3.2-0.1l6.2-6.5C404.1-379.4,404.1-380.9,403.2-381.7z"/>
					<path class="st1" d="M344.7-355.7c-3.3,0-6.6-1.2-9.2-3.7l0,0l40.2-42.3c0.9-0.9,2.1-1.4,3.3-1.4c1.1,0,2.2,0.4,3.1,1.2
						l21.1,20.1c0.9,0.9,0.9,2.3,0.1,3.2l-6.2,6.5c-0.4,0.5-1,0.7-1.6,0.7s-1.1-0.2-1.5-0.6l-13-12.4c-0.4-0.4-1-0.6-1.5-0.6
						c-0.6,0-1.2,0.2-1.6,0.7l-20.1,21.1l0,0l-3.1,3.3C351.8-357.1,348.3-355.7,344.7-355.7L344.7-355.7z"/>
				</g>
				<g>
					<path class="st1" d="M169.9-271.8L169.9-271.8c5.3-5.3,5.3-13.8,0-19l-23.8-23.8c-0.9-0.9-0.9-2.3,0-3.2l0,0l0,0l12.7-12.7
						c0.9-0.9,0.9-2.3,0-3.2l-6.3-6.3c-0.9-0.9-2.3-0.9-3.2,0l-20.6,20.6c-1.8,1.8-1.8,4.6,0,6.3l28.6,28.6l0,0L169.9-271.8z"/>
					<path class="st1" d="M169.9-271.8l-12.7-12.7l0,0l-28.6-28.6c-1.8-1.8-1.8-4.6,0-6.3l20.6-20.6c0.4-0.4,1-0.7,1.6-0.7
						s1.1,0.2,1.6,0.7l6.3,6.3c0.9,0.9,0.9,2.3,0,3.2L146-317.8l0,0l0,0c-0.9,0.9-0.8,2.3,0,3.2l23.8,23.8
						C175.2-285.6,175.2-277,169.9-271.8L169.9-271.8L169.9-271.8z"/>
				</g>
				<path class="st2" d="M196.8-272.7l5-1.7c1.7-0.6,2.6-2.5,2-4.2L177-356.3c-0.6-1.7-2.5-2.6-4.2-2l-5,1.7c-1.7,0.6-2.6,2.5-2,4.2
					l26.9,77.7C193.2-273,195.1-272.1,196.8-272.7z"/>
				<circle class="st2" cx="273.1" cy="-217.7" r="16.3"/>
				<g>
					<g>
						<path class="st1" d="M323.4-310.3h7.2v13.9c0,0.9,0,1.8-0.1,2.6c-0.1,0.8-0.2,1.6-0.4,2.4c0.5,0.3,1,0.5,1.7,0.7
							s1.2,0.3,1.6,0.3c1.5,0,2.5-0.5,3.1-1.5s0.9-2.6,0.9-5v-13.6h7.2v14.4c0,1.7-0.1,3.3-0.4,4.8c-0.3,1.4-0.8,2.7-1.6,3.7
							s-1.8,1.8-3.1,2.4s-3,0.9-5,0.9c-1.1,0-2.4-0.2-3.7-0.6s-2.5-1-3.6-1.7c-0.7,0.6-1.7,1.2-2.8,1.7c-1.2,0.5-2.6,0.7-4.5,0.7
							c-0.9,0-1.9,0-2.9-0.1s-1.9-0.2-2.8-0.3c-0.9-0.1-1.8-0.3-2.6-0.5c-0.8-0.2-1.5-0.3-2.2-0.5v-24.7h7.2v19.7
							c0.5,0.1,0.9,0.1,1.4,0.2c0.5,0,1,0.1,1.4,0.1c1.5,0,2.5-0.5,3.1-1.5s0.9-2.6,0.9-5L323.4-310.3L323.4-310.3z"/>
						<path class="st1" d="M334.5-284.1c-1.1,0-2.4-0.2-3.7-0.6s-2.5-1-3.6-1.7c-0.7,0.6-1.7,1.2-2.8,1.7c-1.2,0.5-2.6,0.7-4.5,0.7
							c-0.9,0-1.9,0-2.9-0.1s-1.9-0.2-2.8-0.3c-0.9-0.1-1.8-0.3-2.6-0.5c-0.8-0.2-1.5-0.3-2.2-0.5v-24.7h7.2v19.7
							c0.5,0.1,0.9,0.1,1.4,0.2c0.5,0,1,0.1,1.4,0.1c1.5,0,2.5-0.5,3.1-1.5s0.9-2.6,0.9-5v-13.6h7.2v13.9c0,0.9,0,1.8-0.1,2.6
							c-0.1,0.8-0.2,1.6-0.4,2.4c0.5,0.3,1,0.5,1.7,0.7s1.2,0.3,1.6,0.3c1.5,0,2.5-0.5,3.1-1.5s0.9-2.6,0.9-5v-13.6h7.2v14.4
							c0,1.7-0.1,3.3-0.4,4.8c-0.3,1.4-0.8,2.7-1.6,3.7c-0.8,1-1.8,1.8-3.1,2.4C338.2-284.4,336.5-284.1,334.5-284.1L334.5-284.1z"
							/>
					</g>
					<g>
						<path class="st1" d="M357.9-284.2c-0.8-0.1-1.6-0.2-2.4-0.3s-1.4-0.2-2.1-0.4c-0.6-0.1-1.2-0.3-1.6-0.4l0.9-5.8
							c0.9,0.3,1.9,0.6,3.1,0.8c1.2,0.2,2.4,0.3,3.6,0.3c1.8,0,3.1-0.4,3.9-1.1c0.7-0.7,1.1-1.7,1.1-3v-0.7c-0.5,0.1-1,0.2-1.8,0.3
							c-0.7,0.1-1.6,0.1-2.5,0.1c-1.4,0-2.7-0.1-4-0.4s-2.4-0.7-3.4-1.3c-1-0.6-1.8-1.4-2.4-2.5c-0.6-1-0.9-2.3-0.9-3.8
							c0-1.6,0.3-2.9,0.8-3.9c0.5-1.1,1.3-1.9,2.2-2.6c1-0.7,2.1-1.1,3.5-1.4c1.3-0.3,2.8-0.4,4.5-0.4c2.6,0,4.9,0.2,6.7,0.5
							c1.8,0.3,3.3,0.6,4.3,0.8v15.1c0,1.6-0.2,3-0.5,4.3c-0.4,1.3-1,2.4-1.8,3.3c-0.9,0.9-2,1.6-3.4,2.1s-3.2,0.7-5.3,0.7
							C359.6-284,358.7-284.1,357.9-284.2z M357.9-304.6c-0.8,0.4-1.1,1.2-1.1,2.4c0,0.6,0.1,1.1,0.4,1.5s0.6,0.7,1.1,0.9
							c0.5,0.2,1,0.4,1.6,0.5s1.2,0.1,1.9,0.1c0.5,0,1,0,1.6-0.1s1-0.1,1.3-0.2v-5.5c-0.4-0.1-0.9-0.1-1.6-0.1c-0.6,0-1.3,0-2,0
							C359.7-305.2,358.6-305,357.9-304.6z"/>
						<path class="st1" d="M360.4-284c2.1,0,3.9-0.2,5.3-0.7s2.6-1.2,3.4-2.1c0.9-0.9,1.5-2,1.8-3.3c0.4-1.3,0.5-2.7,0.5-4.3v-15.1
							c-1-0.2-2.5-0.5-4.3-0.8s-4.1-0.5-6.7-0.5c-1.7,0-3.2,0.1-4.5,0.4s-2.5,0.8-3.5,1.4c-1,0.7-1.7,1.5-2.2,2.6s-0.8,2.4-0.8,3.9
							s0.3,2.8,0.9,3.8s1.4,1.9,2.4,2.5s2.2,1.1,3.4,1.3c1.3,0.3,2.6,0.4,4,0.4c0.9,0,1.8,0,2.5-0.1s1.3-0.2,1.8-0.3v0.7
							c0,1.2-0.4,2.2-1.1,3c-0.7,0.7-2,1.1-3.9,1.1c-1.2,0-2.4-0.1-3.6-0.3c-1.2-0.2-2.2-0.4-3.1-0.8l-0.9,5.8
							c0.4,0.1,0.9,0.3,1.6,0.4c0.6,0.1,1.3,0.3,2.1,0.4c0.7,0.1,1.5,0.2,2.4,0.3C358.7-284.1,359.6-284,360.4-284L360.4-284z
							 M361-305.2c0.7,0,1.4,0,2,0s1.2,0.1,1.6,0.1v5.5c-0.3,0.1-0.7,0.1-1.3,0.2c-0.6,0.1-1.1,0.1-1.6,0.1c-0.7,0-1.3,0-1.9-0.1
							s-1.1-0.2-1.6-0.5c-0.5-0.2-0.8-0.5-1.1-0.9c-0.3-0.4-0.4-0.9-0.4-1.5c0-1.1,0.4-1.9,1.1-2.4C358.6-305,359.7-305.2,361-305.2
							L361-305.2z"/>
					</g>
					<g>
						<path class="st1" d="M378.1-310.3h7.2v19.7c0.5,0.1,1,0.1,1.6,0.2s1.1,0.1,1.7,0.1c1.7,0,2.8-0.5,3.4-1.5s0.9-2.6,0.9-5v-13.6
							h7.2v14.4c0,1.7-0.2,3.3-0.5,4.8c-0.4,1.4-1,2.7-1.8,3.7s-2,1.8-3.4,2.4s-3.2,0.9-5.4,0.9c-2.1,0-4.2-0.2-6.1-0.5
							s-3.5-0.6-4.8-1L378.1-310.3L378.1-310.3z"/>
						<path class="st1" d="M389-284.1c-2.1,0-4.2-0.2-6.1-0.5s-3.5-0.6-4.8-1v-24.7h7.2v19.7c0.5,0.1,1,0.1,1.6,0.2
							c0.6,0,1.1,0.1,1.7,0.1c1.7,0,2.8-0.5,3.4-1.5s0.9-2.6,0.9-5v-13.6h7.2v14.4c0,1.7-0.2,3.3-0.5,4.8c-0.4,1.4-1,2.7-1.8,3.7
							s-2,1.8-3.4,2.4C393-284.4,391.2-284.1,389-284.1L389-284.1z"/>
					</g>
					<g>
						<path class="st1" d="M406.3-302.9c0.5-1.6,1.4-3,2.5-4.2s2.5-2.1,4.2-2.8c1.7-0.7,3.7-1,6-1c0.9,0,1.8,0,2.7,0.1
							c0.9,0.1,1.8,0.2,2.5,0.4s1.5,0.3,2.2,0.5c0.6,0.2,1.2,0.4,1.6,0.6l-1,5.9c-0.8-0.4-1.9-0.7-3.1-0.9c-1.3-0.2-2.6-0.4-3.9-0.4
							c-2.1,0-3.7,0.4-5,1.3c-1.2,0.9-1.9,2.1-2.1,3.5h16.4c0,0.4,0.1,0.8,0.1,1.3s0,1,0,1.4c0,4.3-1.1,7.6-3.2,9.8
							c-2.1,2.2-5,3.3-8.6,3.3c-1.6,0-3.1-0.3-4.5-0.9c-1.5-0.6-2.8-1.4-3.9-2.6c-1.1-1.1-2-2.6-2.7-4.3s-1-3.7-1-6
							C405.5-299.6,405.8-301.3,406.3-302.9z M412.9-294.9c0.1,0.6,0.3,1.2,0.5,1.8c0.2,0.6,0.5,1.1,0.9,1.6s0.9,0.8,1.5,1.1
							s1.3,0.4,2.1,0.4c0.8,0,1.5-0.1,2.1-0.4s1-0.7,1.4-1.1c0.4-0.5,0.6-1,0.8-1.6s0.3-1.2,0.3-1.8H412.9z"/>
						<path class="st1" d="M417.7-284c3.6,0,6.5-1.1,8.6-3.3c2.1-2.2,3.2-5.5,3.2-9.8c0-0.4,0-0.9,0-1.4s-0.1-0.9-0.1-1.3H413
							c0.2-1.5,0.9-2.7,2.1-3.5c1.2-0.9,2.9-1.3,5-1.3c1.3,0,2.6,0.1,3.9,0.4c1.3,0.2,2.3,0.5,3.1,0.9l1-5.9
							c-0.4-0.2-0.9-0.4-1.6-0.6c-0.6-0.2-1.4-0.4-2.2-0.5c-0.8-0.1-1.6-0.3-2.5-0.4s-1.8-0.1-2.7-0.1c-2.3,0-4.3,0.3-6,1
							s-3.1,1.6-4.2,2.8c-1.1,1.2-1.9,2.6-2.5,4.2c-0.5,1.6-0.8,3.4-0.8,5.2c0,2.3,0.3,4.3,1,6s1.6,3.1,2.7,4.3
							c1.1,1.1,2.4,2,3.9,2.6C414.7-284.3,416.2-284,417.7-284L417.7-284z M412.9-294.9h9.6c0,0.6-0.1,1.2-0.3,1.8
							c-0.2,0.6-0.5,1.1-0.8,1.6c-0.4,0.5-0.8,0.8-1.4,1.1c-0.6,0.3-1.3,0.4-2.1,0.4c-0.8,0-1.5-0.1-2.1-0.4s-1.1-0.6-1.5-1.1
							s-0.7-1-0.9-1.6C413.2-293.7,413-294.3,412.9-294.9L412.9-294.9z"/>
					</g>
					<g>
						<path class="st1" d="M446.3-304.8c-0.9,0.1-1.6,0.2-2.1,0.4c-0.5,0.2-0.9,0.5-1.2,0.9c-0.3,0.4-0.5,0.8-0.6,1.3
							s-0.1,1.1-0.1,1.7v27.8l-7.2-1.2V-302c0-1.4,0.1-2.6,0.4-3.7s0.8-2,1.6-2.8c0.8-0.8,1.8-1.4,3.1-1.8s3-0.6,5.1-0.7
							L446.3-304.8z"/>
						<path class="st1" d="M442.3-272.6l-7.2-1.2v-28.1c0-1.4,0.1-2.6,0.4-3.7s0.8-2,1.6-2.8c0.8-0.8,1.8-1.4,3.1-1.8
							c1.3-0.4,3-0.6,5.1-0.7l1,6c-0.9,0.1-1.6,0.2-2.1,0.4c-0.5,0.2-0.9,0.5-1.2,0.9c-0.3,0.4-0.5,0.8-0.6,1.3s-0.1,1.1-0.1,1.7
							L442.3-272.6L442.3-272.6z"/>
					</g>
					<g>
						<path class="st1" d="M461.7-304.8c-0.9,0.1-1.6,0.2-2.1,0.4c-0.5,0.2-0.9,0.5-1.2,0.9c-0.3,0.4-0.5,0.8-0.6,1.3
							s-0.1,1.1-0.1,1.7v27.8l-7.2-1.2V-302c0-1.4,0.1-2.6,0.4-3.7s0.8-2,1.6-2.8c0.8-0.8,1.8-1.4,3.1-1.8s3-0.6,5.1-0.7
							L461.7-304.8z"/>
						<path class="st1" d="M457.7-272.6l-7.2-1.2v-28.1c0-1.4,0.1-2.6,0.4-3.7s0.8-2,1.6-2.8c0.8-0.8,1.8-1.4,3.1-1.8
							c1.3-0.4,3-0.6,5.1-0.7l1,6c-0.9,0.1-1.6,0.2-2.1,0.4c-0.5,0.2-0.9,0.5-1.2,0.9c-0.3,0.4-0.5,0.8-0.6,1.3s-0.1,1.1-0.1,1.7
							L457.7-272.6L457.7-272.6z"/>
					</g>
					<g>
						<path class="st1" d="M473-284.7v-25.6h-7.2v25.6H473z"/>
						<polygon class="st1" points="473,-284.7 465.8,-284.7 465.8,-310.3 473,-310.3 						"/>
					</g>
					<path class="st2" d="M473.7-277.3c0-1.3-0.4-2.4-1.3-3.1c-0.8-0.8-1.9-1.1-3-1.1c-1.2,0-2.2,0.4-3,1.1
						c-0.9,0.8-1.3,1.8-1.3,3.1c0,1.3,0.4,2.4,1.3,3.1s1.9,1.1,3,1.1c1.2,0,2.2-0.4,3-1.1C473.3-275,473.7-276,473.7-277.3z"/>
				</g>
			</g>
			<g>
				<g>
					<path class="st1" d="M102.6-245.8l-21.1-20.1c-1.8-1.7-4.6-1.6-6.3,0.2L35-223.4l0,0c5.4,5.1,13.8,4.9,18.9-0.5l3.1-3.3l0,0
						l20.2-21.2c0.9-0.9,2.3-0.9,3.2-0.1l13,12.4c0.9,0.9,2.3,0.8,3.2-0.1l6.2-6.5C103.6-243.6,103.5-245,102.6-245.8z"/>
					<path class="st1" d="M44.2-219.8c-3.3,0-6.6-1.2-9.2-3.7l0,0l40.2-42.3c0.9-0.9,2.1-1.4,3.3-1.4c1.1,0,2.2,0.4,3.1,1.2
						l21.1,20.1c0.9,0.9,0.9,2.3,0.1,3.2l-6.2,6.5c-0.4,0.5-1,0.7-1.6,0.7s-1.1-0.2-1.5-0.6l-13-12.4c-0.4-0.4-1-0.6-1.5-0.6
						c-0.6,0-1.2,0.2-1.6,0.7L57-227.3l0,0l-3.1,3.3C51.3-221.2,47.7-219.8,44.2-219.8L44.2-219.8z"/>
				</g>
				<g>
					<g>
						<path class="st1" d="M22.9-174.4h7.2v13.9c0,0.9,0,1.8-0.1,2.6c-0.1,0.8-0.2,1.6-0.4,2.4c0.5,0.3,1,0.5,1.7,0.7
							s1.2,0.3,1.6,0.3c1.5,0,2.5-0.5,3.1-1.5s0.9-2.6,0.9-5v-13.6h7.2v14.4c0,1.7-0.1,3.3-0.4,4.8c-0.3,1.4-0.8,2.7-1.6,3.7
							s-1.8,1.8-3.1,2.4s-3,0.9-5,0.9c-1.1,0-2.4-0.2-3.7-0.6s-2.5-1-3.6-1.7c-0.7,0.6-1.7,1.2-2.8,1.7c-1.2,0.5-2.6,0.7-4.5,0.7
							c-0.9,0-1.9,0-2.9-0.1s-1.9-0.2-2.8-0.3c-0.9-0.1-1.8-0.3-2.6-0.5c-0.8-0.2-1.5-0.3-2.2-0.5v-24.7h7.2v19.7
							c0.5,0.1,0.9,0.1,1.4,0.2c0.5,0,1,0.1,1.4,0.1c1.5,0,2.5-0.5,3.1-1.5s0.9-2.6,0.9-5V-174.4z"/>
						<path class="st1" d="M33.9-148.3c-1.1,0-2.4-0.2-3.7-0.6s-2.5-1-3.6-1.7c-0.7,0.6-1.7,1.2-2.8,1.7c-1.2,0.5-2.6,0.7-4.5,0.7
							c-0.9,0-1.9,0-2.9-0.1s-1.9-0.2-2.8-0.3c-0.9-0.1-1.8-0.3-2.6-0.5c-0.8-0.2-1.5-0.3-2.2-0.5v-24.7H16v19.7
							c0.5,0.1,0.9,0.1,1.4,0.2c0.5,0,1,0.1,1.4,0.1c1.5,0,2.5-0.5,3.1-1.5s0.9-2.6,0.9-5v-13.6H30v13.9c0,0.9,0,1.8-0.1,2.6
							c-0.1,0.8-0.2,1.6-0.4,2.4c0.5,0.3,1,0.5,1.7,0.7s1.2,0.3,1.6,0.3c1.5,0,2.5-0.5,3.1-1.5s0.9-2.6,0.9-5v-13.6H44v14.4
							c0,1.7-0.1,3.3-0.4,4.8c-0.3,1.4-0.8,2.7-1.6,3.7s-1.8,1.8-3.1,2.4C37.7-148.5,36-148.3,33.9-148.3L33.9-148.3z"/>
					</g>
					<g>
						<path class="st1" d="M57.4-148.3c-0.8-0.1-1.6-0.2-2.4-0.3s-1.4-0.2-2.1-0.4c-0.6-0.1-1.2-0.3-1.6-0.4l0.9-5.8
							c0.9,0.3,1.9,0.6,3.1,0.8c1.2,0.2,2.4,0.3,3.6,0.3c1.8,0,3.1-0.4,3.9-1.1c0.7-0.7,1.1-1.7,1.1-3v-0.7c-0.5,0.1-1,0.2-1.8,0.3
							c-0.7,0.1-1.6,0.1-2.5,0.1c-1.4,0-2.7-0.1-4-0.4s-2.4-0.7-3.4-1.3c-1-0.6-1.8-1.4-2.4-2.5c-0.6-1-0.9-2.3-0.9-3.8
							c0-1.6,0.3-2.9,0.8-3.9c0.5-1.1,1.3-1.9,2.2-2.6c1-0.7,2.1-1.1,3.5-1.4c1.3-0.3,2.8-0.4,4.5-0.4c2.6,0,4.9,0.2,6.7,0.5
							s3.3,0.6,4.3,0.8v15.1c0,1.6-0.2,3-0.5,4.3c-0.4,1.3-1,2.4-1.8,3.3c-0.9,0.9-2,1.6-3.4,2.1S62-148,59.9-148
							C59-148.2,58.2-148.2,57.4-148.3z M57.3-168.7c-0.8,0.4-1.1,1.2-1.1,2.4c0,0.6,0.1,1.1,0.4,1.5c0.3,0.4,0.6,0.7,1.1,0.9
							c0.5,0.2,1,0.4,1.6,0.5s1.2,0.1,1.9,0.1c0.5,0,1,0,1.6-0.1s1-0.1,1.3-0.2v-5.5c-0.4-0.1-0.9-0.1-1.6-0.1c-0.6,0-1.3,0-2,0
							C59.1-169.3,58.1-169.1,57.3-168.7z"/>
						<path class="st1" d="M59.9-148.2c2.1,0,3.9-0.2,5.3-0.7s2.6-1.2,3.4-2.1c0.9-0.9,1.5-2,1.8-3.3c0.4-1.3,0.5-2.7,0.5-4.3v-15.1
							c-1-0.2-2.5-0.5-4.3-0.8s-4.1-0.5-6.7-0.5c-1.7,0-3.2,0.1-4.5,0.4s-2.5,0.8-3.5,1.4c-1,0.7-1.7,1.5-2.2,2.6s-0.8,2.4-0.8,3.9
							s0.3,2.8,0.9,3.8c0.6,1,1.4,1.9,2.4,2.5s2.2,1.1,3.4,1.3c1.3,0.3,2.6,0.4,4,0.4c0.9,0,1.8,0,2.5-0.1s1.3-0.2,1.8-0.3v0.7
							c0,1.2-0.4,2.2-1.1,3c-0.7,0.7-2,1.1-3.9,1.1c-1.2,0-2.4-0.1-3.6-0.3c-1.2-0.2-2.2-0.4-3.1-0.8l-0.9,5.8
							c0.4,0.1,0.9,0.3,1.6,0.4c0.6,0.1,1.3,0.3,2.1,0.4c0.7,0.1,1.5,0.2,2.4,0.3C58.2-148.2,59-148.2,59.9-148.2L59.9-148.2z
							 M60.5-169.3c0.7,0,1.4,0,2,0s1.2,0.1,1.6,0.1v5.5c-0.3,0.1-0.7,0.1-1.3,0.2s-1.1,0.1-1.6,0.1c-0.7,0-1.3,0-1.9-0.1
							c-0.6-0.1-1.1-0.2-1.6-0.5c-0.5-0.2-0.8-0.5-1.1-0.9s-0.4-0.9-0.4-1.5c0-1.1,0.4-1.9,1.1-2.4
							C58.1-169.1,59.1-169.3,60.5-169.3L60.5-169.3z"/>
					</g>
					<g>
						<path class="st1" d="M77.6-174.4h7.2v19.7c0.5,0.1,1,0.1,1.6,0.2s1.1,0.1,1.7,0.1c1.7,0,2.8-0.5,3.4-1.5s0.9-2.6,0.9-5v-13.6
							h7.2v14.4c0,1.7-0.2,3.3-0.5,4.8c-0.4,1.4-1,2.7-1.8,3.7s-2,1.8-3.4,2.4s-3.2,0.9-5.4,0.9c-2.1,0-4.2-0.2-6.1-0.5
							s-3.5-0.6-4.8-1L77.6-174.4L77.6-174.4z"/>
						<path class="st1" d="M88.5-148.3c-2.1,0-4.2-0.2-6.1-0.5s-3.5-0.6-4.8-1v-24.7h7.2v19.7c0.5,0.1,1,0.1,1.6,0.2
							c0.6,0,1.1,0.1,1.7,0.1c1.7,0,2.8-0.5,3.4-1.5s0.9-2.6,0.9-5v-13.6h7.2v14.4c0,1.7-0.2,3.3-0.5,4.8c-0.4,1.4-1,2.7-1.8,3.7
							s-2,1.8-3.4,2.4C92.4-148.5,90.6-148.3,88.5-148.3L88.5-148.3z"/>
					</g>
					<g>
						<path class="st1" d="M105.8-167.1c0.5-1.6,1.4-3,2.5-4.2s2.5-2.1,4.2-2.8c1.7-0.7,3.7-1,6-1c0.9,0,1.8,0,2.7,0.1
							c0.9,0.1,1.8,0.2,2.5,0.4s1.5,0.3,2.2,0.5c0.6,0.2,1.2,0.4,1.6,0.6l-1,5.9c-0.8-0.4-1.9-0.7-3.1-0.9c-1.3-0.2-2.6-0.4-3.9-0.4
							c-2.1,0-3.7,0.4-5,1.3c-1.2,0.9-1.9,2.1-2.1,3.5h16.4c0,0.4,0.1,0.8,0.1,1.3s0,1,0,1.4c0,4.3-1.1,7.6-3.2,9.8
							c-2.1,2.2-5,3.3-8.6,3.3c-1.6,0-3.1-0.3-4.5-0.9c-1.5-0.6-2.8-1.4-3.9-2.6c-1.1-1.1-2-2.6-2.7-4.3s-1-3.7-1-6
							C105-163.7,105.2-165.4,105.8-167.1z M112.4-159c0.1,0.6,0.3,1.2,0.5,1.8c0.2,0.6,0.5,1.1,0.9,1.6s0.9,0.8,1.5,1.1
							s1.3,0.4,2.1,0.4c0.8,0,1.5-0.1,2.1-0.4s1-0.7,1.4-1.1c0.4-0.5,0.6-1,0.8-1.6s0.3-1.2,0.3-1.8H112.4z"/>
						<path class="st1" d="M117.2-148.2c3.6,0,6.5-1.1,8.6-3.3c2.1-2.2,3.2-5.5,3.2-9.8c0-0.4,0-0.9,0-1.4s-0.1-0.9-0.1-1.3h-16.4
							c0.2-1.5,0.9-2.7,2.1-3.5c1.2-0.9,2.9-1.3,5-1.3c1.3,0,2.6,0.1,3.9,0.4c1.3,0.2,2.3,0.5,3.1,0.9l1-5.9
							c-0.4-0.2-0.9-0.4-1.6-0.6c-0.6-0.2-1.4-0.4-2.2-0.5c-0.8-0.1-1.6-0.3-2.5-0.4s-1.8-0.1-2.7-0.1c-2.3,0-4.3,0.3-6,1
							s-3.1,1.6-4.2,2.8c-1.1,1.2-1.9,2.6-2.5,4.2c-0.5,1.6-0.8,3.4-0.8,5.2c0,2.3,0.3,4.3,1,6s1.6,3.1,2.7,4.3
							c1.1,1.1,2.4,2,3.9,2.6C114.1-148.5,115.7-148.2,117.2-148.2L117.2-148.2z M112.4-159h9.6c0,0.6-0.1,1.2-0.3,1.8
							c-0.2,0.6-0.5,1.1-0.8,1.6c-0.4,0.5-0.8,0.8-1.4,1.1c-0.6,0.3-1.3,0.4-2.1,0.4c-0.8,0-1.5-0.1-2.1-0.4s-1.1-0.6-1.5-1.1
							s-0.7-1-0.9-1.6C112.7-157.8,112.5-158.4,112.4-159L112.4-159z"/>
					</g>
					<g>
						<path class="st1" d="M145.8-168.9c-0.9,0.1-1.6,0.2-2.1,0.4c-0.5,0.2-0.9,0.5-1.2,0.9s-0.5,0.8-0.6,1.3s-0.1,1.1-0.1,1.7v27.8
							l-7.2-1.2v-28.1c0-1.4,0.1-2.6,0.4-3.7s0.8-2,1.6-2.8s1.8-1.4,3.1-1.8s3-0.6,5.1-0.7L145.8-168.9z"/>
						<path class="st1" d="M141.8-136.7l-7.2-1.2V-166c0-1.4,0.1-2.6,0.4-3.7c0.3-1.1,0.8-2,1.6-2.8s1.8-1.4,3.1-1.8s3-0.6,5.1-0.7
							l1,6c-0.9,0.1-1.6,0.2-2.1,0.4c-0.5,0.2-0.9,0.5-1.2,0.9s-0.5,0.8-0.6,1.3s-0.1,1.1-0.1,1.7V-136.7L141.8-136.7z"/>
					</g>
					<g>
						<path class="st1" d="M161.1-168.9c-0.9,0.1-1.6,0.2-2.1,0.4c-0.5,0.2-0.9,0.5-1.2,0.9s-0.5,0.8-0.6,1.3s-0.1,1.1-0.1,1.7v27.8
							l-7.2-1.2v-28.1c0-1.4,0.1-2.6,0.4-3.7s0.8-2,1.6-2.8s1.8-1.4,3.1-1.8s3-0.6,5.1-0.7L161.1-168.9z"/>
						<path class="st1" d="M157.1-136.7l-7.2-1.2V-166c0-1.4,0.1-2.6,0.4-3.7c0.3-1.1,0.8-2,1.6-2.8s1.8-1.4,3.1-1.8s3-0.6,5.1-0.7
							l1,6c-0.9,0.1-1.6,0.2-2.1,0.4c-0.5,0.2-0.9,0.5-1.2,0.9s-0.5,0.8-0.6,1.3s-0.1,1.1-0.1,1.7V-136.7L157.1-136.7z"/>
					</g>
					<g>
						<path class="st1" d="M172.5-148.8v-25.6h-7.2v25.6H172.5z"/>
						<polygon class="st1" points="172.5,-148.8 165.3,-148.8 165.3,-174.4 172.5,-174.4 						"/>
					</g>
					<path class="st2" d="M173.2-141.5c0-1.3-0.4-2.4-1.3-3.1c-0.8-0.8-1.9-1.1-3-1.1c-1.2,0-2.2,0.4-3,1.1
						c-0.9,0.8-1.3,1.8-1.3,3.1c0,1.3,0.4,2.4,1.3,3.1s1.9,1.1,3,1.1c1.2,0,2.2-0.4,3-1.1S173.2-140.1,173.2-141.5z"/>
				</g>
			</g>
			<g>
				<g>
					<path class="st1" d="M218.5-20.7l20.6-20.6c1.8-1.8,1.8-4.6,0-6.3l-41.3-41.3l0,0c-5.2,5.2-5.2,13.7,0,19l3.2,3.2l0,0
						l20.6,20.6c0.9,0.9,0.9,2.3,0,3.2L209-30.2c-0.9,0.9-0.9,2.3,0,3.2l6.3,6.3C216.2-19.8,217.6-19.8,218.5-20.7z"/>
					<path class="st1" d="M216.9-20c-0.6,0-1.1-0.2-1.6-0.7L209-27c-0.9-0.9-0.9-2.3,0-3.2l12.7-12.7c0.9-0.9,0.9-2.3,0-3.2
						l-20.6-20.6l0,0l-3.2-3.2c-5.2-5.2-5.2-13.7,0-19l0,0l41.3,41.3c1.8,1.8,1.8,4.6,0,6.3l-20.6,20.6
						C218.1-20.2,217.5-20,216.9-20L216.9-20z"/>
				</g>
				<g>
					<path class="st1" d="M403.2-110L382-130.1c-1.8-1.7-4.6-1.6-6.3,0.2l-40.2,42.3l0,0c5.4,5.1,13.8,4.9,18.9-0.5l3.1-3.3l0,0
						l20.1-21.1c0.9-0.9,2.3-0.9,3.2-0.1l13,12.4c0.9,0.9,2.3,0.8,3.2-0.1l6.2-6.5C404.1-107.7,404.1-109.1,403.2-110z"/>
					<path class="st1" d="M344.7-83.9c-3.3,0-6.6-1.2-9.2-3.7l0,0l40.2-42.3c0.9-0.9,2.1-1.4,3.3-1.4c1.1,0,2.2,0.4,3.1,1.2
						l21.1,20.1c0.9,0.9,0.9,2.3,0.1,3.2l-6.2,6.5c-0.4,0.5-1,0.7-1.6,0.7s-1.1-0.2-1.5-0.6l-13-12.4c-0.4-0.4-1-0.6-1.5-0.6
						c-0.6,0-1.2,0.2-1.6,0.7l-20.3,21.1l0,0l-3.1,3.3C351.8-85.3,348.3-83.9,344.7-83.9L344.7-83.9z"/>
				</g>
				<g>
					<path class="st1" d="M169.9,0L169.9,0c5.3-5.3,5.3-13.8,0-19l-23.8-23.8c-0.9-0.9-0.9-2.3,0-3.2l0,0l0,0l12.7-12.7
						c0.9-0.9,0.9-2.3,0-3.2l-6.3-6.3c-0.9-0.9-2.3-0.9-3.2,0l-20.6,20.6c-1.8,1.8-1.8,4.6,0,6.3l28.6,28.6l0,0L169.9,0z"/>
					<path class="st1" d="M169.9,0l-12.7-12.7l0,0l-28.6-28.6c-1.8-1.8-1.8-4.6,0-6.3l20.6-20.6c0.4-0.4,1-0.7,1.6-0.7
						s1.1,0.2,1.6,0.7l6.3,6.3c0.9,0.9,0.9,2.3,0,3.2L146-46l0,0l0,0c-0.9,0.9-0.8,2.3,0,3.2L169.8-19C175.2-13.8,175.2-5.3,169.9,0
						L169.9,0L169.9,0z"/>
				</g>
				<path class="st2" d="M196.8-0.9l5-1.7c1.7-0.6,2.6-2.5,2-4.2L177-84.6c-0.6-1.7-2.5-2.6-4.2-2l-5,1.7c-1.7,0.6-2.6,2.5-2,4.2
					L192.7-3C193.2-1.3,195.1-0.4,196.8-0.9z"/>
				<g>
					<g>
						<path class="st1" d="M323.4-38.5h7.2v13.9c0,0.9,0,1.8-0.1,2.6s-0.2,1.6-0.4,2.4c0.5,0.3,1,0.5,1.7,0.7s1.2,0.3,1.6,0.3
							c1.5,0,2.5-0.5,3.1-1.5s0.9-2.6,0.9-5v-13.6h7.2v14.4c0,1.7-0.1,3.3-0.4,4.8c-0.3,1.4-0.8,2.7-1.6,3.7s-1.8,1.8-3.1,2.4
							s-3,0.9-5,0.9c-1.1,0-2.4-0.2-3.7-0.6s-2.5-1-3.6-1.7c-0.7,0.6-1.7,1.2-2.8,1.7c-1.2,0.5-2.6,0.7-4.5,0.7
							c-0.9,0-1.9,0-2.9-0.1s-1.9-0.2-2.8-0.3s-1.8-0.3-2.6-0.5c-0.8-0.2-1.5-0.3-2.2-0.5v-24.7h7.2v19.7c0.5,0.1,0.9,0.1,1.4,0.2
							c0.5,0,1,0.1,1.4,0.1c1.5,0,2.5-0.5,3.1-1.5s0.9-2.6,0.9-5L323.4-38.5L323.4-38.5z"/>
						<path class="st1" d="M334.5-12.4c-1.1,0-2.4-0.2-3.7-0.6s-2.5-1-3.6-1.7c-0.7,0.6-1.7,1.2-2.8,1.7c-1.2,0.5-2.6,0.7-4.5,0.7
							c-0.9,0-1.9,0-2.9-0.1s-1.9-0.2-2.8-0.3s-1.8-0.3-2.6-0.5c-0.8-0.2-1.5-0.3-2.2-0.5v-24.7h7.2v19.7c0.5,0.1,0.9,0.1,1.4,0.2
							c0.5,0,1,0.1,1.4,0.1c1.5,0,2.5-0.5,3.1-1.5s0.9-2.6,0.9-5v-13.6h7.2v13.9c0,0.9,0,1.8-0.1,2.6s-0.2,1.6-0.4,2.4
							c0.5,0.3,1,0.5,1.7,0.7s1.2,0.3,1.6,0.3c1.5,0,2.5-0.5,3.1-1.5s0.9-2.6,0.9-5v-13.6h7.2v14.4c0,1.7-0.1,3.3-0.4,4.8
							c-0.3,1.4-0.8,2.7-1.6,3.7c-0.8,1-1.8,1.8-3.1,2.4C338.2-12.7,336.5-12.4,334.5-12.4L334.5-12.4z"/>
					</g>
					<g>
						<path class="st1" d="M357.9-12.4c-0.8-0.1-1.6-0.2-2.4-0.3s-1.4-0.2-2.1-0.4c-0.6-0.1-1.2-0.3-1.6-0.4l0.9-5.8
							c0.9,0.3,1.9,0.6,3.1,0.8s2.4,0.3,3.6,0.3c1.8,0,3.1-0.4,3.9-1.1c0.7-0.7,1.1-1.7,1.1-3V-23c-0.5,0.1-1,0.2-1.8,0.3
							c-0.7,0.1-1.6,0.1-2.5,0.1c-1.4,0-2.7-0.1-4-0.4c-1.3-0.3-2.4-0.7-3.4-1.3s-1.8-1.4-2.4-2.5c-0.6-1-0.9-2.3-0.9-3.8
							c0-1.6,0.3-2.9,0.8-3.9c0.5-1.1,1.3-1.9,2.2-2.6c1-0.7,2.1-1.1,3.5-1.4c1.3-0.3,2.8-0.4,4.5-0.4c2.6,0,4.9,0.2,6.7,0.5
							c1.8,0.3,3.3,0.6,4.3,0.8v15.1c0,1.6-0.2,3-0.5,4.3c-0.4,1.3-1,2.4-1.8,3.3c-0.9,0.9-2,1.6-3.4,2.1s-3.2,0.7-5.3,0.7
							C359.6-12.3,358.7-12.3,357.9-12.4z M357.9-32.8c-0.8,0.4-1.1,1.2-1.1,2.4c0,0.6,0.1,1.1,0.4,1.5s0.6,0.7,1.1,0.9
							s1,0.4,1.6,0.5s1.2,0.1,1.9,0.1c0.5,0,1,0,1.6-0.1s1-0.1,1.3-0.2v-5.5c-0.4-0.1-0.9-0.1-1.6-0.1c-0.6,0-1.3,0-2,0
							C359.7-33.5,358.6-33.3,357.9-32.8z"/>
						<path class="st1" d="M360.4-12.3c2.1,0,3.9-0.2,5.3-0.7s2.6-1.2,3.4-2.1c0.9-0.9,1.5-2,1.8-3.3c0.4-1.3,0.5-2.7,0.5-4.3v-15.1
							c-1-0.2-2.5-0.5-4.3-0.8s-4.1-0.5-6.7-0.5c-1.7,0-3.2,0.1-4.5,0.4c-1.3,0.3-2.5,0.8-3.5,1.4c-1,0.7-1.7,1.5-2.2,2.6
							s-0.8,2.4-0.8,3.9s0.3,2.8,0.9,3.8s1.4,1.9,2.4,2.5s2.2,1.1,3.4,1.3c1.3,0.3,2.6,0.4,4,0.4c0.9,0,1.8,0,2.5-0.1
							s1.3-0.2,1.8-0.3v0.7c0,1.2-0.4,2.2-1.1,3c-0.7,0.7-2,1.1-3.9,1.1c-1.2,0-2.4-0.1-3.6-0.3s-2.2-0.4-3.1-0.8l-0.9,5.8
							c0.4,0.1,0.9,0.3,1.6,0.4c0.6,0.1,1.3,0.3,2.1,0.4c0.7,0.1,1.5,0.2,2.4,0.3C358.7-12.3,359.6-12.3,360.4-12.3L360.4-12.3z
							 M361-33.5c0.7,0,1.4,0,2,0s1.2,0.1,1.6,0.1v5.5c-0.3,0.1-0.7,0.1-1.3,0.2c-0.6,0.1-1.1,0.1-1.6,0.1c-0.7,0-1.3,0-1.9-0.1
							s-1.1-0.2-1.6-0.5c-0.5-0.2-0.8-0.5-1.1-0.9c-0.3-0.4-0.4-0.9-0.4-1.5c0-1.1,0.4-1.9,1.1-2.4C358.6-33.3,359.7-33.5,361-33.5
							L361-33.5z"/>
					</g>
					<g>
						<path class="st1" d="M378.1-38.5h7.2v19.7c0.5,0.1,1,0.1,1.6,0.2s1.1,0.1,1.7,0.1c1.7,0,2.8-0.5,3.4-1.5s0.9-2.6,0.9-5v-13.6
							h7.2v14.4c0,1.7-0.2,3.3-0.5,4.8c-0.4,1.4-1,2.7-1.8,3.7s-2,1.8-3.4,2.4c-1.4,0.6-3.2,0.9-5.4,0.9c-2.1,0-4.2-0.2-6.1-0.5
							s-3.5-0.6-4.8-1L378.1-38.5L378.1-38.5z"/>
						<path class="st1" d="M389-12.4c-2.1,0-4.2-0.2-6.1-0.5s-3.5-0.6-4.8-1v-24.7h7.2v19.7c0.5,0.1,1,0.1,1.6,0.2
							c0.6,0,1.1,0.1,1.7,0.1c1.7,0,2.8-0.5,3.4-1.5s0.9-2.6,0.9-5v-13.6h7.2v14.4c0,1.7-0.2,3.3-0.5,4.8c-0.4,1.4-1,2.7-1.8,3.7
							s-2,1.8-3.4,2.4C393-12.7,391.2-12.4,389-12.4L389-12.4z"/>
					</g>
					<g>
						<path class="st1" d="M406.3-31.2c0.5-1.6,1.4-3,2.5-4.2s2.5-2.1,4.2-2.8s3.7-1,6-1c0.9,0,1.8,0,2.7,0.1
							c0.9,0.1,1.8,0.2,2.5,0.4s1.5,0.3,2.2,0.5c0.6,0.2,1.2,0.4,1.6,0.6l-1,5.9c-0.8-0.4-1.9-0.7-3.1-0.9c-1.3-0.2-2.6-0.4-3.9-0.4
							c-2.1,0-3.7,0.4-5,1.3c-1.2,0.9-1.9,2.1-2.1,3.5h16.4c0,0.4,0.1,0.8,0.1,1.3s0,1,0,1.4c0,4.3-1.1,7.6-3.2,9.8s-5,3.3-8.6,3.3
							c-1.6,0-3.1-0.3-4.5-0.9c-1.5-0.6-2.8-1.4-3.9-2.6c-1.1-1.1-2-2.6-2.7-4.3s-1-3.7-1-6C405.5-27.8,405.8-29.6,406.3-31.2z
							 M412.9-23.2c0.1,0.6,0.3,1.2,0.5,1.8s0.5,1.1,0.9,1.6s0.9,0.8,1.5,1.1s1.3,0.4,2.1,0.4c0.8,0,1.5-0.1,2.1-0.4
							c0.6-0.3,1-0.7,1.4-1.1c0.4-0.5,0.6-1,0.8-1.6s0.3-1.2,0.3-1.8H412.9z"/>
						<path class="st1" d="M417.7-12.3c3.6,0,6.5-1.1,8.6-3.3s3.2-5.5,3.2-9.8c0-0.4,0-0.9,0-1.4s-0.1-0.9-0.1-1.3H413
							c0.2-1.5,0.9-2.7,2.1-3.5c1.2-0.9,2.9-1.3,5-1.3c1.3,0,2.6,0.1,3.9,0.4c1.3,0.2,2.3,0.5,3.1,0.9l1-5.9
							c-0.4-0.2-0.9-0.4-1.6-0.6c-0.6-0.2-1.4-0.4-2.2-0.5c-0.8-0.1-1.6-0.3-2.5-0.4c-0.9-0.1-1.8-0.1-2.7-0.1c-2.3,0-4.3,0.3-6,1
							s-3.1,1.6-4.2,2.8s-1.9,2.6-2.5,4.2c-0.5,1.6-0.8,3.4-0.8,5.2c0,2.3,0.3,4.3,1,6s1.6,3.1,2.7,4.3c1.1,1.1,2.4,2,3.9,2.6
							C414.7-12.6,416.2-12.3,417.7-12.3L417.7-12.3z M412.9-23.2h9.6c0,0.6-0.1,1.2-0.3,1.8c-0.2,0.6-0.5,1.1-0.8,1.6
							c-0.4,0.5-0.8,0.8-1.4,1.1s-1.3,0.4-2.1,0.4c-0.8,0-1.5-0.1-2.1-0.4c-0.6-0.3-1.1-0.6-1.5-1.1s-0.7-1-0.9-1.6
							C413.2-21.9,413-22.6,412.9-23.2L412.9-23.2z"/>
					</g>
					<g>
						<path class="st1" d="M446.3-33c-0.9,0.1-1.6,0.2-2.1,0.4s-0.9,0.5-1.2,0.9c-0.3,0.4-0.5,0.8-0.6,1.3s-0.1,1.1-0.1,1.7v27.8
							l-7.2-1.2v-28.1c0-1.4,0.1-2.6,0.4-3.7s0.8-2,1.6-2.8c0.8-0.8,1.8-1.4,3.1-1.8s3-0.6,5.1-0.7L446.3-33z"/>
						<path class="st1" d="M442.3-0.8L435.1-2v-28.1c0-1.4,0.1-2.6,0.4-3.7c0.3-1.1,0.8-2,1.6-2.8c0.8-0.8,1.8-1.4,3.1-1.8
							c1.3-0.4,3-0.6,5.1-0.7l1,6c-0.9,0.1-1.6,0.2-2.1,0.4s-0.9,0.5-1.2,0.9c-0.3,0.4-0.5,0.8-0.6,1.3s-0.1,1.1-0.1,1.7L442.3-0.8
							L442.3-0.8z"/>
					</g>
					<g>
						<path class="st1" d="M461.7-33c-0.9,0.1-1.6,0.2-2.1,0.4s-0.9,0.5-1.2,0.9c-0.3,0.4-0.5,0.8-0.6,1.3s-0.1,1.1-0.1,1.7v27.8
							l-7.2-1.2v-28.1c0-1.4,0.1-2.6,0.4-3.7s0.8-2,1.6-2.8c0.8-0.8,1.8-1.4,3.1-1.8s3-0.6,5.1-0.7L461.7-33z"/>
						<path class="st1" d="M457.7-0.8L450.5-2v-28.1c0-1.4,0.1-2.6,0.4-3.7c0.3-1.1,0.8-2,1.6-2.8c0.8-0.8,1.8-1.4,3.1-1.8
							c1.3-0.4,3-0.6,5.1-0.7l1,6c-0.9,0.1-1.6,0.2-2.1,0.4s-0.9,0.5-1.2,0.9c-0.3,0.4-0.5,0.8-0.6,1.3s-0.1,1.1-0.1,1.7L457.7-0.8
							L457.7-0.8z"/>
					</g>
					<g>
						<path class="st1" d="M473-13v-25.6h-7.2V-13H473z"/>
						<polygon class="st1" points="473,-13 465.8,-13 465.8,-38.5 473,-38.5 						"/>
					</g>
				</g>
			</g>
		</g>
	</g>
</pattern>
<g id="Capa_2_00000174601863095767513280000006599259261852031885_" class="st3">
	
		<pattern  id="SVGID_1_" xlink:href="#Nueva_muestra_de_motivo_1" patternTransform="matrix(1 0 0 -1 419 -18133.9004)"  class="st3">
	</pattern>
	<rect class="st4" width="1080" height="1080"/>
</g>
</svg>
