<?xml version="1.0" encoding="utf-8"?>
<!-- Generator: Adobe Illustrator 26.0.1, SVG Export Plug-In . SVG Version: 6.00 Build 0)  -->
<svg version="1.1" xmlns="http://www.w3.org/2000/svg" xmlns:xlink="http://www.w3.org/1999/xlink" x="0px" y="0px"
	 viewBox="0 0 1080 1080" style="enable-background:new 0 0 1080 1080;" xml:space="preserve">
<style type="text/css">
	.st0{fill:none;}
	.st1{fill:#1D1D1B;}
	.st2{fill:#FF00F2;}
	.st3{display:none;}
	.st4{display:inline;}
	.st5{opacity:0.3;}
	.st6{fill:url(#Nueva_muestra_de_motivo_1);}
</style>
<pattern  width="601.1" height="543.5" patternUnits="userSpaceOnUse" id="Nueva_muestra_de_motivo_1" viewBox="0 -601.9 601.1 543.5" style="overflow:visible;">
	<g>
		<rect y="-601.9" class="st0" width="601.1" height="543.5"/>
		<g>
			<g>
				<path class="st1" d="M519-204.1l20.6,20.6c1.8,1.8,1.8,4.6,0,6.3l-41.3,41.3l0,0c-5.2-5.2-5.2-13.7,0-19l3.2-3.2l0,0l20.6-20.6
					c0.9-0.9,0.9-2.3,0-3.2l-12.7-12.7c-0.9-0.9-0.9-2.3,0-3.2l6.3-6.3C516.7-205,518.2-205,519-204.1z"/>
				<path class="st1" d="M517.5-204.8c-0.6,0-1.1,0.2-1.6,0.7l-6.3,6.3c-0.9,0.9-0.9,2.3,0,3.2l12.7,12.7c0.9,0.9,0.9,2.3,0,3.2
					l-20.6,20.6l0,0l-3.2,3.2c-5.2,5.2-5.2,13.7,0,19l0,0l41.3-41.3c1.8-1.8,1.8-4.6,0-6.3L519-204.1
					C518.6-204.6,518-204.8,517.5-204.8L517.5-204.8z"/>
			</g>
			<g>
				<path class="st1" d="M470.5-224.7L470.5-224.7c5.3,5.3,5.3,13.8,0,19l-23.8,23.8c-0.9,0.9-0.9,2.3,0,3.2c0,0,0,0,0,0s0,0,0,0
					l12.7,12.7c0.9,0.9,0.9,2.3,0,3.2l-6.3,6.3c-0.9,0.9-2.3,0.9-3.2,0l-20.6-20.6c-1.8-1.8-1.8-4.6,0-6.3l28.6-28.6l0,0
					L470.5-224.7z"/>
				<path class="st1" d="M470.5-224.7l-12.7,12.7l0,0l-28.6,28.6c-1.8,1.8-1.8,4.6,0,6.3l20.6,20.6c0.4,0.4,1,0.7,1.6,0.7
					c0.6,0,1.1-0.2,1.6-0.7l6.3-6.3c0.9-0.9,0.9-2.3,0-3.2l-12.7-12.7c0,0,0,0,0,0s0,0,0,0c-0.9-0.9-0.8-2.3,0-3.2l23.8-23.8
					C475.7-211,475.7-219.5,470.5-224.7L470.5-224.7L470.5-224.7z"/>
			</g>
			<path class="st2" d="M497.3-223.8l5,1.7c1.7,0.6,2.6,2.5,2,4.2l-26.9,77.7c-0.6,1.7-2.5,2.6-4.2,2l-5-1.7c-1.7-0.6-2.6-2.5-2-4.2
				l26.9-77.7C493.7-223.5,495.6-224.4,497.3-223.8z"/>
			<circle class="st2" cx="573.7" cy="-278.9" r="16.3"/>
		</g>
		<g>
			<g>
				<path class="st1" d="M218.5-68.2l20.6,20.6c1.8,1.8,1.8,4.6,0,6.3L197.9,0l0,0c-5.2-5.2-5.2-13.7,0-19l3.2-3.2l0,0l20.6-20.6
					c0.9-0.9,0.9-2.3,0-3.2L209-58.7c-0.9-0.9-0.9-2.3,0-3.2l6.3-6.3C216.2-69.1,217.6-69.1,218.5-68.2z"/>
				<path class="st1" d="M216.9-68.9c-0.6,0-1.1,0.2-1.6,0.7l-6.3,6.3c-0.9,0.9-0.9,2.3,0,3.2L221.7-46c0.9,0.9,0.9,2.3,0,3.2
					l-20.6,20.6l0,0l-3.2,3.2c-5.2,5.2-5.2,13.7,0,19l0,0l41.3-41.3c1.8-1.8,1.8-4.6,0-6.3l-20.6-20.6
					C218.1-68.7,217.5-68.9,216.9-68.9L216.9-68.9z"/>
			</g>
			<g>
				<path class="st1" d="M169.9-88.9L169.9-88.9c5.3,5.3,5.3,13.8,0,19L146.1-46c-0.9,0.9-0.9,2.3,0,3.2c0,0,0,0,0,0s0,0,0,0
					l12.7,12.7c0.9,0.9,0.9,2.3,0,3.2l-6.3,6.3c-0.9,0.9-2.3,0.9-3.2,0l-20.6-20.6c-1.8-1.8-1.8-4.6,0-6.3l28.6-28.6l0,0L169.9-88.9
					z"/>
				<path class="st1" d="M169.9-88.9l-12.7,12.7l0,0l-28.6,28.6c-1.8,1.8-1.8,4.6,0,6.3l20.6,20.6c0.4,0.4,1,0.7,1.6,0.7
					c0.6,0,1.1-0.2,1.6-0.7l6.3-6.3c0.9-0.9,0.9-2.3,0-3.2l-12.7-12.7c0,0,0,0,0,0s0,0,0,0c-0.9-0.9-0.8-2.3,0-3.2l23.8-23.8
					C175.2-75.1,175.2-83.6,169.9-88.9L169.9-88.9L169.9-88.9z"/>
			</g>
			<path class="st2" d="M196.8-88l5,1.7c1.7,0.6,2.6,2.5,2,4.2L177-4.3c-0.6,1.7-2.5,2.6-4.2,2l-5-1.7c-1.7-0.6-2.6-2.5-2-4.2
				l26.9-77.7C193.2-87.7,195.1-88.6,196.8-88z"/>
			<circle class="st2" cx="273.1" cy="-143" r="16.3"/>
			<g>
				<g>
					<path class="st1" d="M323.4-50.4h7.2v-13.9c0-0.9,0-1.8-0.1-2.6c-0.1-0.8-0.2-1.6-0.4-2.4c0.5-0.3,1-0.5,1.7-0.7
						c0.7-0.2,1.2-0.3,1.6-0.3c1.5,0,2.5,0.5,3.1,1.5c0.6,1,0.9,2.6,0.9,5v13.6h7.2v-14.4c0-1.7-0.1-3.3-0.4-4.8
						c-0.3-1.4-0.8-2.7-1.6-3.7s-1.8-1.8-3.1-2.4s-3-0.9-5-0.9c-1.1,0-2.4,0.2-3.7,0.6s-2.5,1-3.6,1.7c-0.7-0.6-1.7-1.2-2.8-1.7
						c-1.2-0.5-2.6-0.7-4.5-0.7c-0.9,0-1.9,0-2.9,0.1s-1.9,0.2-2.8,0.3c-0.9,0.1-1.8,0.3-2.6,0.5c-0.8,0.2-1.5,0.3-2.2,0.5v24.7h7.2
						v-19.7c0.5-0.1,0.9-0.1,1.4-0.2c0.5,0,1-0.1,1.4-0.1c1.5,0,2.5,0.5,3.1,1.5s0.9,2.6,0.9,5V-50.4z"/>
					<path class="st1" d="M334.5-76.5c-1.1,0-2.4,0.2-3.7,0.6s-2.5,1-3.6,1.7c-0.7-0.6-1.7-1.2-2.8-1.7c-1.2-0.5-2.6-0.7-4.5-0.7
						c-0.9,0-1.9,0-2.9,0.1c-1,0.1-1.9,0.2-2.8,0.3c-0.9,0.1-1.8,0.3-2.6,0.5c-0.8,0.2-1.5,0.3-2.2,0.5v24.7h7.2v-19.7
						c0.5-0.1,0.9-0.1,1.4-0.2c0.5,0,1-0.1,1.4-0.1c1.5,0,2.5,0.5,3.1,1.5c0.6,1,0.9,2.6,0.9,5v13.6h7.2v-13.9c0-0.9,0-1.8-0.1-2.6
						c-0.1-0.8-0.2-1.6-0.4-2.4c0.5-0.3,1-0.5,1.7-0.7c0.7-0.2,1.2-0.3,1.6-0.3c1.5,0,2.5,0.5,3.1,1.5c0.6,1,0.9,2.6,0.9,5v13.6h7.2
						v-14.4c0-1.7-0.1-3.3-0.4-4.8c-0.3-1.4-0.8-2.7-1.6-3.7c-0.8-1-1.8-1.8-3.1-2.4C338.2-76.2,336.5-76.5,334.5-76.5L334.5-76.5z"
						/>
				</g>
				<g>
					<path class="st1" d="M357.9-76.5c-0.8,0.1-1.6,0.2-2.4,0.3s-1.4,0.2-2.1,0.4c-0.6,0.1-1.2,0.3-1.6,0.4l0.9,5.8
						c0.9-0.3,1.9-0.6,3.1-0.8c1.2-0.2,2.4-0.3,3.6-0.3c1.8,0,3.1,0.4,3.9,1.1c0.7,0.7,1.1,1.7,1.1,3v0.7c-0.5-0.1-1-0.2-1.8-0.3
						c-0.7-0.1-1.6-0.1-2.5-0.1c-1.4,0-2.7,0.1-4,0.4c-1.3,0.3-2.4,0.7-3.4,1.3c-1,0.6-1.8,1.4-2.4,2.5c-0.6,1-0.9,2.3-0.9,3.8
						c0,1.6,0.3,2.9,0.8,3.9c0.5,1.1,1.3,1.9,2.2,2.6c1,0.7,2.1,1.1,3.5,1.4c1.3,0.3,2.8,0.4,4.5,0.4c2.6,0,4.9-0.2,6.7-0.5
						c1.8-0.3,3.3-0.6,4.3-0.8v-15.1c0-1.6-0.2-3-0.5-4.3c-0.4-1.3-1-2.4-1.8-3.3c-0.9-0.9-2-1.6-3.4-2.1c-1.4-0.5-3.2-0.7-5.3-0.7
						C359.6-76.6,358.7-76.6,357.9-76.5z M357.9-56.1c-0.8-0.4-1.1-1.2-1.1-2.4c0-0.6,0.1-1.1,0.4-1.5c0.3-0.4,0.6-0.7,1.1-0.9
						c0.5-0.2,1-0.4,1.6-0.5c0.6-0.1,1.2-0.1,1.9-0.1c0.5,0,1,0,1.6,0.1s1,0.1,1.3,0.2v5.5c-0.4,0.1-0.9,0.1-1.6,0.1
						c-0.6,0-1.3,0-2,0C359.7-55.4,358.6-55.7,357.9-56.1z"/>
					<path class="st1" d="M360.4-76.6c2.1,0,3.9,0.2,5.3,0.7c1.4,0.5,2.6,1.2,3.4,2.1c0.9,0.9,1.5,2,1.8,3.3
						c0.4,1.3,0.5,2.7,0.5,4.3v15.1c-1,0.2-2.5,0.5-4.3,0.8c-1.8,0.3-4.1,0.5-6.7,0.5c-1.7,0-3.2-0.1-4.5-0.4
						c-1.3-0.3-2.5-0.8-3.5-1.4c-1-0.7-1.7-1.5-2.2-2.6c-0.5-1.1-0.8-2.4-0.8-3.9c0-1.5,0.3-2.8,0.9-3.8c0.6-1,1.4-1.9,2.4-2.5
						c1-0.6,2.2-1.1,3.4-1.3c1.3-0.3,2.6-0.4,4-0.4c0.9,0,1.8,0,2.5,0.1c0.7,0.1,1.3,0.2,1.8,0.3v-0.7c0-1.2-0.4-2.2-1.1-3
						c-0.7-0.7-2-1.1-3.9-1.1c-1.2,0-2.4,0.1-3.6,0.3c-1.2,0.2-2.2,0.4-3.1,0.8l-0.9-5.8c0.4-0.1,0.9-0.3,1.6-0.4
						c0.6-0.1,1.3-0.3,2.1-0.4c0.7-0.1,1.5-0.2,2.4-0.3C358.7-76.6,359.6-76.6,360.4-76.6L360.4-76.6z M361-55.4c0.7,0,1.4,0,2,0
						c0.6,0,1.2-0.1,1.6-0.1v-5.5c-0.3-0.1-0.7-0.1-1.3-0.2c-0.6-0.1-1.1-0.1-1.6-0.1c-0.7,0-1.3,0-1.9,0.1
						c-0.6,0.1-1.1,0.2-1.6,0.5c-0.5,0.2-0.8,0.5-1.1,0.9c-0.3,0.4-0.4,0.9-0.4,1.5c0,1.1,0.4,1.9,1.1,2.4
						C358.6-55.7,359.7-55.4,361-55.4L361-55.4z"/>
				</g>
				<g>
					<path class="st1" d="M378.1-50.4h7.2v-19.7c0.5-0.1,1-0.1,1.6-0.2s1.1-0.1,1.7-0.1c1.7,0,2.8,0.5,3.4,1.5s0.9,2.6,0.9,5v13.6
						h7.2v-14.4c0-1.7-0.2-3.3-0.5-4.8c-0.4-1.4-1-2.7-1.8-3.7c-0.8-1-2-1.8-3.4-2.4c-1.4-0.6-3.2-0.9-5.4-0.9
						c-2.1,0-4.2,0.2-6.1,0.5s-3.5,0.6-4.8,1V-50.4z"/>
					<path class="st1" d="M389-76.5c-2.1,0-4.2,0.2-6.1,0.5c-1.9,0.3-3.5,0.6-4.8,1v24.7h7.2v-19.7c0.5-0.1,1-0.1,1.6-0.2
						c0.6,0,1.1-0.1,1.7-0.1c1.7,0,2.8,0.5,3.4,1.5c0.6,1,0.9,2.6,0.9,5v13.6h7.2v-14.4c0-1.7-0.2-3.3-0.5-4.8
						c-0.4-1.4-1-2.7-1.8-3.7c-0.8-1-2-1.8-3.4-2.4C393-76.2,391.2-76.5,389-76.5L389-76.5z"/>
				</g>
				<g>
					<path class="st1" d="M406.3-57.7c0.5,1.6,1.4,3,2.5,4.2c1.1,1.2,2.5,2.1,4.2,2.8c1.7,0.7,3.7,1,6,1c0.9,0,1.8,0,2.7-0.1
						c0.9-0.1,1.8-0.2,2.5-0.4s1.5-0.3,2.2-0.5c0.6-0.2,1.2-0.4,1.6-0.6l-1-5.9c-0.8,0.4-1.9,0.7-3.1,0.9c-1.3,0.2-2.6,0.4-3.9,0.4
						c-2.1,0-3.7-0.4-5-1.3c-1.2-0.9-1.9-2.1-2.1-3.5h16.4c0-0.4,0.1-0.8,0.1-1.3c0-0.5,0-1,0-1.4c0-4.3-1.1-7.6-3.2-9.8
						c-2.1-2.2-5-3.3-8.6-3.3c-1.6,0-3.1,0.3-4.5,0.9c-1.5,0.6-2.8,1.4-3.9,2.6c-1.1,1.1-2,2.6-2.7,4.3s-1,3.7-1,6
						C405.5-61.1,405.8-59.3,406.3-57.7z M412.9-65.7c0.1-0.6,0.3-1.2,0.5-1.8c0.2-0.6,0.5-1.1,0.9-1.6c0.4-0.5,0.9-0.8,1.5-1.1
						s1.3-0.4,2.1-0.4c0.8,0,1.5,0.1,2.1,0.4c0.6,0.3,1,0.7,1.4,1.1c0.4,0.5,0.6,1,0.8,1.6s0.3,1.2,0.3,1.8H412.9z"/>
					<path class="st1" d="M417.7-76.6c3.6,0,6.5,1.1,8.6,3.3c2.1,2.2,3.2,5.5,3.2,9.8c0,0.4,0,0.9,0,1.4c0,0.5-0.1,0.9-0.1,1.3
						h-16.4c0.2,1.5,0.9,2.7,2.1,3.5c1.2,0.9,2.9,1.3,5,1.3c1.3,0,2.6-0.1,3.9-0.4c1.3-0.2,2.3-0.5,3.1-0.9l1,5.9
						c-0.4,0.2-0.9,0.4-1.6,0.6c-0.6,0.2-1.4,0.4-2.2,0.5c-0.8,0.1-1.6,0.3-2.5,0.4c-0.9,0.1-1.8,0.1-2.7,0.1c-2.3,0-4.3-0.3-6-1
						c-1.7-0.7-3.1-1.6-4.2-2.8c-1.1-1.2-1.9-2.6-2.5-4.2c-0.5-1.6-0.8-3.4-0.8-5.2c0-2.3,0.3-4.3,1-6c0.7-1.7,1.6-3.1,2.7-4.3
						c1.1-1.1,2.4-2,3.9-2.6C414.7-76.3,416.2-76.6,417.7-76.6L417.7-76.6z M412.9-65.7h9.6c0-0.6-0.1-1.2-0.3-1.8
						c-0.2-0.6-0.5-1.1-0.8-1.6c-0.4-0.5-0.8-0.8-1.4-1.1c-0.6-0.3-1.3-0.4-2.1-0.4c-0.8,0-1.5,0.1-2.1,0.4
						c-0.6,0.3-1.1,0.6-1.5,1.1c-0.4,0.5-0.7,1-0.9,1.6C413.2-67,413-66.4,412.9-65.7L412.9-65.7z"/>
				</g>
				<g>
					<path class="st1" d="M446.3-55.9c-0.9-0.1-1.6-0.2-2.1-0.4c-0.5-0.2-0.9-0.5-1.2-0.9c-0.3-0.4-0.5-0.8-0.6-1.3
						c-0.1-0.5-0.1-1.1-0.1-1.7v-27.8l-7.2,1.2v28.1c0,1.4,0.1,2.6,0.4,3.7s0.8,2,1.6,2.8c0.8,0.8,1.8,1.4,3.1,1.8s3,0.6,5.1,0.7
						L446.3-55.9z"/>
					<path class="st1" d="M442.3-88.1l-7.2,1.2v28.1c0,1.4,0.1,2.6,0.4,3.7c0.3,1.1,0.8,2,1.6,2.8c0.8,0.8,1.8,1.4,3.1,1.8
						c1.3,0.4,3,0.6,5.1,0.7l1-6c-0.9-0.1-1.6-0.2-2.1-0.4c-0.5-0.2-0.9-0.5-1.2-0.9c-0.3-0.4-0.5-0.8-0.6-1.3
						c-0.1-0.5-0.1-1.1-0.1-1.7V-88.1L442.3-88.1z"/>
				</g>
				<g>
					<path class="st1" d="M461.7-55.9c-0.9-0.1-1.6-0.2-2.1-0.4c-0.5-0.2-0.9-0.5-1.2-0.9c-0.3-0.4-0.5-0.8-0.6-1.3
						c-0.1-0.5-0.1-1.1-0.1-1.7v-27.8l-7.2,1.2v28.1c0,1.4,0.1,2.6,0.4,3.7s0.8,2,1.6,2.8c0.8,0.8,1.8,1.4,3.1,1.8s3,0.6,5.1,0.7
						L461.7-55.9z"/>
					<path class="st1" d="M457.7-88.1l-7.2,1.2v28.1c0,1.4,0.1,2.6,0.4,3.7c0.3,1.1,0.8,2,1.6,2.8c0.8,0.8,1.8,1.4,3.1,1.8
						c1.3,0.4,3,0.6,5.1,0.7l1-6c-0.9-0.1-1.6-0.2-2.1-0.4c-0.5-0.2-0.9-0.5-1.2-0.9c-0.3-0.4-0.5-0.8-0.6-1.3
						c-0.1-0.5-0.1-1.1-0.1-1.7V-88.1L457.7-88.1z"/>
				</g>
				<g>
					<path class="st1" d="M473-75.9v25.6h-7.2v-25.6H473z"/>
					<polygon class="st1" points="473,-75.9 465.8,-75.9 465.8,-50.4 473,-50.4 473,-75.9 					"/>
				</g>
				<path class="st2" d="M473.7-83.3c0,1.3-0.4,2.4-1.3,3.1c-0.8,0.8-1.9,1.1-3,1.1c-1.2,0-2.2-0.4-3-1.1c-0.9-0.8-1.3-1.8-1.3-3.1
					c0-1.3,0.4-2.4,1.3-3.1s1.9-1.1,3-1.1c1.2,0,2.2,0.4,3,1.1C473.3-85.7,473.7-84.7,473.7-83.3z"/>
			</g>
		</g>
		<g>
			<g>
				<path class="st1" d="M102.6-114.8L81.5-94.7c-1.8,1.7-4.6,1.6-6.3-0.2l-40.2-42.3l0,0c5.4-5.1,13.8-4.9,18.9,0.5l3.1,3.3l0,0
					l20.1,21.1c0.9,0.9,2.3,0.9,3.2,0.1l13-12.4c0.9-0.9,2.3-0.8,3.2,0.1l6.2,6.5C103.6-117.1,103.5-115.7,102.6-114.8z"/>
				<path class="st1" d="M44.2-140.8c-3.3,0-6.6,1.2-9.2,3.7l0,0l40.2,42.3c0.9,0.9,2.1,1.4,3.3,1.4c1.1,0,2.2-0.4,3.1-1.2
					l21.1-20.1c0.9-0.9,0.9-2.3,0.1-3.2l-6.2-6.5c-0.4-0.5-1-0.7-1.6-0.7c-0.6,0-1.1,0.2-1.5,0.6l-13,12.4c-0.4,0.4-1,0.6-1.5,0.6
					c-0.6,0-1.2-0.2-1.6-0.7L57-133.4l0,0l-3.1-3.3C51.3-139.5,47.7-140.8,44.2-140.8L44.2-140.8z"/>
			</g>
			<g>
				<g>
					<path class="st1" d="M22.9-186.3h7.2v-13.9c0-0.9,0-1.8-0.1-2.6c-0.1-0.8-0.2-1.6-0.4-2.4c0.5-0.3,1-0.5,1.7-0.7
						c0.7-0.2,1.2-0.3,1.6-0.3c1.5,0,2.5,0.5,3.1,1.5c0.6,1,0.9,2.6,0.9,5v13.6h7.2v-14.4c0-1.7-0.1-3.3-0.4-4.8
						c-0.3-1.4-0.8-2.7-1.6-3.7s-1.8-1.8-3.1-2.4s-3-0.9-5-0.9c-1.1,0-2.4,0.2-3.7,0.6s-2.5,1-3.6,1.7c-0.7-0.6-1.7-1.2-2.8-1.7
						c-1.2-0.5-2.6-0.7-4.5-0.7c-0.9,0-1.9,0-2.9,0.1s-1.9,0.2-2.8,0.3c-0.9,0.1-1.8,0.3-2.6,0.5c-0.8,0.2-1.5,0.3-2.2,0.5v24.7h7.2
						V-206c0.5-0.1,0.9-0.1,1.4-0.2c0.5,0,1-0.1,1.4-0.1c1.5,0,2.5,0.5,3.1,1.5s0.9,2.6,0.9,5V-186.3z"/>
					<path class="st1" d="M33.9-212.4c-1.1,0-2.4,0.2-3.7,0.6s-2.5,1-3.6,1.7c-0.7-0.6-1.7-1.2-2.8-1.7c-1.2-0.5-2.6-0.7-4.5-0.7
						c-0.9,0-1.9,0-2.9,0.1c-1,0.1-1.9,0.2-2.8,0.3c-0.9,0.1-1.8,0.3-2.6,0.5c-0.8,0.2-1.5,0.3-2.2,0.5v24.7h7.2V-206
						c0.5-0.1,0.9-0.1,1.4-0.2c0.5,0,1-0.1,1.4-0.1c1.5,0,2.5,0.5,3.1,1.5c0.6,1,0.9,2.6,0.9,5v13.6h7.2v-13.9c0-0.9,0-1.8-0.1-2.6
						c-0.1-0.8-0.2-1.6-0.4-2.4c0.5-0.3,1-0.5,1.7-0.7c0.7-0.2,1.2-0.3,1.6-0.3c1.5,0,2.5,0.5,3.1,1.5c0.6,1,0.9,2.6,0.9,5v13.6h7.2
						v-14.4c0-1.7-0.1-3.3-0.4-4.8c-0.3-1.4-0.8-2.7-1.6-3.7c-0.8-1-1.8-1.8-3.1-2.4C37.7-212.1,36-212.4,33.9-212.4L33.9-212.4z"/>
				</g>
				<g>
					<path class="st1" d="M57.4-212.4c-0.8,0.1-1.6,0.2-2.4,0.3s-1.4,0.2-2.1,0.4c-0.6,0.1-1.2,0.3-1.6,0.4l0.9,5.8
						c0.9-0.3,1.9-0.6,3.1-0.8c1.2-0.2,2.4-0.3,3.6-0.3c1.8,0,3.1,0.4,3.9,1.1c0.7,0.7,1.1,1.7,1.1,3v0.7c-0.5-0.1-1-0.2-1.8-0.3
						c-0.7-0.1-1.6-0.1-2.5-0.1c-1.4,0-2.7,0.1-4,0.4c-1.3,0.3-2.4,0.7-3.4,1.3c-1,0.6-1.8,1.4-2.4,2.5c-0.6,1-0.9,2.3-0.9,3.8
						c0,1.6,0.3,2.9,0.8,3.9c0.5,1.1,1.3,1.9,2.2,2.6c1,0.7,2.1,1.1,3.5,1.4c1.3,0.3,2.8,0.4,4.5,0.4c2.6,0,4.9-0.2,6.7-0.5
						c1.8-0.3,3.3-0.6,4.3-0.8v-15.1c0-1.6-0.2-3-0.5-4.3c-0.4-1.3-1-2.4-1.8-3.3c-0.9-0.9-2-1.6-3.4-2.1c-1.4-0.5-3.2-0.7-5.3-0.7
						C59-212.5,58.2-212.5,57.4-212.4z M57.3-192c-0.8-0.4-1.1-1.2-1.1-2.4c0-0.6,0.1-1.1,0.4-1.5c0.3-0.4,0.6-0.7,1.1-0.9
						c0.5-0.2,1-0.4,1.6-0.5c0.6-0.1,1.2-0.1,1.9-0.1c0.5,0,1,0,1.6,0.1s1,0.1,1.3,0.2v5.5c-0.4,0.1-0.9,0.1-1.6,0.1
						c-0.6,0-1.3,0-2,0C59.1-191.3,58.1-191.5,57.3-192z"/>
					<path class="st1" d="M59.9-212.5c2.1,0,3.9,0.2,5.3,0.7c1.4,0.5,2.6,1.2,3.4,2.1c0.9,0.9,1.5,2,1.8,3.3
						c0.4,1.3,0.5,2.7,0.5,4.3v15.1c-1,0.2-2.5,0.5-4.3,0.8c-1.8,0.3-4.1,0.5-6.7,0.5c-1.7,0-3.2-0.1-4.5-0.4
						c-1.3-0.3-2.5-0.8-3.5-1.4c-1-0.7-1.7-1.5-2.2-2.6c-0.5-1.1-0.8-2.4-0.8-3.9c0-1.5,0.3-2.8,0.9-3.8c0.6-1,1.4-1.9,2.4-2.5
						c1-0.6,2.2-1.1,3.4-1.3c1.3-0.3,2.6-0.4,4-0.4c0.9,0,1.8,0,2.5,0.1c0.7,0.1,1.3,0.2,1.8,0.3v-0.7c0-1.2-0.4-2.2-1.1-3
						c-0.7-0.7-2-1.1-3.9-1.1c-1.2,0-2.4,0.1-3.6,0.3c-1.2,0.2-2.2,0.4-3.1,0.8l-0.9-5.8c0.4-0.1,0.9-0.3,1.6-0.4
						c0.6-0.1,1.3-0.3,2.1-0.4c0.7-0.1,1.5-0.2,2.4-0.3C58.2-212.5,59-212.5,59.9-212.5L59.9-212.5z M60.5-191.3c0.7,0,1.4,0,2,0
						c0.6,0,1.2-0.1,1.6-0.1v-5.5c-0.3-0.1-0.7-0.1-1.3-0.2c-0.6-0.1-1.1-0.1-1.6-0.1c-0.7,0-1.3,0-1.9,0.1
						c-0.6,0.1-1.1,0.2-1.6,0.5c-0.5,0.2-0.8,0.5-1.1,0.9c-0.3,0.4-0.4,0.9-0.4,1.5c0,1.1,0.4,1.9,1.1,2.4
						C58.1-191.5,59.1-191.3,60.5-191.3L60.5-191.3z"/>
				</g>
				<g>
					<path class="st1" d="M77.6-186.3h7.2V-206c0.5-0.1,1-0.1,1.6-0.2s1.1-0.1,1.7-0.1c1.7,0,2.8,0.5,3.4,1.5s0.9,2.6,0.9,5v13.6
						h7.2v-14.4c0-1.7-0.2-3.3-0.5-4.8c-0.4-1.4-1-2.7-1.8-3.7c-0.8-1-2-1.8-3.4-2.4c-1.4-0.6-3.2-0.9-5.4-0.9
						c-2.1,0-4.2,0.2-6.1,0.5s-3.5,0.6-4.8,1V-186.3z"/>
					<path class="st1" d="M88.5-212.4c-2.1,0-4.2,0.2-6.1,0.5c-1.9,0.3-3.5,0.6-4.8,1v24.7h7.2V-206c0.5-0.1,1-0.1,1.6-0.2
						c0.6,0,1.1-0.1,1.7-0.1c1.7,0,2.8,0.5,3.4,1.5c0.6,1,0.9,2.6,0.9,5v13.6h7.2v-14.4c0-1.7-0.2-3.3-0.5-4.8
						c-0.4-1.4-1-2.7-1.8-3.7c-0.8-1-2-1.8-3.4-2.4C92.4-212.1,90.6-212.4,88.5-212.4L88.5-212.4z"/>
				</g>
				<g>
					<path class="st1" d="M105.8-193.6c0.5,1.6,1.4,3,2.5,4.2c1.1,1.2,2.5,2.1,4.2,2.8c1.7,0.7,3.7,1,6,1c0.9,0,1.8,0,2.7-0.1
						c0.9-0.1,1.8-0.2,2.5-0.4s1.5-0.3,2.2-0.5c0.6-0.2,1.2-0.4,1.6-0.6l-1-5.9c-0.8,0.4-1.9,0.7-3.1,0.9c-1.3,0.2-2.6,0.4-3.9,0.4
						c-2.1,0-3.7-0.4-5-1.3c-1.2-0.9-1.9-2.1-2.1-3.5h16.4c0-0.4,0.1-0.8,0.1-1.3c0-0.5,0-1,0-1.4c0-4.3-1.1-7.6-3.2-9.8
						c-2.1-2.2-5-3.3-8.6-3.3c-1.6,0-3.1,0.3-4.5,0.9c-1.5,0.6-2.8,1.4-3.9,2.6c-1.1,1.1-2,2.6-2.7,4.3s-1,3.7-1,6
						C105-197,105.2-195.2,105.8-193.6z M112.4-201.6c0.1-0.6,0.3-1.2,0.5-1.8c0.2-0.6,0.5-1.1,0.9-1.6c0.4-0.5,0.9-0.8,1.5-1.1
						s1.3-0.4,2.1-0.4c0.8,0,1.5,0.1,2.1,0.4c0.6,0.3,1,0.7,1.4,1.1c0.4,0.5,0.6,1,0.8,1.6s0.3,1.2,0.3,1.8H112.4z"/>
					<path class="st1" d="M117.2-212.5c3.6,0,6.5,1.1,8.6,3.3c2.1,2.2,3.2,5.5,3.2,9.8c0,0.4,0,0.9,0,1.4c0,0.5-0.1,0.9-0.1,1.3
						h-16.4c0.2,1.5,0.9,2.7,2.1,3.5c1.2,0.9,2.9,1.3,5,1.3c1.3,0,2.6-0.1,3.9-0.4c1.3-0.2,2.3-0.5,3.1-0.9l1,5.9
						c-0.4,0.2-0.9,0.4-1.6,0.6c-0.6,0.2-1.4,0.4-2.2,0.5c-0.8,0.1-1.6,0.3-2.5,0.4c-0.9,0.1-1.8,0.1-2.7,0.1c-2.3,0-4.3-0.3-6-1
						c-1.7-0.7-3.1-1.6-4.2-2.8c-1.1-1.2-1.9-2.6-2.5-4.2c-0.5-1.6-0.8-3.4-0.8-5.2c0-2.3,0.3-4.3,1-6c0.7-1.7,1.6-3.1,2.7-4.3
						c1.1-1.1,2.4-2,3.9-2.6C114.1-212.2,115.7-212.5,117.2-212.5L117.2-212.5z M112.4-201.6h9.6c0-0.6-0.1-1.2-0.3-1.8
						c-0.2-0.6-0.5-1.1-0.8-1.6c-0.4-0.5-0.8-0.8-1.4-1.1c-0.6-0.3-1.3-0.4-2.1-0.4c-0.8,0-1.5,0.1-2.1,0.4
						c-0.6,0.3-1.1,0.6-1.5,1.1c-0.4,0.5-0.7,1-0.9,1.6C112.7-202.8,112.5-202.2,112.4-201.6L112.4-201.6z"/>
				</g>
				<g>
					<path class="st1" d="M145.8-191.8c-0.9-0.1-1.6-0.2-2.1-0.4c-0.5-0.2-0.9-0.5-1.2-0.9c-0.3-0.4-0.5-0.8-0.6-1.3
						c-0.1-0.5-0.1-1.1-0.1-1.7V-224l-7.2,1.2v28.1c0,1.4,0.1,2.6,0.4,3.7s0.8,2,1.6,2.8c0.8,0.8,1.8,1.4,3.1,1.8s3,0.6,5.1,0.7
						L145.8-191.8z"/>
					<path class="st1" d="M141.8-224l-7.2,1.2v28.1c0,1.4,0.1,2.6,0.4,3.7c0.3,1.1,0.8,2,1.6,2.8c0.8,0.8,1.8,1.4,3.1,1.8
						c1.3,0.4,3,0.6,5.1,0.7l1-6c-0.9-0.1-1.6-0.2-2.1-0.4c-0.5-0.2-0.9-0.5-1.2-0.9c-0.3-0.4-0.5-0.8-0.6-1.3
						c-0.1-0.5-0.1-1.1-0.1-1.7V-224L141.8-224z"/>
				</g>
				<g>
					<path class="st1" d="M161.1-191.8c-0.9-0.1-1.6-0.2-2.1-0.4c-0.5-0.2-0.9-0.5-1.2-0.9c-0.3-0.4-0.5-0.8-0.6-1.3
						c-0.1-0.5-0.1-1.1-0.1-1.7V-224l-7.2,1.2v28.1c0,1.4,0.1,2.6,0.4,3.7s0.8,2,1.6,2.8c0.8,0.8,1.8,1.4,3.1,1.8s3,0.6,5.1,0.7
						L161.1-191.8z"/>
					<path class="st1" d="M157.1-224l-7.2,1.2v28.1c0,1.4,0.1,2.6,0.4,3.7c0.3,1.1,0.8,2,1.6,2.8c0.8,0.8,1.8,1.4,3.1,1.8
						c1.3,0.4,3,0.6,5.1,0.7l1-6c-0.9-0.1-1.6-0.2-2.1-0.4c-0.5-0.2-0.9-0.5-1.2-0.9c-0.3-0.4-0.5-0.8-0.6-1.3
						c-0.1-0.5-0.1-1.1-0.1-1.7V-224L157.1-224z"/>
				</g>
				<g>
					<path class="st1" d="M172.5-211.8v25.6h-7.2v-25.6H172.5z"/>
					<polygon class="st1" points="172.5,-211.8 165.3,-211.8 165.3,-186.3 172.5,-186.3 172.5,-211.8 					"/>
				</g>
				<path class="st2" d="M173.2-219.2c0,1.3-0.4,2.4-1.3,3.1c-0.8,0.8-1.9,1.1-3,1.1c-1.2,0-2.2-0.4-3-1.1c-0.9-0.8-1.3-1.8-1.3-3.1
					c0-1.3,0.4-2.4,1.3-3.1s1.9-1.1,3-1.1c1.2,0,2.2,0.4,3,1.1C172.7-221.6,173.2-220.5,173.2-219.2z"/>
			</g>
		</g>
		<g>
			<g>
				<path class="st1" d="M519-475.9l20.6,20.6c1.8,1.8,1.8,4.6,0,6.3l-41.3,41.3l0,0c-5.2-5.2-5.2-13.7,0-19l3.2-3.2l0,0l20.6-20.6
					c0.9-0.9,0.9-2.3,0-3.2l-12.7-12.7c-0.9-0.9-0.9-2.3,0-3.2l6.3-6.3C516.7-476.7,518.2-476.7,519-475.9z"/>
				<path class="st1" d="M517.5-476.5c-0.6,0-1.1,0.2-1.6,0.7l-6.3,6.3c-0.9,0.9-0.9,2.3,0,3.2l12.7,12.7c0.9,0.9,0.9,2.3,0,3.2
					l-20.6,20.6l0,0l-3.2,3.2c-5.2,5.2-5.2,13.7,0,19l0,0l41.3-41.3c1.8-1.8,1.8-4.6,0-6.3L519-475.9
					C518.6-476.3,518-476.5,517.5-476.5L517.5-476.5z"/>
			</g>
			<g>
				<path class="st1" d="M470.5-496.5L470.5-496.5c5.3,5.3,5.3,13.8,0,19l-23.8,23.8c-0.9,0.9-0.9,2.3,0,3.2c0,0,0,0,0,0s0,0,0,0
					l12.7,12.7c0.9,0.9,0.9,2.3,0,3.2l-6.3,6.3c-0.9,0.9-2.3,0.9-3.2,0l-20.6-20.6c-1.8-1.8-1.8-4.6,0-6.3l28.6-28.6l0,0
					L470.5-496.5z"/>
				<path class="st1" d="M470.5-496.5l-12.7,12.7l0,0l-28.6,28.6c-1.8,1.8-1.8,4.6,0,6.3l20.6,20.6c0.4,0.4,1,0.7,1.6,0.7
					c0.6,0,1.1-0.2,1.6-0.7l6.3-6.3c0.9-0.9,0.9-2.3,0-3.2l-12.7-12.7c0,0,0,0,0,0s0,0,0,0c-0.9-0.9-0.8-2.3,0-3.2l23.8-23.8
					C475.7-482.7,475.7-491.2,470.5-496.5L470.5-496.5L470.5-496.5z"/>
			</g>
			<path class="st2" d="M497.3-495.6l5,1.7c1.7,0.6,2.6,2.5,2,4.2l-26.9,77.7c-0.6,1.7-2.5,2.6-4.2,2l-5-1.7c-1.7-0.6-2.6-2.5-2-4.2
				l26.9-77.7C493.7-495.3,495.6-496.2,497.3-495.6z"/>
			<circle class="st2" cx="573.7" cy="-550.6" r="16.3"/>
		</g>
		<g>
			<g>
				<path class="st1" d="M218.5-340l20.6,20.6c1.8,1.8,1.8,4.6,0,6.3l-41.3,41.3l0,0c-5.2-5.2-5.2-13.7,0-19l3.2-3.2l0,0l20.6-20.6
					c0.9-0.9,0.9-2.3,0-3.2L209-330.5c-0.9-0.9-0.9-2.3,0-3.2l6.3-6.3C216.2-340.9,217.6-340.9,218.5-340z"/>
				<path class="st1" d="M216.9-340.6c-0.6,0-1.1,0.2-1.6,0.7l-6.3,6.3c-0.9,0.9-0.9,2.3,0,3.2l12.7,12.7c0.9,0.9,0.9,2.3,0,3.2
					L201.1-294l0,0l-3.2,3.2c-5.2,5.2-5.2,13.7,0,19l0,0l41.3-41.3c1.8-1.8,1.8-4.6,0-6.3L218.5-340
					C218.1-340.4,217.5-340.6,216.9-340.6L216.9-340.6z"/>
			</g>
			<g>
				<path class="st1" d="M403.2-250.7L382-230.6c-1.8,1.7-4.6,1.6-6.3-0.2L335.4-273l0,0c5.4-5.1,13.8-4.9,18.9,0.5l3.1,3.3l0,0
					l20.1,21.1c0.9,0.9,2.3,0.9,3.2,0.1l13-12.4c0.9-0.9,2.3-0.8,3.2,0.1l6.2,6.5C404.1-253,404.1-251.5,403.2-250.7z"/>
				<path class="st1" d="M344.7-276.7c-3.3,0-6.6,1.2-9.2,3.7l0,0l40.2,42.3c0.9,0.9,2.1,1.4,3.3,1.4c1.1,0,2.2-0.4,3.1-1.2
					l21.1-20.1c0.9-0.9,0.9-2.3,0.1-3.2l-6.2-6.5c-0.4-0.5-1-0.7-1.6-0.7c-0.6,0-1.1,0.2-1.5,0.6l-13,12.4c-0.4,0.4-1,0.6-1.5,0.6
					c-0.6,0-1.2-0.2-1.6-0.7l-20.1-21.1l0,0l-3.1-3.3C351.8-275.3,348.3-276.7,344.7-276.7L344.7-276.7z"/>
			</g>
			<g>
				<path class="st1" d="M169.9-360.6L169.9-360.6c5.3,5.3,5.3,13.8,0,19l-23.8,23.8c-0.9,0.9-0.9,2.3,0,3.2c0,0,0,0,0,0s0,0,0,0
					l12.7,12.7c0.9,0.9,0.9,2.3,0,3.2l-6.3,6.3c-0.9,0.9-2.3,0.9-3.2,0L128.7-313c-1.8-1.8-1.8-4.6,0-6.3l28.6-28.6l0,0L169.9-360.6
					z"/>
				<path class="st1" d="M169.9-360.6l-12.7,12.7l0,0l-28.6,28.6c-1.8,1.8-1.8,4.6,0,6.3l20.6,20.6c0.4,0.4,1,0.7,1.6,0.7
					c0.6,0,1.1-0.2,1.6-0.7l6.3-6.3c0.9-0.9,0.9-2.3,0-3.2l-12.7-12.7c0,0,0,0,0,0s0,0,0,0c-0.9-0.9-0.8-2.3,0-3.2l23.8-23.8
					C175.2-346.8,175.2-355.4,169.9-360.6L169.9-360.6L169.9-360.6z"/>
			</g>
			<path class="st2" d="M196.8-359.7l5,1.7c1.7,0.6,2.6,2.5,2,4.2L177-276.1c-0.6,1.7-2.5,2.6-4.2,2l-5-1.7c-1.7-0.6-2.6-2.5-2-4.2
				l26.9-77.7C193.2-359.4,195.1-360.3,196.8-359.7z"/>
			<circle class="st2" cx="273.1" cy="-414.7" r="16.3"/>
			<g>
				<g>
					<path class="st1" d="M323.4-322.1h7.2v-13.9c0-0.9,0-1.8-0.1-2.6c-0.1-0.8-0.2-1.6-0.4-2.4c0.5-0.3,1-0.5,1.7-0.7
						c0.7-0.2,1.2-0.3,1.6-0.3c1.5,0,2.5,0.5,3.1,1.5c0.6,1,0.9,2.6,0.9,5v13.6h7.2v-14.4c0-1.7-0.1-3.3-0.4-4.8
						c-0.3-1.4-0.8-2.7-1.6-3.7s-1.8-1.8-3.1-2.4s-3-0.9-5-0.9c-1.1,0-2.4,0.2-3.7,0.6s-2.5,1-3.6,1.7c-0.7-0.6-1.7-1.2-2.8-1.7
						c-1.2-0.5-2.6-0.7-4.5-0.7c-0.9,0-1.9,0-2.9,0.1s-1.9,0.2-2.8,0.3c-0.9,0.1-1.8,0.3-2.6,0.5c-0.8,0.2-1.5,0.3-2.2,0.5v24.7h7.2
						v-19.7c0.5-0.1,0.9-0.1,1.4-0.2c0.5,0,1-0.1,1.4-0.1c1.5,0,2.5,0.5,3.1,1.5s0.9,2.6,0.9,5V-322.1z"/>
					<path class="st1" d="M334.5-348.3c-1.1,0-2.4,0.2-3.7,0.6s-2.5,1-3.6,1.7c-0.7-0.6-1.7-1.2-2.8-1.7c-1.2-0.5-2.6-0.7-4.5-0.7
						c-0.9,0-1.9,0-2.9,0.1c-1,0.1-1.9,0.2-2.8,0.3c-0.9,0.1-1.8,0.3-2.6,0.5c-0.8,0.2-1.5,0.3-2.2,0.5v24.7h7.2v-19.7
						c0.5-0.1,0.9-0.1,1.4-0.2c0.5,0,1-0.1,1.4-0.1c1.5,0,2.5,0.5,3.1,1.5c0.6,1,0.9,2.6,0.9,5v13.6h7.2v-13.9c0-0.9,0-1.8-0.1-2.6
						c-0.1-0.8-0.2-1.6-0.4-2.4c0.5-0.3,1-0.5,1.7-0.7c0.7-0.2,1.2-0.3,1.6-0.3c1.5,0,2.5,0.5,3.1,1.5c0.6,1,0.9,2.6,0.9,5v13.6h7.2
						v-14.4c0-1.7-0.1-3.3-0.4-4.8c-0.3-1.4-0.8-2.7-1.6-3.7c-0.8-1-1.8-1.8-3.1-2.4C338.2-348,336.5-348.3,334.5-348.3L334.5-348.3
						z"/>
				</g>
				<g>
					<path class="st1" d="M357.9-348.2c-0.8,0.1-1.6,0.2-2.4,0.3s-1.4,0.2-2.1,0.4c-0.6,0.1-1.2,0.3-1.6,0.4l0.9,5.8
						c0.9-0.3,1.9-0.6,3.1-0.8c1.2-0.2,2.4-0.3,3.6-0.3c1.8,0,3.1,0.4,3.9,1.1c0.7,0.7,1.1,1.7,1.1,3v0.7c-0.5-0.1-1-0.2-1.8-0.3
						c-0.7-0.1-1.6-0.1-2.5-0.1c-1.4,0-2.7,0.1-4,0.4c-1.3,0.3-2.4,0.7-3.4,1.3c-1,0.6-1.8,1.4-2.4,2.5c-0.6,1-0.9,2.3-0.9,3.8
						c0,1.6,0.3,2.9,0.8,3.9c0.5,1.1,1.3,1.9,2.2,2.6c1,0.7,2.1,1.1,3.5,1.4c1.3,0.3,2.8,0.4,4.5,0.4c2.6,0,4.9-0.2,6.7-0.5
						c1.8-0.3,3.3-0.6,4.3-0.8v-15.1c0-1.6-0.2-3-0.5-4.3c-0.4-1.3-1-2.4-1.8-3.3c-0.9-0.9-2-1.6-3.4-2.1c-1.4-0.5-3.2-0.7-5.3-0.7
						C359.6-348.4,358.7-348.3,357.9-348.2z M357.9-327.8c-0.8-0.4-1.1-1.2-1.1-2.4c0-0.6,0.1-1.1,0.4-1.5c0.3-0.4,0.6-0.7,1.1-0.9
						c0.5-0.2,1-0.4,1.6-0.5c0.6-0.1,1.2-0.1,1.9-0.1c0.5,0,1,0,1.6,0.1s1,0.1,1.3,0.2v5.5c-0.4,0.1-0.9,0.1-1.6,0.1
						c-0.6,0-1.3,0-2,0C359.7-327.2,358.6-327.4,357.9-327.8z"/>
					<path class="st1" d="M360.4-348.4c2.1,0,3.9,0.2,5.3,0.7c1.4,0.5,2.6,1.2,3.4,2.1c0.9,0.9,1.5,2,1.8,3.3
						c0.4,1.3,0.5,2.7,0.5,4.3v15.1c-1,0.2-2.5,0.5-4.3,0.8c-1.8,0.3-4.1,0.5-6.7,0.5c-1.7,0-3.2-0.1-4.5-0.4
						c-1.3-0.3-2.5-0.8-3.5-1.4c-1-0.7-1.7-1.5-2.2-2.6c-0.5-1.1-0.8-2.4-0.8-3.9c0-1.5,0.3-2.8,0.9-3.8c0.6-1,1.4-1.9,2.4-2.5
						c1-0.6,2.2-1.1,3.4-1.3c1.3-0.3,2.6-0.4,4-0.4c0.9,0,1.8,0,2.5,0.1c0.7,0.1,1.3,0.2,1.8,0.3v-0.7c0-1.2-0.4-2.2-1.1-3
						c-0.7-0.7-2-1.1-3.9-1.1c-1.2,0-2.4,0.1-3.6,0.3c-1.2,0.2-2.2,0.4-3.1,0.8l-0.9-5.8c0.4-0.1,0.9-0.3,1.6-0.4
						c0.6-0.1,1.3-0.3,2.1-0.4c0.7-0.1,1.5-0.2,2.4-0.3C358.7-348.3,359.6-348.4,360.4-348.4L360.4-348.4z M361-327.2
						c0.7,0,1.4,0,2,0c0.6,0,1.2-0.1,1.6-0.1v-5.5c-0.3-0.1-0.7-0.1-1.3-0.2c-0.6-0.1-1.1-0.1-1.6-0.1c-0.7,0-1.3,0-1.9,0.1
						c-0.6,0.1-1.1,0.2-1.6,0.5c-0.5,0.2-0.8,0.5-1.1,0.9c-0.3,0.4-0.4,0.9-0.4,1.5c0,1.1,0.4,1.9,1.1,2.4
						C358.6-327.4,359.7-327.2,361-327.2L361-327.2z"/>
				</g>
				<g>
					<path class="st1" d="M378.1-322.1h7.2v-19.7c0.5-0.1,1-0.1,1.6-0.2s1.1-0.1,1.7-0.1c1.7,0,2.8,0.5,3.4,1.5s0.9,2.6,0.9,5v13.6
						h7.2v-14.4c0-1.7-0.2-3.3-0.5-4.8c-0.4-1.4-1-2.7-1.8-3.7c-0.8-1-2-1.8-3.4-2.4c-1.4-0.6-3.2-0.9-5.4-0.9
						c-2.1,0-4.2,0.2-6.1,0.5s-3.5,0.6-4.8,1V-322.1z"/>
					<path class="st1" d="M389-348.3c-2.1,0-4.2,0.2-6.1,0.5c-1.9,0.3-3.5,0.6-4.8,1v24.7h7.2v-19.7c0.5-0.1,1-0.1,1.6-0.2
						c0.6,0,1.1-0.1,1.7-0.1c1.7,0,2.8,0.5,3.4,1.5c0.6,1,0.9,2.6,0.9,5v13.6h7.2v-14.4c0-1.7-0.2-3.3-0.5-4.8
						c-0.4-1.4-1-2.7-1.8-3.7c-0.8-1-2-1.8-3.4-2.4C393-348,391.2-348.3,389-348.3L389-348.3z"/>
				</g>
				<g>
					<path class="st1" d="M406.3-329.5c0.5,1.6,1.4,3,2.5,4.2c1.1,1.2,2.5,2.1,4.2,2.8c1.7,0.7,3.7,1,6,1c0.9,0,1.8,0,2.7-0.1
						c0.9-0.1,1.8-0.2,2.5-0.4s1.5-0.3,2.2-0.5c0.6-0.2,1.2-0.4,1.6-0.6l-1-5.9c-0.8,0.4-1.9,0.7-3.1,0.9c-1.3,0.2-2.6,0.4-3.9,0.4
						c-2.1,0-3.7-0.4-5-1.3c-1.2-0.9-1.9-2.1-2.1-3.5h16.4c0-0.4,0.1-0.8,0.1-1.3c0-0.5,0-1,0-1.4c0-4.3-1.1-7.6-3.2-9.8
						c-2.1-2.2-5-3.3-8.6-3.3c-1.6,0-3.1,0.3-4.5,0.9c-1.5,0.6-2.8,1.4-3.9,2.6c-1.1,1.1-2,2.6-2.7,4.3s-1,3.7-1,6
						C405.5-332.8,405.8-331.1,406.3-329.5z M412.9-337.5c0.1-0.6,0.3-1.2,0.5-1.8c0.2-0.6,0.5-1.1,0.9-1.6c0.4-0.5,0.9-0.8,1.5-1.1
						s1.3-0.4,2.1-0.4c0.8,0,1.5,0.1,2.1,0.4c0.6,0.3,1,0.7,1.4,1.1c0.4,0.5,0.6,1,0.8,1.6s0.3,1.2,0.3,1.8H412.9z"/>
					<path class="st1" d="M417.7-348.4c3.6,0,6.5,1.1,8.6,3.3c2.1,2.2,3.2,5.5,3.2,9.8c0,0.4,0,0.9,0,1.4c0,0.5-0.1,0.9-0.1,1.3
						h-16.4c0.2,1.5,0.9,2.7,2.1,3.5c1.2,0.9,2.9,1.3,5,1.3c1.3,0,2.6-0.1,3.9-0.4c1.3-0.2,2.3-0.5,3.1-0.9l1,5.9
						c-0.4,0.2-0.9,0.4-1.6,0.6c-0.6,0.2-1.4,0.4-2.2,0.5c-0.8,0.1-1.6,0.3-2.5,0.4c-0.9,0.1-1.8,0.1-2.7,0.1c-2.3,0-4.3-0.3-6-1
						c-1.7-0.7-3.1-1.6-4.2-2.8c-1.1-1.2-1.9-2.6-2.5-4.2c-0.5-1.6-0.8-3.4-0.8-5.2c0-2.3,0.3-4.3,1-6c0.7-1.7,1.6-3.1,2.7-4.3
						c1.1-1.1,2.4-2,3.9-2.6C414.7-348.1,416.2-348.4,417.7-348.4L417.7-348.4z M412.9-337.5h9.6c0-0.6-0.1-1.2-0.3-1.8
						c-0.2-0.6-0.5-1.1-0.8-1.6c-0.4-0.5-0.8-0.8-1.4-1.1c-0.6-0.3-1.3-0.4-2.1-0.4c-0.8,0-1.5,0.1-2.1,0.4
						c-0.6,0.3-1.1,0.6-1.5,1.1c-0.4,0.5-0.7,1-0.9,1.6C413.2-338.7,413-338.1,412.9-337.5L412.9-337.5z"/>
				</g>
				<g>
					<path class="st1" d="M446.3-327.6c-0.9-0.1-1.6-0.2-2.1-0.4c-0.5-0.2-0.9-0.5-1.2-0.9c-0.3-0.4-0.5-0.8-0.6-1.3
						c-0.1-0.5-0.1-1.1-0.1-1.7v-27.8l-7.2,1.2v28.1c0,1.4,0.1,2.6,0.4,3.7s0.8,2,1.6,2.8c0.8,0.8,1.8,1.4,3.1,1.8s3,0.6,5.1,0.7
						L446.3-327.6z"/>
					<path class="st1" d="M442.3-359.8l-7.2,1.2v28.1c0,1.4,0.1,2.6,0.4,3.7c0.3,1.1,0.8,2,1.6,2.8c0.8,0.8,1.8,1.4,3.1,1.8
						c1.3,0.4,3,0.6,5.1,0.7l1-6c-0.9-0.1-1.6-0.2-2.1-0.4c-0.5-0.2-0.9-0.5-1.2-0.9c-0.3-0.4-0.5-0.8-0.6-1.3
						c-0.1-0.5-0.1-1.1-0.1-1.7V-359.8L442.3-359.8z"/>
				</g>
				<g>
					<path class="st1" d="M461.7-327.6c-0.9-0.1-1.6-0.2-2.1-0.4c-0.5-0.2-0.9-0.5-1.2-0.9c-0.3-0.4-0.5-0.8-0.6-1.3
						c-0.1-0.5-0.1-1.1-0.1-1.7v-27.8l-7.2,1.2v28.1c0,1.4,0.1,2.6,0.4,3.7s0.8,2,1.6,2.8c0.8,0.8,1.8,1.4,3.1,1.8s3,0.6,5.1,0.7
						L461.7-327.6z"/>
					<path class="st1" d="M457.7-359.8l-7.2,1.2v28.1c0,1.4,0.1,2.6,0.4,3.7c0.3,1.1,0.8,2,1.6,2.8c0.8,0.8,1.8,1.4,3.1,1.8
						c1.3,0.4,3,0.6,5.1,0.7l1-6c-0.9-0.1-1.6-0.2-2.1-0.4c-0.5-0.2-0.9-0.5-1.2-0.9c-0.3-0.4-0.5-0.8-0.6-1.3
						c-0.1-0.5-0.1-1.1-0.1-1.7V-359.8L457.7-359.8z"/>
				</g>
				<g>
					<path class="st1" d="M473-347.7v25.6h-7.2v-25.6H473z"/>
					<polygon class="st1" points="473,-347.7 465.8,-347.7 465.8,-322.1 473,-322.1 473,-347.7 					"/>
				</g>
				<path class="st2" d="M473.7-355.1c0,1.3-0.4,2.4-1.3,3.1c-0.8,0.8-1.9,1.1-3,1.1c-1.2,0-2.2-0.4-3-1.1c-0.9-0.8-1.3-1.8-1.3-3.1
					c0-1.3,0.4-2.4,1.3-3.1s1.9-1.1,3-1.1c1.2,0,2.2,0.4,3,1.1C473.3-357.4,473.7-356.4,473.7-355.1z"/>
			</g>
		</g>
		<g>
			<g>
				<path class="st1" d="M102.6-386.6l-21.1,20.1c-1.8,1.7-4.6,1.6-6.3-0.2l-40.2-42.3l0,0c5.4-5.1,13.8-4.9,18.9,0.5l3.1,3.3l0,0
					L77.2-384c0.9,0.9,2.3,0.9,3.2,0.1l13-12.4c0.9-0.9,2.3-0.8,3.2,0.1l6.2,6.5C103.6-388.8,103.5-387.4,102.6-386.6z"/>
				<path class="st1" d="M44.2-412.6c-3.3,0-6.6,1.2-9.2,3.7l0,0l40.2,42.3c0.9,0.9,2.1,1.4,3.3,1.4c1.1,0,2.2-0.4,3.1-1.2
					l21.1-20.1c0.9-0.9,0.9-2.3,0.1-3.2l-6.2-6.5c-0.4-0.5-1-0.7-1.6-0.7c-0.6,0-1.1,0.2-1.5,0.6l-13,12.4c-0.4,0.4-1,0.6-1.5,0.6
					c-0.6,0-1.2-0.2-1.6-0.7L57-405.1l0,0l-3.1-3.3C51.3-411.2,47.7-412.6,44.2-412.6L44.2-412.6z"/>
			</g>
			<g>
				<g>
					<path class="st1" d="M22.9-458h7.2v-13.9c0-0.9,0-1.8-0.1-2.6c-0.1-0.8-0.2-1.6-0.4-2.4c0.5-0.3,1-0.5,1.7-0.7
						c0.7-0.2,1.2-0.3,1.6-0.3c1.5,0,2.5,0.5,3.1,1.5c0.6,1,0.9,2.6,0.9,5v13.6h7.2v-14.4c0-1.7-0.1-3.3-0.4-4.8
						c-0.3-1.4-0.8-2.7-1.6-3.7s-1.8-1.8-3.1-2.4s-3-0.9-5-0.9c-1.1,0-2.4,0.2-3.7,0.6s-2.5,1-3.6,1.7c-0.7-0.6-1.7-1.2-2.8-1.7
						c-1.2-0.5-2.6-0.7-4.5-0.7c-0.9,0-1.9,0-2.9,0.1s-1.9,0.2-2.8,0.3c-0.9,0.1-1.8,0.3-2.6,0.5c-0.8,0.2-1.5,0.3-2.2,0.5v24.7h7.2
						v-19.7c0.5-0.1,0.9-0.1,1.4-0.2c0.5,0,1-0.1,1.4-0.1c1.5,0,2.5,0.5,3.1,1.5s0.9,2.6,0.9,5V-458z"/>
					<path class="st1" d="M33.9-484.1c-1.1,0-2.4,0.2-3.7,0.6s-2.5,1-3.6,1.7c-0.7-0.6-1.7-1.2-2.8-1.7c-1.2-0.5-2.6-0.7-4.5-0.7
						c-0.9,0-1.9,0-2.9,0.1c-1,0.1-1.9,0.2-2.8,0.3c-0.9,0.1-1.8,0.3-2.6,0.5c-0.8,0.2-1.5,0.3-2.2,0.5v24.7h7.2v-19.7
						c0.5-0.1,0.9-0.1,1.4-0.2c0.5,0,1-0.1,1.4-0.1c1.5,0,2.5,0.5,3.1,1.5c0.6,1,0.9,2.6,0.9,5v13.6h7.2v-13.9c0-0.9,0-1.8-0.1-2.6
						c-0.1-0.8-0.2-1.6-0.4-2.4c0.5-0.3,1-0.5,1.7-0.7c0.7-0.2,1.2-0.3,1.6-0.3c1.5,0,2.5,0.5,3.1,1.5c0.6,1,0.9,2.6,0.9,5v13.6h7.2
						v-14.4c0-1.7-0.1-3.3-0.4-4.8c-0.3-1.4-0.8-2.7-1.6-3.7c-0.8-1-1.8-1.8-3.1-2.4C37.7-483.9,36-484.1,33.9-484.1L33.9-484.1z"/>
				</g>
				<g>
					<path class="st1" d="M57.4-484.1c-0.8,0.1-1.6,0.2-2.4,0.3s-1.4,0.2-2.1,0.4c-0.6,0.1-1.2,0.3-1.6,0.4l0.9,5.8
						c0.9-0.3,1.9-0.6,3.1-0.8c1.2-0.2,2.4-0.3,3.6-0.3c1.8,0,3.1,0.4,3.9,1.1c0.7,0.7,1.1,1.7,1.1,3v0.7c-0.5-0.1-1-0.2-1.8-0.3
						c-0.7-0.1-1.6-0.1-2.5-0.1c-1.4,0-2.7,0.1-4,0.4c-1.3,0.3-2.4,0.7-3.4,1.3c-1,0.6-1.8,1.4-2.4,2.5c-0.6,1-0.9,2.3-0.9,3.8
						c0,1.6,0.3,2.9,0.8,3.9c0.5,1.1,1.3,1.9,2.2,2.6c1,0.7,2.1,1.1,3.5,1.4c1.3,0.3,2.8,0.4,4.5,0.4c2.6,0,4.9-0.2,6.7-0.5
						c1.8-0.3,3.3-0.6,4.3-0.8v-15.1c0-1.6-0.2-3-0.5-4.3c-0.4-1.3-1-2.4-1.8-3.3c-0.9-0.9-2-1.6-3.4-2.1c-1.4-0.5-3.2-0.7-5.3-0.7
						C59-484.2,58.2-484.2,57.4-484.1z M57.3-463.7c-0.8-0.4-1.1-1.2-1.1-2.4c0-0.6,0.1-1.1,0.4-1.5c0.3-0.4,0.6-0.7,1.1-0.9
						c0.5-0.2,1-0.4,1.6-0.5c0.6-0.1,1.2-0.1,1.9-0.1c0.5,0,1,0,1.6,0.1s1,0.1,1.3,0.2v5.5c-0.4,0.1-0.9,0.1-1.6,0.1
						c-0.6,0-1.3,0-2,0C59.1-463.1,58.1-463.3,57.3-463.7z"/>
					<path class="st1" d="M59.9-484.2c2.1,0,3.9,0.2,5.3,0.7c1.4,0.5,2.6,1.2,3.4,2.1c0.9,0.9,1.5,2,1.8,3.3
						c0.4,1.3,0.5,2.7,0.5,4.3v15.1c-1,0.2-2.5,0.5-4.3,0.8c-1.8,0.3-4.1,0.5-6.7,0.5c-1.7,0-3.2-0.1-4.5-0.4
						c-1.3-0.3-2.5-0.8-3.5-1.4c-1-0.7-1.7-1.5-2.2-2.6c-0.5-1.1-0.8-2.4-0.8-3.9c0-1.5,0.3-2.8,0.9-3.8c0.6-1,1.4-1.9,2.4-2.5
						c1-0.6,2.2-1.1,3.4-1.3c1.3-0.3,2.6-0.4,4-0.4c0.9,0,1.8,0,2.5,0.1c0.7,0.1,1.3,0.2,1.8,0.3v-0.7c0-1.2-0.4-2.2-1.1-3
						c-0.7-0.7-2-1.1-3.9-1.1c-1.2,0-2.4,0.1-3.6,0.3c-1.2,0.2-2.2,0.4-3.1,0.8l-0.9-5.8c0.4-0.1,0.9-0.3,1.6-0.4
						c0.6-0.1,1.3-0.3,2.1-0.4c0.7-0.1,1.5-0.2,2.4-0.3C58.2-484.2,59-484.2,59.9-484.2L59.9-484.2z M60.5-463.1c0.7,0,1.4,0,2,0
						c0.6,0,1.2-0.1,1.6-0.1v-5.5c-0.3-0.1-0.7-0.1-1.3-0.2c-0.6-0.1-1.1-0.1-1.6-0.1c-0.7,0-1.3,0-1.9,0.1
						c-0.6,0.1-1.1,0.2-1.6,0.5c-0.5,0.2-0.8,0.5-1.1,0.9c-0.3,0.4-0.4,0.9-0.4,1.5c0,1.1,0.4,1.9,1.1,2.4
						C58.1-463.3,59.1-463.1,60.5-463.1L60.5-463.1z"/>
				</g>
				<g>
					<path class="st1" d="M77.6-458h7.2v-19.7c0.5-0.1,1-0.1,1.6-0.2s1.1-0.1,1.7-0.1c1.7,0,2.8,0.5,3.4,1.5s0.9,2.6,0.9,5v13.6h7.2
						v-14.4c0-1.7-0.2-3.3-0.5-4.8c-0.4-1.4-1-2.7-1.8-3.7c-0.8-1-2-1.8-3.4-2.4c-1.4-0.6-3.2-0.9-5.4-0.9c-2.1,0-4.2,0.2-6.1,0.5
						s-3.5,0.6-4.8,1V-458z"/>
					<path class="st1" d="M88.5-484.1c-2.1,0-4.2,0.2-6.1,0.5c-1.9,0.3-3.5,0.6-4.8,1v24.7h7.2v-19.7c0.5-0.1,1-0.1,1.6-0.2
						c0.6,0,1.1-0.1,1.7-0.1c1.7,0,2.8,0.5,3.4,1.5c0.6,1,0.9,2.6,0.9,5v13.6h7.2v-14.4c0-1.7-0.2-3.3-0.5-4.8
						c-0.4-1.4-1-2.7-1.8-3.7c-0.8-1-2-1.8-3.4-2.4C92.4-483.9,90.6-484.1,88.5-484.1L88.5-484.1z"/>
				</g>
				<g>
					<path class="st1" d="M105.8-465.3c0.5,1.6,1.4,3,2.5,4.2c1.1,1.2,2.5,2.1,4.2,2.8c1.7,0.7,3.7,1,6,1c0.9,0,1.8,0,2.7-0.1
						c0.9-0.1,1.8-0.2,2.5-0.4s1.5-0.3,2.2-0.5c0.6-0.2,1.2-0.4,1.6-0.6l-1-5.9c-0.8,0.4-1.9,0.7-3.1,0.9c-1.3,0.2-2.6,0.4-3.9,0.4
						c-2.1,0-3.7-0.4-5-1.3c-1.2-0.9-1.9-2.1-2.1-3.5h16.4c0-0.4,0.1-0.8,0.1-1.3c0-0.5,0-1,0-1.4c0-4.3-1.1-7.6-3.2-9.8
						c-2.1-2.2-5-3.3-8.6-3.3c-1.6,0-3.1,0.3-4.5,0.9c-1.5,0.6-2.8,1.4-3.9,2.6c-1.1,1.1-2,2.6-2.7,4.3s-1,3.7-1,6
						C105-468.7,105.2-467,105.8-465.3z M112.4-473.4c0.1-0.6,0.3-1.2,0.5-1.8c0.2-0.6,0.5-1.1,0.9-1.6c0.4-0.5,0.9-0.8,1.5-1.1
						s1.3-0.4,2.1-0.4c0.8,0,1.5,0.1,2.1,0.4c0.6,0.3,1,0.7,1.4,1.1c0.4,0.5,0.6,1,0.8,1.6s0.3,1.2,0.3,1.8H112.4z"/>
					<path class="st1" d="M117.2-484.2c3.6,0,6.5,1.1,8.6,3.3c2.1,2.2,3.2,5.5,3.2,9.8c0,0.4,0,0.9,0,1.4c0,0.5-0.1,0.9-0.1,1.3
						h-16.4c0.2,1.5,0.9,2.7,2.1,3.5c1.2,0.9,2.9,1.3,5,1.3c1.3,0,2.6-0.1,3.9-0.4c1.3-0.2,2.3-0.5,3.1-0.9l1,5.9
						c-0.4,0.2-0.9,0.4-1.6,0.6c-0.6,0.2-1.4,0.4-2.2,0.5c-0.8,0.1-1.6,0.3-2.5,0.4c-0.9,0.1-1.8,0.1-2.7,0.1c-2.3,0-4.3-0.3-6-1
						c-1.7-0.7-3.1-1.6-4.2-2.8c-1.1-1.2-1.9-2.6-2.5-4.2c-0.5-1.6-0.8-3.4-0.8-5.2c0-2.3,0.3-4.3,1-6c0.7-1.7,1.6-3.1,2.7-4.3
						c1.1-1.1,2.4-2,3.9-2.6C114.1-483.9,115.7-484.2,117.2-484.2L117.2-484.2z M112.4-473.4h9.6c0-0.6-0.1-1.2-0.3-1.8
						c-0.2-0.6-0.5-1.1-0.8-1.6c-0.4-0.5-0.8-0.8-1.4-1.1c-0.6-0.3-1.3-0.4-2.1-0.4c-0.8,0-1.5,0.1-2.1,0.4
						c-0.6,0.3-1.1,0.6-1.5,1.1c-0.4,0.5-0.7,1-0.9,1.6C112.7-474.6,112.5-474,112.4-473.4L112.4-473.4z"/>
				</g>
				<g>
					<path class="st1" d="M145.8-463.5c-0.9-0.1-1.6-0.2-2.1-0.4c-0.5-0.2-0.9-0.5-1.2-0.9c-0.3-0.4-0.5-0.8-0.6-1.3
						c-0.1-0.5-0.1-1.1-0.1-1.7v-27.8l-7.2,1.2v28.1c0,1.4,0.1,2.6,0.4,3.7s0.8,2,1.6,2.8c0.8,0.8,1.8,1.4,3.1,1.8s3,0.6,5.1,0.7
						L145.8-463.5z"/>
					<path class="st1" d="M141.8-495.7l-7.2,1.2v28.1c0,1.4,0.1,2.6,0.4,3.7c0.3,1.1,0.8,2,1.6,2.8c0.8,0.8,1.8,1.4,3.1,1.8
						c1.3,0.4,3,0.6,5.1,0.7l1-6c-0.9-0.1-1.6-0.2-2.1-0.4c-0.5-0.2-0.9-0.5-1.2-0.9c-0.3-0.4-0.5-0.8-0.6-1.3
						c-0.1-0.5-0.1-1.1-0.1-1.7V-495.7L141.8-495.7z"/>
				</g>
				<g>
					<path class="st1" d="M161.1-463.5c-0.9-0.1-1.6-0.2-2.1-0.4c-0.5-0.2-0.9-0.5-1.2-0.9c-0.3-0.4-0.5-0.8-0.6-1.3
						c-0.1-0.5-0.1-1.1-0.1-1.7v-27.8l-7.2,1.2v28.1c0,1.4,0.1,2.6,0.4,3.7s0.8,2,1.6,2.8c0.8,0.8,1.8,1.4,3.1,1.8s3,0.6,5.1,0.7
						L161.1-463.5z"/>
					<path class="st1" d="M157.1-495.7l-7.2,1.2v28.1c0,1.4,0.1,2.6,0.4,3.7c0.3,1.1,0.8,2,1.6,2.8c0.8,0.8,1.8,1.4,3.1,1.8
						c1.3,0.4,3,0.6,5.1,0.7l1-6c-0.9-0.1-1.6-0.2-2.1-0.4c-0.5-0.2-0.9-0.5-1.2-0.9c-0.3-0.4-0.5-0.8-0.6-1.3
						c-0.1-0.5-0.1-1.1-0.1-1.7V-495.7L157.1-495.7z"/>
				</g>
				<g>
					<path class="st1" d="M172.5-483.6v25.6h-7.2v-25.6H172.5z"/>
					<polygon class="st1" points="172.5,-483.6 165.3,-483.6 165.3,-458 172.5,-458 172.5,-483.6 					"/>
				</g>
				<path class="st2" d="M173.2-490.9c0,1.3-0.4,2.4-1.3,3.1c-0.8,0.8-1.9,1.1-3,1.1c-1.2,0-2.2-0.4-3-1.1c-0.9-0.8-1.3-1.8-1.3-3.1
					c0-1.3,0.4-2.4,1.3-3.1s1.9-1.1,3-1.1c1.2,0,2.2,0.4,3,1.1C172.7-493.3,173.2-492.3,173.2-490.9z"/>
			</g>
		</g>
		<g>
			<g>
				<path class="st1" d="M218.5-611.7l20.6,20.6c1.8,1.8,1.8,4.6,0,6.3l-41.3,41.3l0,0c-5.2-5.2-5.2-13.7,0-19l3.2-3.2l0,0
					l20.6-20.6c0.9-0.9,0.9-2.3,0-3.2L209-602.2c-0.9-0.9-0.9-2.3,0-3.2l6.3-6.3C216.2-612.6,217.6-612.6,218.5-611.7z"/>
				<path class="st1" d="M216.9-612.4c-0.6,0-1.1,0.2-1.6,0.7l-6.3,6.3c-0.9,0.9-0.9,2.3,0,3.2l12.7,12.7c0.9,0.9,0.9,2.3,0,3.2
					l-20.6,20.6l0,0l-3.2,3.2c-5.2,5.2-5.2,13.7,0,19l0,0l41.3-41.3c1.8-1.8,1.8-4.6,0-6.3l-20.6-20.6
					C218.1-612.2,217.5-612.4,216.9-612.4L216.9-612.4z"/>
			</g>
			<g>
				<path class="st1" d="M403.2-522.4L382-502.3c-1.8,1.7-4.6,1.6-6.3-0.2l-40.2-42.3l0,0c5.4-5.1,13.8-4.9,18.9,0.5l3.1,3.3l0,0
					l20.1,21.1c0.9,0.9,2.3,0.9,3.2,0.1l13-12.4c0.9-0.9,2.3-0.8,3.2,0.1l6.2,6.5C404.1-524.7,404.1-523.3,403.2-522.4z"/>
				<path class="st1" d="M344.7-548.5c-3.3,0-6.6,1.2-9.2,3.7l0,0l40.2,42.3c0.9,0.9,2.1,1.4,3.3,1.4c1.1,0,2.2-0.4,3.1-1.2
					l21.1-20.1c0.9-0.9,0.9-2.3,0.1-3.2l-6.2-6.5c-0.4-0.5-1-0.7-1.6-0.7c-0.6,0-1.1,0.2-1.5,0.6l-13,12.4c-0.4,0.4-1,0.6-1.5,0.6
					c-0.6,0-1.2-0.2-1.6-0.7L357.6-541l0,0l-3.1-3.3C351.8-547.1,348.3-548.5,344.7-548.5L344.7-548.5z"/>
			</g>
			<g>
				<path class="st1" d="M169.9-632.4L169.9-632.4c5.3,5.3,5.3,13.8,0,19l-23.8,23.8c-0.9,0.9-0.9,2.3,0,3.2c0,0,0,0,0,0s0,0,0,0
					l12.7,12.7c0.9,0.9,0.9,2.3,0,3.2l-6.3,6.3c-0.9,0.9-2.3,0.9-3.2,0l-20.6-20.6c-1.8-1.8-1.8-4.6,0-6.3l28.6-28.6l0,0
					L169.9-632.4z"/>
				<path class="st1" d="M169.9-632.4l-12.7,12.7l0,0l-28.6,28.6c-1.8,1.8-1.8,4.6,0,6.3l20.6,20.6c0.4,0.4,1,0.7,1.6,0.7
					c0.6,0,1.1-0.2,1.6-0.7l6.3-6.3c0.9-0.9,0.9-2.3,0-3.2l-12.7-12.7c0,0,0,0,0,0s0,0,0,0c-0.9-0.9-0.8-2.3,0-3.2l23.8-23.8
					C175.2-618.6,175.2-627.1,169.9-632.4L169.9-632.4L169.9-632.4z"/>
			</g>
			<path class="st2" d="M196.8-631.5l5,1.7c1.7,0.6,2.6,2.5,2,4.2L177-547.8c-0.6,1.7-2.5,2.6-4.2,2l-5-1.7c-1.7-0.6-2.6-2.5-2-4.2
				l26.9-77.7C193.2-631.1,195.1-632,196.8-631.5z"/>
			<g>
				<g>
					<path class="st1" d="M323.4-593.9h7.2v-13.9c0-0.9,0-1.8-0.1-2.6c-0.1-0.8-0.2-1.6-0.4-2.4c0.5-0.3,1-0.5,1.7-0.7
						c0.7-0.2,1.2-0.3,1.6-0.3c1.5,0,2.5,0.5,3.1,1.5c0.6,1,0.9,2.6,0.9,5v13.6h7.2v-14.4c0-1.7-0.1-3.3-0.4-4.8
						c-0.3-1.4-0.8-2.7-1.6-3.7s-1.8-1.8-3.1-2.4s-3-0.9-5-0.9c-1.1,0-2.4,0.2-3.7,0.6s-2.5,1-3.6,1.7c-0.7-0.6-1.7-1.2-2.8-1.7
						c-1.2-0.5-2.6-0.7-4.5-0.7c-0.9,0-1.9,0-2.9,0.1s-1.9,0.2-2.8,0.3c-0.9,0.1-1.8,0.3-2.6,0.5c-0.8,0.2-1.5,0.3-2.2,0.5v24.7h7.2
						v-19.7c0.5-0.1,0.9-0.1,1.4-0.2c0.5,0,1-0.1,1.4-0.1c1.5,0,2.5,0.5,3.1,1.5s0.9,2.6,0.9,5V-593.9z"/>
					<path class="st1" d="M334.5-620c-1.1,0-2.4,0.2-3.7,0.6s-2.5,1-3.6,1.7c-0.7-0.6-1.7-1.2-2.8-1.7c-1.2-0.5-2.6-0.7-4.5-0.7
						c-0.9,0-1.9,0-2.9,0.1c-1,0.1-1.9,0.2-2.8,0.3c-0.9,0.1-1.8,0.3-2.6,0.5c-0.8,0.2-1.5,0.3-2.2,0.5v24.7h7.2v-19.7
						c0.5-0.1,0.9-0.1,1.4-0.2c0.5,0,1-0.1,1.4-0.1c1.5,0,2.5,0.5,3.1,1.5c0.6,1,0.9,2.6,0.9,5v13.6h7.2v-13.9c0-0.9,0-1.8-0.1-2.6
						c-0.1-0.8-0.2-1.6-0.4-2.4c0.5-0.3,1-0.5,1.7-0.7c0.7-0.2,1.2-0.3,1.6-0.3c1.5,0,2.5,0.5,3.1,1.5c0.6,1,0.9,2.6,0.9,5v13.6h7.2
						v-14.4c0-1.7-0.1-3.3-0.4-4.8c-0.3-1.4-0.8-2.7-1.6-3.7c-0.8-1-1.8-1.8-3.1-2.4C338.2-619.7,336.5-620,334.5-620L334.5-620z"/>
				</g>
				<g>
					<path class="st1" d="M357.9-620c-0.8,0.1-1.6,0.2-2.4,0.3s-1.4,0.2-2.1,0.4c-0.6,0.1-1.2,0.3-1.6,0.4l0.9,5.8
						c0.9-0.3,1.9-0.6,3.1-0.8c1.2-0.2,2.4-0.3,3.6-0.3c1.8,0,3.1,0.4,3.9,1.1c0.7,0.7,1.1,1.7,1.1,3v0.7c-0.5-0.1-1-0.2-1.8-0.3
						c-0.7-0.1-1.6-0.1-2.5-0.1c-1.4,0-2.7,0.1-4,0.4c-1.3,0.3-2.4,0.7-3.4,1.3c-1,0.6-1.8,1.4-2.4,2.5c-0.6,1-0.9,2.3-0.9,3.8
						c0,1.6,0.3,2.9,0.8,3.9c0.5,1.1,1.3,1.9,2.2,2.6c1,0.7,2.1,1.1,3.5,1.4c1.3,0.3,2.8,0.4,4.5,0.4c2.6,0,4.9-0.2,6.7-0.5
						c1.8-0.3,3.3-0.6,4.3-0.8v-15.1c0-1.6-0.2-3-0.5-4.3c-0.4-1.3-1-2.4-1.8-3.3c-0.9-0.9-2-1.6-3.4-2.1c-1.4-0.5-3.2-0.7-5.3-0.7
						C359.6-620.1,358.7-620.1,357.9-620z M357.9-599.6c-0.8-0.4-1.1-1.2-1.1-2.4c0-0.6,0.1-1.1,0.4-1.5c0.3-0.4,0.6-0.7,1.1-0.9
						c0.5-0.2,1-0.4,1.6-0.5c0.6-0.1,1.2-0.1,1.9-0.1c0.5,0,1,0,1.6,0.1s1,0.1,1.3,0.2v5.5c-0.4,0.1-0.9,0.1-1.6,0.1
						c-0.6,0-1.3,0-2,0C359.7-598.9,358.6-599.1,357.9-599.6z"/>
					<path class="st1" d="M360.4-620.1c2.1,0,3.9,0.2,5.3,0.7c1.4,0.5,2.6,1.2,3.4,2.1c0.9,0.9,1.5,2,1.8,3.3
						c0.4,1.3,0.5,2.7,0.5,4.3v15.1c-1,0.2-2.5,0.5-4.3,0.8c-1.8,0.3-4.1,0.5-6.7,0.5c-1.7,0-3.2-0.1-4.5-0.4
						c-1.3-0.3-2.5-0.8-3.5-1.4c-1-0.7-1.7-1.5-2.2-2.6c-0.5-1.1-0.8-2.4-0.8-3.9c0-1.5,0.3-2.8,0.9-3.8c0.6-1,1.4-1.9,2.4-2.5
						c1-0.6,2.2-1.1,3.4-1.3c1.3-0.3,2.6-0.4,4-0.4c0.9,0,1.8,0,2.5,0.1c0.7,0.1,1.3,0.2,1.8,0.3v-0.7c0-1.2-0.4-2.2-1.1-3
						c-0.7-0.7-2-1.1-3.9-1.1c-1.2,0-2.4,0.1-3.6,0.3c-1.2,0.2-2.2,0.4-3.1,0.8l-0.9-5.8c0.4-0.1,0.9-0.3,1.6-0.4
						c0.6-0.1,1.3-0.3,2.1-0.4c0.7-0.1,1.5-0.2,2.4-0.3C358.7-620.1,359.6-620.1,360.4-620.1L360.4-620.1z M361-598.9
						c0.7,0,1.4,0,2,0c0.6,0,1.2-0.1,1.6-0.1v-5.5c-0.3-0.1-0.7-0.1-1.3-0.2c-0.6-0.1-1.1-0.1-1.6-0.1c-0.7,0-1.3,0-1.9,0.1
						c-0.6,0.1-1.1,0.2-1.6,0.5c-0.5,0.2-0.8,0.5-1.1,0.9c-0.3,0.4-0.4,0.9-0.4,1.5c0,1.1,0.4,1.9,1.1,2.4
						C358.6-599.1,359.7-598.9,361-598.9L361-598.9z"/>
				</g>
				<g>
					<path class="st1" d="M378.1-593.9h7.2v-19.7c0.5-0.1,1-0.1,1.6-0.2s1.1-0.1,1.7-0.1c1.7,0,2.8,0.5,3.4,1.5s0.9,2.6,0.9,5v13.6
						h7.2v-14.4c0-1.7-0.2-3.3-0.5-4.8c-0.4-1.4-1-2.7-1.8-3.7c-0.8-1-2-1.8-3.4-2.4c-1.4-0.6-3.2-0.9-5.4-0.9
						c-2.1,0-4.2,0.2-6.1,0.5s-3.5,0.6-4.8,1V-593.9z"/>
					<path class="st1" d="M389-620c-2.1,0-4.2,0.2-6.1,0.5c-1.9,0.3-3.5,0.6-4.8,1v24.7h7.2v-19.7c0.5-0.1,1-0.1,1.6-0.2
						c0.6,0,1.1-0.1,1.7-0.1c1.7,0,2.8,0.5,3.4,1.5c0.6,1,0.9,2.6,0.9,5v13.6h7.2v-14.4c0-1.7-0.2-3.3-0.5-4.8
						c-0.4-1.4-1-2.7-1.8-3.7c-0.8-1-2-1.8-3.4-2.4C393-619.7,391.2-620,389-620L389-620z"/>
				</g>
				<g>
					<path class="st1" d="M406.3-601.2c0.5,1.6,1.4,3,2.5,4.2c1.1,1.2,2.5,2.1,4.2,2.8c1.7,0.7,3.7,1,6,1c0.9,0,1.8,0,2.7-0.1
						c0.9-0.1,1.8-0.2,2.5-0.4s1.5-0.3,2.2-0.5c0.6-0.2,1.2-0.4,1.6-0.6l-1-5.9c-0.8,0.4-1.9,0.7-3.1,0.9c-1.3,0.2-2.6,0.4-3.9,0.4
						c-2.1,0-3.7-0.4-5-1.3c-1.2-0.9-1.9-2.1-2.1-3.5h16.4c0-0.4,0.1-0.8,0.1-1.3c0-0.5,0-1,0-1.4c0-4.3-1.1-7.6-3.2-9.8
						c-2.1-2.2-5-3.3-8.6-3.3c-1.6,0-3.1,0.3-4.5,0.9c-1.5,0.6-2.8,1.4-3.9,2.6c-1.1,1.1-2,2.6-2.7,4.3s-1,3.7-1,6
						C405.5-604.6,405.8-602.8,406.3-601.2z M412.9-609.2c0.1-0.6,0.3-1.2,0.5-1.8c0.2-0.6,0.5-1.1,0.9-1.6c0.4-0.5,0.9-0.8,1.5-1.1
						s1.3-0.4,2.1-0.4c0.8,0,1.5,0.1,2.1,0.4c0.6,0.3,1,0.7,1.4,1.1c0.4,0.5,0.6,1,0.8,1.6s0.3,1.2,0.3,1.8H412.9z"/>
					<path class="st1" d="M417.7-620.1c3.6,0,6.5,1.1,8.6,3.3c2.1,2.2,3.2,5.5,3.2,9.8c0,0.4,0,0.9,0,1.4c0,0.5-0.1,0.9-0.1,1.3
						h-16.4c0.2,1.5,0.9,2.7,2.1,3.5c1.2,0.9,2.9,1.3,5,1.3c1.3,0,2.6-0.1,3.9-0.4c1.3-0.2,2.3-0.5,3.1-0.9l1,5.9
						c-0.4,0.2-0.9,0.4-1.6,0.6c-0.6,0.2-1.4,0.4-2.2,0.5c-0.8,0.1-1.6,0.3-2.5,0.4c-0.9,0.1-1.8,0.1-2.7,0.1c-2.3,0-4.3-0.3-6-1
						c-1.7-0.7-3.1-1.6-4.2-2.8c-1.1-1.2-1.9-2.6-2.5-4.2c-0.5-1.6-0.8-3.4-0.8-5.2c0-2.3,0.3-4.3,1-6c0.7-1.7,1.6-3.1,2.7-4.3
						c1.1-1.1,2.4-2,3.9-2.6C414.7-619.8,416.2-620.1,417.7-620.1L417.7-620.1z M412.9-609.2h9.6c0-0.6-0.1-1.2-0.3-1.8
						c-0.2-0.6-0.5-1.1-0.8-1.6c-0.4-0.5-0.8-0.8-1.4-1.1c-0.6-0.3-1.3-0.4-2.1-0.4c-0.8,0-1.5,0.1-2.1,0.4
						c-0.6,0.3-1.1,0.6-1.5,1.1c-0.4,0.5-0.7,1-0.9,1.6C413.2-610.5,413-609.8,412.9-609.2L412.9-609.2z"/>
				</g>
				<g>
					<path class="st1" d="M446.3-599.4c-0.9-0.1-1.6-0.2-2.1-0.4c-0.5-0.2-0.9-0.5-1.2-0.9c-0.3-0.4-0.5-0.8-0.6-1.3
						c-0.1-0.5-0.1-1.1-0.1-1.7v-27.8l-7.2,1.2v28.1c0,1.4,0.1,2.6,0.4,3.7s0.8,2,1.6,2.8c0.8,0.8,1.8,1.4,3.1,1.8s3,0.6,5.1,0.7
						L446.3-599.4z"/>
					<path class="st1" d="M442.3-631.6l-7.2,1.2v28.1c0,1.4,0.1,2.6,0.4,3.7c0.3,1.1,0.8,2,1.6,2.8c0.8,0.8,1.8,1.4,3.1,1.8
						c1.3,0.4,3,0.6,5.1,0.7l1-6c-0.9-0.1-1.6-0.2-2.1-0.4c-0.5-0.2-0.9-0.5-1.2-0.9c-0.3-0.4-0.5-0.8-0.6-1.3
						c-0.1-0.5-0.1-1.1-0.1-1.7V-631.6L442.3-631.6z"/>
				</g>
				<g>
					<path class="st1" d="M461.7-599.4c-0.9-0.1-1.6-0.2-2.1-0.4c-0.5-0.2-0.9-0.5-1.2-0.9c-0.3-0.4-0.5-0.8-0.6-1.3
						c-0.1-0.5-0.1-1.1-0.1-1.7v-27.8l-7.2,1.2v28.1c0,1.4,0.1,2.6,0.4,3.7s0.8,2,1.6,2.8c0.8,0.8,1.8,1.4,3.1,1.8s3,0.6,5.1,0.7
						L461.7-599.4z"/>
					<path class="st1" d="M457.7-631.6l-7.2,1.2v28.1c0,1.4,0.1,2.6,0.4,3.7c0.3,1.1,0.8,2,1.6,2.8c0.8,0.8,1.8,1.4,3.1,1.8
						c1.3,0.4,3,0.6,5.1,0.7l1-6c-0.9-0.1-1.6-0.2-2.1-0.4c-0.5-0.2-0.9-0.5-1.2-0.9c-0.3-0.4-0.5-0.8-0.6-1.3
						c-0.1-0.5-0.1-1.1-0.1-1.7V-631.6L457.7-631.6z"/>
				</g>
				<g>
					<path class="st1" d="M473-619.4v25.6h-7.2v-25.6H473z"/>
					<polygon class="st1" points="473,-619.4 465.8,-619.4 465.8,-593.9 473,-593.9 473,-619.4 					"/>
				</g>
			</g>
		</g>
	</g>
</pattern>
<g id="Capa_4" class="st3">
	<g class="st4">
		<path class="st1" d="M489.2,560.6l20.6,20.6c1.8,1.8,1.8,4.6,0,6.3l-41.3,41.3l0,0c-5.2-5.2-5.2-13.7,0-19l3.2-3.2l0,0l20.6-20.6
			c0.9-0.9,0.9-2.3,0-3.2l-12.7-12.7c-0.9-0.9-0.9-2.3,0-3.2l6.3-6.3C486.9,559.8,488.3,559.8,489.2,560.6z"/>
		<path class="st1" d="M487.6,560c-0.6,0-1.1,0.2-1.6,0.7l-6.3,6.3c-0.9,0.9-0.9,2.3,0,3.2l12.7,12.7c0.9,0.9,0.9,2.3,0,3.2
			l-20.6,20.6l0,0l-3.2,3.2c-5.2,5.2-5.2,13.7,0,19l0,0l41.3-41.3c1.8-1.8,1.8-4.6,0-6.3l-20.6-20.6
			C488.7,560.2,488.2,560,487.6,560L487.6,560z"/>
	</g>
	<g class="st4">
		<path class="st1" d="M627.8,657.9l-21.1,20.1c-1.8,1.7-4.6,1.6-6.3-0.2l-40.2-42.3l0,0c5.4-5.1,13.8-4.9,18.9,0.5l3.1,3.3l0,0
			l20.1,21.1c0.9,0.9,2.3,0.9,3.2,0.1l13-12.4c0.9-0.9,2.3-0.8,3.2,0.1l6.2,6.5C628.8,655.7,628.7,657.1,627.8,657.9z"/>
		<path class="st1" d="M569.4,631.9c-3.3,0-6.6,1.2-9.2,3.7l0,0l40.2,42.3c0.9,0.9,2.1,1.4,3.3,1.4c1.1,0,2.2-0.4,3.1-1.2l21.1-20.1
			c0.9-0.9,0.9-2.3,0.1-3.2l-6.2-6.5c-0.4-0.5-1-0.7-1.6-0.7c-0.6,0-1.1,0.2-1.5,0.6l-13,12.4c-0.4,0.4-1,0.6-1.5,0.6
			c-0.6,0-1.2-0.2-1.6-0.7l-20.1-21.1l0,0l-3.1-3.3C576.5,633.3,572.9,631.9,569.4,631.9L569.4,631.9z"/>
	</g>
	<g class="st4">
		<path class="st1" d="M440.6,540L440.6,540c5.3,5.3,5.3,13.8,0,19l-23.8,23.8c-0.9,0.9-0.9,2.3,0,3.2c0,0,0,0,0,0c0,0,0,0,0,0
			l12.7,12.7c0.9,0.9,0.9,2.3,0,3.2l-6.3,6.3c-0.9,0.9-2.3,0.9-3.2,0l-20.6-20.6c-1.8-1.8-1.8-4.6,0-6.3l28.6-28.6l0,0L440.6,540z"
			/>
		<path class="st1" d="M440.6,540l-12.7,12.7l0,0l-28.6,28.6c-1.8,1.8-1.8,4.6,0,6.3l20.6,20.6c0.4,0.4,1,0.7,1.6,0.7
			c0.6,0,1.1-0.2,1.6-0.7l6.3-6.3c0.9-0.9,0.9-2.3,0-3.2L416.8,586c0,0,0,0,0,0s0,0,0,0c-0.9-0.9-0.8-2.3,0-3.2l23.8-23.8
			C445.9,553.8,445.9,545.3,440.6,540L440.6,540L440.6,540z"/>
	</g>
	<g class="st4">
		<path class="st2" d="M467.5,540.9l5,1.7c1.7,0.6,2.6,2.5,2,4.2l-26.9,77.7c-0.6,1.7-2.5,2.6-4.2,2l-5-1.7c-1.7-0.6-2.6-2.5-2-4.2
			l26.9-77.7C463.9,541.2,465.7,540.3,467.5,540.9z"/>
	</g>
	<g class="st4">
		<circle class="st2" cx="543.8" cy="485.9" r="16.3"/>
	</g>
	<g class="st4">
		<g>
			<path class="st1" d="M594.1,564.9c0-2.3-0.3-4-0.9-5s-1.6-1.5-3.1-1.5c-0.5,0-0.9,0-1.4,0.1c-0.5,0-1,0.1-1.4,0.2v19.7H580v-24.7
				c0.6-0.2,1.3-0.3,2.2-0.5c0.8-0.2,1.7-0.3,2.6-0.5c0.9-0.1,1.9-0.3,2.8-0.3s1.9-0.1,2.9-0.1c1.8,0,3.3,0.2,4.5,0.7
				c1.1,0.5,2.1,1,2.8,1.7c1-0.7,2.2-1.3,3.6-1.7s2.6-0.6,3.7-0.6c2,0,3.7,0.3,5,0.9s2.4,1.4,3.1,2.4s1.3,2.3,1.6,3.7
				c0.3,1.4,0.4,3,0.4,4.8v14.4h-7.2v-13.6c0-2.3-0.3-4-0.9-5c-0.6-1-1.6-1.5-3.1-1.5c-0.4,0-0.9,0.1-1.6,0.3
				c-0.7,0.2-1.3,0.4-1.7,0.7c0.2,0.7,0.4,1.5,0.4,2.4c0.1,0.8,0.1,1.7,0.1,2.6v13.9h-7.2V564.9z"/>
			<path class="st1" d="M605.1,552.3c-1.1,0-2.4,0.2-3.7,0.6s-2.5,1-3.6,1.7c-0.7-0.6-1.7-1.2-2.8-1.7c-1.2-0.5-2.6-0.7-4.5-0.7
				c-0.9,0-1.9,0-2.9,0.1c-1,0.1-1.9,0.2-2.8,0.3c-0.9,0.1-1.8,0.3-2.6,0.5c-0.8,0.2-1.5,0.3-2.2,0.5v24.7h7.2v-19.7
				c0.5-0.1,0.9-0.1,1.4-0.2c0.5,0,1-0.1,1.4-0.1c1.5,0,2.5,0.5,3.1,1.5c0.6,1,0.9,2.6,0.9,5v13.6h7.2v-13.9c0-0.9,0-1.8-0.1-2.6
				c-0.1-0.8-0.2-1.6-0.4-2.4c0.5-0.3,1-0.5,1.7-0.7c0.7-0.2,1.2-0.3,1.6-0.3c1.5,0,2.5,0.5,3.1,1.5c0.6,1,0.9,2.6,0.9,5v13.6h7.2
				v-14.4c0-1.7-0.1-3.3-0.4-4.8c-0.3-1.4-0.8-2.7-1.6-3.7c-0.8-1-1.8-1.8-3.1-2.4C608.9,552.6,607.2,552.3,605.1,552.3L605.1,552.3
				z"/>
		</g>
		<g>
			<path class="st1" d="M631.1,552.2c2.1,0,3.9,0.2,5.3,0.7c1.4,0.5,2.6,1.2,3.4,2.1c0.9,0.9,1.5,2,1.8,3.3c0.4,1.3,0.5,2.7,0.5,4.3
				v15.1c-1,0.2-2.5,0.5-4.3,0.8c-1.8,0.3-4.1,0.5-6.7,0.5c-1.7,0-3.2-0.1-4.5-0.4c-1.3-0.3-2.5-0.8-3.5-1.4c-1-0.7-1.7-1.5-2.2-2.6
				c-0.5-1.1-0.8-2.4-0.8-3.9c0-1.5,0.3-2.8,0.9-3.8c0.6-1,1.4-1.9,2.4-2.5c1-0.6,2.2-1.1,3.4-1.3c1.3-0.3,2.6-0.4,4-0.4
				c0.9,0,1.8,0,2.5,0.1c0.7,0.1,1.3,0.2,1.8,0.3v-0.7c0-1.2-0.4-2.2-1.1-3c-0.7-0.7-2-1.1-3.9-1.1c-1.2,0-2.4,0.1-3.6,0.3
				c-1.2,0.2-2.2,0.4-3.1,0.8l-0.9-5.8c0.4-0.1,0.9-0.3,1.6-0.4c0.6-0.1,1.3-0.3,2.1-0.4s1.5-0.2,2.4-0.3
				C629.4,552.3,630.2,552.2,631.1,552.2z M631.7,573.4c0.7,0,1.4,0,2,0c0.6,0,1.2-0.1,1.6-0.1v-5.5c-0.3-0.1-0.7-0.1-1.3-0.2
				s-1.1-0.1-1.6-0.1c-0.7,0-1.3,0-1.9,0.1c-0.6,0.1-1.1,0.2-1.6,0.5c-0.5,0.2-0.8,0.5-1.1,0.9c-0.3,0.4-0.4,0.9-0.4,1.5
				c0,1.1,0.4,1.9,1.1,2.4C629.3,573.2,630.3,573.4,631.7,573.4z"/>
			<path class="st1" d="M631.1,552.2c-0.8,0-1.7,0-2.5,0.1c-0.8,0.1-1.6,0.2-2.4,0.3c-0.7,0.1-1.4,0.2-2.1,0.4
				c-0.6,0.1-1.2,0.3-1.6,0.4l0.9,5.8c0.9-0.3,1.9-0.6,3.1-0.8c1.2-0.2,2.4-0.3,3.6-0.3c1.8,0,3.1,0.4,3.9,1.1
				c0.7,0.7,1.1,1.7,1.1,3v0.7c-0.5-0.1-1-0.2-1.8-0.3c-0.7-0.1-1.6-0.1-2.5-0.1c-1.4,0-2.7,0.1-4,0.4c-1.3,0.3-2.4,0.7-3.4,1.3
				c-1,0.6-1.8,1.4-2.4,2.5c-0.6,1-0.9,2.3-0.9,3.8c0,1.6,0.3,2.9,0.8,3.9c0.5,1.1,1.3,1.9,2.2,2.6c1,0.7,2.1,1.1,3.5,1.4
				c1.3,0.3,2.8,0.4,4.5,0.4c2.6,0,4.9-0.2,6.7-0.5c1.8-0.3,3.3-0.6,4.3-0.8v-15.1c0-1.6-0.2-3-0.5-4.3c-0.4-1.3-1-2.4-1.8-3.3
				c-0.9-0.9-2-1.6-3.4-2.1C635,552.5,633.2,552.2,631.1,552.2L631.1,552.2z M631.7,573.4c-1.3,0-2.4-0.2-3.1-0.7
				c-0.8-0.4-1.1-1.2-1.1-2.4c0-0.6,0.1-1.1,0.4-1.5c0.3-0.4,0.6-0.7,1.1-0.9c0.5-0.2,1-0.4,1.6-0.5c0.6-0.1,1.2-0.1,1.9-0.1
				c0.5,0,1,0,1.6,0.1c0.6,0.1,1,0.1,1.3,0.2v5.5c-0.4,0.1-0.9,0.1-1.6,0.1C633.1,573.4,632.4,573.4,631.7,573.4L631.7,573.4z"/>
		</g>
		<g>
			<path class="st1" d="M648.8,553.8c1.2-0.4,2.8-0.7,4.8-1s4-0.5,6.1-0.5c2.2,0,4,0.3,5.4,0.9c1.4,0.6,2.6,1.4,3.4,2.4
				c0.8,1,1.4,2.3,1.8,3.7c0.4,1.4,0.5,3,0.5,4.8v14.4h-7.2v-13.6c0-2.3-0.3-4-0.9-5s-1.8-1.5-3.4-1.5c-0.5,0-1.1,0-1.7,0.1
				s-1.1,0.1-1.6,0.2v19.7h-7.2V553.8z"/>
			<path class="st1" d="M659.7,552.3c-2.1,0-4.2,0.2-6.1,0.5c-1.9,0.3-3.5,0.6-4.8,1v24.7h7.2v-19.7c0.5-0.1,1-0.1,1.6-0.2
				c0.6,0,1.1-0.1,1.7-0.1c1.7,0,2.8,0.5,3.4,1.5c0.6,1,0.9,2.6,0.9,5v13.6h7.2v-14.4c0-1.7-0.2-3.3-0.5-4.8c-0.4-1.4-1-2.7-1.8-3.7
				c-0.8-1-2-1.8-3.4-2.4C663.6,552.6,661.8,552.3,659.7,552.3L659.7,552.3z"/>
		</g>
		<g>
			<path class="st1" d="M676.2,565.9c0-2.3,0.3-4.3,1-6s1.6-3.1,2.7-4.3c1.1-1.1,2.4-2,3.9-2.6c1.5-0.6,3-0.9,4.5-0.9
				c3.6,0,6.5,1.1,8.6,3.3c2.1,2.2,3.2,5.5,3.2,9.8c0,0.4,0,0.9,0,1.4c0,0.5-0.1,0.9-0.1,1.3h-16.4c0.2,1.5,0.9,2.7,2.1,3.5
				c1.2,0.9,2.9,1.3,5,1.3c1.3,0,2.6-0.1,3.9-0.4c1.3-0.2,2.3-0.5,3.1-0.9l1,5.9c-0.4,0.2-0.9,0.4-1.6,0.6c-0.6,0.2-1.4,0.4-2.2,0.5
				s-1.6,0.3-2.5,0.4c-0.9,0.1-1.8,0.1-2.7,0.1c-2.3,0-4.3-0.3-6-1c-1.7-0.7-3.1-1.6-4.2-2.8c-1.1-1.2-1.9-2.6-2.5-4.2
				C676.4,569.5,676.2,567.8,676.2,565.9z M693.2,563.1c0-0.6-0.1-1.2-0.3-1.8s-0.5-1.1-0.8-1.6c-0.4-0.5-0.8-0.8-1.4-1.1
				c-0.6-0.3-1.3-0.4-2.1-0.4c-0.8,0-1.5,0.1-2.1,0.4s-1.1,0.6-1.5,1.1c-0.4,0.5-0.7,1-0.9,1.6c-0.2,0.6-0.4,1.2-0.5,1.8H693.2z"/>
			<path class="st1" d="M688.4,552.2c-1.6,0-3.1,0.3-4.5,0.9c-1.5,0.6-2.8,1.4-3.9,2.6c-1.1,1.1-2,2.6-2.7,4.3c-0.7,1.7-1,3.7-1,6
				c0,1.9,0.3,3.6,0.8,5.2c0.5,1.6,1.4,3,2.5,4.2c1.1,1.2,2.5,2.1,4.2,2.8c1.7,0.7,3.7,1,6,1c0.9,0,1.8,0,2.7-0.1
				c0.9-0.1,1.8-0.2,2.5-0.4c0.8-0.1,1.5-0.3,2.2-0.5c0.6-0.2,1.2-0.4,1.6-0.6l-1-5.9c-0.8,0.4-1.9,0.7-3.1,0.9
				c-1.3,0.2-2.6,0.4-3.9,0.4c-2.1,0-3.7-0.4-5-1.3c-1.2-0.9-1.9-2.1-2.1-3.5H700c0-0.4,0.1-0.8,0.1-1.3c0-0.5,0-1,0-1.4
				c0-4.3-1.1-7.6-3.2-9.8C694.9,553.4,692,552.2,688.4,552.2L688.4,552.2z M683.6,563.1c0.1-0.6,0.3-1.2,0.5-1.8
				c0.2-0.6,0.5-1.1,0.9-1.6c0.4-0.5,0.9-0.8,1.5-1.1c0.6-0.3,1.3-0.4,2.1-0.4c0.8,0,1.5,0.1,2.1,0.4c0.6,0.3,1,0.7,1.4,1.1
				c0.4,0.5,0.6,1,0.8,1.6c0.2,0.6,0.3,1.2,0.3,1.8H683.6L683.6,563.1z"/>
		</g>
		<g>
			<path class="st1" d="M716,579c-2.1,0-3.8-0.3-5.1-0.7s-2.3-1-3.1-1.8c-0.8-0.8-1.3-1.7-1.6-2.8s-0.4-2.3-0.4-3.7v-28.1l7.2-1.2
				v27.8c0,0.6,0,1.2,0.1,1.7c0.1,0.5,0.3,1,0.6,1.3c0.3,0.4,0.7,0.6,1.2,0.9c0.5,0.2,1.2,0.4,2.1,0.4L716,579z"/>
			<path class="st1" d="M713,540.8l-7.2,1.2v28.1c0,1.4,0.1,2.6,0.4,3.7c0.3,1.1,0.8,2,1.6,2.8c0.8,0.8,1.8,1.4,3.1,1.8
				c1.3,0.4,3,0.6,5.1,0.7l1-6c-0.9-0.1-1.6-0.2-2.1-0.4c-0.5-0.2-0.9-0.5-1.2-0.9c-0.3-0.4-0.5-0.8-0.6-1.3
				c-0.1-0.5-0.1-1.1-0.1-1.7V540.8L713,540.8z"/>
		</g>
		<g>
			<path class="st1" d="M731.3,579c-2.1,0-3.8-0.3-5.1-0.7s-2.3-1-3.1-1.8c-0.8-0.8-1.3-1.7-1.6-2.8s-0.4-2.3-0.4-3.7v-28.1l7.2-1.2
				v27.8c0,0.6,0,1.2,0.1,1.7c0.1,0.5,0.3,1,0.6,1.3c0.3,0.4,0.7,0.6,1.2,0.9c0.5,0.2,1.2,0.4,2.1,0.4L731.3,579z"/>
			<path class="st1" d="M728.3,540.8l-7.2,1.2v28.1c0,1.4,0.1,2.6,0.4,3.7c0.3,1.1,0.8,2,1.6,2.8c0.8,0.8,1.8,1.4,3.1,1.8
				c1.3,0.4,3,0.6,5.1,0.7l1-6c-0.9-0.1-1.6-0.2-2.1-0.4c-0.5-0.2-0.9-0.5-1.2-0.9c-0.3-0.4-0.5-0.8-0.6-1.3
				c-0.1-0.5-0.1-1.1-0.1-1.7V540.8L728.3,540.8z"/>
		</g>
		<g>
			<path class="st1" d="M736.5,552.9v25.6h7.2v-25.6H736.5z"/>
			<polygon class="st1" points="743.7,552.9 736.5,552.9 736.5,578.5 743.7,578.5 743.7,552.9 			"/>
		</g>
		<g>
			<path class="st2" d="M744.4,545.5c0,1.3-0.4,2.4-1.3,3.1c-0.8,0.8-1.9,1.1-3,1.1c-1.2,0-2.2-0.4-3-1.1c-0.9-0.8-1.3-1.8-1.3-3.1
				c0-1.3,0.4-2.4,1.3-3.1s1.9-1.1,3-1.1c1.2,0,2.2,0.4,3,1.1C743.9,543.2,744.4,544.2,744.4,545.5z"/>
		</g>
	</g>
</g>
<g id="Capa_2" class="st5">
	<rect class="st6" width="1080" height="1080"/>
</g>
</svg>
