<?xml version="1.0" encoding="utf-8"?>
<!-- Generator: Adobe Illustrator 26.0.1, SVG Export Plug-In . SVG Version: 6.00 Build 0)  -->
<svg version="1.1" id="Capa_1" xmlns="http://www.w3.org/2000/svg" xmlns:xlink="http://www.w3.org/1999/xlink" x="0px" y="0px"
	 viewBox="0 0 1080 1080" style="enable-background:new 0 0 1080 1080;" xml:space="preserve">
<style type="text/css">
	.st0{fill:#001E36;}
	.st1{fill:#31A8FF;}
</style>
<g id="Capa_2_00000000916445567910390650000015525836109861833613_">
</g>
<g id="Layer_2_1_">
	<g id="Surfaces">
		<g id="Photo_Surface">
			<g id="Outline_no_shadow">
				<path class="st0" d="M355.1,227.3h369.9c56.1,0,101.4,45.3,101.4,101.4v355.5c0,56.1-45.3,101.4-101.4,101.4H355.1
					c-56.1,0-101.4-45.3-101.4-101.4V328.7C253.7,272.6,299,227.3,355.1,227.3z"/>
			</g>
		</g>
	</g>
	<g id="Outlined_Mnemonics_Logos">
		<g id="Ps">
			<path class="st1" d="M382.5,618.9V373.3c0-1.7,0.7-2.6,2.4-2.6c4.1,0,7.9,0,13.4-0.2c5.7-0.2,11.7-0.2,18.1-0.5
				s13.4-0.2,20.8-0.5s14.6-0.2,21.7-0.2c19.6,0,35.8,2.4,49.2,7.4c11.9,4.1,22.9,10.7,32,19.6c7.6,7.6,13.6,16.9,17.4,27.2
				c3.6,10,5.5,20.3,5.5,31c0,20.5-4.8,37.5-14.3,50.8c-9.5,13.4-22.9,23.4-38.4,29.1c-16.2,6-34.1,8.1-53.7,8.1
				c-5.7,0-9.5,0-11.9-0.2c-2.4-0.2-5.7-0.2-10.3-0.2v76.6c0.2,1.7-1,3.1-2.6,3.3c-0.2,0-0.5,0-1,0h-45.3
				C383.5,622,382.5,621,382.5,618.9z M434.5,416.8v80.2c3.3,0.2,6.4,0.5,9.3,0.5h12.6c9.3,0,18.6-1.4,27.4-4.3
				c7.6-2.1,14.3-6.7,19.6-12.6c5-6,7.4-14.1,7.4-24.6c0.2-7.4-1.7-14.8-5.5-21.2c-4.1-6.2-9.8-11-16.7-13.6
				c-8.8-3.6-18.4-5-28.2-4.8c-6.2,0-11.7,0-16.2,0.2C439.5,416.3,436.2,416.5,434.5,416.8L434.5,416.8z"/>
			<path class="st1" d="M711.8,482.4c-7.2-3.8-14.8-6.4-22.9-8.1c-8.8-1.9-17.7-3.1-26.7-3.1c-4.8-0.2-9.8,0.5-14.3,1.7
				c-3.1,0.7-5.7,2.4-7.4,4.8c-1.2,1.9-1.9,4.3-1.9,6.4c0,2.1,1,4.3,2.4,6.2c2.1,2.6,5,4.8,8.1,6.4c5.5,2.9,11.2,5.5,16.9,7.9
				c12.9,4.3,25.3,10.3,36.7,17.4c7.9,5,14.3,11.7,18.9,19.8c3.8,7.6,5.7,16,5.5,24.6c0.2,11.2-3.1,22.4-9.3,31.7
				c-6.7,9.5-16,16.9-26.7,21.2c-11.7,5-26,7.6-43.2,7.6c-11,0-21.7-1-32.5-3.1c-8.4-1.4-16.7-4.1-24.3-7.6c-1.7-1-2.9-2.6-2.6-4.5
				v-41.5c0-0.7,0.2-1.7,1-2.1s1.4-0.2,2.1,0.2c9.3,5.5,19.1,9.3,29.6,11.7c9.1,2.4,18.6,3.6,28.2,3.6c9.1,0,15.5-1.2,19.8-3.3
				c3.8-1.7,6.4-5.7,6.4-10c0-3.3-1.9-6.4-5.7-9.5c-3.8-3.1-11.7-6.7-23.4-11.2c-12.2-4.3-23.4-10-33.9-17.2
				c-7.4-5.2-13.6-12.2-18.1-20.3c-3.8-7.6-5.7-16-5.5-24.3c0-10.3,2.9-20,8.1-28.9c6-9.5,14.8-17.2,25.1-22
				c11.2-5.7,25.3-8.4,42.2-8.4c9.8,0,19.8,0.7,29.6,2.1c7.2,1,14.1,2.9,20.5,5.5c1,0.2,1.9,1.2,2.4,2.1c0.2,1,0.5,1.9,0.5,2.9V480
				c0,1-0.5,1.9-1.2,2.4C713.9,482.9,712.8,482.9,711.8,482.4z"/>
		</g>
	</g>
</g>
</svg>
