<?xml version="1.0" encoding="utf-8"?>
<!-- Generator: Adobe Illustrator 26.0.1, SVG Export Plug-In . SVG Version: 6.00 Build 0)  -->
<svg version="1.1" id="Capa_1" xmlns="http://www.w3.org/2000/svg" xmlns:xlink="http://www.w3.org/1999/xlink" x="0px" y="0px"
	 viewBox="0 0 800 250" style="enable-background:new 0 0 800 250;" xml:space="preserve">
<style type="text/css">
	.st0{fill:#FF00FF;}
	.st1{fill:#FF00F2;}
	.st2{fill:none;stroke:#000000;stroke-width:5;stroke-miterlimit:10;}
</style>
<g id="Capa_2_00000144326890367389290630000009596265017026350470_">
	<g>
		<g>
			<path class="st0" d="M403.9,176.3c0.9,5,7.7,10.7,11.5,14c13.3,11.7,29.5,19.9,46.8,23.7c6.8,1.6,14,2.4,20.9,0.9
				c6.9-1.4,13.6-5.3,16.9-11.5c3.3-6.2,2.8-14.6-2.3-19.5c-3.6-3.5-8.8-4.7-13.8-4.6c-5,0.1-9.8,1.5-14.6,2.7
				C449.3,187,422.6,184.8,403.9,176.3"/>
			<g>
				<path class="st0" d="M404.3,174.9c-1.8-0.8-2.6,2.1-1,2.8c1.6,0.7,3,1.4,4.6,2c13.6,5.1,28.6,7.1,43,6.4
					c7.1-0.3,14.2-1.5,21.1-3.2c7.5-2,16.6-3.9,23.3,1.2c5.2,3.9,6.1,11.3,3.8,17c-2.5,6.4-9,10.5-15.5,12.2
					c-7.7,2-15.9,0.7-23.6-1.1c-8-2-15.8-4.9-23.1-8.7c-7.3-3.7-14.3-8.4-20.4-13.9c-2.3-2-4.6-4-6.7-6.2c-2-2.1-4-4.5-4.6-7.4
					c-0.4-1.9-3.3-1.2-2.9,0.7c0.3,1.4,0.9,2.8,1.7,4.1c1.7,2.8,4.1,5.3,6.6,7.5c2.7,2.5,5.5,4.9,8.3,7.2
					c6.8,5.4,14.3,9.8,22.2,13.4c7.9,3.5,16.3,6.2,24.9,7.6c8,1.3,16.3,1.3,23.7-2.1c6.3-2.9,11.9-8.3,13.3-15.5
					c1.4-6.9-1-14.3-7.2-18c-7.5-4.5-16.4-2.8-24.4-0.8c-7.4,1.8-14.7,3-22.3,3.1C434,183.6,418.3,181.1,404.3,174.9L404.3,174.9z"
					/>
			</g>
		</g>
	</g>
	<g>
		<g>
			<path class="st0" d="M448.7,217c-1.7-0.9-3.3,1.6-1.6,2.5c9.5,5.4,20.4,7.9,31.3,7.4c1.9-0.1,2-3.1,0.1-3
				C468.1,224.5,457.7,222.1,448.7,217L448.7,217z"/>
		</g>
	</g>
	<g>
		<path class="st0" d="M650.7,72c6.4-4.3,13.5-8.3,21-10.2c15-4,30.9,1.2,44.9,7.9c6.3,3,13.9,6.3,19.8,2.5c4.9-3.1,6-10.5,3.6-15.8
			c-2.5-5.3-7.5-9-12.8-11.7c-15.8-7.7-35.5-7.4-50.7,1.5c-10.9,6.3-19.1,16.5-26.4,26.7"/>
		<g>
			<path class="st0" d="M651.7,73.2c6.6-4.5,13.8-8.4,21.5-10.2c7.2-1.7,14.8-1.2,21.9,0.4c7.4,1.7,14.4,4.6,21.2,7.8
				c5.5,2.7,12.2,5.7,18.5,3.6c6.4-2.3,9-9.5,7.6-15.8c-1.6-7.1-7.8-12-14.1-15.2c-12.5-6.3-27.6-7.7-41.1-3.7
				c-7.1,2.1-13.5,5.6-19.2,10.3c-6,5-11.2,10.9-15.8,17.1c-1.2,1.5-2.3,3.1-3.4,4.6c-1.1,1.6,1.4,3.3,2.5,1.7
				c8.4-11.8,18.1-23.5,31.8-29.1c12.4-5.1,26.8-5,39.3-0.3c6.2,2.4,12.9,6.1,16,12.1c2.7,5.3,1.6,13.3-4.7,15.4
				c-5.8,1.9-12.1-1.6-17.3-4c-6.6-3.1-13.3-5.8-20.4-7.4c-6.9-1.6-13.9-2.2-20.9-1c-7.4,1.2-14.4,4.4-20.8,8.3
				c-1.6,0.9-3.1,2-4.7,3C648.2,72,650.1,74.3,651.7,73.2L651.7,73.2z"/>
		</g>
	</g>
	<g>
		<g>
			<path class="st0" d="M657.5,56.2c3.8-4.1,8.1-7.9,12.5-11.2c0.7-0.5,0.7-1.6,0.2-2.1c-0.5-0.6-1.5-0.6-2.1-0.2
				c-4.6,3.3-8.7,7-12.5,11.2c-0.5,0.6-0.7,1.4-0.2,2.1C655.9,56.6,657,56.7,657.5,56.2L657.5,56.2z"/>
		</g>
	</g>
	<g>
		<path class="st0" d="M246.2,71.3c15.2-12.2,35.7-17.6,55-14.6c4.6,0.8,9.2,2,13.7,2.9c5.6,1.1,12.3,1.4,16.1-2.8
			c3.3-3.6,3.1-9.6,0.3-13.6c-2.8-4-7.6-6.2-12.5-6.9c-4.9-0.7-9.8,0-14.6,0.9c-9.5,1.7-18.9,3.9-27.8,7.7s-17.1,9.4-23.1,16.9
			c-2.4,3.2-4.6,5.5-6.8,8.9"/>
		<g>
			<path class="st0" d="M245.8,70.2c-0.7,1.1,1.1,2.2,1.9,1.1c0.9-1.4,1.8-2.8,2.9-4.1c2.1-2.6,4.1-5.3,6.4-7.7
				c2.2-2.3,4.6-4.4,7.2-6.3c5.4-4,11.5-7,17.8-9.2c7-2.5,14.2-4.1,21.4-5.5c6.6-1.1,13.5-2.4,20,0c5.1,1.9,9.5,6.3,9.2,12.1
				c-0.2,2.6-1.4,5.2-3.6,6.7c-2.5,1.7-5.7,2-8.6,1.9c-3.3-0.2-6.6-0.9-9.8-1.6c-3.5-0.7-6.9-1.5-10.4-2c-6.5-0.9-13-0.9-19.5,0
				c-12.8,1.7-25.1,6.9-35.2,15c-1.1,0.9,0.4,2.3,1.4,1.5c1.3-1,2.6-2,4-2.9c11.1-7.6,24.4-11.8,37.8-12.1c3.4-0.1,6.8,0.1,10.2,0.5
				c3.5,0.5,7.1,1.2,10.6,2c6.1,1.4,13.5,3.3,19.4,0.2c5.3-2.8,6.7-9.2,4.6-14.5c-2.2-5.6-8-8.7-13.7-9.7c-3.5-0.6-7.1-0.4-10.7,0
				c-3.7,0.5-7.4,1.2-11.1,1.9c-7.5,1.6-15,3.6-22,6.7c-6.1,2.7-12,6.1-17.1,10.5c-2.5,2.2-4.7,4.7-6.8,7.2
				C250,64.6,247.7,67.3,245.8,70.2L245.8,70.2z"/>
		</g>
	</g>
	<g>
		<g>
			<path class="st0" d="M292.1,61.2c1.3,0,1.4-2.1,0.1-2.1c-9.7-0.1-19.3,1.8-28.3,5.4c-1.2,0.5-0.3,2.3,1,1.8
				C273.5,62.9,282.8,61.2,292.1,61.2L292.1,61.2z"/>
		</g>
	</g>
	<g>
		<g>
			<path class="st0" d="M261,66.1c-1.3,0.3-0.9,2.3,0.5,2C262.8,67.8,262.3,65.8,261,66.1L261,66.1z"/>
		</g>
	</g>
</g>
<g>
	<path class="st1" d="M105.4,52.6c17.3,0,30.5,3,39.8,9.1c9.2,6.1,13.9,16,13.9,29.8c0,13.9-4.7,24-14,30.2
		c-9.4,6.2-22.7,9.3-40.1,9.3h-8.2v38.8H70.6V55.6c5.7-1.1,11.7-1.9,18.1-2.3C95,52.9,100.6,52.6,105.4,52.6z M107,74.9
		c-1.9,0-3.8,0.1-5.6,0.2c-1.8,0.1-3.4,0.2-4.8,0.3v33.4h8.2c9,0,15.8-1.2,20.4-3.7c4.6-2.4,6.9-7,6.9-13.7c0-3.2-0.6-5.9-1.8-8
		c-1.2-2.1-2.8-3.8-5-5.1c-2.2-1.3-4.8-2.2-7.9-2.7C114.3,75.1,110.8,74.9,107,74.9z"/>
	<path class="st1" d="M229.6,104c-2.2-0.6-4.8-1.1-7.9-1.8c-3-0.6-6.2-0.9-9.7-0.9c-1.6,0-3.4,0.1-5.6,0.4c-2.2,0.3-3.8,0.6-4.9,0.9
		v67.2h-24.9V86.6c4.5-1.6,9.7-3,15.8-4.4c6.1-1.4,12.8-2.1,20.3-2.1c1.3,0,3,0.1,4.8,0.3c1.9,0.2,3.8,0.4,5.7,0.7
		c1.9,0.3,3.8,0.6,5.7,1c1.9,0.4,3.5,0.9,4.8,1.4L229.6,104z"/>
	<path class="st1" d="M327.7,125.7c0,6.9-1,13.2-3,19c-2,5.7-4.9,10.6-8.7,14.7c-3.8,4.1-8.3,7.2-13.6,9.4
		c-5.3,2.2-11.2,3.3-17.8,3.3c-6.5,0-12.3-1.1-17.6-3.3c-5.3-2.2-9.8-5.4-13.6-9.4c-3.8-4.1-6.7-9-8.9-14.7
		c-2.1-5.7-3.2-12.1-3.2-19c0-6.9,1.1-13.2,3.3-18.9c2.2-5.7,5.2-10.5,9-14.5c3.8-4,8.4-7.1,13.7-9.4c5.3-2.2,11.1-3.3,17.3-3.3
		c6.4,0,12.2,1.1,17.5,3.3c5.3,2.2,9.8,5.3,13.6,9.4c3.8,4,6.7,8.9,8.9,14.5C326.6,112.5,327.7,118.8,327.7,125.7z M302.3,125.7
		c0-7.7-1.5-13.7-4.6-18.1c-3.1-4.4-7.4-6.6-13.1-6.6c-5.7,0-10.1,2.2-13.2,6.6c-3.1,4.4-4.7,10.4-4.7,18.1c0,7.7,1.6,13.8,4.7,18.3
		c3.1,4.5,7.5,6.8,13.2,6.8c5.7,0,10.1-2.3,13.1-6.8C300.7,139.5,302.3,133.4,302.3,125.7z"/>
	<path class="st1" d="M338.7,200.7c-1.6,0-3.9-0.2-6.9-0.5c-3.1-0.3-5.9-0.9-8.6-1.8l3.3-20.2c1.7,0.6,3.2,0.9,4.6,1.2
		c1.4,0.2,3.1,0.3,5.3,0.3c3.9,0,6.6-1.2,8.2-3.5c1.6-2.3,2.3-5.7,2.3-10.2V81.9h24.9v84.7c0,11.6-2.8,20.2-8.5,25.7
		C357.6,197.9,349.4,200.7,338.7,200.7z M374.1,56.5c0,4.6-1.5,8.2-4.4,10.8c-3,2.6-6.4,3.9-10.4,3.9c-4,0-7.5-1.3-10.4-3.9
		c-3-2.6-4.4-6.2-4.4-10.8c0-4.6,1.5-8.2,4.4-10.8c3-2.6,6.4-3.9,10.4-3.9c4,0,7.5,1.3,10.4,3.9C372.7,48.3,374.1,51.9,374.1,56.5z"
		/>
	<path class="st1" d="M391,126.5c0-7.8,1.2-14.6,3.6-20.5c2.4-5.9,5.5-10.7,9.4-14.6c3.9-3.9,8.4-6.9,13.5-8.9c5.1-2,10.3-3,15.6-3
		c12.5,0,22.3,3.8,29.6,11.4c7.2,7.6,10.9,18.9,10.9,33.7c0,1.4-0.1,3-0.2,4.8c-0.1,1.7-0.2,3.3-0.3,4.6h-56.5
		c0.6,5.1,3,9.2,7.2,12.2c4.2,3,9.9,4.5,17,4.5c4.6,0,9.1-0.4,13.5-1.3c4.4-0.8,8-1.9,10.8-3.1l3.3,20.2c-1.3,0.7-3.1,1.3-5.3,2
		c-2.2,0.7-4.7,1.3-7.4,1.8c-2.7,0.5-5.7,0.9-8.8,1.3c-3.1,0.3-6.2,0.5-9.4,0.5c-7.9,0-14.8-1.2-20.6-3.5
		c-5.9-2.3-10.7-5.5-14.5-9.6c-3.8-4.1-6.7-8.9-8.5-14.5C391.9,139,391,133,391,126.5z M449.5,117c-0.1-2.1-0.5-4.2-1.1-6.2
		c-0.6-2-1.6-3.8-2.8-5.3c-1.3-1.6-2.9-2.8-4.8-3.8c-2-1-4.4-1.5-7.3-1.5c-2.8,0-5.2,0.5-7.2,1.4c-2,0.9-3.7,2.2-5,3.8
		c-1.3,1.6-2.4,3.4-3.1,5.4c-0.7,2.1-1.3,4.2-1.6,6.3H449.5z"/>
	<path class="st1" d="M488.6,125.9c0-6.4,1-12.3,3.1-18c2.1-5.6,5-10.5,8.9-14.7c3.9-4.2,8.6-7.5,14.2-9.9
		c5.6-2.4,11.9-3.7,19.1-3.7c4.7,0,9,0.4,12.9,1.3c3.9,0.8,7.7,2,11.4,3.6l-5.2,19.9c-2.3-0.9-4.9-1.7-7.7-2.3c-2.8-0.7-5.9-1-9.4-1
		c-7.4,0-12.8,2.3-16.5,6.9c-3.6,4.6-5.4,10.6-5.4,18.1c0,7.9,1.7,14,5.1,18.4c3.4,4.3,9.3,6.5,17.8,6.5c3,0,6.2-0.3,9.7-0.8
		c3.5-0.6,6.6-1.4,9.5-2.7l3.5,20.4c-2.9,1.2-6.5,2.3-10.9,3.2c-4.3,0.9-9.1,1.3-14.4,1.3c-8,0-14.9-1.2-20.7-3.6
		c-5.8-2.4-10.6-5.7-14.3-9.8c-3.7-4.1-6.5-9-8.2-14.6C489.5,138.5,488.6,132.4,488.6,125.9z"/>
	<path class="st1" d="M575.5,60l24.9-4v25.9h29.9v20.7h-29.9v30.9c0,5.2,0.9,9.4,2.8,12.5c1.8,3.1,5.5,4.7,11.1,4.7
		c2.7,0,5.4-0.3,8.3-0.8c2.8-0.5,5.4-1.2,7.8-2.1l3.5,19.4c-3,1.2-6.4,2.3-10,3.2c-3.7,0.9-8.2,1.3-13.5,1.3
		c-6.8,0-12.4-0.9-16.9-2.8c-4.5-1.8-8-4.4-10.7-7.7c-2.7-3.3-4.5-7.3-5.6-12c-1.1-4.7-1.6-9.9-1.6-15.5V60z"/>
	<path class="st1" d="M675.8,151.9c4.6,0,7.8-0.4,9.7-1.3c1.9-0.9,2.8-2.6,2.8-5.2c0-2-1.2-3.8-3.7-5.3c-2.5-1.5-6.2-3.2-11.2-5.1
		c-3.9-1.4-7.4-3-10.6-4.5c-3.2-1.6-5.9-3.4-8.1-5.6c-2.2-2.2-4-4.8-5.2-7.8c-1.2-3-1.8-6.6-1.8-10.9c0-8.2,3.1-14.8,9.2-19.6
		c6.1-4.8,14.5-7.2,25.2-7.2c5.3,0,10.5,0.5,15.4,1.4c4.9,0.9,8.8,2,11.7,3.1l-4.3,19.4c-2.9-1-6-1.9-9.4-2.7
		c-3.4-0.8-7.2-1.2-11.5-1.2c-7.8,0-11.7,2.2-11.7,6.5c0,1,0.2,1.9,0.5,2.7c0.3,0.8,1,1.5,2,2.3c1,0.7,2.4,1.5,4.1,2.4
		c1.7,0.8,3.9,1.8,6.6,2.8c5.5,2,10,4,13.5,6c3.6,2,6.4,4.1,8.4,6.4c2.1,2.3,3.5,4.8,4.3,7.6c0.8,2.8,1.3,6,1.3,9.7
		c0,8.7-3.3,15.2-9.8,19.7c-6.5,4.4-15.7,6.7-27.7,6.7c-7.8,0-14.3-0.7-19.5-2c-5.2-1.3-8.8-2.4-10.8-3.3l4.2-20.2
		c4.2,1.7,8.6,3,13,3.9C667.1,151.5,671.5,151.9,675.8,151.9z"/>
</g>
<g>
	<path class="st2" d="M114.2,53.4c17.3,0,30.5,3,39.8,9.1c9.2,6.1,13.9,16,13.9,29.8c0,13.9-4.7,24-14,30.2
		c-9.4,6.2-22.7,9.3-40.1,9.3h-8.2v38.8H79.4V56.4c5.7-1.1,11.7-1.9,18.1-2.3C103.8,53.6,109.4,53.4,114.2,53.4z M115.8,75.6
		c-1.9,0-3.8,0.1-5.6,0.2c-1.8,0.1-3.4,0.2-4.8,0.3v33.4h8.2c9,0,15.8-1.2,20.4-3.7c4.6-2.4,6.9-7,6.9-13.7c0-3.2-0.6-5.9-1.8-8
		c-1.2-2.1-2.8-3.8-5-5.1c-2.2-1.3-4.8-2.2-7.9-2.7C123.1,75.8,119.6,75.6,115.8,75.6z"/>
	<path class="st2" d="M238.4,104.7c-2.2-0.6-4.8-1.1-7.9-1.8c-3-0.6-6.2-0.9-9.7-0.9c-1.6,0-3.4,0.1-5.6,0.4
		c-2.2,0.3-3.8,0.6-4.9,0.9v67.2h-24.9V87.3c4.5-1.6,9.7-3,15.8-4.4c6.1-1.4,12.8-2.1,20.3-2.1c1.3,0,3,0.1,4.8,0.3
		c1.9,0.2,3.8,0.4,5.7,0.7c1.9,0.3,3.8,0.6,5.7,1c1.9,0.4,3.5,0.9,4.8,1.4L238.4,104.7z"/>
	<path class="st2" d="M336.5,126.4c0,6.9-1,13.2-3,19c-2,5.7-4.9,10.6-8.7,14.7c-3.8,4.1-8.3,7.2-13.6,9.4
		c-5.3,2.2-11.2,3.3-17.8,3.3c-6.5,0-12.3-1.1-17.6-3.3c-5.3-2.2-9.8-5.4-13.6-9.4c-3.8-4.1-6.7-9-8.9-14.7
		c-2.1-5.7-3.2-12.1-3.2-19c0-6.9,1.1-13.2,3.3-18.9c2.2-5.7,5.2-10.5,9-14.5c3.8-4,8.4-7.1,13.7-9.4c5.3-2.2,11.1-3.3,17.3-3.3
		c6.4,0,12.2,1.1,17.5,3.3c5.3,2.2,9.8,5.3,13.6,9.4c3.8,4,6.7,8.9,8.9,14.5C335.4,113.2,336.5,119.5,336.5,126.4z M311.1,126.4
		c0-7.7-1.5-13.7-4.6-18.1c-3.1-4.4-7.4-6.6-13.1-6.6c-5.7,0-10.1,2.2-13.2,6.6c-3.1,4.4-4.7,10.4-4.7,18.1c0,7.7,1.6,13.8,4.7,18.3
		c3.1,4.5,7.5,6.8,13.2,6.8c5.7,0,10.1-2.3,13.1-6.8C309.5,140.2,311.1,134.1,311.1,126.4z"/>
	<path class="st2" d="M347.5,201.4c-1.6,0-3.9-0.2-6.9-0.5c-3.1-0.3-5.9-0.9-8.6-1.8l3.3-20.2c1.7,0.6,3.2,0.9,4.6,1.2
		c1.4,0.2,3.1,0.3,5.3,0.3c3.9,0,6.6-1.2,8.2-3.5c1.6-2.3,2.3-5.7,2.3-10.2V82.6h24.9v84.7c0,11.6-2.8,20.2-8.5,25.7
		C366.4,198.7,358.2,201.4,347.5,201.4z M382.9,57.2c0,4.6-1.5,8.2-4.4,10.8c-3,2.6-6.4,3.9-10.4,3.9c-4,0-7.5-1.3-10.4-3.9
		c-3-2.6-4.4-6.2-4.4-10.8c0-4.6,1.5-8.2,4.4-10.8c3-2.6,6.4-3.9,10.4-3.9c4,0,7.5,1.3,10.4,3.9C381.5,49,382.9,52.6,382.9,57.2z"/>
	<path class="st2" d="M399.8,127.2c0-7.8,1.2-14.6,3.6-20.5c2.4-5.9,5.5-10.7,9.4-14.6c3.9-3.9,8.4-6.9,13.5-8.9
		c5.1-2,10.3-3,15.6-3c12.5,0,22.3,3.8,29.6,11.4c7.2,7.6,10.9,18.9,10.9,33.7c0,1.4-0.1,3-0.2,4.8c-0.1,1.7-0.2,3.3-0.3,4.6h-56.5
		c0.6,5.1,3,9.2,7.2,12.2c4.2,3,9.9,4.5,17,4.5c4.6,0,9.1-0.4,13.5-1.3c4.4-0.8,8-1.9,10.8-3.1l3.3,20.2c-1.3,0.7-3.1,1.3-5.3,2
		c-2.2,0.7-4.7,1.3-7.4,1.8c-2.7,0.5-5.7,0.9-8.8,1.3c-3.1,0.3-6.2,0.5-9.4,0.5c-7.9,0-14.8-1.2-20.6-3.5
		c-5.8-2.3-10.7-5.5-14.5-9.6c-3.8-4.1-6.7-8.9-8.5-14.5C400.7,139.7,399.8,133.7,399.8,127.2z M458.3,117.7
		c-0.1-2.1-0.5-4.2-1.1-6.2c-0.6-2-1.6-3.8-2.8-5.3c-1.3-1.6-2.9-2.8-4.8-3.8c-2-1-4.4-1.5-7.3-1.5c-2.8,0-5.2,0.5-7.2,1.4
		c-2,0.9-3.7,2.2-5,3.8c-1.3,1.6-2.4,3.4-3.1,5.4c-0.7,2.1-1.3,4.2-1.6,6.3H458.3z"/>
	<path class="st2" d="M497.4,126.6c0-6.4,1-12.3,3.1-18c2.1-5.6,5-10.5,8.9-14.7c3.9-4.2,8.6-7.5,14.2-9.9
		c5.6-2.4,11.9-3.7,19.1-3.7c4.7,0,9,0.4,12.9,1.3c3.9,0.8,7.7,2,11.4,3.6l-5.2,19.9c-2.3-0.9-4.9-1.7-7.7-2.3c-2.8-0.7-5.9-1-9.4-1
		c-7.4,0-12.8,2.3-16.5,6.9c-3.6,4.6-5.4,10.6-5.4,18.1c0,7.9,1.7,14,5.1,18.4c3.4,4.3,9.3,6.5,17.8,6.5c3,0,6.2-0.3,9.7-0.8
		c3.5-0.6,6.6-1.4,9.5-2.7l3.5,20.4c-2.9,1.2-6.5,2.3-10.9,3.2c-4.3,0.9-9.1,1.3-14.4,1.3c-8,0-14.9-1.2-20.7-3.6
		c-5.8-2.4-10.6-5.7-14.3-9.8c-3.7-4.1-6.5-9-8.2-14.6C498.3,139.2,497.4,133.1,497.4,126.6z"/>
	<path class="st2" d="M584.3,60.7l24.9-4v25.9h29.9v20.7h-29.9v30.9c0,5.2,0.9,9.4,2.8,12.5c1.8,3.1,5.5,4.7,11.1,4.7
		c2.7,0,5.4-0.3,8.3-0.8c2.8-0.5,5.4-1.2,7.8-2.1l3.5,19.4c-3,1.2-6.4,2.3-10,3.2c-3.7,0.9-8.2,1.3-13.5,1.3
		c-6.8,0-12.4-0.9-16.9-2.8c-4.5-1.8-8-4.4-10.7-7.7c-2.7-3.3-4.5-7.3-5.6-12c-1.1-4.7-1.6-9.9-1.6-15.5V60.7z"/>
	<path class="st2" d="M684.6,152.6c4.6,0,7.8-0.4,9.7-1.3c1.9-0.9,2.8-2.6,2.8-5.2c0-2-1.2-3.8-3.7-5.3c-2.5-1.5-6.2-3.2-11.2-5.1
		c-3.9-1.4-7.4-3-10.6-4.5c-3.2-1.6-5.9-3.4-8.1-5.6c-2.2-2.2-4-4.8-5.2-7.8c-1.2-3-1.8-6.6-1.8-10.9c0-8.2,3.1-14.8,9.2-19.6
		c6.1-4.8,14.5-7.2,25.2-7.2c5.3,0,10.5,0.5,15.4,1.4c4.9,0.9,8.8,2,11.7,3.1l-4.3,19.4c-2.9-1-6-1.9-9.4-2.7
		c-3.4-0.8-7.2-1.2-11.5-1.2c-7.8,0-11.7,2.2-11.7,6.5c0,1,0.2,1.9,0.5,2.7c0.3,0.8,1,1.5,2,2.3c1,0.7,2.4,1.5,4.1,2.4
		c1.7,0.8,3.9,1.8,6.6,2.8c5.5,2,10,4,13.5,6c3.6,2,6.4,4.1,8.4,6.4c2.1,2.3,3.5,4.8,4.3,7.6c0.8,2.8,1.3,6,1.3,9.7
		c0,8.7-3.3,15.2-9.8,19.7c-6.5,4.4-15.7,6.7-27.7,6.7c-7.8,0-14.3-0.7-19.5-2c-5.2-1.3-8.8-2.4-10.8-3.3l4.2-20.2
		c4.2,1.7,8.6,3,13,3.9C675.9,152.2,680.3,152.6,684.6,152.6z"/>
</g>
</svg>
