<?xml version="1.0" encoding="utf-8"?>
<!-- Generator: Adobe Illustrator 26.0.1, SVG Export Plug-In . SVG Version: 6.00 Build 0)  -->
<svg version="1.1" id="Capa_1" xmlns="http://www.w3.org/2000/svg" xmlns:xlink="http://www.w3.org/1999/xlink" x="0px" y="0px"
	 viewBox="0 0 1080 1080" style="enable-background:new 0 0 1080 1080;" xml:space="preserve">
<style type="text/css">
	.st0{fill:url(#SVGID_1_);}
	.st1{fill:url(#SVGID_00000183947575234634670610000014325148149861687980_);}
</style>
<g id="Capa_6">
	
		<linearGradient id="SVGID_1_" gradientUnits="userSpaceOnUse" x1="792.5692" y1="434.744" x2="1334.5538" y2="900.9354" gradientTransform="matrix(0.5625 0 0 0.568 -192.275 -3.737)">
		<stop  offset="0" style="stop-color:#5A9FD4"/>
		<stop  offset="1" style="stop-color:#306998"/>
	</linearGradient>
	<path class="st0" d="M540,227.3c-22.8,0.1-44.5,2-63.7,5.4c-56.4,10-66.6,30.8-66.6,69.3v50.8H543v16.9H409.7h-50
		c-38.7,0-72.7,23.3-83.2,67.5c-12.2,50.7-12.8,82.5,0,135.4c9.5,39.5,32.1,67.5,70.8,67.5h45.8v-60.9c0-44,38.1-82.8,83.2-82.8
		h133.1c37.1,0,66.6-30.5,66.6-67.7V302c0-36.1-30.5-63.2-66.6-69.3C586.6,228.9,562.8,227.2,540,227.3L540,227.3z M468,268.2
		c13.8,0,25,11.4,25,25.5c0,14-11.2,25.3-25,25.3s-25-11.3-25-25.3C443,279.6,454.2,268.2,468,268.2z"/>
	
		<linearGradient id="SVGID_00000008141628118158255260000010903751047256763532_" gradientUnits="userSpaceOnUse" x1="1544.0798" y1="1183.1704" x2="1350.2477" y2="909.3203" gradientTransform="matrix(0.5625 0 0 0.568 -192.275 -3.737)">
		<stop  offset="0" style="stop-color:#FFD43B"/>
		<stop  offset="1" style="stop-color:#FFE873"/>
	</linearGradient>
	<path style="fill:url(#SVGID_00000008141628118158255260000010903751047256763532_);" d="M692.7,369.7v59.2
		c0,45.9-38.9,84.5-83.2,84.5H476.4c-36.5,0-66.6,31.2-66.6,67.7V708c0,36.1,31.4,57.4,66.6,67.7c42.2,12.4,82.7,14.6,133.1,0
		c33.5-9.7,66.6-29.3,66.6-67.7v-50.8H543v-16.9h133.1h66.6c38.7,0,53.2-27,66.6-67.5c13.9-41.7,13.3-81.9,0-135.4
		c-9.6-38.6-27.9-67.5-66.6-67.5L692.7,369.7L692.7,369.7z M617.9,691.1c13.8,0,25,11.3,25,25.3s-11.2,25.5-25,25.5
		s-25-11.4-25-25.5C592.9,702.4,604.1,691.1,617.9,691.1z"/>
</g>
</svg>
