<?xml version="1.0" encoding="utf-8"?>
<!-- Generator: Adobe Illustrator 26.0.1, SVG Export Plug-In . SVG Version: 6.00 Build 0)  -->
<svg version="1.1" id="Capa_1" xmlns="http://www.w3.org/2000/svg" xmlns:xlink="http://www.w3.org/1999/xlink" x="0px" y="0px"
	 viewBox="0 0 1080 1080" style="enable-background:new 0 0 1080 1080;" xml:space="preserve">
<style type="text/css">
	.st0{fill:#61DAFB;}
</style>
<path class="st0" d="M726.1,401.2L726.1,401.2c-5.8-2-11.6-3.8-17.4-5.5c1-3.9,1.9-7.9,2.7-11.9c13.2-64,4.6-115.5-24.9-132.5
	c-28.2-16.3-74.4,0.7-121,41.3c-4.6,4-9.1,8.1-13.5,12.4c-2.9-2.8-5.9-5.6-9-8.3c-48.8-43.4-97.8-61.6-127.2-44.6
	c-28.2,16.3-36.5,64.8-24.7,125.4c1.2,6,2.5,12,4,17.9c-6.9,2-13.6,4.1-20,6.3c-57.3,20-93.8,51.3-93.8,83.7
	c0,33.5,39.3,67.1,98.9,87.5c4.8,1.6,9.7,3.2,14.6,4.6c-1.6,6.4-3,12.8-4.2,19.3c-11.3,59.6-2.5,106.9,25.6,123.1
	c29,16.7,77.8-0.5,125.2-42c3.8-3.3,7.5-6.7,11.3-10.4c4.7,4.6,9.6,9,14.6,13.3c46,39.6,91.4,55.5,119.5,39.3
	c29-16.8,38.4-67.6,26.2-129.5c-0.9-4.7-2-9.5-3.2-14.5c3.4-1,6.8-2.1,10.1-3.1c62-20.5,102.4-53.8,102.4-87.7
	C822.2,452.8,784.5,421.3,726.1,401.2z M580.7,310c39.9-34.8,77.3-48.5,94.3-38.7l0,0c18.1,10.4,25.2,52.6,13.8,107.8
	c-0.7,3.6-1.6,7.2-2.4,10.8c-23.8-5.4-48-9.2-72.3-11.4c-13.9-20-29.2-39.1-45.7-57.1C572.3,317.5,576.4,313.7,580.7,310z
	 M441.1,513.1c4.9,9.4,10,18.8,15.3,28c5.4,9.4,11.1,18.7,17,27.8c-16.7-1.8-33.4-4.5-49.8-8C428.3,545.4,434.2,529.4,441.1,513.1z
	 M441,458.7c-6.7-16-12.5-31.7-17.2-46.8c15.4-3.5,31.9-6.3,49-8.4c-5.7,9-11.3,18-16.6,27.3C451,440,445.9,449.3,441,458.7z
	 M453.3,485.9c7.1-14.8,14.8-29.4,23-43.6v0c8.2-14.2,17-28.2,26.2-41.8c16.1-1.2,32.6-1.9,49.3-1.9c16.7,0,33.3,0.6,49.3,1.9
	c9.2,13.6,17.9,27.4,26.1,41.6c8.2,14.2,16,28.7,23.3,43.4c-7.2,14.9-15,29.5-23.2,43.8h0c-8.2,14.2-16.8,28.2-25.9,41.9
	c-16,1.1-32.6,1.7-49.5,1.7c-16.8,0-33.2-0.5-49-1.5c-9.3-13.6-18.1-27.6-26.4-41.9C468.1,515.3,460.5,500.7,453.3,485.9z
	 M647.3,540.9c5.4-9.4,10.7-19,15.7-28.7l0,0c6.9,15.5,12.9,31.4,18.2,47.6c-16.7,3.7-33.5,6.6-50.5,8.6
	C636.4,559.4,641.9,550.2,647.3,540.9L647.3,540.9z M662.8,458.7c-5-9.5-10.2-18.9-15.6-28.1l0,0c-5.3-9.1-10.8-18.2-16.4-27
	c17.3,2.2,33.8,5.1,49.3,8.6C675.1,428,669.3,443.5,662.8,458.7z M552.1,337.9c11.3,12.3,21.9,25.1,31.8,38.4c-21.3-1-42.6-1-63.9,0
	C530.5,362.5,541.2,349.6,552.1,337.9z M427.5,272c18.1-10.5,58.1,4.5,100.3,41.9c2.7,2.4,5.4,4.9,8.1,7.5c-16.6,18-32,37-46.1,57
	c-24.3,2.2-48.4,5.9-72.2,11.2c-1.4-5.5-2.6-11.1-3.7-16.7v0C403.7,321,410.5,281.8,427.5,272z M401.1,555.2
	c-4.5-1.3-8.9-2.7-13.4-4.2c-22.9-7.2-44.3-18.6-63.1-33.5c-10.9-7.5-18.2-19.1-20.2-32.2c0-19.7,29.4-44.8,78.3-61.9
	c6.1-2.1,12.4-4.1,18.6-5.9c7.3,23.3,16.1,46.1,26.4,68.3C417.4,508.4,408.4,531.5,401.1,555.2z M526.3,660.5
	c-17.7,16.2-38.2,29.1-60.5,37.9h0c-11.9,5.7-25.6,6.2-37.9,1.4c-17.1-9.8-24.2-47.8-14.5-98.8c1.2-6,2.5-12,4-18
	c24,5.2,48.4,8.7,72.9,10.6c14.2,20.1,29.7,39.3,46.4,57.4C533.2,654.3,529.8,657.4,526.3,660.5z M552.7,634.4
	c-11-11.8-21.9-24.9-32.5-38.9c10.4,0.4,20.9,0.6,31.6,0.6c11,0,21.9-0.2,32.7-0.7C574.5,608.9,563.9,621.9,552.7,634.4L552.7,634.4
	z M693,666.5c-1,13.2-7.4,25.3-17.7,33.6c-17,9.9-53.5-3-92.8-36.8c-4.5-3.9-9-8-13.6-12.4c16.4-18.1,31.5-37.4,45.3-57.6
	c24.6-2.1,49.1-5.9,73.3-11.3c1.1,4.5,2.1,8.8,2.9,13.1l0,0C695.6,618.6,696.5,642.8,693,666.5L693,666.5z M712.6,551.1L712.6,551.1
	c-3,1-6,1.9-9.1,2.8c-7.6-23.4-16.7-46.3-27.4-68.5c10.3-21.9,19.1-44.5,26.3-67.5c5.5,1.6,10.9,3.3,16.1,5.1
	c50.1,17.2,80.6,42.7,80.6,62.3C799.1,506.3,766.2,533.4,712.6,551.1L712.6,551.1z"/>
<path class="st0" d="M551.8,437c26.7,0,48.3,21.6,48.3,48.3c0,26.7-21.6,48.3-48.3,48.3c-26.7,0-48.3-21.6-48.3-48.3c0,0,0,0,0,0
	C503.5,458.7,525.1,437,551.8,437C551.8,437,551.8,437,551.8,437"/>
</svg>
