<?xml version="1.0" encoding="utf-8"?>
<!-- Generator: Adobe Illustrator 26.0.1, SVG Export Plug-In . SVG Version: 6.00 Build 0)  -->
<svg version="1.1" id="Capa_1" xmlns="http://www.w3.org/2000/svg" xmlns:xlink="http://www.w3.org/1999/xlink" x="0px" y="0px"
	 viewBox="0 0 1080 1080" style="enable-background:new 0 0 1080 1080;" xml:space="preserve">
<style type="text/css">
	.st0{fill:#252626;}
</style>
<path class="st0" d="M773,227H387c-21.5,0-38.9,17.5-38.9,38.9v42.2h19.1h159.7h246.9v343.8c0,0.4-0.4,0.7-0.7,0.7h-65.5v38.2h65.5
	c21.5,0,38.9-17.5,38.9-38.9v-386C811.9,244.5,794.4,227,773,227z M627.9,288.7c-11.8,0-21.3-9.6-21.3-21.3c0-5.2,2-9.7,5.1-13.3
	c3.9-4.7,9.6-8,16.3-8c6.6,0,12.3,3.2,16.3,8c3.1,3.7,5.1,8.3,5.1,13.3C649.3,279.2,639.7,288.7,627.9,288.7z M685.2,288.7
	c-11.8,0-21.3-9.6-21.3-21.3c0-5.2,2.1-9.7,5.1-13.3c3.9-4.7,9.6-8,16.3-8c6.6,0,12.3,3.2,16.3,8c3.1,3.7,5.1,8.3,5.1,13.3
	C706.6,279.2,697,288.7,685.2,288.7z M742.5,288.7c-11.8,0-21.3-9.6-21.3-21.3c0-5.2,2-9.7,5.1-13.3c3.9-4.7,9.6-8,16.3-8
	c6.6,0,12.4,3.2,16.3,8c3.1,3.7,5.1,8.3,5.1,13.3C763.9,279.2,754.3,288.7,742.5,288.7z"/>
<path class="st0" d="M479.8,758v-45.4H289.4v-313c0-8.3,6.7-15.1,15.1-15.1h222.3c8.3,0,15.1,6.7,15.1,15.1v69.8h38.2v-69.8
	c0-29.4-23.9-53.3-53.3-53.3H304.5c-29.5,0.1-53.3,23.9-53.3,53.3v332.1c0,29.4,23.8,53.3,53.3,53.3h183.1
	C483.7,778.7,479.8,770.2,479.8,758z M415.6,771c-6.5,0-12.1-3.1-16-7.7c-3.2-3.7-5.3-8.4-5.3-13.7c0-11.8,9.6-21.3,21.3-21.3
	s21.3,9.6,21.3,21.3c0,5.3-2.1,9.9-5.3,13.7C427.8,767.9,422.1,771,415.6,771z"/>
<path class="st0" d="M656.3,493.4H531c-15.1,0-27.4,12.3-27.4,27.4v237.4c0,15.1,12.3,27.2,27.4,27.2h125.4
	c15.1,0,27.4-12.3,27.4-27.2V520.8C683.6,505.7,671.3,493.4,656.3,493.4z M532.4,522.1h122.5v210.2H532.4V522.1z M579.9,757.3
	c0-7.5,6.1-13.7,13.7-13.7s13.7,6.1,13.7,13.7c0,7.5-6.1,13.7-13.7,13.7C586,771,579.9,764.9,579.9,757.3z"/>
</svg>
