<?xml version="1.0" encoding="utf-8"?>
<!-- Generator: Adobe Illustrator 26.0.1, SVG Export Plug-In . SVG Version: 6.00 Build 0)  -->
<svg version="1.1" id="Capa_1" xmlns="http://www.w3.org/2000/svg" xmlns:xlink="http://www.w3.org/1999/xlink" x="0px" y="0px"
	 viewBox="0 0 1080 250" style="enable-background:new 0 0 1080 250;" xml:space="preserve">
<style type="text/css">
	.st0{fill:#FF00FF;}
	.st1{fill:#FF00F2;}
	.st2{fill:none;stroke:#FFFFFF;stroke-width:5;stroke-miterlimit:10;}
</style>
<g id="Capa_2_00000144326890367389290630000009596265017026350470_">
	<g>
		<g>
			<path class="st0" d="M616.2,192.3c0.7,5,7.4,10.9,11.1,14.3c13,12,29,20.7,46.1,25c6.8,1.8,14,2.7,20.8,1.5
				c7-1.2,13.7-4.9,17.2-11.1c3.5-6.1,3.2-14.6-1.8-19.5c-3.5-3.6-8.7-5-13.6-5c-5,0-9.8,1.2-14.6,2.3
				C661.2,204.3,634.7,201.2,616.2,192.3"/>
			<g>
				<path class="st0" d="M616.7,190.9c-1.7-0.8-2.7,2-1.1,2.8c1.5,0.7,3,1.4,4.6,2.1c13.5,5.4,28.4,7.9,42.8,7.6
					c7.1-0.1,14.2-1.1,21.2-2.6c7.6-1.8,16.7-3.4,23.3,1.8c5.1,4,5.8,11.5,3.4,17.1c-2.7,6.4-9.3,10.2-15.8,11.7
					c-7.8,1.8-15.9,0.3-23.6-1.8c-7.9-2.2-15.6-5.3-22.8-9.4c-7.2-3.9-14-8.8-20-14.4c-2.3-2-4.5-4.1-6.5-6.3
					c-1.9-2.1-3.9-4.6-4.4-7.5c-0.3-1.9-3.2-1.3-2.9,0.6c0.2,1.5,0.8,2.8,1.6,4.1c1.7,2.9,4,5.4,6.4,7.7c2.6,2.6,5.3,5.1,8.1,7.4
					c6.7,5.5,14.1,10.2,21.9,14c7.8,3.7,16.1,6.7,24.6,8.3c7.9,1.5,16.2,1.7,23.7-1.4c6.4-2.7,12.1-8,13.7-15.1
					c1.6-6.9-0.6-14.4-6.7-18.2c-7.4-4.7-16.3-3.2-24.3-1.4c-7.4,1.6-14.8,2.6-22.4,2.5C646.1,200.4,630.5,197.5,616.7,190.9
					L616.7,190.9z"/>
			</g>
		</g>
	</g>
	<g>
		<g>
			<path class="st0" d="M659.8,234.2c-1.7-1-3.4,1.5-1.7,2.5c9.4,5.6,20.2,8.4,31.1,8.3c1.9-0.1,2.1-3.1,0.2-3
				C679,242.2,668.7,239.6,659.8,234.2L659.8,234.2z"/>
		</g>
	</g>
	<g>
		<path class="st0" d="M827.1,83c5.8-5.1,12.4-9.9,19.6-12.7c14.4-5.8,30.8-2.6,45.6,2.4c6.6,2.2,14.6,4.5,19.9,0.1
			c4.5-3.7,4.7-11.1,1.6-16.1s-8.6-8-14.2-10c-16.7-5.7-36.1-2.9-50.1,7.7c-10.1,7.6-16.9,18.7-22.9,29.8"/>
		<g>
			<path class="st0" d="M828.2,84.1c6-5.2,12.6-10,20.1-12.8c6.9-2.6,14.5-3.1,21.8-2.3c7.5,0.7,14.9,2.8,22,5.2
				c5.8,2,12.8,4.2,18.8,1.3c6.1-3.1,7.8-10.6,5.6-16.6c-2.5-6.9-9.3-10.9-15.8-13.3c-13.2-4.7-28.4-4.2-41.3,1.4
				c-6.8,2.9-12.8,7.2-17.8,12.6c-5.3,5.7-9.7,12.2-13.6,18.9c-1,1.6-1.9,3.4-2.8,5c-0.9,1.7,1.8,3.2,2.7,1.4
				c6.9-12.7,15-25.6,28-32.8c11.7-6.6,26-8.3,38.9-5.1c6.4,1.6,13.6,4.4,17.3,10.1c3.3,4.9,3.2,13-2.8,15.9
				c-5.5,2.6-12.3-0.1-17.6-1.8c-6.9-2.2-13.9-4.1-21.1-4.9c-7-0.7-14-0.4-20.8,1.6c-7.2,2.1-13.8,6.2-19.6,10.8
				c-1.5,1.1-2.9,2.3-4.3,3.6C824.6,83.3,826.8,85.3,828.2,84.1L828.2,84.1z"/>
		</g>
	</g>
	<g>
		<g>
			<path class="st0" d="M831.8,66.5c3.2-4.5,7.1-8.8,11.1-12.6c0.6-0.6,0.5-1.6,0-2.2c-0.6-0.5-1.5-0.4-2.2,0
				c-4.1,3.8-7.8,8-11.1,12.6c-0.4,0.6-0.5,1.5,0,2.2C830.3,67,831.4,67.1,831.8,66.5L831.8,66.5z"/>
		</g>
	</g>
	<g>
		<path class="st0" d="M438.5,86.7c18.4-21.8,46.2-35.2,74.7-36.2c6.8-0.2,13.7,0.3,20.4,0.3c8.3,0,17.9-1.5,22.3-8.5
			c3.7-6.1,1.8-14.6-3.3-19.5S540,16,532.9,16.4c-7.1,0.4-14,2.8-20.6,5.4c-13.1,5-26,10.9-37.6,18.8c-11.6,7.9-21.9,18.2-28.4,30.6
			c-2.6,5.2-5.1,9.2-7.2,14.6"/>
		<g>
			<path class="st0" d="M437.6,85.2c-0.6,1.8,2.1,2.9,3.1,1c0.9-2.2,1.8-4.5,3-6.7c2.2-4.4,4.5-8.7,7-12.8c2.5-4,5.4-7.6,8.6-11.1
				c6.6-7.2,14.5-13.2,22.9-18.2c9.3-5.5,19.2-9.9,29.1-13.8c9.1-3.5,18.7-7.1,28.6-5.6c7.9,1.3,15.4,6.3,16.6,14.8
				c0.5,3.8-0.5,7.8-3.3,10.6c-3.1,3.1-7.6,4.4-11.8,5.1c-4.8,0.7-9.7,0.6-14.5,0.4c-5.1,0-10.3-0.3-15.4,0
				c-9.5,0.5-18.9,2.3-27.9,5.4c-17.9,6-34,16.9-46.2,31.3c-1.3,1.5,1.2,3.2,2.4,1.8c1.5-1.8,3.1-3.6,4.9-5.3
				c13.8-13.9,31.6-23.8,50.7-27.9c4.8-1,9.7-1.8,14.7-2.1c5.2-0.3,10.5-0.2,15.8-0.1c9.2,0.2,20.2,1,27.8-5.1
				c6.8-5.5,7-15.1,2.5-22.1c-4.7-7.3-13.9-10.3-22.3-10.1c-5.2,0.1-10.3,1.4-15.3,3c-5.1,1.7-10.3,3.8-15.3,5.9
				c-10.3,4.3-20.5,9.3-29.7,15.7c-8.1,5.5-15.5,12.1-21.5,19.9c-3,3.8-5.4,8-7.7,12.3C442.1,75.9,439.6,80.4,437.6,85.2L437.6,85.2
				z"/>
		</g>
	</g>
	<g>
		<g>
			<path class="st0" d="M501.4,59.4c1.9-0.4,1.5-3.4-0.4-3c-14,2.5-27.2,7.9-39,15.7c-1.6,1,0.3,3.4,1.9,2.3
				C475.2,67,488,61.9,501.4,59.4L501.4,59.4z"/>
		</g>
	</g>
	<g>
		<g>
			<path class="st0" d="M458.3,75c-1.8,0.8-0.6,3.6,1.2,2.7C461.2,77,460,74.3,458.3,75L458.3,75z"/>
		</g>
	</g>
</g>
<g>
	<path class="st1" d="M55,168.2c3.7,0,6.7-0.3,9.1-0.9c2.4-0.6,4.3-1.4,5.8-2.5c1.4-1.1,2.4-2.3,3-3.8c0.6-1.4,0.8-3.1,0.8-4.8
		c0-3.8-1.8-6.9-5.3-9.4c-3.6-2.5-9.7-5.2-18.4-8.1c-3.8-1.3-7.6-2.9-11.4-4.6c-3.8-1.7-7.2-3.9-10.2-6.5c-3-2.6-5.5-5.8-7.4-9.5
		c-1.9-3.7-2.8-8.3-2.8-13.6s1-10.2,3-14.5c2-4.3,4.8-7.9,8.5-10.9c3.7-3,8.1-5.3,13.4-6.9c5.2-1.6,11.1-2.4,17.7-2.4
		c7.8,0,14.5,0.8,20.2,2.5c5.7,1.7,10.4,3.5,14,5.5l-7.5,20.6c-3.2-1.7-6.8-3.1-10.8-4.4c-4-1.3-8.7-1.9-14.3-1.9
		c-6.2,0-10.7,0.9-13.5,2.6c-2.7,1.7-4.1,4.4-4.1,7.9c0,2.1,0.5,3.9,1.5,5.3c1,1.4,2.4,2.8,4.3,3.9c1.8,1.2,4,2.2,6.4,3.2
		c2.4,0.9,5,1.9,7.9,2.9c6,2.2,11.3,4.4,15.7,6.6c4.5,2.2,8.2,4.7,11.1,7.6c3,2.9,5.2,6.3,6.6,10.2c1.4,3.9,2.2,8.6,2.2,14.2
		c0,10.8-3.8,19.2-11.4,25.2c-7.6,6-19,8.9-34.3,8.9c-5.1,0-9.8-0.3-13.9-0.9c-4.1-0.6-7.8-1.4-10.9-2.3s-5.9-1.8-8.2-2.8
		c-2.3-1-4.2-1.9-5.8-2.8l7.4-20.7c3.5,1.9,7.7,3.6,12.8,5.1C41.4,167.4,47.6,168.2,55,168.2z"/>
	<path class="st1" d="M143.9,131.7c2.4-2.7,5-5.4,7.6-8.3c2.6-2.9,5.1-5.7,7.6-8.6s4.8-5.5,6.9-8.1c2.2-2.5,4-4.8,5.6-6.6h29.6
		c-5.9,6.8-11.7,13.3-17.3,19.4c-5.6,6.2-11.8,12.5-18.5,19.1c3.3,3,6.8,6.6,10.4,10.8c3.6,4.2,7,8.5,10.4,13
		c3.3,4.5,6.4,8.9,9.2,13.4c2.8,4.5,5.1,8.5,7,12.2h-28.6c-1.8-2.9-3.8-6.1-6.1-9.6c-2.3-3.5-4.7-7-7.3-10.6
		c-2.6-3.5-5.3-6.9-8.1-10.1c-2.8-3.2-5.6-6-8.4-8.2v38.5H119V62.4l24.9-4V131.7z"/>
	<path class="st1" d="M243,74.7c0,4.6-1.5,8.2-4.4,10.8c-3,2.6-6.4,3.9-10.4,3.9c-4,0-7.5-1.3-10.4-3.9c-3-2.6-4.4-6.2-4.4-10.8
		c0-4.6,1.5-8.2,4.4-10.8c3-2.6,6.4-3.9,10.4-3.9c4,0,7.5,1.3,10.4,3.9C241.5,66.6,243,70.2,243,74.7z M240.7,188.1h-24.9v-87.9
		h24.9V188.1z"/>
	<path class="st1" d="M299.2,189.7c-7.2-0.1-13.1-0.9-17.6-2.3c-4.5-1.4-8.1-3.5-10.7-6.1c-2.6-2.6-4.4-5.8-5.3-9.5
		c-0.9-3.7-1.4-7.9-1.4-12.6V62.4l24.9-4v95.8c0,2.2,0.2,4.2,0.5,6c0.3,1.8,1,3.3,1.9,4.5c0.9,1.2,2.3,2.2,4.1,3
		c1.8,0.8,4.2,1.3,7.2,1.5L299.2,189.7z"/>
	<path class="st1" d="M352,189.7c-7.2-0.1-13.1-0.9-17.6-2.3c-4.5-1.4-8.1-3.5-10.7-6.1c-2.6-2.6-4.4-5.8-5.3-9.5
		c-0.9-3.7-1.4-7.9-1.4-12.6V62.4l24.9-4v95.8c0,2.2,0.2,4.2,0.5,6c0.3,1.8,1,3.3,1.9,4.5c0.9,1.2,2.3,2.2,4.1,3
		c1.8,0.8,4.2,1.3,7.2,1.5L352,189.7z"/>
	<path class="st1" d="M394.9,170.2c4.6,0,7.8-0.4,9.7-1.3c1.9-0.9,2.8-2.6,2.8-5.2c0-2-1.2-3.8-3.7-5.3c-2.5-1.5-6.2-3.2-11.2-5.1
		c-3.9-1.4-7.4-3-10.6-4.5c-3.2-1.6-5.9-3.4-8.1-5.6c-2.2-2.2-4-4.8-5.2-7.8c-1.2-3-1.8-6.6-1.8-10.9c0-8.2,3.1-14.8,9.2-19.6
		c6.1-4.8,14.5-7.2,25.2-7.2c5.3,0,10.5,0.5,15.4,1.4c4.9,0.9,8.8,2,11.7,3.1l-4.3,19.4c-2.9-1-6-1.9-9.4-2.7
		c-3.4-0.8-7.2-1.2-11.4-1.2c-7.8,0-11.7,2.2-11.7,6.5c0,1,0.2,1.9,0.5,2.7c0.3,0.8,1,1.5,2,2.3c1,0.7,2.4,1.5,4.1,2.4
		c1.7,0.8,3.9,1.8,6.6,2.8c5.5,2,10,4,13.5,6c3.6,2,6.4,4.1,8.4,6.4c2.1,2.3,3.5,4.8,4.3,7.6c0.8,2.8,1.3,6,1.3,9.7
		c0,8.7-3.3,15.2-9.8,19.7c-6.5,4.4-15.7,6.7-27.7,6.7c-7.8,0-14.3-0.7-19.5-2c-5.2-1.3-8.8-2.4-10.8-3.3l4.2-20.2
		c4.2,1.7,8.6,3,13,3.9C386.2,169.7,390.6,170.2,394.9,170.2z"/>
	<path class="st1" d="M485,157.3c0-4.2,0.6-8.1,1.8-11.6c1.2-3.5,2.9-6.7,4.9-9.5c2.1-2.8,4.4-5.3,7.2-7.5c2.7-2.2,5.6-4.1,8.6-5.8
		c-2.6-3.3-5-6.8-7.1-10.5c-2.1-3.7-3.2-7.8-3.2-12.3c0-9.8,3-17.4,8.9-22.6c5.9-5.3,14-7.9,24.4-7.9c5.2,0,9.8,0.7,13.7,2.1
		c3.9,1.4,7.2,3.3,9.8,5.7c2.6,2.4,4.6,5.2,5.9,8.4c1.3,3.2,2,6.6,2,10.3c0,6.8-1.9,12.8-5.8,18.1c-3.8,5.3-8.7,9.7-14.6,13.3
		l18.8,18.6c1-2.2,1.9-5,2.9-8.4s1.5-6.4,1.7-8.9l20.7,2.7c-0.2,2.1-0.6,4.4-1.2,6.9c-0.6,2.5-1.3,5-2.1,7.6
		c-0.8,2.6-1.8,5.1-2.8,7.7c-1.1,2.6-2.2,4.9-3.4,7c3.6,4,7.1,8.4,10.5,13.1c3.4,4.7,6.3,9.5,8.8,14.3h-25.5
		c-0.9-1.5-2.2-3.3-3.7-5.5c-1.6-2.2-3.1-4-4.7-5.6c-4.5,3.6-9.6,6.6-15.6,9c-5.9,2.4-12.5,3.6-19.9,3.6c-7.8,0-14.3-1-19.6-2.9
		c-5.2-1.9-9.4-4.5-12.6-7.5c-3.2-3.1-5.4-6.5-6.8-10.4C485.7,164.9,485,161.1,485,157.3z M508.2,154.8c0,1.7,0.3,3.4,1,5.2
		c0.7,1.8,1.8,3.4,3.3,4.9c1.5,1.5,3.4,2.7,5.8,3.7s5.2,1.4,8.5,1.4c4.7,0,8.8-0.6,12.3-1.9c3.5-1.2,6.5-2.9,8.8-4.9L521,136.5
		c-1.6,0.8-3.1,1.7-4.6,2.8c-1.5,1.1-2.9,2.4-4.1,3.9c-1.2,1.5-2.2,3.2-3,5.1C508.6,150.2,508.2,152.4,508.2,154.8z M540.7,97.2
		c0-2.6-0.8-4.9-2.5-6.9c-1.7-2-4.5-3-8.4-3c-3.6,0-6.3,1.1-8.3,3.3c-2,2.2-2.9,5-2.9,8.4c0,2.9,0.8,5.7,2.5,8.4
		c1.7,2.7,3.8,5.3,6.5,7.8c3.6-2,6.7-4.4,9.2-7.2C539.4,105.3,540.7,101.6,540.7,97.2z"/>
	<path class="st1" d="M736.4,72.2v22.2h-34.9v93.6h-26.1V94.5h-34.9V72.2H736.4z"/>
	<path class="st1" d="M821.1,143.9c0,6.9-1,13.2-3,19c-2,5.7-4.9,10.6-8.7,14.7c-3.8,4.1-8.3,7.2-13.6,9.4
		c-5.3,2.2-11.2,3.3-17.8,3.3c-6.5,0-12.3-1.1-17.6-3.3c-5.3-2.2-9.8-5.4-13.6-9.4c-3.8-4.1-6.7-9-8.9-14.7
		c-2.1-5.7-3.2-12.1-3.2-19c0-6.9,1.1-13.2,3.3-18.9c2.2-5.7,5.2-10.5,9-14.5c3.8-4,8.4-7.1,13.7-9.4c5.3-2.2,11.1-3.3,17.3-3.3
		c6.4,0,12.2,1.1,17.5,3.3c5.3,2.2,9.8,5.3,13.6,9.4c3.8,4,6.7,8.9,8.9,14.5C820.1,130.7,821.1,137,821.1,143.9z M795.7,143.9
		c0-7.7-1.5-13.7-4.6-18.1c-3.1-4.4-7.4-6.6-13.1-6.6c-5.7,0-10.1,2.2-13.2,6.6c-3.1,4.4-4.7,10.4-4.7,18.1c0,7.7,1.6,13.8,4.7,18.3
		c3.1,4.5,7.5,6.8,13.2,6.8c5.7,0,10.1-2.3,13.1-6.8C794.2,157.7,795.7,151.6,795.7,143.9z"/>
	<path class="st1" d="M922.6,143.9c0,6.9-1,13.2-3,19c-2,5.7-4.9,10.6-8.7,14.7c-3.8,4.1-8.3,7.2-13.6,9.4
		c-5.3,2.2-11.2,3.3-17.8,3.3c-6.5,0-12.3-1.1-17.6-3.3c-5.3-2.2-9.8-5.4-13.6-9.4c-3.8-4.1-6.7-9-8.9-14.7
		c-2.1-5.7-3.2-12.1-3.2-19c0-6.9,1.1-13.2,3.3-18.9c2.2-5.7,5.2-10.5,9-14.5c3.8-4,8.4-7.1,13.7-9.4c5.3-2.2,11.1-3.3,17.3-3.3
		c6.4,0,12.2,1.1,17.5,3.3c5.3,2.2,9.8,5.3,13.6,9.4c3.8,4,6.7,8.9,8.9,14.5C921.5,130.7,922.6,137,922.6,143.9z M897.2,143.9
		c0-7.7-1.5-13.7-4.6-18.1c-3.1-4.4-7.4-6.6-13.1-6.6c-5.7,0-10.1,2.2-13.2,6.6c-3.1,4.4-4.7,10.4-4.7,18.1c0,7.7,1.6,13.8,4.7,18.3
		c3.1,4.5,7.5,6.8,13.2,6.8c5.7,0,10.1-2.3,13.1-6.8C895.7,157.7,897.2,151.6,897.2,143.9z"/>
	<path class="st1" d="M976.9,189.7c-7.2-0.1-13.1-0.9-17.6-2.3c-4.5-1.4-8.1-3.5-10.7-6.1c-2.6-2.6-4.4-5.8-5.3-9.5
		c-0.9-3.7-1.4-7.9-1.4-12.6V62.4l24.9-4v95.8c0,2.2,0.2,4.2,0.5,6c0.3,1.8,1,3.3,1.9,4.5c0.9,1.2,2.3,2.2,4.1,3
		c1.8,0.8,4.2,1.3,7.2,1.5L976.9,189.7z"/>
	<path class="st1" d="M1019.9,170.2c4.6,0,7.8-0.4,9.7-1.3c1.9-0.9,2.8-2.6,2.8-5.2c0-2-1.2-3.8-3.7-5.3c-2.5-1.5-6.2-3.2-11.2-5.1
		c-3.9-1.4-7.4-3-10.6-4.5c-3.2-1.6-5.9-3.4-8.1-5.6c-2.2-2.2-4-4.8-5.2-7.8c-1.2-3-1.8-6.6-1.8-10.9c0-8.2,3.1-14.8,9.2-19.6
		c6.1-4.8,14.5-7.2,25.2-7.2c5.3,0,10.5,0.5,15.4,1.4c4.9,0.9,8.8,2,11.7,3.1l-4.3,19.4c-2.9-1-6-1.9-9.4-2.7
		c-3.4-0.8-7.2-1.2-11.5-1.2c-7.8,0-11.7,2.2-11.7,6.5c0,1,0.2,1.9,0.5,2.7c0.3,0.8,1,1.5,2,2.3c1,0.7,2.4,1.5,4.1,2.4
		c1.7,0.8,3.9,1.8,6.6,2.8c5.5,2,10,4,13.5,6c3.6,2,6.4,4.1,8.4,6.4c2.1,2.3,3.5,4.8,4.3,7.6c0.8,2.8,1.3,6,1.3,9.7
		c0,8.7-3.3,15.2-9.8,19.7c-6.5,4.4-15.7,6.7-27.7,6.7c-7.8,0-14.3-0.7-19.5-2c-5.2-1.3-8.8-2.4-10.8-3.3l4.2-20.2
		c4.2,1.7,8.6,3,13,3.9C1011.1,169.7,1015.5,170.2,1019.9,170.2z"/>
</g>
<g>
	<path class="st2" d="M63.8,168.9c3.7,0,6.7-0.3,9.1-0.9c2.4-0.6,4.3-1.4,5.8-2.5c1.4-1.1,2.4-2.3,3-3.8c0.6-1.4,0.8-3.1,0.8-4.8
		c0-3.8-1.8-6.9-5.3-9.4c-3.6-2.5-9.7-5.2-18.4-8.1c-3.8-1.3-7.6-2.9-11.4-4.6c-3.8-1.7-7.2-3.9-10.2-6.5c-3-2.6-5.5-5.8-7.4-9.5
		c-1.9-3.7-2.8-8.3-2.8-13.6s1-10.2,3-14.5c2-4.3,4.8-7.9,8.5-10.9c3.7-3,8.1-5.3,13.4-6.9c5.2-1.6,11.1-2.4,17.7-2.4
		c7.8,0,14.5,0.8,20.2,2.5c5.7,1.7,10.4,3.5,14,5.5l-7.5,20.6c-3.2-1.7-6.8-3.1-10.8-4.4c-4-1.3-8.7-1.9-14.3-1.9
		c-6.2,0-10.7,0.9-13.5,2.6c-2.7,1.7-4.1,4.4-4.1,7.9c0,2.1,0.5,3.9,1.5,5.3c1,1.4,2.4,2.8,4.3,3.9c1.8,1.2,4,2.2,6.4,3.2
		c2.4,0.9,5,1.9,7.9,2.9c6,2.2,11.3,4.4,15.7,6.6c4.5,2.2,8.2,4.7,11.1,7.6c3,2.9,5.2,6.3,6.6,10.2c1.4,3.9,2.2,8.6,2.2,14.2
		c0,10.8-3.8,19.2-11.4,25.2c-7.6,6-19,8.9-34.3,8.9c-5.1,0-9.8-0.3-13.9-0.9c-4.1-0.6-7.8-1.4-10.9-2.3s-5.9-1.8-8.2-2.8
		c-2.3-1-4.2-1.9-5.8-2.8l7.4-20.7c3.5,1.9,7.7,3.6,12.8,5.1C50.2,168.1,56.4,168.9,63.8,168.9z"/>
	<path class="st2" d="M152.7,132.4c2.4-2.7,5-5.4,7.6-8.3c2.6-2.9,5.1-5.7,7.6-8.6s4.8-5.5,6.9-8.1c2.2-2.5,4-4.8,5.6-6.6H210
		c-5.9,6.8-11.7,13.3-17.3,19.4c-5.6,6.2-11.8,12.5-18.5,19.1c3.3,3,6.8,6.6,10.4,10.8c3.6,4.2,7,8.5,10.4,13
		c3.3,4.5,6.4,8.9,9.2,13.4c2.8,4.5,5.1,8.5,7,12.2h-28.6c-1.8-2.9-3.8-6.1-6.1-9.6c-2.3-3.5-4.7-7-7.3-10.6
		c-2.6-3.5-5.3-6.9-8.1-10.1c-2.8-3.2-5.6-6-8.4-8.2v38.5h-24.9V63.1l24.9-4V132.4z"/>
	<path class="st2" d="M251.8,75.5c0,4.6-1.5,8.2-4.4,10.8c-3,2.6-6.4,3.9-10.4,3.9c-4,0-7.5-1.3-10.4-3.9c-3-2.6-4.4-6.2-4.4-10.8
		c0-4.6,1.5-8.2,4.4-10.8c3-2.6,6.4-3.9,10.4-3.9c4,0,7.5,1.3,10.4,3.9C250.3,67.3,251.8,70.9,251.8,75.5z M249.5,188.8h-24.9v-87.9
		h24.9V188.8z"/>
	<path class="st2" d="M308,190.4c-7.2-0.1-13.1-0.9-17.6-2.3c-4.5-1.4-8.1-3.5-10.7-6.1c-2.6-2.6-4.4-5.8-5.3-9.5
		c-0.9-3.7-1.4-7.9-1.4-12.6V63.1l24.9-4v95.8c0,2.2,0.2,4.2,0.5,6c0.3,1.8,1,3.3,1.9,4.5c0.9,1.2,2.3,2.2,4.1,3
		c1.8,0.8,4.2,1.3,7.2,1.5L308,190.4z"/>
	<path class="st2" d="M360.8,190.4c-7.2-0.1-13.1-0.9-17.6-2.3c-4.5-1.4-8.1-3.5-10.7-6.1c-2.6-2.6-4.4-5.8-5.3-9.5
		c-0.9-3.7-1.4-7.9-1.4-12.6V63.1l24.9-4v95.8c0,2.2,0.2,4.2,0.5,6c0.3,1.8,1,3.3,1.9,4.5c0.9,1.2,2.3,2.2,4.1,3
		c1.8,0.8,4.2,1.3,7.2,1.5L360.8,190.4z"/>
	<path class="st2" d="M403.7,170.9c4.6,0,7.8-0.4,9.7-1.3c1.9-0.9,2.8-2.6,2.8-5.2c0-2-1.2-3.8-3.7-5.3c-2.5-1.5-6.2-3.2-11.2-5.1
		c-3.9-1.4-7.4-3-10.6-4.5s-5.9-3.4-8.1-5.6c-2.2-2.2-4-4.8-5.2-7.8c-1.2-3-1.8-6.6-1.8-10.9c0-8.2,3.1-14.8,9.2-19.6
		c6.1-4.8,14.5-7.2,25.2-7.2c5.3,0,10.5,0.5,15.4,1.4c4.9,0.9,8.8,2,11.7,3.1l-4.3,19.4c-2.9-1-6-1.9-9.4-2.7
		c-3.4-0.8-7.2-1.2-11.4-1.2c-7.8,0-11.7,2.2-11.7,6.5c0,1,0.2,1.9,0.5,2.7c0.3,0.8,1,1.5,2,2.3c1,0.7,2.4,1.5,4.1,2.3
		c1.7,0.8,3.9,1.8,6.6,2.8c5.5,2,10,4,13.5,6c3.6,2,6.4,4.1,8.4,6.4c2.1,2.3,3.5,4.8,4.3,7.6c0.8,2.8,1.3,6,1.3,9.7
		c0,8.7-3.3,15.2-9.8,19.7c-6.5,4.4-15.7,6.7-27.7,6.7c-7.8,0-14.3-0.7-19.5-2c-5.2-1.3-8.8-2.4-10.8-3.3l4.2-20.2
		c4.2,1.7,8.6,3,13,3.9C395,170.4,399.4,170.9,403.7,170.9z"/>
	<path class="st2" d="M493.8,158c0-4.2,0.6-8.1,1.8-11.6c1.2-3.5,2.9-6.7,4.9-9.5c2.1-2.8,4.4-5.3,7.2-7.5c2.7-2.2,5.6-4.1,8.6-5.8
		c-2.6-3.3-5-6.8-7.1-10.5c-2.1-3.7-3.2-7.8-3.2-12.3c0-9.8,3-17.4,8.9-22.6c5.9-5.3,14-7.9,24.4-7.9c5.2,0,9.8,0.7,13.7,2.1
		c3.9,1.4,7.2,3.3,9.8,5.7c2.6,2.4,4.6,5.2,5.9,8.4c1.3,3.2,2,6.6,2,10.3c0,6.8-1.9,12.8-5.8,18.1c-3.8,5.3-8.7,9.7-14.6,13.3
		l18.8,18.6c1-2.2,1.9-5,2.9-8.4s1.5-6.4,1.7-8.9l20.7,2.7c-0.2,2.1-0.6,4.4-1.2,6.9c-0.6,2.5-1.3,5-2.1,7.6
		c-0.8,2.6-1.8,5.1-2.8,7.7c-1.1,2.6-2.2,4.9-3.4,7c3.6,4,7.1,8.4,10.5,13.1c3.4,4.7,6.3,9.5,8.8,14.3h-25.5
		c-0.9-1.5-2.2-3.3-3.7-5.5c-1.6-2.2-3.1-4-4.7-5.6c-4.5,3.6-9.6,6.6-15.6,9c-5.9,2.4-12.5,3.6-19.9,3.6c-7.8,0-14.3-1-19.6-2.9
		c-5.2-1.9-9.4-4.5-12.6-7.5c-3.2-3.1-5.4-6.5-6.8-10.4C494.5,165.6,493.8,161.8,493.8,158z M517.1,155.5c0,1.7,0.3,3.4,1,5.2
		c0.7,1.8,1.8,3.4,3.3,4.9c1.5,1.5,3.4,2.7,5.8,3.7s5.2,1.4,8.5,1.4c4.7,0,8.8-0.6,12.3-1.9c3.5-1.2,6.5-2.9,8.8-4.9l-26.9-26.7
		c-1.6,0.8-3.1,1.7-4.6,2.8c-1.5,1.1-2.9,2.4-4.1,3.9c-1.2,1.5-2.2,3.2-3,5.1C517.4,150.9,517.1,153.1,517.1,155.5z M549.5,97.9
		c0-2.6-0.8-4.9-2.5-6.9c-1.7-2-4.5-3-8.4-3c-3.6,0-6.3,1.1-8.3,3.3c-2,2.2-2.9,5-2.9,8.4c0,2.9,0.8,5.7,2.5,8.4
		c1.7,2.7,3.8,5.3,6.5,7.8c3.6-2,6.7-4.4,9.2-7.2C548.2,106,549.5,102.3,549.5,97.9z"/>
	<path class="st2" d="M745.2,72.9v22.2h-34.9v93.6h-26.1V95.2h-34.9V72.9H745.2z"/>
	<path class="st2" d="M829.9,144.6c0,6.9-1,13.2-3,19c-2,5.7-4.9,10.6-8.7,14.7c-3.8,4.1-8.3,7.2-13.6,9.4
		c-5.3,2.2-11.2,3.3-17.8,3.3c-6.5,0-12.3-1.1-17.6-3.3c-5.3-2.2-9.8-5.4-13.6-9.4c-3.8-4.1-6.7-9-8.9-14.7
		c-2.1-5.7-3.2-12.1-3.2-19c0-6.9,1.1-13.2,3.3-18.9c2.2-5.7,5.2-10.5,9-14.5s8.4-7.1,13.7-9.4c5.3-2.2,11.1-3.3,17.3-3.3
		c6.4,0,12.2,1.1,17.5,3.3c5.3,2.2,9.8,5.3,13.6,9.4c3.8,4,6.7,8.9,8.9,14.5C828.9,131.4,829.9,137.7,829.9,144.6z M804.5,144.6
		c0-7.7-1.5-13.7-4.6-18.1c-3.1-4.4-7.4-6.6-13.1-6.6c-5.7,0-10.1,2.2-13.2,6.6c-3.1,4.4-4.7,10.4-4.7,18.1s1.6,13.8,4.7,18.3
		c3.1,4.5,7.5,6.8,13.2,6.8c5.7,0,10.1-2.3,13.1-6.8C803,158.4,804.5,152.3,804.5,144.6z"/>
	<path class="st2" d="M931.4,144.6c0,6.9-1,13.2-3,19c-2,5.7-4.9,10.6-8.7,14.7c-3.8,4.1-8.3,7.2-13.6,9.4
		c-5.3,2.2-11.2,3.3-17.8,3.3c-6.5,0-12.3-1.1-17.6-3.3c-5.3-2.2-9.8-5.4-13.6-9.4c-3.8-4.1-6.7-9-8.9-14.7
		c-2.1-5.7-3.2-12.1-3.2-19c0-6.9,1.1-13.2,3.3-18.9c2.2-5.7,5.2-10.5,9-14.5s8.4-7.1,13.7-9.4c5.3-2.2,11.1-3.3,17.3-3.3
		c6.4,0,12.2,1.1,17.5,3.3c5.3,2.2,9.8,5.3,13.6,9.4c3.8,4,6.7,8.9,8.9,14.5C930.3,131.4,931.4,137.7,931.4,144.6z M906,144.6
		c0-7.7-1.5-13.7-4.6-18.1c-3.1-4.4-7.4-6.6-13.1-6.6c-5.7,0-10.1,2.2-13.2,6.6c-3.1,4.4-4.7,10.4-4.7,18.1s1.6,13.8,4.7,18.3
		c3.1,4.5,7.5,6.8,13.2,6.8c5.7,0,10.1-2.3,13.1-6.8C904.5,158.4,906,152.3,906,144.6z"/>
	<path class="st2" d="M985.7,190.4c-7.2-0.1-13.1-0.9-17.6-2.3c-4.5-1.4-8.1-3.5-10.7-6.1c-2.6-2.6-4.4-5.8-5.3-9.5
		c-0.9-3.7-1.4-7.9-1.4-12.6V63.1l24.9-4v95.8c0,2.2,0.2,4.2,0.5,6c0.3,1.8,1,3.3,1.9,4.5c0.9,1.2,2.3,2.2,4.1,3
		c1.8,0.8,4.2,1.3,7.2,1.5L985.7,190.4z"/>
	<path class="st2" d="M1028.7,170.9c4.6,0,7.8-0.4,9.7-1.3c1.9-0.9,2.8-2.6,2.8-5.2c0-2-1.2-3.8-3.7-5.3c-2.5-1.5-6.2-3.2-11.2-5.1
		c-3.9-1.4-7.4-3-10.6-4.5s-5.9-3.4-8.1-5.6c-2.2-2.2-4-4.8-5.2-7.8c-1.2-3-1.8-6.6-1.8-10.9c0-8.2,3.1-14.8,9.2-19.6
		c6.1-4.8,14.5-7.2,25.2-7.2c5.3,0,10.5,0.5,15.4,1.4c4.9,0.9,8.8,2,11.7,3.1l-4.3,19.4c-2.9-1-6-1.9-9.4-2.7
		c-3.4-0.8-7.2-1.2-11.4-1.2c-7.8,0-11.7,2.2-11.7,6.5c0,1,0.2,1.9,0.5,2.7s1,1.5,2,2.3c1,0.7,2.4,1.5,4.1,2.3
		c1.7,0.8,3.9,1.8,6.6,2.8c5.5,2,10,4,13.5,6c3.6,2,6.4,4.1,8.4,6.4c2.1,2.3,3.5,4.8,4.3,7.6c0.8,2.8,1.3,6,1.3,9.7
		c0,8.7-3.3,15.2-9.8,19.7c-6.5,4.4-15.7,6.7-27.7,6.7c-7.8,0-14.3-0.7-19.5-2s-8.8-2.4-10.8-3.3l4.2-20.2c4.2,1.7,8.6,3,13,3.9
		C1019.9,170.4,1024.3,170.9,1028.7,170.9z"/>
</g>
</svg>
