<?xml version="1.0" encoding="utf-8"?>
<!-- Generator: Adobe Illustrator 26.0.1, SVG Export Plug-In . SVG Version: 6.00 Build 0)  -->
<svg version="1.1" id="Capa_1" xmlns="http://www.w3.org/2000/svg" xmlns:xlink="http://www.w3.org/1999/xlink" x="0px" y="0px"
	 viewBox="0 0 1080 1080" style="enable-background:new 0 0 1080 1080;" xml:space="preserve">
<style type="text/css">
	.st0{fill-rule:evenodd;clip-rule:evenodd;fill:#FFFFFF;filter:url(#Adobe_OpacityMaskFilter);}
	.st1{mask:url(#mask0_00000082327903368280020220000013220765287411846574_);}
	.st2{fill:#0065A9;}
	.st3{fill:#007ACC;}
	.st4{fill:#1F9CF0;}
	.st5{opacity:0.25;}
	.st6{fill-rule:evenodd;clip-rule:evenodd;fill:url(#SVGID_1_);}
</style>
<defs>
	<filter id="Adobe_OpacityMaskFilter" filterUnits="userSpaceOnUse" x="251.7" y="227" width="561.3" height="558">
		<feColorMatrix  type="matrix" values="1 0 0 0 0  0 1 0 0 0  0 0 1 0 0  0 0 0 1 0"/>
	</filter>
</defs>
<mask maskUnits="userSpaceOnUse" x="251.7" y="227" width="561.3" height="558" id="mask0_00000082327903368280020220000013220765287411846574_">
	<path class="st0" d="M649.9,782.7c8.8,3.4,18.9,3.2,27.8-1.1L793.2,726c12.1-5.8,19.9-18.1,19.9-31.6V317.6
		c0-13.5-7.7-25.8-19.9-31.6l-115.5-55.6c-11.7-5.6-25.4-4.3-35.7,3.2c-1.5,1.1-2.9,2.3-4.2,3.6L416.8,438.9l-96.3-73.1
		c-9-6.8-21.5-6.2-29.8,1.3l-30.9,28.1c-10.2,9.3-10.2,25.3,0,34.6l83.5,76.2l-83.5,76.2c-10.2,9.3-10.2,25.3,0,34.6l30.9,28.1
		c8.3,7.6,20.9,8.1,29.8,1.3l96.3-73.1l221.1,201.7C641.3,778.3,645.4,780.9,649.9,782.7z M672.9,378.7L505.1,506l167.8,127.3V378.7
		z"/>
</mask>
<g class="st1">
	<path class="st2" d="M793.2,286.1l-115.6-55.6c-13.4-6.4-29.4-3.7-39.9,6.8l-378.4,345c-10.2,9.3-10.2,25.3,0,34.6l30.9,28.1
		c8.3,7.6,20.9,8.1,29.8,1.3l455.6-345.7C791.1,289,813,299.9,813,319v-1.3C813,304.2,805.3,292,793.2,286.1z"/>
	<g>
		<path class="st3" d="M793.2,725.9l-115.6,55.6c-13.4,6.4-29.4,3.7-39.9-6.8l-378.4-345c-10.2-9.3-10.2-25.3,0-34.6l30.9-28.1
			c8.3-7.6,20.9-8.1,29.8-1.3l455.6,345.7c15.3,11.6,37.2,0.7,37.2-18.5v1.3C813,707.8,805.3,720.1,793.2,725.9z"/>
	</g>
	<g>
		<path class="st4" d="M677.6,781.6c-13.4,6.4-29.4,3.7-39.9-6.8c12.9,12.9,35.1,3.8,35.1-14.5V251.8c0-18.3-22.1-27.5-35.1-14.5
			c10.5-10.5,26.5-13.2,39.9-6.8L793.2,286c12.1,5.8,19.9,18.1,19.9,31.6v376.8c0,13.5-7.7,25.8-19.9,31.6L677.6,781.6z"/>
	</g>
	<g class="st5">
		
			<linearGradient id="SVGID_1_" gradientUnits="userSpaceOnUse" x1="532.2144" y1="852.9998" x2="532.2144" y2="294.9544" gradientTransform="matrix(1 0 0 -1 0 1080)">
			<stop  offset="0" style="stop-color:#FFFFFF"/>
			<stop  offset="1" style="stop-color:#FFFFFF;stop-opacity:0"/>
		</linearGradient>
		<path class="st6" d="M649.5,782.7c8.8,3.4,18.9,3.2,27.8-1.1L792.8,726c12.1-5.8,19.9-18.1,19.9-31.6V317.6
			c0-13.5-7.7-25.8-19.9-31.6l-115.5-55.6c-11.7-5.6-25.4-4.3-35.7,3.2c-1.5,1.1-2.9,2.3-4.2,3.6L416.4,438.9l-96.3-73.1
			c-9-6.8-21.5-6.2-29.8,1.3l-30.9,28.1c-10.2,9.3-10.2,25.3,0,34.6l83.5,76.2l-83.5,76.2c-10.2,9.3-10.2,25.3,0,34.6l30.9,28.1
			c8.3,7.6,20.9,8.1,29.8,1.3l96.3-73.1l221.1,201.7C641,778.3,645.1,780.9,649.5,782.7z M672.5,378.7L504.8,506l167.8,127.3V378.7z
			"/>
	</g>
</g>
</svg>
